<?xml version="1.0" encoding="UTF-8"?>
<svg width="74px" height="83px" viewBox="0 0 74 83" version="1.1" xmlns="http://www.w3.org/2000/svg" xmlns:xlink="http://www.w3.org/1999/xlink">
    <!-- Generator: Sketch 51.2 (57519) - http://www.bohemiancoding.com/sketch -->
    <title>ajolote</title>
    <desc>Created with Sketch.</desc>
    <defs></defs>
    <g id="Page-1" stroke="none" stroke-width="1" fill="none" fill-rule="evenodd">
        <g id="Prowell" transform="translate(-365.000000, -4874.000000)">
            <g id="7" transform="translate(0.000000, 4800.000000)">
                <g id="ajolote" transform="translate(365.000000, 74.000000)">
                    <polygon id="Fill-1" fill="#B7A29E" points="62.1689497 48.3523228 64.4705465 48.3523228 64.4705465 46.0507259 62.1689497 46.0507259"></polygon>
                    <polygon id="Fill-2" fill="#B7A29E" points="62.1689497 41.4451836 64.4705465 41.4451836 64.4705465 39.1435867 62.1689497 39.1435867"></polygon>
                    <polygon id="Fill-3" fill="#B7A29E" points="59.8650042 43.749129 62.1689497 43.749129 62.1689497 41.4451836 59.8650042 41.4451836"></polygon>
                    <polygon id="Fill-4" fill="#B7A29E" points="59.8650042 36.8396413 62.1689497 36.8396413 62.1689497 34.5380444 59.8650042 34.5380444"></polygon>
                    <polygon id="Fill-5" fill="#B7A29E" points="57.5631725 32.2364476 59.8650042 32.2364476 59.8650042 29.9325021 57.5631725 29.9325021"></polygon>
                    <polygon id="Fill-6" fill="#B7A29E" points="52.9578651 64.4705465 55.2594619 64.4705465 55.2594619 62.1689497 52.9578651 62.1689497"></polygon>
                    <polygon id="Fill-7" fill="#B7A29E" points="52.9578651 29.9325021 55.2594619 29.9325021 55.2594619 27.6309053 52.9578651 27.6309053"></polygon>
                    <polygon id="Fill-8" fill="#B7A29E" points="50.6562682 82.8903672 52.9578651 82.8903672 52.9578651 80.5887703 50.6562682 80.5887703"></polygon>
                    <polygon id="Fill-9" fill="#B7A29E" points="50.6562682 80.5887703 52.9578651 80.5887703 52.9578651 78.2871735 50.6562682 78.2871735"></polygon>
                    <polygon id="Fill-10" fill="#B7A29E" points="48.3520879 80.5887703 50.6562682 80.5887703 50.6562682 78.2871735 48.3520879 78.2871735"></polygon>
                    <polygon id="Fill-11" fill="#B7A29E" points="48.3520879 78.2871735 50.6562682 78.2871735 50.6562682 75.983228 48.3520879 75.983228"></polygon>
                    <polygon id="Fill-12" fill="#B7A29E" points="48.3520879 62.1689497 50.6562682 62.1689497 50.6562682 59.8647694 48.3520879 59.8647694"></polygon>
                    <polygon id="Fill-13" fill="#B7A29E" points="48.3520879 25.3269598 50.6562682 25.3269598 50.6562682 23.0253629 48.3520879 23.0253629"></polygon>
                    <polygon id="Fill-14" fill="#B7A29E" points="46.0507259 78.2871735 48.3523228 78.2871735 48.3523228 75.983228 46.0507259 75.983228"></polygon>
                    <polygon id="Fill-15" fill="#B7A29E" points="46.0507259 75.983228 48.3523228 75.983228 48.3523228 73.6813963 46.0507259 73.6813963"></polygon>
                    <polygon id="Fill-16" fill="#B7A29E" points="46.0507259 66.774492 48.3523228 66.774492 48.3523228 64.4703117 46.0507259 64.4703117"></polygon>
                    <polygon id="Fill-17" fill="#B7A29E" points="46.0507259 59.8650042 48.3523228 59.8650042 48.3523228 57.5634074 46.0507259 57.5634074"></polygon>
                    <polygon id="Fill-18" fill="#B7A29E" points="46.0507259 57.5634074 48.3523228 57.5634074 48.3523228 55.2618105 46.0507259 55.2618105"></polygon>
                    <polygon id="Fill-19" fill="#B7A29E" points="46.0507259 32.2364476 48.3523228 32.2364476 48.3523228 29.9325021 46.0507259 29.9325021"></polygon>
                    <polygon id="Fill-20" fill="#F3DDD9" points="43.7465456 78.2871735 46.0507259 78.2871735 46.0507259 75.983228 43.7465456 75.983228"></polygon>
                    <polygon id="Fill-21" fill="#F3DDD9" points="43.7465456 73.6816312 46.0507259 73.6816312 46.0507259 71.3776857 43.7465456 71.3776857"></polygon>
                    <polygon id="Fill-22" fill="#F3DDD9" points="43.7465456 71.3776857 46.0507259 71.3776857 46.0507259 69.0760888 43.7465456 69.0760888"></polygon>
                    <polygon id="Fill-23" fill="#F3DDD9" points="43.7465456 66.774492 46.0507259 66.774492 46.0507259 64.4703117 43.7465456 64.4703117"></polygon>
                    <polygon id="Fill-24" fill="#F3DDD9" points="43.7465456 64.4705465 46.0507259 64.4705465 46.0507259 62.1689497 43.7465456 62.1689497"></polygon>
                    <polygon id="Fill-25" fill="#F3DDD9" points="43.7465456 59.8650042 46.0507259 59.8650042 46.0507259 57.5634074 43.7465456 57.5634074"></polygon>
                    <polygon id="Fill-26" fill="#F3DDD9" points="41.4451836 78.2871735 43.7467805 78.2871735 43.7467805 75.983228 41.4451836 75.983228"></polygon>
                    <polygon id="Fill-27" fill="#F3DDD9" points="41.4451836 75.983228 43.7467805 75.983228 43.7467805 73.6813963 41.4451836 73.6813963"></polygon>
                    <polygon id="Fill-28" fill="#F3DDD9" points="41.4451836 73.6816312 43.7467805 73.6816312 43.7467805 71.3776857 41.4451836 71.3776857"></polygon>
                    <polygon id="Fill-29" fill="#F3DDD9" points="41.4451836 69.0760888 43.7467805 69.0760888 43.7467805 66.774492 41.4451836 66.774492"></polygon>
                    <polygon id="Fill-30" fill="#F3DDD9" points="41.4451836 66.774492 43.7467805 66.774492 43.7467805 64.4703117 41.4451836 64.4703117"></polygon>
                    <polygon id="Fill-31" fill="#F3DDD9" points="41.4451836 64.4705465 43.7467805 64.4705465 43.7467805 62.1689497 41.4451836 62.1689497"></polygon>
                    <polygon id="Fill-32" fill="#F3DDD9" points="41.4451836 62.1689497 43.7467805 62.1689497 43.7467805 59.8647694 41.4451836 59.8647694"></polygon>
                    <polygon id="Fill-33" fill="#F3DDD9" points="41.4451836 59.8650042 43.7467805 59.8650042 43.7467805 57.5634074 41.4451836 57.5634074"></polygon>
                    <polygon id="Fill-34" fill="#F3DDD9" points="39.1435867 78.2871735 41.4451836 78.2871735 41.4451836 75.983228 39.1435867 75.983228"></polygon>
                    <polygon id="Fill-35" fill="#F3DDD9" points="39.1435867 73.6816312 41.4451836 73.6816312 41.4451836 71.3776857 39.1435867 71.3776857"></polygon>
                    <polygon id="Fill-36" fill="#F3DDD9" points="39.1435867 71.3776857 41.4451836 71.3776857 41.4451836 69.0760888 39.1435867 69.0760888"></polygon>
                    <polygon id="Fill-37" fill="#F3DDD9" points="39.1435867 69.0760888 41.4451836 69.0760888 41.4451836 66.774492 39.1435867 66.774492"></polygon>
                    <polygon id="Fill-38" fill="#F3DDD9" points="39.1435867 66.774492 41.4451836 66.774492 41.4451836 64.4703117 39.1435867 64.4703117"></polygon>
                    <polygon id="Fill-39" fill="#F3DDD9" points="39.1435867 64.4705465 41.4451836 64.4705465 41.4451836 62.1689497 39.1435867 62.1689497"></polygon>
                    <polygon id="Fill-40" fill="#F3DDD9" points="39.1435867 62.1689497 41.4451836 62.1689497 41.4451836 59.8647694 39.1435867 59.8647694"></polygon>
                    <polygon id="Fill-41" fill="#F3DDD9" points="39.1435867 59.8650042 41.4451836 59.8650042 41.4451836 57.5634074 39.1435867 57.5634074"></polygon>
                    <polygon id="Fill-42" fill="#B7A29E" points="39.1435867 57.5634074 41.4451836 57.5634074 41.4451836 55.2618105 39.1435867 55.2618105"></polygon>
                    <polygon id="Fill-43" fill="#F3DDD9" points="36.8396413 75.983228 39.1435867 75.983228 39.1435867 73.6813963 36.8396413 73.6813963"></polygon>
                    <polygon id="Fill-44" fill="#F3DDD9" points="36.8396413 73.6816312 39.1435867 73.6816312 39.1435867 71.3776857 36.8396413 71.3776857"></polygon>
                    <polygon id="Fill-45" fill="#F3DDD9" points="36.8396413 66.774492 39.1435867 66.774492 39.1435867 64.4703117 36.8396413 64.4703117"></polygon>
                    <polygon id="Fill-46" fill="#F3DDD9" points="36.8396413 62.1689497 39.1435867 62.1689497 39.1435867 59.8647694 36.8396413 59.8647694"></polygon>
                    <polygon id="Fill-47" fill="#F3DDD9" points="36.8396413 59.8650042 39.1435867 59.8650042 39.1435867 57.5634074 36.8396413 57.5634074"></polygon>
                    <polygon id="Fill-48" fill="#B7A29E" points="36.8396413 23.0253629 39.1435867 23.0253629 39.1435867 20.7237661 36.8396413 20.7237661"></polygon>
                    <polygon id="Fill-49" fill="#B7A29E" points="34.5380444 59.8650042 36.8396413 59.8650042 36.8396413 57.5634074 34.5380444 57.5634074"></polygon>
                    <polygon id="Fill-50" fill="#B7A29E" points="34.5380444 57.5634074 36.8396413 57.5634074 36.8396413 55.2618105 34.5380444 55.2618105"></polygon>
                    <polygon id="Fill-51" fill="#B7A29E" points="34.5380444 55.2618105 36.8396413 55.2618105 36.8396413 52.9578651 34.5380444 52.9578651"></polygon>
                    <polygon id="Fill-52" fill="#B7A29E" points="32.234099 71.3776857 34.5380444 71.3776857 34.5380444 69.0760888 32.234099 69.0760888"></polygon>
                    <polygon id="Fill-53" fill="#B7A29E" points="32.234099 64.4705465 34.5380444 64.4705465 34.5380444 62.1689497 32.234099 62.1689497"></polygon>
                    <polygon id="Fill-54" fill="#B7A29E" points="32.234099 57.5634074 34.5380444 57.5634074 34.5380444 55.2618105 32.234099 55.2618105"></polygon>
                    <polygon id="Fill-55" fill="#B7A29E" points="32.234099 55.2618105 34.5380444 55.2618105 34.5380444 52.9578651 32.234099 52.9578651"></polygon>
                    <polygon id="Fill-56" fill="#B7A29E" points="32.234099 52.9578651 34.5380444 52.9578651 34.5380444 50.6562682 32.234099 50.6562682"></polygon>
                    <polygon id="Fill-57" fill="#B7A29E" points="32.234099 29.9325021 34.5380444 29.9325021 34.5380444 27.6309053 32.234099 27.6309053"></polygon>
                    <polygon id="Fill-58" fill="#B7A29E" points="32.234099 25.3269598 34.5380444 25.3269598 34.5380444 23.0253629 32.234099 23.0253629"></polygon>
                    <polygon id="Fill-59" fill="#B7A29E" points="32.234099 23.0253629 34.5380444 23.0253629 34.5380444 20.7237661 32.234099 20.7237661"></polygon>
                    <polygon id="Fill-60" fill="#B7A29E" points="29.9325021 78.2871735 32.234099 78.2871735 32.234099 75.983228 29.9325021 75.983228"></polygon>
                    <polygon id="Fill-61" fill="#B7A29E" points="29.9325021 75.983228 32.234099 75.983228 32.234099 73.6813963 29.9325021 73.6813963"></polygon>
                    <polygon id="Fill-62" fill="#B7A29E" points="29.9325021 73.6816312 32.234099 73.6816312 32.234099 71.3776857 29.9325021 71.3776857"></polygon>
                    <polygon id="Fill-63" fill="#B7A29E" points="29.9325021 71.3776857 32.234099 71.3776857 32.234099 69.0760888 29.9325021 69.0760888"></polygon>
                    <polygon id="Fill-64" fill="#B7A29E" points="29.9325021 69.0760888 32.234099 69.0760888 32.234099 66.774492 29.9325021 66.774492"></polygon>
                    <polygon id="Fill-65" fill="#B7A29E" points="29.9325021 66.774492 32.234099 66.774492 32.234099 64.4703117 29.9325021 64.4703117"></polygon>
                    <polygon id="Fill-66" fill="#B7A29E" points="29.9325021 64.4705465 32.234099 64.4705465 32.234099 62.1689497 29.9325021 62.1689497"></polygon>
                    <polygon id="Fill-67" fill="#B7A29E" points="29.9325021 62.1689497 32.234099 62.1689497 32.234099 59.8647694 29.9325021 59.8647694"></polygon>
                    <polygon id="Fill-68" fill="#B7A29E" points="29.9325021 55.2618105 32.234099 55.2618105 32.234099 52.9578651 29.9325021 52.9578651"></polygon>
                    <polygon id="Fill-69" fill="#B7A29E" points="29.9325021 52.9578651 32.234099 52.9578651 32.234099 50.6562682 29.9325021 50.6562682"></polygon>
                    <polygon id="Fill-70" fill="#505B64" points="59.8651217 48.3523228 57.5632899 48.3523228 57.5632899 50.6562682 55.2595794 50.6562682 55.2595794 52.9578651 52.9579825 52.9578651 50.6563856 52.9578651 48.3522053 52.9578651 46.0508433 52.9578651 43.746663 52.9578651 41.4450662 52.9578651 39.1437042 52.9578651 39.1437042 50.6562682 36.8397587 50.6562682 36.8397587 48.3523228 34.5381619 48.3523228 32.2342164 48.3523228 32.2342164 46.0507259 29.9326195 46.0507259 29.9326195 48.3523228 29.9326195 50.6562682 32.2342164 50.6562682 34.5381619 50.6562682 34.5381619 52.9578651 36.8397587 52.9578651 36.8397587 55.2618105 39.1437042 55.2618105 41.4450662 55.2618105 43.746663 55.2618105 46.0508433 55.2618105 48.3522053 55.2618105 50.6563856 55.2618105 52.9579825 55.2618105 55.2595794 55.2618105 57.5632899 55.2618105 57.5632899 52.9578651 59.8651217 52.9578651 59.8651217 50.6562682 62.1690671 50.6562682 62.1690671 48.3523228"></polygon>
                    <polygon id="Fill-71" fill="#505B64" points="57.5631725 41.4451836 59.8650042 41.4451836 59.8650042 39.1435867 57.5631725 39.1435867"></polygon>
                    <polygon id="Fill-72" fill="#505B64" points="34.5380444 41.4451836 36.8396413 41.4451836 36.8396413 39.1435867 34.5380444 39.1435867"></polygon>
                    <polygon id="Fill-73" fill="#B7A29E" points="29.9325021 43.749129 32.234099 43.749129 32.234099 41.4451836 29.9325021 41.4451836"></polygon>
                    <polygon id="Fill-74" fill="#B7A29E" points="29.9325021 34.5380444 32.234099 34.5380444 32.234099 32.2364476 29.9325021 32.2364476"></polygon>
                    <polygon id="Fill-75" fill="#B7A29E" points="29.9325021 25.3269598 32.234099 25.3269598 32.234099 23.0253629 29.9325021 23.0253629"></polygon>
                    <polygon id="Fill-76" fill="#B7A29E" points="27.6309053 78.2871735 29.9325021 78.2871735 29.9325021 75.983228 27.6309053 75.983228"></polygon>
                    <polygon id="Fill-77" fill="#B7A29E" points="27.6309053 62.1689497 29.9325021 62.1689497 29.9325021 59.8647694 27.6309053 59.8647694"></polygon>
                    <polygon id="Fill-78" fill="#B7A29E" points="27.6309053 52.9578651 29.9325021 52.9578651 29.9325021 50.6562682 27.6309053 50.6562682"></polygon>
                    <polygon id="Fill-79" fill="#B7A29E" points="27.6309053 50.6562682 29.9325021 50.6562682 29.9325021 48.3523228 27.6309053 48.3523228"></polygon>
                    <polygon id="Fill-80" fill="#B7A29E" points="27.6309053 41.4451836 29.9325021 41.4451836 29.9325021 39.1435867 27.6309053 39.1435867"></polygon>
                    <polygon id="Fill-81" fill="#B7A29E" points="27.6309053 25.3269598 29.9325021 25.3269598 29.9325021 23.0253629 27.6309053 23.0253629"></polygon>
                    <polygon id="Fill-82" fill="#B7A29E" points="25.3269598 80.5887703 27.6309053 80.5887703 27.6309053 78.2871735 25.3269598 78.2871735"></polygon>
                    <polygon id="Fill-83" fill="#B7A29E" points="25.3269598 64.4705465 27.6309053 64.4705465 27.6309053 62.1689497 25.3269598 62.1689497"></polygon>
                    <polygon id="Fill-84" fill="#B7A29E" points="25.3269598 50.6562682 27.6309053 50.6562682 27.6309053 48.3523228 25.3269598 48.3523228"></polygon>
                    <polygon id="Fill-85" fill="#B7A29E" points="25.3269598 48.3523228 27.6309053 48.3523228 27.6309053 46.0507259 25.3269598 46.0507259"></polygon>
                    <polygon id="Fill-86" fill="#B7A29E" points="25.3269598 46.0507259 27.6309053 46.0507259 27.6309053 43.749129 25.3269598 43.749129"></polygon>
                    <polygon id="Fill-87" fill="#B7A29E" points="25.3269598 36.8396413 27.6309053 36.8396413 27.6309053 34.5380444 25.3269598 34.5380444"></polygon>
                    <polygon id="Fill-88" fill="#B7A29E" points="25.3269598 27.6309053 27.6309053 27.6309053 27.6309053 25.3269598 25.3269598 25.3269598"></polygon>
                    <polygon id="Fill-89" fill="#B7A29E" points="25.3269598 25.3269598 27.6309053 25.3269598 27.6309053 23.0253629 25.3269598 23.0253629"></polygon>
                    <polygon id="Fill-90" fill="#B7A29E" points="23.0253629 82.8903672 25.3269598 82.8903672 25.3269598 80.5887703 23.0253629 80.5887703"></polygon>
                    <polygon id="Fill-91" fill="#B7A29E" points="23.0253629 48.3523228 25.3269598 48.3523228 25.3269598 46.0507259 23.0253629 46.0507259"></polygon>
                    <polygon id="Fill-92" fill="#B7A29E" points="23.0253629 43.749129 25.3269598 43.749129 25.3269598 41.4451836 23.0253629 41.4451836"></polygon>
                    <polygon id="Fill-93" fill="#B7A29E" points="23.0253629 41.4451836 25.3269598 41.4451836 25.3269598 39.1435867 23.0253629 39.1435867"></polygon>
                    <polygon id="Fill-94" fill="#B7A29E" points="23.0253629 39.1435867 25.3269598 39.1435867 25.3269598 36.8396413 23.0253629 36.8396413"></polygon>
                    <path d="M29.9325726,43.7491055 L29.9325726,41.4451601 L27.6309757,41.4451601 L27.6309757,39.1435632 L29.9325726,39.1435632 L29.9325726,41.4451601 L32.2341694,41.4451601 L32.2341694,43.7491055 L29.9325726,43.7491055 Z M27.6309757,32.2364241 L27.6309757,29.9324786 L29.9325726,29.9324786 L29.9325726,32.2364241 L32.2341694,32.2364241 L32.2341694,34.5380209 L29.9325726,34.5380209 L29.9325726,32.2364241 L27.6309757,32.2364241 Z M32.2341694,29.9324786 L34.5381149,29.9324786 L34.5381149,27.6308818 L32.2341694,27.6308818 L32.2341694,29.9324786 Z M39.1436572,27.6308818 L41.4452541,27.6308818 L41.4452541,25.3269363 L39.1436572,25.3269363 L39.1436572,27.6308818 Z M46.0507964,32.2364241 L48.3523932,32.2364241 L48.3523932,29.9324786 L46.0507964,29.9324786 L46.0507964,32.2364241 Z M34.5381149,41.4451601 L36.8397117,41.4451601 L36.8397117,39.1435632 L34.5381149,39.1435632 L34.5381149,41.4451601 Z M36.8397117,34.5380209 L39.1436572,34.5380209 L39.1436572,32.2364241 L36.8397117,32.2364241 L36.8397117,34.5380209 Z M48.3521584,36.8396178 L50.6563387,36.8396178 L50.6563387,34.5380209 L48.3521584,34.5380209 L48.3521584,36.8396178 Z M64.470617,39.1435632 L64.470617,36.8396178 L62.1690201,36.8396178 L59.8650747,36.8396178 L59.8650747,34.5380209 L62.1690201,34.5380209 L62.1690201,32.2364241 L59.8650747,32.2364241 L57.563243,32.2364241 L55.2595324,32.2364241 L55.2595324,29.9324786 L52.9579355,29.9324786 L50.6563387,29.9324786 L50.6563387,27.6308818 L52.9579355,27.6308818 L55.2595324,27.6308818 L55.2595324,25.3269363 L52.9579355,25.3269363 L50.6563387,25.3269363 L48.3523932,25.3269363 L48.3523932,27.6308818 L46.0507964,27.6308818 L46.0507964,25.3269363 L48.3523932,25.3269363 L48.3523932,23.0253395 L46.0507964,23.0253395 L43.7466161,23.0253395 L43.7466161,20.7237426 L41.4452541,20.7237426 L39.1436572,20.7237426 L39.1436572,23.0253395 L36.8397117,23.0253395 L36.8397117,25.3269363 L34.5381149,25.3269363 L32.2341694,25.3269363 L29.9325726,25.3269363 L29.9325726,27.6308818 L27.6309757,27.6308818 L25.3270303,27.6308818 L25.3270303,29.9324786 L25.3270303,32.2364241 L23.0254334,32.2364241 L23.0254334,34.5380209 L25.3270303,34.5380209 L27.6309757,34.5380209 L27.6309757,36.8396178 L25.3270303,36.8396178 L25.3270303,39.1435632 L25.3270303,41.4451601 L25.3270303,43.7491055 L27.6309757,43.7491055 L27.6309757,46.0507024 L27.6309757,48.3522993 L29.9325726,48.3522993 L29.9325726,46.0507024 L32.2341694,46.0507024 L32.2341694,48.3522993 L34.5381149,48.3522993 L36.8397117,48.3522993 L36.8397117,50.6562447 L39.1436572,50.6562447 L39.1436572,52.9578416 L41.4452541,52.9578416 L43.7466161,52.9578416 L46.0507964,52.9578416 L48.3523932,52.9578416 L50.6563387,52.9578416 L52.9579355,52.9578416 L55.2595324,52.9578416 L55.2595324,50.6562447 L57.563243,50.6562447 L57.563243,48.3522993 L59.8650747,48.3522993 L62.1690201,48.3522993 L62.1690201,46.0507024 L64.470617,46.0507024 L64.470617,43.7491055 L64.470617,41.4451601 L62.1690201,41.4451601 L62.1690201,43.7491055 L59.8650747,43.7491055 L59.8650747,41.4451601 L57.563243,41.4451601 L57.563243,39.1435632 L59.8650747,39.1435632 L59.8650747,41.4451601 L62.1690201,41.4451601 L62.1690201,39.1435632 L64.470617,39.1435632 Z" id="Fill-95" fill="#CCB4AE"></path>
                    <polygon id="Fill-96" fill="#CCB4AE" points="55.2594619 64.4705465 57.5634074 64.4705465 57.5634074 62.1689497 55.2594619 62.1689497"></polygon>
                    <polygon id="Fill-97" fill="#CCB4AE" points="55.2594619 29.9325021 57.5634074 29.9325021 57.5634074 27.6309053 55.2594619 27.6309053"></polygon>
                    <polygon id="Fill-98" fill="#CCB4AE" points="52.9579825 78.2871265 52.9579825 80.5887234 52.9579825 82.8903202 55.2593445 82.8903202 57.5632899 82.8903202 57.5632899 80.5887234 55.2593445 80.5887234 55.2593445 78.2871265"></polygon>
                    <polygon id="Fill-99" fill="#CCB4AE" points="52.9579355 59.8649103 52.9579355 57.5633134 50.6563387 57.5633134 48.3523932 57.5633134 48.3523932 59.8649103 50.6563387 59.8649103 50.6563387 62.1690906 52.9579355 62.1690906 55.2595324 62.1690906 55.2595324 59.8649103"></polygon>
                    <polygon id="Fill-100" fill="#CCB4AE" points="50.6562682 78.2871735 52.9578651 78.2871735 52.9578651 75.983228 50.6562682 75.983228"></polygon>
                    <polygon id="Fill-101" fill="#CCB4AE" points="48.3522993 59.8649103 46.0507024 59.8649103 43.746757 59.8649103 43.746757 62.1690906 46.0507024 62.1690906 46.0507024 64.4704526 48.3522993 64.4704526 48.3522993 66.7746329 46.0507024 66.7746329 43.746757 66.7746329 43.746757 69.0762298 46.0507024 69.0762298 46.0507024 71.3778266 46.0507024 73.6815372 48.3522993 73.6815372 48.3522993 75.9833689 50.6564796 75.9833689 50.6564796 73.6815372 50.6564796 71.3778266 50.6564796 69.0762298 50.6564796 66.7746329 50.6564796 64.4704526 50.6564796 62.1690906 48.3522993 62.1690906"></polygon>
                    <polygon id="Fill-102" fill="#CCB4AE" points="43.7467805 75.983228 46.0509608 75.983228 46.0509608 73.6813963 43.7467805 73.6813963"></polygon>
                    <polygon id="Fill-103" fill="#CCB4AE" points="46.0507494 57.5633604 46.0507494 55.2617635 43.7465691 55.2617635 41.4452071 55.2617635 41.4452071 57.5633604 43.7465691 57.5633604"></polygon>
                    <polygon id="Fill-104" fill="#CCB4AE" points="41.4451836 71.3776857 43.7467805 71.3776857 43.7467805 69.0760888 41.4451836 69.0760888"></polygon>
                    <polygon id="Fill-105" fill="#CCB4AE" points="39.1435867 75.983228 41.4451836 75.983228 41.4451836 73.6813963 39.1435867 73.6813963"></polygon>
                    <polygon id="Fill-106" fill="#CCB4AE" points="36.8396413 57.5634074 39.1435867 57.5634074 39.1435867 55.2618105 36.8396413 55.2618105"></polygon>
                    <polygon id="Fill-107" fill="#CCB4AE" points="32.234099 57.5634543 29.9325021 57.5634543 27.6309053 57.5634543 27.6309053 59.8648164 29.9325021 59.8648164 32.234099 59.8648164 32.234099 62.1689966 34.5380444 62.1689966 34.5380444 64.4703587 32.234099 64.4703587 32.234099 66.774539 32.234099 69.0761358 34.5380444 69.0761358 34.5380444 71.3777327 32.234099 71.3777327 32.234099 73.6816781 32.234099 75.983275 32.234099 78.2872204 29.9325021 78.2872204 27.6309053 78.2872204 27.6309053 80.5888173 25.3269598 80.5888173 25.3269598 82.8904142 27.6309053 82.8904142 29.9325021 82.8904142 29.9325021 80.5888173 32.234099 80.5888173 34.5380444 80.5888173 34.5380444 78.2872204 36.8396413 78.2872204 39.1435867 78.2872204 39.1435867 75.983275 36.8396413 75.983275 36.8396413 73.6816781 36.8396413 71.3777327 39.1435867 71.3777327 39.1435867 69.0761358 39.1435867 66.774539 36.8396413 66.774539 36.8396413 64.4703587 39.1435867 64.4703587 39.1435867 62.1689966 36.8396413 62.1689966 36.8396413 59.8648164 34.5380444 59.8648164 34.5380444 57.5634543"></polygon>
                    <polygon id="Fill-108" fill="#CCB4AE" points="34.5380444 23.0253629 36.8396413 23.0253629 36.8396413 20.7237661 34.5380444 20.7237661"></polygon>
                    <polygon id="Fill-109" fill="#CCB4AE" points="25.3269598 62.1689497 27.6309053 62.1689497 27.6309053 59.8647694 25.3269598 59.8647694"></polygon>
                    <polygon id="Fill-110" fill="#CCB4AE" points="23.0253629 64.4705465 25.3269598 64.4705465 25.3269598 62.1689497 23.0253629 62.1689497"></polygon>
                    <polygon id="Fill-111" fill="#B7A29E" points="23.0253629 32.2364476 25.3269598 32.2364476 25.3269598 29.9325021 23.0253629 29.9325021"></polygon>
                    <polygon id="Fill-112" fill="#B7A29E" points="23.0253629 27.6309053 25.3269598 27.6309053 25.3269598 25.3269598 23.0253629 25.3269598"></polygon>
                    <polygon id="Fill-113" fill="#B7A29E" points="20.7214175 46.0507259 23.0253629 46.0507259 23.0253629 43.749129 20.7214175 43.749129"></polygon>
                    <polygon id="Fill-114" fill="#B7A29E" points="20.7214175 39.1435867 23.0253629 39.1435867 23.0253629 36.8396413 20.7214175 36.8396413"></polygon>
                    <polygon id="Fill-115" fill="#B7A29E" points="20.7214175 36.8396413 23.0253629 36.8396413 23.0253629 34.5380444 20.7214175 34.5380444"></polygon>
                    <polygon id="Fill-116" fill="#B7A29E" points="20.7214175 32.2364476 23.0253629 32.2364476 23.0253629 29.9325021 20.7214175 29.9325021"></polygon>
                    <polygon id="Fill-117" fill="#B7A29E" points="20.7214175 29.9325021 23.0253629 29.9325021 23.0253629 27.6309053 20.7214175 27.6309053"></polygon>
                    <polygon id="Fill-118" fill="#B7A29E" points="18.4198206 36.8396413 20.7214175 36.8396413 20.7214175 34.5380444 18.4198206 34.5380444"></polygon>
                    <polygon id="Fill-119" fill="#B7A29E" points="18.4198206 29.9325021 20.7214175 29.9325021 20.7214175 27.6309053 18.4198206 27.6309053"></polygon>
                    <polygon id="Fill-120" fill="#CB97B0" points="69.0761358 39.1436102 66.7719555 39.1436102 64.4705935 39.1436102 64.4705935 41.4452071 66.7719555 41.4452071 69.0761358 41.4452071 71.3777327 41.4452071 71.3777327 39.1436102"></polygon>
                    <polygon id="Fill-121" fill="#CB97B0" points="66.7719086 29.9325021 69.0760888 29.9325021 69.0760888 27.6309053 66.7719086 27.6309053"></polygon>
                    <polygon id="Fill-122" fill="#CB97B0" points="62.1689497 34.5380444 64.4705465 34.5380444 64.4705465 32.2364476 62.1689497 32.2364476"></polygon>
                    <polygon id="Fill-123" fill="#CB97B0" points="57.5633369 66.7746094 57.5633369 69.0762063 59.8651686 69.0762063 62.1688792 69.0762063 62.1688792 66.7746094 59.8651686 66.7746094"></polygon>
                    <polygon id="Fill-124" fill="#CB97B0" points="57.5633369 27.6309287 57.5633369 25.3269833 57.5633369 23.0253864 55.2593915 23.0253864 55.2593915 20.7237896 55.2593915 18.4198441 55.2593915 16.1182473 55.2593915 13.8166504 52.9580295 13.8166504 52.9580295 16.1182473 52.9580295 18.4198441 52.9580295 20.7237896 52.9580295 23.0253864 52.9580295 25.3269833 55.2593915 25.3269833 55.2593915 27.6309287"></polygon>
                    <polygon id="Fill-125" fill="#CB97B0" points="25.3269598 73.6816312 27.6309053 73.6816312 27.6309053 71.3776857 25.3269598 71.3776857"></polygon>
                    <polygon id="Fill-126" fill="#CB97B0" points="20.7214175 73.6815372 20.7214175 71.3775918 18.4198206 71.3775918 18.4198206 73.6815372 18.4198206 75.9833689 20.7214175 75.9833689 23.0253629 75.9833689 25.3269598 75.9833689 25.3269598 73.6815372 23.0253629 73.6815372"></polygon>
                    <polygon id="Fill-127" fill="#CB97B0" points="18.4197502 66.7746094 18.4197502 69.0762063 20.7213471 69.0762063 23.0252925 69.0762063 23.0252925 66.7746094 20.7213471 66.7746094"></polygon>
                    <polygon id="Fill-128" fill="#CB97B0" points="18.4197502 46.0507729 20.7213471 46.0507729 20.7213471 43.749176 20.7213471 41.4452306 18.4197502 41.4452306 16.1181533 41.4452306 13.8142079 41.4452306 11.512611 41.4452306 9.20866558 41.4452306 9.20866558 43.749176 11.512611 43.749176 13.8142079 43.749176 16.1181533 43.749176 16.1181533 46.0507729"></polygon>
                    <polygon id="Fill-129" fill="#CB97B0" points="16.1182003 20.7237426 16.1182003 23.0253395 18.4197972 23.0253395 18.4197972 25.3269363 18.4197972 27.6308818 20.721394 27.6308818 20.721394 25.3269363 20.721394 23.0253395 20.721394 20.7237426 18.4197972 20.7237426 18.4197972 18.4197972 18.4197972 16.1182003 16.1182003 16.1182003 16.1182003 13.8166034 16.1182003 11.512658 16.1182003 9.21106112 13.8142549 9.21106112 13.8142549 11.512658 13.8142549 13.8166034 13.8142549 16.1182003 13.8142549 18.4197972 16.1182003 18.4197972"></polygon>
                    <polygon id="Fill-130" fill="#CB97B0" points="6.90718614 39.1436102 4.60558927 39.1436102 4.60558927 41.4452071 6.90718614 41.4452071 9.20878301 41.4452071 9.20878301 39.1436102"></polygon>
                    <polygon id="Fill-131" fill="#CB97B0" points="6.90718614 29.9324786 9.20878301 29.9324786 11.5127284 29.9324786 11.5127284 32.2364241 13.8143253 32.2364241 13.8143253 34.5380209 16.1182707 34.5380209 18.4198676 34.5380209 18.4198676 32.2364241 16.1182707 32.2364241 16.1182707 29.9324786 13.8143253 29.9324786 13.8143253 27.6308818 11.5127284 27.6308818 9.20878301 27.6308818 9.20878301 25.3269363 6.90718614 25.3269363 4.60558927 25.3269363 4.60558927 27.6308818 6.90718614 27.6308818"></polygon>
                    <polygon id="Fill-132" fill="#B6869B" points="71.3776857 41.4451836 73.6792826 41.4451836 73.6792826 39.1435867 71.3776857 39.1435867"></polygon>
                    <polygon id="Fill-133" fill="#B6869B" points="69.0761358 36.8396413 66.7719555 36.8396413 64.4705935 36.8396413 64.4705935 39.1435867 66.7719555 39.1435867 69.0761358 39.1435867 71.3777327 39.1435867 71.3777327 36.8396413"></polygon>
                    <polygon id="Fill-134" fill="#B6869B" points="66.7719086 27.6309053 69.0760888 27.6309053 69.0760888 25.3269598 66.7719086 25.3269598"></polygon>
                    <polygon id="Fill-135" fill="#B6869B" points="64.4705465 25.3269598 66.7721434 25.3269598 66.7721434 23.0253629 64.4705465 23.0253629"></polygon>
                    <polygon id="Fill-136" fill="#B6869B" points="64.4704996 29.9324786 66.7720964 29.9324786 66.7720964 27.6308818 64.4704996 27.6308818 62.1689027 27.6308818 62.1689027 29.9324786 59.8651921 29.9324786 59.8651921 32.2364241 62.1689027 32.2364241 64.4704996 32.2364241"></polygon>
                    <polygon id="Fill-137" fill="#B6869B" points="55.2594854 64.4705231 55.2594854 66.7747034 55.2594854 69.0760654 57.5634309 69.0760654 57.5634309 66.7747034 59.8650277 66.7747034 59.8650277 64.4705231 57.5634309 64.4705231"></polygon>
                    <polygon id="Fill-138" fill="#B6869B" points="55.2594619 32.2364476 57.5634074 32.2364476 57.5634074 29.9325021 55.2594619 29.9325021"></polygon>
                    <polygon id="Fill-139" fill="#B6869B" points="55.2594854 11.5127284 57.5634309 11.5127284 57.5634309 9.21113158 57.5634309 6.90718614 57.5634309 4.60558927 55.2594854 4.60558927 55.2594854 6.90718614 55.2594854 9.21113158 52.9578886 9.21113158 52.9578886 11.5127284 50.6562917 11.5127284 50.6562917 13.8166739 50.6562917 16.1182707 48.3523463 16.1182707 48.3523463 18.4198676 48.3523463 20.7238131 48.3523463 23.0254099 50.6562917 23.0254099 50.6562917 25.3270068 52.9578886 25.3270068 52.9578886 23.0254099 52.9578886 20.7238131 52.9578886 18.4198676 52.9578886 16.1182707 52.9578886 13.8166739 55.2594854 13.8166739"></polygon>
                    <polygon id="Fill-140" fill="#B6869B" points="52.9578651 4.6055423 55.2594619 4.6055423 55.2594619 2.30394544 52.9578651 2.30394544"></polygon>
                    <polygon id="Fill-141" fill="#B6869B" points="50.6562682 29.9325021 52.9578651 29.9325021 52.9578651 27.6309053 50.6562682 27.6309053"></polygon>
                    <polygon id="Fill-142" fill="#B6869B" points="48.3523228 36.8396413 50.6565031 36.8396413 50.6565031 34.5380444 48.3523228 34.5380444"></polygon>
                    <polygon id="Fill-143" fill="#B6869B" points="46.0507259 27.6309053 48.3523228 27.6309053 48.3523228 25.3269598 46.0507259 25.3269598"></polygon>
                    <polygon id="Fill-144" fill="#B6869B" points="43.7465456 23.0253629 46.0507259 23.0253629 46.0507259 20.7237661 43.7465456 20.7237661"></polygon>
                    <polygon id="Fill-145" fill="#B6869B" points="39.1435867 27.6309053 41.4451836 27.6309053 41.4451836 25.3269598 39.1435867 25.3269598"></polygon>
                    <polygon id="Fill-146" fill="#B6869B" points="36.8396413 34.5380444 39.1435867 34.5380444 39.1435867 32.2364476 36.8396413 32.2364476"></polygon>
                    <polygon id="Fill-147" fill="#B6869B" points="34.5380444 25.3269598 36.8396413 25.3269598 36.8396413 23.0253629 34.5380444 23.0253629"></polygon>
                    <polygon id="Fill-148" fill="#B6869B" points="27.6309053 73.6815372 25.3269598 73.6815372 25.3269598 75.9833689 23.0253629 75.9833689 20.7214175 75.9833689 20.7214175 78.2870795 23.0253629 78.2870795 25.3269598 78.2870795 27.6309053 78.2870795 27.6309053 75.9833689 29.9325021 75.9833689 29.9325021 73.6815372 29.9325021 71.3775918 27.6309053 71.3775918"></polygon>
                    <polygon id="Fill-149" fill="#B6869B" points="27.6309053 32.2364476 29.9325021 32.2364476 29.9325021 29.9325021 27.6309053 29.9325021"></polygon>
                    <polygon id="Fill-150" fill="#B6869B" points="27.6309053 27.6309053 29.9325021 27.6309053 29.9325021 25.3269598 27.6309053 25.3269598"></polygon>
                    <polygon id="Fill-151" fill="#B6869B" points="25.3269363 69.0761593 25.3269363 66.7745624 25.3269363 64.470617 23.0253395 64.470617 20.721394 64.470617 20.721394 66.7745624 23.0253395 66.7745624 23.0253395 69.0761593"></polygon>
                    <polygon id="Fill-152" fill="#B6869B" points="23.0253629 46.0507259 25.3269598 46.0507259 25.3269598 43.749129 23.0253629 43.749129"></polygon>
                    <polygon id="Fill-153" fill="#B6869B" points="23.0253629 36.8396413 25.3269598 36.8396413 25.3269598 34.5380444 23.0253629 34.5380444"></polygon>
                    <polygon id="Fill-154" fill="#B6869B" points="23.0253629 29.9325021 25.3269598 29.9325021 25.3269598 27.6309053 23.0253629 27.6309053"></polygon>
                    <polygon id="Fill-155" fill="#B6869B" points="20.7214175 43.7491055 23.0253629 43.7491055 23.0253629 41.4451601 23.0253629 39.1435632 20.7214175 39.1435632 20.7214175 36.8396178 18.4198206 36.8396178 16.1182238 36.8396178 16.1182238 39.1435632 13.8142783 39.1435632 11.5126815 39.1435632 9.20873604 39.1435632 9.20873604 41.4451601 11.5126815 41.4451601 13.8142783 41.4451601 16.1182238 41.4451601 18.4198206 41.4451601 20.7214175 41.4451601"></polygon>
                    <polygon id="Fill-156" fill="#B6869B" points="11.5127519 0.000117428412 11.5127519 2.30382801 11.5127519 4.60542488 13.8141139 4.60542488 13.8141139 6.90702174 13.8141139 9.21096718 16.1180594 9.21096718 16.1180594 11.512564 16.1180594 13.8165095 16.1180594 16.1181063 18.4196562 16.1181063 18.4196562 18.4199381 18.4196562 20.7238835 20.7212531 20.7238835 20.7212531 23.0254804 20.7212531 25.3270772 20.7212531 27.6310227 23.0251985 27.6310227 23.0251985 25.3270772 25.3270303 25.3270772 25.3270303 23.0254804 25.3270303 20.7238835 23.0251985 20.7238835 23.0251985 18.4199381 23.0251985 16.1181063 23.0251985 13.8165095 20.7212531 13.8165095 20.7212531 11.512564 18.4196562 11.512564 18.4196562 9.21096718 18.4196562 6.90702174 16.1180594 6.90702174 16.1180594 4.60542488 16.1180594 2.30382801 13.8141139 2.30382801 13.8141139 0.000117428412"></polygon>
                    <polygon id="Fill-157" fill="#B6869B" points="2.30162035 18.4198441 2.34856823e-05 18.4198441 2.34856823e-05 20.7237896 2.30162035 20.7237896 2.30162035 23.0253864 4.60556579 23.0253864 4.60556579 25.3269833 6.90716266 25.3269833 9.20875952 25.3269833 9.20875952 27.6309287 11.512705 27.6309287 13.814067 27.6309287 13.814067 29.9322907 16.1180124 29.9322907 16.1180124 32.2362362 18.4198441 32.2362362 18.4198441 34.5378331 20.721441 34.5378331 23.0253864 34.5378331 23.0253864 32.2362362 20.721441 32.2362362 20.721441 29.9322907 18.4198441 29.9322907 18.4198441 27.6309287 16.1180124 27.6309287 16.1180124 25.3269833 13.814067 25.3269833 11.512705 25.3269833 11.512705 23.0253864 9.20875952 23.0253864 6.90716266 23.0253864 6.90716266 20.7237896 4.60556579 20.7237896 4.60556579 18.4198441"></polygon>
                    <polygon id="Fill-158" fill="#B7A29E" points="62.1689497 48.3523228 64.4705465 48.3523228 64.4705465 46.0507259 62.1689497 46.0507259"></polygon>
                    <polygon id="Fill-159" fill="#B7A29E" points="62.1689497 41.4451836 64.4705465 41.4451836 64.4705465 39.1435867 62.1689497 39.1435867"></polygon>
                    <polygon id="Fill-160" fill="#B7A29E" points="59.8650042 43.749129 62.1689497 43.749129 62.1689497 41.4451836 59.8650042 41.4451836"></polygon>
                    <polygon id="Fill-161" fill="#B7A29E" points="59.8650042 36.8396413 62.1689497 36.8396413 62.1689497 34.5380444 59.8650042 34.5380444"></polygon>
                    <polygon id="Fill-162" fill="#B7A29E" points="57.5631725 32.2364476 59.8650042 32.2364476 59.8650042 29.9325021 57.5631725 29.9325021"></polygon>
                    <polygon id="Fill-163" fill="#B7A29E" points="52.9578651 64.4705465 55.2594619 64.4705465 55.2594619 62.1689497 52.9578651 62.1689497"></polygon>
                    <polygon id="Fill-164" fill="#B7A29E" points="52.9578651 29.9325021 55.2594619 29.9325021 55.2594619 27.6309053 52.9578651 27.6309053"></polygon>
                    <polygon id="Fill-165" fill="#B7A29E" points="50.6562682 82.8903672 52.9578651 82.8903672 52.9578651 80.5887703 50.6562682 80.5887703"></polygon>
                    <polygon id="Fill-166" fill="#B7A29E" points="50.6562682 80.5887703 52.9578651 80.5887703 52.9578651 78.2871735 50.6562682 78.2871735"></polygon>
                    <polygon id="Fill-167" fill="#B7A29E" points="48.3520879 80.5887703 50.6562682 80.5887703 50.6562682 78.2871735 48.3520879 78.2871735"></polygon>
                    <polygon id="Fill-168" fill="#B7A29E" points="48.3520879 78.2871735 50.6562682 78.2871735 50.6562682 75.983228 48.3520879 75.983228"></polygon>
                    <polygon id="Fill-169" fill="#B7A29E" points="48.3520879 62.1689497 50.6562682 62.1689497 50.6562682 59.8647694 48.3520879 59.8647694"></polygon>
                    <polygon id="Fill-170" fill="#B7A29E" points="48.3520879 25.3269598 50.6562682 25.3269598 50.6562682 23.0253629 48.3520879 23.0253629"></polygon>
                    <polygon id="Fill-171" fill="#B7A29E" points="46.0507259 78.2871735 48.3523228 78.2871735 48.3523228 75.983228 46.0507259 75.983228"></polygon>
                    <polygon id="Fill-172" fill="#B7A29E" points="46.0507259 75.983228 48.3523228 75.983228 48.3523228 73.6813963 46.0507259 73.6813963"></polygon>
                    <polygon id="Fill-173" fill="#B7A29E" points="46.0507259 66.774492 48.3523228 66.774492 48.3523228 64.4703117 46.0507259 64.4703117"></polygon>
                    <polygon id="Fill-174" fill="#B7A29E" points="46.0507259 59.8650042 48.3523228 59.8650042 48.3523228 57.5634074 46.0507259 57.5634074"></polygon>
                    <polygon id="Fill-175" fill="#B7A29E" points="46.0507259 57.5634074 48.3523228 57.5634074 48.3523228 55.2618105 46.0507259 55.2618105"></polygon>
                    <polygon id="Fill-176" fill="#B7A29E" points="46.0507259 32.2364476 48.3523228 32.2364476 48.3523228 29.9325021 46.0507259 29.9325021"></polygon>
                    <polygon id="Fill-177" fill="#F3DDD9" points="43.7465456 78.2871735 46.0507259 78.2871735 46.0507259 75.983228 43.7465456 75.983228"></polygon>
                    <polygon id="Fill-178" fill="#F3DDD9" points="43.7465456 73.6816312 46.0507259 73.6816312 46.0507259 71.3776857 43.7465456 71.3776857"></polygon>
                    <polygon id="Fill-179" fill="#F3DDD9" points="43.7465456 71.3776857 46.0507259 71.3776857 46.0507259 69.0760888 43.7465456 69.0760888"></polygon>
                    <polygon id="Fill-180" fill="#F3DDD9" points="43.7465456 66.774492 46.0507259 66.774492 46.0507259 64.4703117 43.7465456 64.4703117"></polygon>
                    <polygon id="Fill-181" fill="#F3DDD9" points="43.7465456 64.4705465 46.0507259 64.4705465 46.0507259 62.1689497 43.7465456 62.1689497"></polygon>
                    <polygon id="Fill-182" fill="#F3DDD9" points="43.7465456 59.8650042 46.0507259 59.8650042 46.0507259 57.5634074 43.7465456 57.5634074"></polygon>
                    <polygon id="Fill-183" fill="#F3DDD9" points="41.4451836 78.2871735 43.7467805 78.2871735 43.7467805 75.983228 41.4451836 75.983228"></polygon>
                    <polygon id="Fill-184" fill="#F3DDD9" points="41.4451836 75.983228 43.7467805 75.983228 43.7467805 73.6813963 41.4451836 73.6813963"></polygon>
                    <polygon id="Fill-185" fill="#F3DDD9" points="41.4451836 73.6816312 43.7467805 73.6816312 43.7467805 71.3776857 41.4451836 71.3776857"></polygon>
                    <polygon id="Fill-186" fill="#F3DDD9" points="41.4451836 69.0760888 43.7467805 69.0760888 43.7467805 66.774492 41.4451836 66.774492"></polygon>
                    <polygon id="Fill-187" fill="#F3DDD9" points="41.4451836 66.774492 43.7467805 66.774492 43.7467805 64.4703117 41.4451836 64.4703117"></polygon>
                    <polygon id="Fill-188" fill="#F3DDD9" points="41.4451836 64.4705465 43.7467805 64.4705465 43.7467805 62.1689497 41.4451836 62.1689497"></polygon>
                    <polygon id="Fill-189" fill="#F3DDD9" points="41.4451836 62.1689497 43.7467805 62.1689497 43.7467805 59.8647694 41.4451836 59.8647694"></polygon>
                    <polygon id="Fill-190" fill="#F3DDD9" points="41.4451836 59.8650042 43.7467805 59.8650042 43.7467805 57.5634074 41.4451836 57.5634074"></polygon>
                    <polygon id="Fill-191" fill="#F3DDD9" points="39.1435867 78.2871735 41.4451836 78.2871735 41.4451836 75.983228 39.1435867 75.983228"></polygon>
                    <polygon id="Fill-192" fill="#F3DDD9" points="39.1435867 73.6816312 41.4451836 73.6816312 41.4451836 71.3776857 39.1435867 71.3776857"></polygon>
                    <polygon id="Fill-193" fill="#F3DDD9" points="39.1435867 71.3776857 41.4451836 71.3776857 41.4451836 69.0760888 39.1435867 69.0760888"></polygon>
                    <polygon id="Fill-194" fill="#F3DDD9" points="39.1435867 69.0760888 41.4451836 69.0760888 41.4451836 66.774492 39.1435867 66.774492"></polygon>
                    <polygon id="Fill-195" fill="#F3DDD9" points="39.1435867 66.774492 41.4451836 66.774492 41.4451836 64.4703117 39.1435867 64.4703117"></polygon>
                    <polygon id="Fill-196" fill="#F3DDD9" points="39.1435867 64.4705465 41.4451836 64.4705465 41.4451836 62.1689497 39.1435867 62.1689497"></polygon>
                    <polygon id="Fill-197" fill="#F3DDD9" points="39.1435867 62.1689497 41.4451836 62.1689497 41.4451836 59.8647694 39.1435867 59.8647694"></polygon>
                    <polygon id="Fill-198" fill="#F3DDD9" points="39.1435867 59.8650042 41.4451836 59.8650042 41.4451836 57.5634074 39.1435867 57.5634074"></polygon>
                    <polygon id="Fill-199" fill="#B7A29E" points="39.1435867 57.5634074 41.4451836 57.5634074 41.4451836 55.2618105 39.1435867 55.2618105"></polygon>
                    <polygon id="Fill-200" fill="#F3DDD9" points="36.8396413 75.983228 39.1435867 75.983228 39.1435867 73.6813963 36.8396413 73.6813963"></polygon>
                    <polygon id="Fill-201" fill="#F3DDD9" points="36.8396413 73.6816312 39.1435867 73.6816312 39.1435867 71.3776857 36.8396413 71.3776857"></polygon>
                    <polygon id="Fill-202" fill="#F3DDD9" points="36.8396413 66.774492 39.1435867 66.774492 39.1435867 64.4703117 36.8396413 64.4703117"></polygon>
                    <polygon id="Fill-203" fill="#F3DDD9" points="36.8396413 62.1689497 39.1435867 62.1689497 39.1435867 59.8647694 36.8396413 59.8647694"></polygon>
                    <polygon id="Fill-204" fill="#F3DDD9" points="36.8396413 59.8650042 39.1435867 59.8650042 39.1435867 57.5634074 36.8396413 57.5634074"></polygon>
                    <polygon id="Fill-205" fill="#B7A29E" points="36.8396413 23.0253629 39.1435867 23.0253629 39.1435867 20.7237661 36.8396413 20.7237661"></polygon>
                    <polygon id="Fill-206" fill="#B7A29E" points="34.5380444 59.8650042 36.8396413 59.8650042 36.8396413 57.5634074 34.5380444 57.5634074"></polygon>
                    <polygon id="Fill-207" fill="#B7A29E" points="34.5380444 57.5634074 36.8396413 57.5634074 36.8396413 55.2618105 34.5380444 55.2618105"></polygon>
                    <polygon id="Fill-208" fill="#B7A29E" points="34.5380444 55.2618105 36.8396413 55.2618105 36.8396413 52.9578651 34.5380444 52.9578651"></polygon>
                    <polygon id="Fill-209" fill="#B7A29E" points="32.234099 71.3776857 34.5380444 71.3776857 34.5380444 69.0760888 32.234099 69.0760888"></polygon>
                    <polygon id="Fill-210" fill="#B7A29E" points="32.234099 64.4705465 34.5380444 64.4705465 34.5380444 62.1689497 32.234099 62.1689497"></polygon>
                    <polygon id="Fill-211" fill="#B7A29E" points="32.234099 57.5634074 34.5380444 57.5634074 34.5380444 55.2618105 32.234099 55.2618105"></polygon>
                    <polygon id="Fill-212" fill="#B7A29E" points="32.234099 55.2618105 34.5380444 55.2618105 34.5380444 52.9578651 32.234099 52.9578651"></polygon>
                    <polygon id="Fill-213" fill="#B7A29E" points="32.234099 52.9578651 34.5380444 52.9578651 34.5380444 50.6562682 32.234099 50.6562682"></polygon>
                    <polygon id="Fill-214" fill="#B7A29E" points="32.234099 29.9325021 34.5380444 29.9325021 34.5380444 27.6309053 32.234099 27.6309053"></polygon>
                    <polygon id="Fill-215" fill="#B7A29E" points="32.234099 25.3269598 34.5380444 25.3269598 34.5380444 23.0253629 32.234099 23.0253629"></polygon>
                    <polygon id="Fill-216" fill="#B7A29E" points="32.234099 23.0253629 34.5380444 23.0253629 34.5380444 20.7237661 32.234099 20.7237661"></polygon>
                    <polygon id="Fill-217" fill="#B7A29E" points="29.9325021 78.2871735 32.234099 78.2871735 32.234099 75.983228 29.9325021 75.983228"></polygon>
                    <polygon id="Fill-218" fill="#B7A29E" points="29.9325021 75.983228 32.234099 75.983228 32.234099 73.6813963 29.9325021 73.6813963"></polygon>
                    <polygon id="Fill-219" fill="#B7A29E" points="29.9325021 73.6816312 32.234099 73.6816312 32.234099 71.3776857 29.9325021 71.3776857"></polygon>
                    <polygon id="Fill-220" fill="#B7A29E" points="29.9325021 71.3776857 32.234099 71.3776857 32.234099 69.0760888 29.9325021 69.0760888"></polygon>
                    <polygon id="Fill-221" fill="#B7A29E" points="29.9325021 69.0760888 32.234099 69.0760888 32.234099 66.774492 29.9325021 66.774492"></polygon>
                    <polygon id="Fill-222" fill="#B7A29E" points="29.9325021 66.774492 32.234099 66.774492 32.234099 64.4703117 29.9325021 64.4703117"></polygon>
                    <polygon id="Fill-223" fill="#B7A29E" points="29.9325021 64.4705465 32.234099 64.4705465 32.234099 62.1689497 29.9325021 62.1689497"></polygon>
                    <polygon id="Fill-224" fill="#B7A29E" points="29.9325021 62.1689497 32.234099 62.1689497 32.234099 59.8647694 29.9325021 59.8647694"></polygon>
                    <polygon id="Fill-225" fill="#B7A29E" points="29.9325021 55.2618105 32.234099 55.2618105 32.234099 52.9578651 29.9325021 52.9578651"></polygon>
                    <polygon id="Fill-226" fill="#B7A29E" points="29.9325021 52.9578651 32.234099 52.9578651 32.234099 50.6562682 29.9325021 50.6562682"></polygon>
                    <polygon id="Fill-227" fill="#505B64" points="59.8651217 48.3523228 57.5632899 48.3523228 57.5632899 50.6562682 55.2595794 50.6562682 55.2595794 52.9578651 52.9579825 52.9578651 50.6563856 52.9578651 48.3522053 52.9578651 46.0508433 52.9578651 43.746663 52.9578651 41.4450662 52.9578651 39.1437042 52.9578651 39.1437042 50.6562682 36.8397587 50.6562682 36.8397587 48.3523228 34.5381619 48.3523228 32.2342164 48.3523228 32.2342164 46.0507259 29.9326195 46.0507259 29.9326195 48.3523228 29.9326195 50.6562682 32.2342164 50.6562682 34.5381619 50.6562682 34.5381619 52.9578651 36.8397587 52.9578651 36.8397587 55.2618105 39.1437042 55.2618105 41.4450662 55.2618105 43.746663 55.2618105 46.0508433 55.2618105 48.3522053 55.2618105 50.6563856 55.2618105 52.9579825 55.2618105 55.2595794 55.2618105 57.5632899 55.2618105 57.5632899 52.9578651 59.8651217 52.9578651 59.8651217 50.6562682 62.1690671 50.6562682 62.1690671 48.3523228"></polygon>
                    <polygon id="Fill-228" fill="#505B64" points="57.5631725 41.4451836 59.8650042 41.4451836 59.8650042 39.1435867 57.5631725 39.1435867"></polygon>
                    <polygon id="Fill-229" fill="#505B64" points="34.5380444 41.4451836 36.8396413 41.4451836 36.8396413 39.1435867 34.5380444 39.1435867"></polygon>
                    <polygon id="Fill-230" fill="#B7A29E" points="29.9325021 43.749129 32.234099 43.749129 32.234099 41.4451836 29.9325021 41.4451836"></polygon>
                    <polygon id="Fill-231" fill="#B7A29E" points="29.9325021 34.5380444 32.234099 34.5380444 32.234099 32.2364476 29.9325021 32.2364476"></polygon>
                    <polygon id="Fill-232" fill="#B7A29E" points="29.9325021 25.3269598 32.234099 25.3269598 32.234099 23.0253629 29.9325021 23.0253629"></polygon>
                    <polygon id="Fill-233" fill="#B7A29E" points="27.6309053 78.2871735 29.9325021 78.2871735 29.9325021 75.983228 27.6309053 75.983228"></polygon>
                    <polygon id="Fill-234" fill="#B7A29E" points="27.6309053 62.1689497 29.9325021 62.1689497 29.9325021 59.8647694 27.6309053 59.8647694"></polygon>
                    <polygon id="Fill-235" fill="#B7A29E" points="27.6309053 52.9578651 29.9325021 52.9578651 29.9325021 50.6562682 27.6309053 50.6562682"></polygon>
                    <polygon id="Fill-236" fill="#B7A29E" points="27.6309053 50.6562682 29.9325021 50.6562682 29.9325021 48.3523228 27.6309053 48.3523228"></polygon>
                    <polygon id="Fill-237" fill="#B7A29E" points="27.6309053 41.4451836 29.9325021 41.4451836 29.9325021 39.1435867 27.6309053 39.1435867"></polygon>
                    <polygon id="Fill-238" fill="#B7A29E" points="27.6309053 25.3269598 29.9325021 25.3269598 29.9325021 23.0253629 27.6309053 23.0253629"></polygon>
                    <polygon id="Fill-239" fill="#B7A29E" points="25.3269598 80.5887703 27.6309053 80.5887703 27.6309053 78.2871735 25.3269598 78.2871735"></polygon>
                    <polygon id="Fill-240" fill="#B7A29E" points="25.3269598 64.4705465 27.6309053 64.4705465 27.6309053 62.1689497 25.3269598 62.1689497"></polygon>
                    <polygon id="Fill-241" fill="#B7A29E" points="25.3269598 50.6562682 27.6309053 50.6562682 27.6309053 48.3523228 25.3269598 48.3523228"></polygon>
                    <polygon id="Fill-242" fill="#B7A29E" points="25.3269598 48.3523228 27.6309053 48.3523228 27.6309053 46.0507259 25.3269598 46.0507259"></polygon>
                    <polygon id="Fill-243" fill="#B7A29E" points="25.3269598 46.0507259 27.6309053 46.0507259 27.6309053 43.749129 25.3269598 43.749129"></polygon>
                    <polygon id="Fill-244" fill="#B7A29E" points="25.3269598 36.8396413 27.6309053 36.8396413 27.6309053 34.5380444 25.3269598 34.5380444"></polygon>
                    <polygon id="Fill-245" fill="#B7A29E" points="25.3269598 27.6309053 27.6309053 27.6309053 27.6309053 25.3269598 25.3269598 25.3269598"></polygon>
                    <polygon id="Fill-246" fill="#B7A29E" points="25.3269598 25.3269598 27.6309053 25.3269598 27.6309053 23.0253629 25.3269598 23.0253629"></polygon>
                    <polygon id="Fill-247" fill="#B7A29E" points="23.0253629 82.8903672 25.3269598 82.8903672 25.3269598 80.5887703 23.0253629 80.5887703"></polygon>
                    <polygon id="Fill-248" fill="#B7A29E" points="23.0253629 48.3523228 25.3269598 48.3523228 25.3269598 46.0507259 23.0253629 46.0507259"></polygon>
                    <polygon id="Fill-249" fill="#B7A29E" points="23.0253629 43.749129 25.3269598 43.749129 25.3269598 41.4451836 23.0253629 41.4451836"></polygon>
                    <polygon id="Fill-250" fill="#B7A29E" points="23.0253629 41.4451836 25.3269598 41.4451836 25.3269598 39.1435867 23.0253629 39.1435867"></polygon>
                    <polygon id="Fill-251" fill="#B7A29E" points="23.0253629 39.1435867 25.3269598 39.1435867 25.3269598 36.8396413 23.0253629 36.8396413"></polygon>
                    <path d="M29.9325726,43.7491055 L29.9325726,41.4451601 L27.6309757,41.4451601 L27.6309757,39.1435632 L29.9325726,39.1435632 L29.9325726,41.4451601 L32.2341694,41.4451601 L32.2341694,43.7491055 L29.9325726,43.7491055 Z M27.6309757,32.2364241 L27.6309757,29.9324786 L29.9325726,29.9324786 L29.9325726,32.2364241 L32.2341694,32.2364241 L32.2341694,34.5380209 L29.9325726,34.5380209 L29.9325726,32.2364241 L27.6309757,32.2364241 Z M32.2341694,29.9324786 L34.5381149,29.9324786 L34.5381149,27.6308818 L32.2341694,27.6308818 L32.2341694,29.9324786 Z M39.1436572,27.6308818 L41.4452541,27.6308818 L41.4452541,25.3269363 L39.1436572,25.3269363 L39.1436572,27.6308818 Z M46.0507964,32.2364241 L48.3523932,32.2364241 L48.3523932,29.9324786 L46.0507964,29.9324786 L46.0507964,32.2364241 Z M34.5381149,41.4451601 L36.8397117,41.4451601 L36.8397117,39.1435632 L34.5381149,39.1435632 L34.5381149,41.4451601 Z M36.8397117,34.5380209 L39.1436572,34.5380209 L39.1436572,32.2364241 L36.8397117,32.2364241 L36.8397117,34.5380209 Z M48.3521584,36.8396178 L50.6563387,36.8396178 L50.6563387,34.5380209 L48.3521584,34.5380209 L48.3521584,36.8396178 Z M64.470617,39.1435632 L64.470617,36.8396178 L62.1690201,36.8396178 L59.8650747,36.8396178 L59.8650747,34.5380209 L62.1690201,34.5380209 L62.1690201,32.2364241 L59.8650747,32.2364241 L57.563243,32.2364241 L55.2595324,32.2364241 L55.2595324,29.9324786 L52.9579355,29.9324786 L50.6563387,29.9324786 L50.6563387,27.6308818 L52.9579355,27.6308818 L55.2595324,27.6308818 L55.2595324,25.3269363 L52.9579355,25.3269363 L50.6563387,25.3269363 L48.3523932,25.3269363 L48.3523932,27.6308818 L46.0507964,27.6308818 L46.0507964,25.3269363 L48.3523932,25.3269363 L48.3523932,23.0253395 L46.0507964,23.0253395 L43.7466161,23.0253395 L43.7466161,20.7237426 L41.4452541,20.7237426 L39.1436572,20.7237426 L39.1436572,23.0253395 L36.8397117,23.0253395 L36.8397117,25.3269363 L34.5381149,25.3269363 L32.2341694,25.3269363 L29.9325726,25.3269363 L29.9325726,27.6308818 L27.6309757,27.6308818 L25.3270303,27.6308818 L25.3270303,29.9324786 L25.3270303,32.2364241 L23.0254334,32.2364241 L23.0254334,34.5380209 L25.3270303,34.5380209 L27.6309757,34.5380209 L27.6309757,36.8396178 L25.3270303,36.8396178 L25.3270303,39.1435632 L25.3270303,41.4451601 L25.3270303,43.7491055 L27.6309757,43.7491055 L27.6309757,46.0507024 L27.6309757,48.3522993 L29.9325726,48.3522993 L29.9325726,46.0507024 L32.2341694,46.0507024 L32.2341694,48.3522993 L34.5381149,48.3522993 L36.8397117,48.3522993 L36.8397117,50.6562447 L39.1436572,50.6562447 L39.1436572,52.9578416 L41.4452541,52.9578416 L43.7466161,52.9578416 L46.0507964,52.9578416 L48.3523932,52.9578416 L50.6563387,52.9578416 L52.9579355,52.9578416 L55.2595324,52.9578416 L55.2595324,50.6562447 L57.563243,50.6562447 L57.563243,48.3522993 L59.8650747,48.3522993 L62.1690201,48.3522993 L62.1690201,46.0507024 L64.470617,46.0507024 L64.470617,43.7491055 L64.470617,41.4451601 L62.1690201,41.4451601 L62.1690201,43.7491055 L59.8650747,43.7491055 L59.8650747,41.4451601 L57.563243,41.4451601 L57.563243,39.1435632 L59.8650747,39.1435632 L59.8650747,41.4451601 L62.1690201,41.4451601 L62.1690201,39.1435632 L64.470617,39.1435632 Z" id="Fill-252" fill="#CCB4AE"></path>
                    <polygon id="Fill-253" fill="#CCB4AE" points="55.2594619 64.4705465 57.5634074 64.4705465 57.5634074 62.1689497 55.2594619 62.1689497"></polygon>
                    <polygon id="Fill-254" fill="#CCB4AE" points="55.2594619 29.9325021 57.5634074 29.9325021 57.5634074 27.6309053 55.2594619 27.6309053"></polygon>
                    <polygon id="Fill-255" fill="#CCB4AE" points="52.9579825 78.2871265 52.9579825 80.5887234 52.9579825 82.8903202 55.2593445 82.8903202 57.5632899 82.8903202 57.5632899 80.5887234 55.2593445 80.5887234 55.2593445 78.2871265"></polygon>
                    <polygon id="Fill-256" fill="#CCB4AE" points="52.9579355 59.8649103 52.9579355 57.5633134 50.6563387 57.5633134 48.3523932 57.5633134 48.3523932 59.8649103 50.6563387 59.8649103 50.6563387 62.1690906 52.9579355 62.1690906 55.2595324 62.1690906 55.2595324 59.8649103"></polygon>
                    <polygon id="Fill-257" fill="#CCB4AE" points="50.6562682 78.2871735 52.9578651 78.2871735 52.9578651 75.983228 50.6562682 75.983228"></polygon>
                    <polygon id="Fill-258" fill="#CCB4AE" points="48.3522993 59.8649103 46.0507024 59.8649103 43.746757 59.8649103 43.746757 62.1690906 46.0507024 62.1690906 46.0507024 64.4704526 48.3522993 64.4704526 48.3522993 66.7746329 46.0507024 66.7746329 43.746757 66.7746329 43.746757 69.0762298 46.0507024 69.0762298 46.0507024 71.3778266 46.0507024 73.6815372 48.3522993 73.6815372 48.3522993 75.9833689 50.6564796 75.9833689 50.6564796 73.6815372 50.6564796 71.3778266 50.6564796 69.0762298 50.6564796 66.7746329 50.6564796 64.4704526 50.6564796 62.1690906 48.3522993 62.1690906"></polygon>
                    <polygon id="Fill-259" fill="#CCB4AE" points="43.7467805 75.983228 46.0509608 75.983228 46.0509608 73.6813963 43.7467805 73.6813963"></polygon>
                    <polygon id="Fill-260" fill="#CCB4AE" points="46.0507494 57.5633604 46.0507494 55.2617635 43.7465691 55.2617635 41.4452071 55.2617635 41.4452071 57.5633604 43.7465691 57.5633604"></polygon>
                    <polygon id="Fill-261" fill="#CCB4AE" points="41.4451836 71.3776857 43.7467805 71.3776857 43.7467805 69.0760888 41.4451836 69.0760888"></polygon>
                    <polygon id="Fill-262" fill="#CCB4AE" points="39.1435867 75.983228 41.4451836 75.983228 41.4451836 73.6813963 39.1435867 73.6813963"></polygon>
                    <polygon id="Fill-263" fill="#CCB4AE" points="36.8396413 57.5634074 39.1435867 57.5634074 39.1435867 55.2618105 36.8396413 55.2618105"></polygon>
                    <polygon id="Fill-264" fill="#CCB4AE" points="32.234099 57.5634543 29.9325021 57.5634543 27.6309053 57.5634543 27.6309053 59.8648164 29.9325021 59.8648164 32.234099 59.8648164 32.234099 62.1689966 34.5380444 62.1689966 34.5380444 64.4703587 32.234099 64.4703587 32.234099 66.774539 32.234099 69.0761358 34.5380444 69.0761358 34.5380444 71.3777327 32.234099 71.3777327 32.234099 73.6816781 32.234099 75.983275 32.234099 78.2872204 29.9325021 78.2872204 27.6309053 78.2872204 27.6309053 80.5888173 25.3269598 80.5888173 25.3269598 82.8904142 27.6309053 82.8904142 29.9325021 82.8904142 29.9325021 80.5888173 32.234099 80.5888173 34.5380444 80.5888173 34.5380444 78.2872204 36.8396413 78.2872204 39.1435867 78.2872204 39.1435867 75.983275 36.8396413 75.983275 36.8396413 73.6816781 36.8396413 71.3777327 39.1435867 71.3777327 39.1435867 69.0761358 39.1435867 66.774539 36.8396413 66.774539 36.8396413 64.4703587 39.1435867 64.4703587 39.1435867 62.1689966 36.8396413 62.1689966 36.8396413 59.8648164 34.5380444 59.8648164 34.5380444 57.5634543"></polygon>
                    <polygon id="Fill-265" fill="#CCB4AE" points="34.5380444 23.0253629 36.8396413 23.0253629 36.8396413 20.7237661 34.5380444 20.7237661"></polygon>
                    <polygon id="Fill-266" fill="#CCB4AE" points="25.3269598 62.1689497 27.6309053 62.1689497 27.6309053 59.8647694 25.3269598 59.8647694"></polygon>
                    <polygon id="Fill-267" fill="#CCB4AE" points="23.0253629 64.4705465 25.3269598 64.4705465 25.3269598 62.1689497 23.0253629 62.1689497"></polygon>
                    <polygon id="Fill-268" fill="#B7A29E" points="23.0253629 32.2364476 25.3269598 32.2364476 25.3269598 29.9325021 23.0253629 29.9325021"></polygon>
                    <polygon id="Fill-269" fill="#B7A29E" points="23.0253629 27.6309053 25.3269598 27.6309053 25.3269598 25.3269598 23.0253629 25.3269598"></polygon>
                    <polygon id="Fill-270" fill="#B7A29E" points="20.7214175 46.0507259 23.0253629 46.0507259 23.0253629 43.749129 20.7214175 43.749129"></polygon>
                    <polygon id="Fill-271" fill="#B7A29E" points="20.7214175 39.1435867 23.0253629 39.1435867 23.0253629 36.8396413 20.7214175 36.8396413"></polygon>
                    <polygon id="Fill-272" fill="#B7A29E" points="20.7214175 36.8396413 23.0253629 36.8396413 23.0253629 34.5380444 20.7214175 34.5380444"></polygon>
                    <polygon id="Fill-273" fill="#B7A29E" points="20.7214175 32.2364476 23.0253629 32.2364476 23.0253629 29.9325021 20.7214175 29.9325021"></polygon>
                    <polygon id="Fill-274" fill="#B7A29E" points="20.7214175 29.9325021 23.0253629 29.9325021 23.0253629 27.6309053 20.7214175 27.6309053"></polygon>
                    <polygon id="Fill-275" fill="#B7A29E" points="18.4198206 36.8396413 20.7214175 36.8396413 20.7214175 34.5380444 18.4198206 34.5380444"></polygon>
                    <polygon id="Fill-276" fill="#B7A29E" points="18.4198206 29.9325021 20.7214175 29.9325021 20.7214175 27.6309053 18.4198206 27.6309053"></polygon>
                    <polygon id="Fill-277" fill="#CB97B0" points="69.0761358 39.1436102 66.7719555 39.1436102 64.4705935 39.1436102 64.4705935 41.4452071 66.7719555 41.4452071 69.0761358 41.4452071 71.3777327 41.4452071 71.3777327 39.1436102"></polygon>
                    <polygon id="Fill-278" fill="#CB97B0" points="66.7719086 29.9325021 69.0760888 29.9325021 69.0760888 27.6309053 66.7719086 27.6309053"></polygon>
                    <polygon id="Fill-279" fill="#CB97B0" points="62.1689497 34.5380444 64.4705465 34.5380444 64.4705465 32.2364476 62.1689497 32.2364476"></polygon>
                    <polygon id="Fill-280" fill="#CB97B0" points="57.5633369 66.7746094 57.5633369 69.0762063 59.8651686 69.0762063 62.1688792 69.0762063 62.1688792 66.7746094 59.8651686 66.7746094"></polygon>
                    <polygon id="Fill-281" fill="#CB97B0" points="57.5633369 27.6309287 57.5633369 25.3269833 57.5633369 23.0253864 55.2593915 23.0253864 55.2593915 20.7237896 55.2593915 18.4198441 55.2593915 16.1182473 55.2593915 13.8166504 52.9580295 13.8166504 52.9580295 16.1182473 52.9580295 18.4198441 52.9580295 20.7237896 52.9580295 23.0253864 52.9580295 25.3269833 55.2593915 25.3269833 55.2593915 27.6309287"></polygon>
                    <polygon id="Fill-282" fill="#CB97B0" points="25.3269598 73.6816312 27.6309053 73.6816312 27.6309053 71.3776857 25.3269598 71.3776857"></polygon>
                    <polygon id="Fill-283" fill="#CB97B0" points="20.7214175 73.6815372 20.7214175 71.3775918 18.4198206 71.3775918 18.4198206 73.6815372 18.4198206 75.9833689 20.7214175 75.9833689 23.0253629 75.9833689 25.3269598 75.9833689 25.3269598 73.6815372 23.0253629 73.6815372"></polygon>
                    <polygon id="Fill-284" fill="#CB97B0" points="18.4197502 66.7746094 18.4197502 69.0762063 20.7213471 69.0762063 23.0252925 69.0762063 23.0252925 66.7746094 20.7213471 66.7746094"></polygon>
                    <polygon id="Fill-285" fill="#CB97B0" points="18.4197502 46.0507729 20.7213471 46.0507729 20.7213471 43.749176 20.7213471 41.4452306 18.4197502 41.4452306 16.1181533 41.4452306 13.8142079 41.4452306 11.512611 41.4452306 9.20866558 41.4452306 9.20866558 43.749176 11.512611 43.749176 13.8142079 43.749176 16.1181533 43.749176 16.1181533 46.0507729"></polygon>
                    <polygon id="Fill-286" fill="#CB97B0" points="16.1182003 20.7237426 16.1182003 23.0253395 18.4197972 23.0253395 18.4197972 25.3269363 18.4197972 27.6308818 20.721394 27.6308818 20.721394 25.3269363 20.721394 23.0253395 20.721394 20.7237426 18.4197972 20.7237426 18.4197972 18.4197972 18.4197972 16.1182003 16.1182003 16.1182003 16.1182003 13.8166034 16.1182003 11.512658 16.1182003 9.21106112 13.8142549 9.21106112 13.8142549 11.512658 13.8142549 13.8166034 13.8142549 16.1182003 13.8142549 18.4197972 16.1182003 18.4197972"></polygon>
                    <polygon id="Fill-287" fill="#CB97B0" points="6.90718614 39.1436102 4.60558927 39.1436102 4.60558927 41.4452071 6.90718614 41.4452071 9.20878301 41.4452071 9.20878301 39.1436102"></polygon>
                    <polygon id="Fill-288" fill="#CB97B0" points="6.90718614 29.9324786 9.20878301 29.9324786 11.5127284 29.9324786 11.5127284 32.2364241 13.8143253 32.2364241 13.8143253 34.5380209 16.1182707 34.5380209 18.4198676 34.5380209 18.4198676 32.2364241 16.1182707 32.2364241 16.1182707 29.9324786 13.8143253 29.9324786 13.8143253 27.6308818 11.5127284 27.6308818 9.20878301 27.6308818 9.20878301 25.3269363 6.90718614 25.3269363 4.60558927 25.3269363 4.60558927 27.6308818 6.90718614 27.6308818"></polygon>
                    <polygon id="Fill-289" fill="#B6869B" points="71.3776857 41.4451836 73.6792826 41.4451836 73.6792826 39.1435867 71.3776857 39.1435867"></polygon>
                    <polygon id="Fill-290" fill="#B6869B" points="69.0761358 36.8396413 66.7719555 36.8396413 64.4705935 36.8396413 64.4705935 39.1435867 66.7719555 39.1435867 69.0761358 39.1435867 71.3777327 39.1435867 71.3777327 36.8396413"></polygon>
                    <polygon id="Fill-291" fill="#B6869B" points="66.7719086 27.6309053 69.0760888 27.6309053 69.0760888 25.3269598 66.7719086 25.3269598"></polygon>
                    <polygon id="Fill-292" fill="#B6869B" points="64.4705465 25.3269598 66.7721434 25.3269598 66.7721434 23.0253629 64.4705465 23.0253629"></polygon>
                    <polygon id="Fill-293" fill="#B6869B" points="64.4704996 29.9324786 66.7720964 29.9324786 66.7720964 27.6308818 64.4704996 27.6308818 62.1689027 27.6308818 62.1689027 29.9324786 59.8651921 29.9324786 59.8651921 32.2364241 62.1689027 32.2364241 64.4704996 32.2364241"></polygon>
                    <polygon id="Fill-294" fill="#B6869B" points="55.2594854 64.4705231 55.2594854 66.7747034 55.2594854 69.0760654 57.5634309 69.0760654 57.5634309 66.7747034 59.8650277 66.7747034 59.8650277 64.4705231 57.5634309 64.4705231"></polygon>
                    <polygon id="Fill-295" fill="#B6869B" points="55.2594619 32.2364476 57.5634074 32.2364476 57.5634074 29.9325021 55.2594619 29.9325021"></polygon>
                    <polygon id="Fill-296" fill="#B6869B" points="55.2594854 11.5127284 57.5634309 11.5127284 57.5634309 9.21113158 57.5634309 6.90718614 57.5634309 4.60558927 55.2594854 4.60558927 55.2594854 6.90718614 55.2594854 9.21113158 52.9578886 9.21113158 52.9578886 11.5127284 50.6562917 11.5127284 50.6562917 13.8166739 50.6562917 16.1182707 48.3523463 16.1182707 48.3523463 18.4198676 48.3523463 20.7238131 48.3523463 23.0254099 50.6562917 23.0254099 50.6562917 25.3270068 52.9578886 25.3270068 52.9578886 23.0254099 52.9578886 20.7238131 52.9578886 18.4198676 52.9578886 16.1182707 52.9578886 13.8166739 55.2594854 13.8166739"></polygon>
                    <polygon id="Fill-297" fill="#B6869B" points="52.9578651 4.6055423 55.2594619 4.6055423 55.2594619 2.30394544 52.9578651 2.30394544"></polygon>
                    <polygon id="Fill-298" fill="#B6869B" points="50.6562682 29.9325021 52.9578651 29.9325021 52.9578651 27.6309053 50.6562682 27.6309053"></polygon>
                    <polygon id="Fill-299" fill="#B6869B" points="48.3523228 36.8396413 50.6565031 36.8396413 50.6565031 34.5380444 48.3523228 34.5380444"></polygon>
                    <polygon id="Fill-300" fill="#B6869B" points="46.0507259 27.6309053 48.3523228 27.6309053 48.3523228 25.3269598 46.0507259 25.3269598"></polygon>
                    <polygon id="Fill-301" fill="#B6869B" points="43.7465456 23.0253629 46.0507259 23.0253629 46.0507259 20.7237661 43.7465456 20.7237661"></polygon>
                    <polygon id="Fill-302" fill="#B6869B" points="39.1435867 27.6309053 41.4451836 27.6309053 41.4451836 25.3269598 39.1435867 25.3269598"></polygon>
                    <polygon id="Fill-303" fill="#B6869B" points="36.8396413 34.5380444 39.1435867 34.5380444 39.1435867 32.2364476 36.8396413 32.2364476"></polygon>
                    <polygon id="Fill-304" fill="#B6869B" points="34.5380444 25.3269598 36.8396413 25.3269598 36.8396413 23.0253629 34.5380444 23.0253629"></polygon>
                    <polygon id="Fill-305" fill="#B6869B" points="27.6309053 73.6815372 25.3269598 73.6815372 25.3269598 75.9833689 23.0253629 75.9833689 20.7214175 75.9833689 20.7214175 78.2870795 23.0253629 78.2870795 25.3269598 78.2870795 27.6309053 78.2870795 27.6309053 75.9833689 29.9325021 75.9833689 29.9325021 73.6815372 29.9325021 71.3775918 27.6309053 71.3775918"></polygon>
                    <polygon id="Fill-306" fill="#B6869B" points="27.6309053 32.2364476 29.9325021 32.2364476 29.9325021 29.9325021 27.6309053 29.9325021"></polygon>
                    <polygon id="Fill-307" fill="#B6869B" points="27.6309053 27.6309053 29.9325021 27.6309053 29.9325021 25.3269598 27.6309053 25.3269598"></polygon>
                    <polygon id="Fill-308" fill="#B6869B" points="25.3269363 69.0761593 25.3269363 66.7745624 25.3269363 64.470617 23.0253395 64.470617 20.721394 64.470617 20.721394 66.7745624 23.0253395 66.7745624 23.0253395 69.0761593"></polygon>
                    <polygon id="Fill-309" fill="#B6869B" points="23.0253629 46.0507259 25.3269598 46.0507259 25.3269598 43.749129 23.0253629 43.749129"></polygon>
                    <polygon id="Fill-310" fill="#B6869B" points="23.0253629 36.8396413 25.3269598 36.8396413 25.3269598 34.5380444 23.0253629 34.5380444"></polygon>
                    <polygon id="Fill-311" fill="#B6869B" points="23.0253629 29.9325021 25.3269598 29.9325021 25.3269598 27.6309053 23.0253629 27.6309053"></polygon>
                    <polygon id="Fill-312" fill="#B6869B" points="20.7214175 43.7491055 23.0253629 43.7491055 23.0253629 41.4451601 23.0253629 39.1435632 20.7214175 39.1435632 20.7214175 36.8396178 18.4198206 36.8396178 16.1182238 36.8396178 16.1182238 39.1435632 13.8142783 39.1435632 11.5126815 39.1435632 9.20873604 39.1435632 9.20873604 41.4451601 11.5126815 41.4451601 13.8142783 41.4451601 16.1182238 41.4451601 18.4198206 41.4451601 20.7214175 41.4451601"></polygon>
                    <polygon id="Fill-313" fill="#B6869B" points="11.5127519 0.000117428412 11.5127519 2.30382801 11.5127519 4.60542488 13.8141139 4.60542488 13.8141139 6.90702174 13.8141139 9.21096718 16.1180594 9.21096718 16.1180594 11.512564 16.1180594 13.8165095 16.1180594 16.1181063 18.4196562 16.1181063 18.4196562 18.4199381 18.4196562 20.7238835 20.7212531 20.7238835 20.7212531 23.0254804 20.7212531 25.3270772 20.7212531 27.6310227 23.0251985 27.6310227 23.0251985 25.3270772 25.3270303 25.3270772 25.3270303 23.0254804 25.3270303 20.7238835 23.0251985 20.7238835 23.0251985 18.4199381 23.0251985 16.1181063 23.0251985 13.8165095 20.7212531 13.8165095 20.7212531 11.512564 18.4196562 11.512564 18.4196562 9.21096718 18.4196562 6.90702174 16.1180594 6.90702174 16.1180594 4.60542488 16.1180594 2.30382801 13.8141139 2.30382801 13.8141139 0.000117428412"></polygon>
                    <polygon id="Fill-314" fill="#B6869B" points="2.30162035 18.4198441 2.34856823e-05 18.4198441 2.34856823e-05 20.7237896 2.30162035 20.7237896 2.30162035 23.0253864 4.60556579 23.0253864 4.60556579 25.3269833 6.90716266 25.3269833 9.20875952 25.3269833 9.20875952 27.6309287 11.512705 27.6309287 13.814067 27.6309287 13.814067 29.9322907 16.1180124 29.9322907 16.1180124 32.2362362 18.4198441 32.2362362 18.4198441 34.5378331 20.721441 34.5378331 23.0253864 34.5378331 23.0253864 32.2362362 20.721441 32.2362362 20.721441 29.9322907 18.4198441 29.9322907 18.4198441 27.6309287 16.1180124 27.6309287 16.1180124 25.3269833 13.814067 25.3269833 11.512705 25.3269833 11.512705 23.0253864 9.20875952 23.0253864 6.90716266 23.0253864 6.90716266 20.7237896 4.60556579 20.7237896 4.60556579 18.4198441"></polygon>
                </g>
            </g>
        </g>
    </g>
</svg>