<?xml version="1.0" encoding="UTF-8"?>
<svg width="25px" height="31px" viewBox="0 0 25 31" version="1.1" xmlns="http://www.w3.org/2000/svg" xmlns:xlink="http://www.w3.org/1999/xlink">
    <!-- Generator: Sketch 51.2 (57519) - http://www.bohemiancoding.com/sketch -->
    <title>arrow_down</title>
    <desc>Created with Sketch.</desc>
    <defs>
        <polygon id="path-1" points="0 0.228874996 24.5304444 0.228874996 24.5304444 15 0 15"></polygon>
        <polygon id="path-3" points="0 0.378271424 24.5304444 0.378271424 24.5304444 15.5715717 0 15.5715717"></polygon>
        <polygon id="path-5" points="0 0.488571429 24.5304444 0.488571429 24.5304444 14.7320092 0 14.7320092"></polygon>
    </defs>
    <g id="Page-1" stroke="none" stroke-width="1" fill="none" fill-rule="evenodd">
        <g id="Prowell" transform="translate(-588.000000, -710.000000)">
            <g id="arrow_down" transform="translate(588.000000, 710.000000)">
                <g id="Group-3" transform="translate(0.000000, 16.000000)">
                    <mask id="mask-2" fill="white">
                        <use xlink:href="#path-1"></use>
                    </mask>
                    <g id="Clip-2"></g>
                    <path d="M12.2637778,13.8894444 C12.6337778,13.89 12.9893333,13.7433333 13.251,13.4822222 L23.0104444,3.72555556 C23.556,3.17944444 23.556,2.29444444 23.0098889,1.74888889 C22.7482222,1.48666667 22.3926667,1.34 22.0221111,1.34 L22.0215556,1.34 C21.651,1.33888889 21.2954444,1.48611111 21.0343333,1.74888889 L14.0365556,8.74666667 C13.5671111,9.21833333 12.9287778,9.48277778 12.2632222,9.48111111 L12.2626667,9.48111111 C11.5965556,9.48277778 10.9582222,9.21833333 10.4887778,8.74611111 L3.49655556,1.75 C3.23488889,1.48666667 2.87933333,1.33944444 2.50822222,1.34055556 C2.13711111,1.33944444 1.78155556,1.48666667 1.52044444,1.74944444 C0.974888889,2.295 0.974888889,3.17944444 1.52044444,3.72555556 L11.276,13.4816667 C11.5376667,13.7427778 11.8932222,13.89 12.2637778,13.8894444 M22.0221111,0.228888889 C23.4076667,0.228888889 24.5304444,1.35222222 24.5304444,2.73777778 C24.5304444,3.40277778 24.266,4.04055556 23.796,4.51111111 L14.036,14.2688889 C13.0554444,15.2444444 11.4698889,15.2438889 10.4904444,14.2672222 L0.734888889,4.51111111 C-0.245111111,3.53111111 -0.245111111,1.94333333 0.734888889,0.963888889 C1.20377778,0.492222222 1.84266667,0.227777778 2.50822222,0.229444444 L2.50877778,0.229444444 C3.17433333,0.227222222 3.81322222,0.492222222 4.28266667,0.964444444 L11.2748889,7.96 C11.536,8.22388889 11.8921111,8.37055556 12.2626667,8.36944444 L12.2632222,8.36944444 C12.6337778,8.37055556 12.9893333,8.22388889 13.251,7.96055556 L20.2487778,0.963333333 C20.7176667,0.491111111 21.3565556,0.226666667 22.0221111,0.228888889" id="Fill-1" fill="#000000" mask="url(#mask-2)"></path>
                </g>
                <g id="Group-6" transform="translate(0.000000, 8.000000)">
                    <mask id="mask-4" fill="white">
                        <use xlink:href="#path-3"></use>
                    </mask>
                    <g id="Clip-5"></g>
                    <path d="M12.2637778,14.4291429 C12.6337778,14.4297143 12.9893333,14.2788571 13.251,14.0102857 L23.0104444,3.97485714 C23.556,3.41314286 23.556,2.50285714 23.0098889,1.94171429 C22.7482222,1.672 22.3926667,1.52114286 22.0221111,1.52114286 L22.0215556,1.52114286 C21.651,1.52 21.2954444,1.67142857 21.0343333,1.94171429 L14.0365556,9.13942857 C13.5671111,9.62457143 12.9287778,9.89657143 12.2632222,9.89485714 L12.2626667,9.89485714 C11.5965556,9.89657143 10.9582222,9.624 10.4887778,9.13885714 L3.49655556,1.94285714 C3.23488889,1.672 2.87933333,1.52057143 2.50822222,1.52171429 C2.13711111,1.52057143 1.78155556,1.672 1.52044444,1.94228571 C0.974888889,2.50342857 0.974888889,3.41314286 1.52044444,3.97485714 L11.276,14.0097143 C11.5376667,14.2782857 11.8932222,14.4297143 12.2637778,14.4291429 M22.0221111,0.378285714 C23.4076667,0.378285714 24.5304444,1.53371429 24.5304444,2.95885714 C24.5304444,3.64285714 24.266,4.29885714 23.796,4.78285714 L14.036,14.8194286 C13.0554444,15.8228571 11.4698889,15.8222857 10.4904444,14.8177143 L0.734888889,4.78285714 C-0.245111111,3.77485714 -0.245111111,2.14171429 0.734888889,1.13428571 C1.20377778,0.649142857 1.84266667,0.377142857 2.50822222,0.378857143 L2.50877778,0.378857143 C3.17433333,0.376571429 3.81322222,0.649142857 4.28266667,1.13485714 L11.2748889,8.33085714 C11.536,8.60114286 11.8921111,8.75314286 12.2626667,8.752 L12.2632222,8.752 C12.6337778,8.75257143 12.9893333,8.60114286 13.251,8.33142857 L20.2487778,1.13371429 C20.7176667,0.648 21.3565556,0.376 22.0221111,0.378285714" id="Fill-4" fill="#000000" mask="url(#mask-4)"></path>
                </g>
                <g id="Group-9">
                    <mask id="mask-6" fill="white">
                        <use xlink:href="#path-5"></use>
                    </mask>
                    <g id="Clip-8"></g>
                    <path d="M12.2637778,13.6609821 C12.6337778,13.6615179 12.9893333,13.5200893 13.251,13.2683036 L23.0104444,3.86008929 C23.556,3.33401786 23.556,2.48008929 23.0098889,1.95401786 C22.7482222,1.70169643 22.3926667,1.55973214 22.0221111,1.55973214 L22.0215556,1.55973214 C21.651,1.55866071 21.2954444,1.700625 21.0343333,1.95401786 L14.0365556,8.701875 C13.5671111,9.15669643 12.9287778,9.41223214 12.2632222,9.41008929 L12.2626667,9.41008929 C11.5965556,9.41169643 10.9582222,9.15669643 10.4887778,8.70133929 L3.49655556,1.95508929 C3.23488889,1.70169643 2.87933333,1.55919643 2.50822222,1.56026786 C2.13711111,1.55973214 1.78155556,1.70169643 1.52044444,1.95455357 C0.974888889,2.48116071 0.974888889,3.33401786 1.52044444,3.86008929 L11.276,13.2677679 C11.5376667,13.5200893 11.8932222,13.6615179 12.2637778,13.6609821 M22.0221111,0.488303571 C23.4076667,0.488303571 24.5304444,1.57151786 24.5304444,2.90758929 C24.5304444,3.549375 24.266,4.16383929 23.796,4.61758929 L14.036,14.026875 C13.0554444,14.9675893 11.4698889,14.9670536 10.4904444,14.0252679 L0.734888889,4.61758929 C-0.245111111,3.673125 -0.245111111,2.14205357 0.734888889,1.19705357 C1.20377778,0.742232143 1.84266667,0.487232143 2.50822222,0.488839286 L2.50877778,0.488839286 C3.17433333,0.487232143 3.81322222,0.742232143 4.28266667,1.19758929 L11.2748889,7.94383929 C11.536,8.19776786 11.8921111,8.33973214 12.2626667,8.33866071 L12.2632222,8.33866071 C12.6337778,8.33973214 12.9893333,8.19776786 13.251,7.944375 L20.2487778,1.19651786 C20.7176667,0.741696429 21.3565556,0.486696429 22.0221111,0.488303571" id="Fill-7" fill="#000000" mask="url(#mask-6)"></path>
                </g>
            </g>
        </g>
    </g>
</svg>