<?xml version="1.0" encoding="UTF-8"?>
<svg width="92px" height="92px" viewBox="0 0 92 92" version="1.1" xmlns="http://www.w3.org/2000/svg" xmlns:xlink="http://www.w3.org/1999/xlink">
    <!-- Generator: Sketch 51.2 (57519) - http://www.bohemiancoding.com/sketch -->
    <title>BTN_PLAY</title>
    <desc>Created with Sketch.</desc>
    <defs>
        <polygon id="path-1" points="0.000613333333 0 92 0 92 91.9996933 0.000613333333 91.9996933"></polygon>
    </defs>
    <g id="Page-1" stroke="none" stroke-width="1" fill="none" fill-rule="evenodd">
        <g id="Prowell" transform="translate(-554.000000, -1954.000000)">
            <g id="BTN_PLAY" transform="translate(554.000000, 1954.000000)">
                <polygon id="Fill-1" fill="#000000" points="37 55 55 45 37 35"></polygon>
                <g id="Group-4">
                    <mask id="mask-2" fill="white">
                        <use xlink:href="#path-1"></use>
                    </mask>
                    <g id="Clip-3"></g>
                    <path d="M60.4139467,50.2930267 L38.6406133,62.86636 C38.02728,63.1730267 37.10728,63.4796933 36.18728,63.4796933 C35.26728,63.4796933 34.6539467,63.1730267 33.7339467,62.86636 C32.2006133,61.94636 31.2806133,60.4130267 31.2806133,58.5730267 L31.2806133,33.42636 C31.2806133,31.58636 32.2006133,30.0530267 33.7339467,29.1330267 C35.26728,28.2130267 37.10728,28.2130267 38.6406133,29.1330267 L60.4139467,41.70636 C61.94728,42.62636 62.86728,44.1596933 62.86728,45.9996933 C62.86728,47.8396933 61.94728,49.3730267 60.4139467,50.2930267 M46.0006133,-0.000306666667 C20.54728,-0.000306666667 0.000613333333,20.54636 0.000613333333,45.9996933 C0.000613333333,71.4530267 20.54728,91.9996933 46.0006133,91.9996933 C71.4539467,91.9996933 92.0006133,71.4530267 92.0006133,45.9996933 C92.0006133,20.54636 71.4539467,-0.000306666667 46.0006133,-0.000306666667" id="Fill-2" fill="#FFFFFF" mask="url(#mask-2)"></path>
                </g>
            </g>
        </g>
    </g>
</svg>