<?xml version="1.0" encoding="UTF-8"?>
<svg width="86px" height="104px" viewBox="0 0 86 104" version="1.1" xmlns="http://www.w3.org/2000/svg" xmlns:xlink="http://www.w3.org/1999/xlink">
    <!-- Generator: Sketch 51.2 (57519) - http://www.bohemiancoding.com/sketch -->
    <title>Clarita</title>
    <desc>Created with Sketch.</desc>
    <defs>
        <polygon id="path-1" points="0.155977186 0.325392594 20.6776046 0.325392594 20.6776046 2.96590373 0.155977186 2.96590373"></polygon>
        <polygon id="path-3" points="0.170243246 0.101170272 17.1629513 0.101170272 17.1629513 17.1052566 0.170243246 17.1052566"></polygon>
    </defs>
    <g id="Page-1" stroke="none" stroke-width="1" fill="none" fill-rule="evenodd">
        <g id="Prowell" transform="translate(-303.000000, -5400.000000)">
            <g id="7" transform="translate(0.000000, 4800.000000)">
                <g id="Clarita" transform="translate(303.000000, 600.000000)">
                    <polygon id="Fill-1" fill="#D91FCB" points="56.9175856 86 59 92.4198547 52.1510157 95 50 88.6389831"></polygon>
                    <path d="M55.4122327,87.044749 L49.9933877,89.0985976 L51.6485174,93.9619955 L57.0149809,91.9534311 L55.4122327,87.044749 Z M49,88.6133176 L55.8954437,86 L58,92.4451344 L51.173675,95 L49,88.6133176 Z" id="Fill-2" fill="#000000"></path>
                    <g id="Group-197">
                        <path d="M54.5217764,79.5741756 C54.8343848,79.7527889 58.3237612,87.4842409 58.1641871,87.9914104 C57.7802935,89.2113855 51.0736015,90.0148158 49.5504532,90.372372 C48.370651,88.1087284 47.1908487,85.8450847 46.0110464,83.5814411 C45.7520654,83.084817 45.4858905,82.5456816 45.5758144,82.0009439 C45.7210008,81.123366 46.6918525,80.6484918 47.5639513,80.3759582 C49.7921034,79.6789709 52.1657688,79.4041305 54.5129475,79.5712097 C54.5155635,79.5712097 54.5185065,79.5725279 54.5217764,79.5741756" id="Fill-3" fill="#49CEA7"></path>
                        <path d="M54.2275125,80.1076099 C52.041216,79.9817237 49.798676,80.2565641 47.7268281,80.9044493 C47.047003,81.1170058 46.2161057,81.4956528 46.1176798,82.0917995 C46.0591475,82.4457306 46.2550183,82.8593094 46.4973224,83.3239677 L49.8444555,89.7461379 C50.1891095,89.6798994 50.6334973,89.6044336 51.1521133,89.5164451 C52.7766304,89.239957 57.028235,88.5169356 57.6057103,87.870039 C57.3787749,86.8095637 54.8811779,81.218176 54.2275125,80.1076099 Z M45.5248357,83.8390463 C45.2655278,83.3414336 44.9100829,82.6599348 45.0340144,81.9098907 C45.1870487,80.9845287 45.9832844,80.2905073 47.4011399,79.8469399 C49.6796494,79.1344639 52.1523947,78.848419 54.5417559,79.0184641 L54.6833452,79.02868 L54.7955049,79.0942594 C54.9423262,79.1782934 55.223216,79.3618499 57.0216951,83.4343652 C58.8630106,87.6027781 58.7573909,87.9372662 58.6877407,88.1590499 C58.3489726,89.2360025 56.0465924,89.8067742 51.3349042,90.6078977 C50.6200905,90.7294998 50.0027217,90.8346246 49.6750715,90.9114085 L49.2617483,91.0082947 L45.5248357,83.8390463 Z" id="Fill-5" fill="#000000"></path>
                        <path d="M51.7239643,102.623334 L70.5452114,102.623334 C70.8136753,102.623334 71.0337437,102.40188 71.0337437,102.130994 L71.0337437,101.203984 C71.0337437,100.933098 70.8136753,100.711644 70.5452114,100.711644 L51.7239643,100.711644 C51.4551734,100.711644 51.2351049,100.933098 51.2351049,101.203984 L51.2351049,102.130994 C51.2351049,102.40188 51.4551734,102.623334 51.7239643,102.623334" id="Fill-7" fill="#39B4DA"></path>
                        <path d="M51.7239643,101.075857 C51.6549681,101.075857 51.5967627,101.134516 51.5967627,101.20405 L51.5967627,102.13106 C51.5967627,102.200264 51.6549681,102.258923 51.7239643,102.258923 L70.5452114,102.258923 C70.6142076,102.258923 70.6720859,102.200264 70.6720859,102.13106 L70.6720859,101.20405 C70.6720859,101.134516 70.6142076,101.075857 70.5452114,101.075857 L51.7239643,101.075857 Z M50.8737741,102.13106 L50.8737741,101.20405 C50.8737741,100.731483 51.2550517,100.347234 51.7239643,100.347234 L70.5452114,100.347234 C71.013797,100.347234 71.3954015,100.731483 71.3954015,101.20405 L71.3954015,102.13106 C71.3954015,102.603298 71.013797,102.987547 70.5452114,102.987547 L51.7239643,102.987547 C51.2550517,102.987547 50.8737741,102.603298 50.8737741,102.13106 Z" id="Fill-9" fill="#000000"></path>
                        <path d="M51.9174806,100.711545 C51.9174806,100.711545 50.7007278,94.9217717 53.4151232,94.031012 C53.4151232,94.031012 54.9127658,94.743488 55.2871764,91.8929249 C55.2871764,91.8929249 58.0950928,91.0914718 58.3759825,94.2979433 C58.3145072,93.5966719 66.3108722,93.9001827 67.0312449,94.0755005 C70.7112601,94.9708739 70.2632753,97.6985167 70.2632753,100.711545 L51.9174806,100.711545 Z" id="Fill-11" fill="#CCE2E9"></path>
                        <path d="M69.9104137,99.8180175 C69.9493262,97.2198858 69.9797369,95.1678099 66.9461932,94.4296295 C66.1568243,94.2375048 59.309851,94.0532892 58.6519346,94.4836748 C58.6826722,94.4635726 58.7461095,94.3808568 58.7359726,94.2658457 L58.015927,94.3301069 L58.015927,94.3294478 C57.9384289,93.4498926 57.6523072,92.8310073 57.1644289,92.4899284 C56.6265202,92.1135882 55.950292,92.1488495 55.606946,92.2002585 C55.4261171,93.2851202 55.0468015,93.992653 54.4784821,94.304732 C54.0824897,94.5222316 53.6747255,94.4932316 53.4163985,94.4180954 C51.6803757,95.1348555 51.9207179,98.6866899 52.2153414,100.346937 L69.9035468,100.346937 C69.9051817,100.169312 69.9077977,99.9930058 69.9104137,99.8180175 Z M51.563965,100.786879 C51.5113186,100.537414 50.3138586,94.665254 53.3032578,93.6845285 L53.4389612,93.6439945 L53.5648548,93.699358 C53.5762996,93.7043012 53.8542464,93.8232669 54.141349,93.6598127 C54.4121019,93.5062448 54.7682008,93.0663024 54.9287559,91.8453387 L54.9598205,91.6077368 L55.1887179,91.5424869 C55.2433262,91.5269983 56.5375772,91.1691126 57.5705582,91.8871909 C58.1316837,92.2767129 58.4972654,92.8939504 58.6607635,93.7263807 C60.5710753,93.2524952 66.7771361,93.6390513 67.1159042,93.7214376 C70.7115544,94.5960496 70.6736228,97.1381587 70.6334023,99.8288924 C70.6291513,100.119551 70.6249004,100.414164 70.6249004,100.711414 L70.6249004,101.07589 L51.6244593,101.07589 L51.563965,100.786879 Z" id="Fill-13" fill="#000000"></path>
                        <path d="M57.5107506,93.3182065 C57.5107506,93.3182065 56.7151688,88.3298859 59.5436859,87.7063871 C59.5436859,87.7063871 62.4454502,89.4879066 58.4757163,94.38725 L57.5107506,93.3182065 Z" id="Fill-15" fill="#A0A5A4"></path>
                        <path d="M57.8532137,93.156334 L58.4571757,93.8253101 C59.7690844,92.1162905 60.3606205,90.5990659 60.1703087,89.4206135 C60.0512821,88.6844103 59.6611757,88.2688542 59.4669399,88.1030932 C57.3856091,88.7404329 57.7665597,92.4807671 57.8532137,93.156334 Z M57.1707726,93.4832425 L57.1537688,93.3761404 C57.1187802,93.1583113 56.3398753,88.0398205 59.4662859,87.3504127 L59.6078753,87.3194355 L59.7318068,87.3952308 C59.7694114,87.4186285 60.6591681,87.9781957 60.8795635,89.2772615 C61.1329856,90.7691111 60.4181719,92.5657896 58.7553962,94.6175359 L58.4905293,94.944774 L57.1707726,93.4832425 Z" id="Fill-17" fill="#000000"></path>
                        <path d="M53.6062525,97.1275803 C53.6062525,98.3864416 54.6189597,99.4067125 55.8677582,99.4067125 C57.1168837,99.4067125 58.1295909,98.3864416 58.1295909,97.1275803 C58.1295909,95.8687189 57.1168837,94.848448 55.8677582,94.848448 C54.6189597,94.848448 53.6062525,95.8687189 53.6062525,97.1275803" id="Fill-19" fill="#DB7ED5"></path>
                        <path d="M53.9679103,97.1275803 C53.9679103,98.183442 54.8200624,99.0425654 55.8677582,99.0425654 C56.915454,99.0425654 57.7679331,98.183442 57.7679331,97.1275803 C57.7679331,96.0717185 56.915454,95.2125951 55.8677582,95.2125951 C54.8200624,95.2125951 53.9679103,96.0717185 53.9679103,97.1275803 M53.2449217,97.1275803 C53.2449217,95.6700034 54.421454,94.4839714 55.8677582,94.4839714 C57.3140624,94.4839714 58.4909217,95.6700034 58.4909217,97.1275803 C58.4909217,98.5851572 57.3140624,99.7711891 55.8677582,99.7711891 C54.421454,99.7711891 53.2449217,98.5851572 53.2449217,97.1275803" id="Fill-21" fill="#000000"></path>
                        <path d="M63.6920578,94.3338637 C63.4464837,95.0822601 63.2650008,95.8438383 63.1459741,96.6228823 C63.069784,97.1224723 62.3160578,96.910575 62.3919209,96.4136213 C62.5109475,95.6342477 62.6924304,94.8729991 62.9380046,94.1246027 C63.0952897,93.645115 63.850651,93.8504214 63.6920578,94.3338637" id="Fill-23" fill="#000000"></path>
                        <path d="M61.275981,94.3037763 C60.8691977,94.8616957 60.6893498,95.4762969 60.7383992,96.167682 C60.7746958,96.6738629 59.9925209,96.6715561 59.9565513,96.167682 C59.899,95.3573312 60.1233194,94.5614804 60.6010608,93.9060156 C60.8956844,93.5016641 61.5745285,93.894152 61.275981,94.3037763" id="Fill-25" fill="#000000"></path>
                        <polygon id="Fill-27" fill="#D91FCB" points="28.2948829 86.6972218 26.3394456 92.5222568 32.7708068 94.8633434 34.7906624 89.0916948"></polygon>
                        <path d="M26.8590099,92.2698584 L32.5202951,94.3305024 L34.2667817,89.3405341 L28.5495802,87.2330947 L26.8590099,92.2698584 Z M33.0212532,95.3959209 L25.819816,92.7747211 L28.0397932,86.1610853 L35.3144776,88.8425918 L33.0212532,95.3959209 Z" id="Fill-29" fill="#000000"></path>
                        <path d="M30.4363156,79.7339719 C30.1237072,79.9125852 26.6343308,87.6440372 26.7939049,88.1512067 C27.1777985,89.3711818 33.8844905,90.1746121 35.4076388,90.5321683 C36.5874411,88.2685247 37.7672433,86.004881 38.9470456,83.7412374 C39.2060266,83.2449428 39.4722015,82.7058074 39.3822776,82.1607403 C39.2370913,81.2831623 38.2662395,80.8082881 37.3941407,80.5357545 C35.1659886,79.8387672 32.7923232,79.5639268 30.4451445,79.731006 C30.4425285,79.731006 30.4395856,79.7323242 30.4363156,79.7339719" id="Fill-31" fill="#49CEA7"></path>
                        <path d="M27.3523817,88.0298683 C27.929857,88.6767648 32.1817886,89.4001158 33.8059787,89.6762744 C34.3245947,89.7642629 34.7689825,89.8397287 35.1136365,89.9056376 L38.4607696,83.4841265 C38.7030738,83.0191387 38.8989445,82.6055599 38.8404122,82.2516287 C38.7419863,81.6554821 37.911089,81.276835 37.2312639,81.0642786 C35.159416,80.4163934 32.916876,80.141553 30.7305795,80.2674391 C30.0772411,81.3780053 27.5793171,86.9693929 27.3523817,88.0298683 Z M35.6963437,91.168124 L35.2830205,91.0712378 C34.9553703,90.9944538 34.3380015,90.889329 33.6231878,90.767727 C28.9114996,89.9666034 26.6094464,89.3958317 26.2703513,88.3185496 C26.2007011,88.0970954 26.0950814,87.7626074 27.936397,83.5941945 C29.734876,79.5216791 30.0160928,79.3381226 30.1625871,79.2540887 L30.2747468,79.1881797 L30.4163361,79.1782934 C32.8056973,79.0082482 35.2784426,79.2942932 37.5572791,80.0067691 C38.9748076,80.4503365 39.7710433,81.144358 39.9240776,82.06972 C40.0480091,82.8197641 39.6925643,83.5012628 39.4332563,83.9988756 L35.6963437,91.168124 Z" id="Fill-33" fill="#000000"></path>
                        <path d="M33.2341605,102.783295 L14.4129133,102.783295 C14.1444494,102.783295 13.924381,102.561511 13.924381,102.290625 L13.924381,101.363616 C13.924381,101.093059 14.1444494,100.871276 14.4129133,100.871276 L33.2341605,100.871276 C33.5029513,100.871276 33.7230198,101.093059 33.7230198,101.363616 L33.7230198,102.290625 C33.7230198,102.561511 33.5029513,102.783295 33.2341605,102.783295" id="Fill-35" fill="#39B4DA"></path>
                        <g id="Group-39" transform="translate(13.406844, 100.181637)">
                            <mask id="mask-2" fill="white">
                                <use xlink:href="#path-1"></use>
                            </mask>
                            <g id="Clip-38"></g>
                            <path d="M1.0061673,1.05401628 C0.937171103,1.05401628 0.878965779,1.11267526 0.878965779,1.18220923 L0.878965779,2.10921892 C0.878965779,2.17842334 0.937171103,2.23708232 1.0061673,2.23708232 L19.8274144,2.23708232 C19.8964106,2.23708232 19.954616,2.17842334 19.954616,2.10921892 L19.954616,1.18220923 C19.954616,1.11267526 19.8964106,1.05401628 19.8274144,1.05401628 L1.0061673,1.05401628 Z M19.8274144,2.96603555 L1.0061673,2.96603555 C0.537254753,2.96603555 0.155977186,2.5814567 0.155977186,2.10921892 L0.155977186,1.18220923 C0.155977186,0.7096419 0.537254753,0.325392594 1.0061673,0.325392594 L19.8274144,0.325392594 C20.296,0.325392594 20.6776046,0.7096419 20.6776046,1.18220923 L20.6776046,2.10921892 C20.6776046,2.5814567 20.296,2.96603555 19.8274144,2.96603555 Z" id="Fill-37" fill="#000000" mask="url(#mask-2)"></path>
                        </g>
                        <path d="M33.0406441,100.871342 C33.0406441,100.871342 34.257397,95.0815681 31.5430015,94.1908083 C31.5430015,94.1908083 30.0453589,94.9032843 29.6709483,92.0527212 C29.6709483,92.0527212 26.8630319,91.2512682 26.5821422,94.4580692 C26.6436175,93.7564682 18.6472525,94.059979 17.9268798,94.2352969 C14.2468646,95.1309998 14.6948494,97.858313 14.6948494,100.871342 L33.0406441,100.871342 Z" id="Fill-40" fill="#CCE2E9"></path>
                        <path d="M15.0545779,100.506865 L32.7427833,100.506865 C33.0374068,98.8466181 33.277749,95.2947836 31.5417262,94.5780235 C31.2833992,94.6531597 30.875635,94.6821597 30.4796426,94.4646601 C29.9113232,94.1522515 29.5320076,93.4447187 29.3511787,92.3601866 C29.0078327,92.3087776 28.3316046,92.2735163 27.7936958,92.6498565 C27.3058175,92.9906059 27.0196958,93.6094912 26.9425247,94.4893759 L26.9425247,94.490035 L26.2221521,94.4257738 C26.2120152,94.5407849 26.2754525,94.6235007 26.3061901,94.6432734 C25.6482738,94.2132173 18.8013004,94.3974329 18.0119316,94.5895576 C14.9783878,95.3277381 15.0087985,97.3798139 15.047711,99.9779456 C15.050327,100.152604 15.052943,100.32924 15.0545779,100.506865 Z M33.3336654,101.235489 L14.3332243,101.235489 L14.3332243,100.871012 C14.3332243,100.573763 14.3289734,100.27915 14.3247224,99.9888206 C14.2845019,97.2977572 14.2465703,94.7559777 17.8422205,93.8813657 C18.1809886,93.7986499 24.3870494,93.4120938 26.2973612,93.8863088 C26.4608593,93.053549 26.8264411,92.4363115 27.3875665,92.0467894 C28.4208745,91.3290407 29.7147985,91.6865969 29.7694068,91.7024151 L29.9983042,91.7676649 L30.0293688,92.0052668 C30.189924,93.2262305 30.5463498,93.6658433 30.8167757,93.8197408 C31.1038783,93.983195 31.3818251,93.8642293 31.39327,93.8589566 L31.5191635,93.8035931 L31.6548669,93.8441271 C34.6442662,94.8251822 33.4468061,100.697342 33.3941597,100.946807 L33.3336654,101.235489 Z" id="Fill-42" fill="#000000"></path>
                        <path d="M27.4473741,93.4781346 C27.4473741,93.4781346 28.2429559,88.489814 25.4144388,87.8663152 C25.4144388,87.8663152 22.5126745,89.6478347 26.4824084,94.5468486 L27.4473741,93.4781346 Z" id="Fill-44" fill="#A0A5A4"></path>
                        <path d="M25.4913156,88.2627247 C25.2970798,88.4288153 24.9066464,88.8443714 24.7879468,89.580245 C24.597308,90.7586974 25.1888441,92.275922 26.5010798,93.9852712 L27.1050418,93.3159656 C27.1916958,92.6403986 27.5723194,88.9000644 25.4913156,88.2627247 Z M26.4677262,95.1047351 L26.2025323,94.777497 C24.5397567,92.7254212 23.82527,90.9287426 24.078692,89.436893 C24.2990875,88.1378272 25.1888441,87.57826 25.2264487,87.5551919 L25.3503802,87.4793966 L25.4916426,87.5103738 C28.6183802,88.1997816 27.8391483,93.3182724 27.8044867,93.535772 L27.7871559,93.6432036 L26.4677262,95.1047351 Z" id="Fill-46" fill="#000000"></path>
                        <path d="M31.3518395,97.2873766 C31.3518395,98.5462379 30.3391323,99.5665088 29.0903338,99.5665088 C27.8412084,99.5665088 26.8285011,98.5462379 26.8285011,97.2873766 C26.8285011,96.0288447 27.8412084,95.0082443 29.0903338,95.0082443 C30.3391323,95.0082443 31.3518395,96.0288447 31.3518395,97.2873766" id="Fill-48" fill="#DB7ED5"></path>
                        <path d="M29.0903338,95.3725562 C28.042638,95.3725562 27.1901589,96.2316796 27.1901589,97.2875413 C27.1901589,98.3434031 28.042638,99.202197 29.0903338,99.202197 C30.1380297,99.202197 30.9901817,98.3434031 30.9901817,97.2875413 C30.9901817,96.2316796 30.1380297,95.3725562 29.0903338,95.3725562 M29.0903338,99.9311502 C27.6440297,99.9311502 26.4671703,98.7451183 26.4671703,97.2875413 C26.4671703,95.8299644 27.6440297,94.6439325 29.0903338,94.6439325 C30.536638,94.6439325 31.7131703,95.8299644 31.7131703,97.2875413 C31.7131703,98.7451183 30.536638,99.9311502 29.0903338,99.9311502" id="Fill-50" fill="#000000"></path>
                        <path d="M21.2660669,94.4938248 C21.5116411,95.2422212 21.693124,96.0037993 21.8121506,96.7828434 C21.8883407,97.2824334 22.6420669,97.0702065 22.5662038,96.5735824 C22.4471772,95.7942088 22.2656943,95.0329602 22.0201202,94.2842343 C21.862835,93.805076 21.1074738,94.0103825 21.2660669,94.4938248" id="Fill-52" fill="#000000"></path>
                        <path d="M23.682111,94.4635726 C24.0888943,95.021492 24.2687422,95.6360932 24.2196928,96.3278078 C24.1833962,96.8336592 24.9655711,96.8313524 25.0015407,96.3278078 C25.059092,95.5171275 24.8347726,94.7212767 24.3570312,94.0658119 C24.0624076,93.6614604 23.3835635,94.0539483 23.682111,94.4635726" id="Fill-54" fill="#000000"></path>
                        <path d="M25.2337734,44.9576631 C25.2337734,44.9576631 14.3320471,45.397276 12.5930814,41.496783 L9.34666312,47.4094769 C9.34666312,47.4094769 17.5879483,56.6014716 23.4800928,54.2462145 L25.2337734,44.9576631 Z" id="Fill-56" fill="#F3E6AE"></path>
                        <path d="M9.93950722,47.3347691 C11.2824806,48.7478574 18.0925034,55.5588906 23.0569597,53.8841436 L24.6477962,45.4583406 C22.4428608,45.4843747 15.0014084,45.358159 12.621857,42.4495961 L9.93950722,47.3347691 Z M21.393203,55.1199368 C15.6828684,55.1199368 9.29270875,48.0755859 8.98860228,47.7358252 L8.75741597,47.4781211 L12.6378798,40.4100429 L13.0335452,41.2971777 C14.3503589,44.2512178 22.2715148,44.5890013 25.2144806,44.4713538 L25.8217125,44.4469675 L23.9048608,54.599915 L23.6583057,54.6984489 C22.9271422,54.9907552 22.1662221,55.1199368 21.393203,55.1199368 Z" id="Fill-58" fill="#000000"></path>
                        <path d="M12.7924183,39.7771191 C12.7790114,39.8380849 12.7678935,39.8997098 12.7597186,39.9619937 C12.6733916,40.6055948 12.8823422,41.2531505 12.8718783,41.9033425 C12.8561825,42.8919771 12.3427985,43.7830664 11.8464183,44.6178035 C11.1096958,45.8562331 10.2944943,47.166833 9.02215209,47.7211274 C8.07157414,48.1350358 7.0000076,48.0602291 5.98501141,47.8947976 C4.51385551,47.6552185 3.04760456,47.2297761 1.77297338,46.4092094 C1.20890494,46.0457214 0.65104943,45.5487677 0.514692015,44.8603485 C0.377026616,44.1643498 0.827954373,43.6004985 1.41295057,43.4031012 C0.636988593,42.5429891 -0.499323194,40.4727883 1.49960456,40.3475612 C1.91325475,40.3215272 2.34260076,40.5037655 2.70949049,40.525845 C2.12220532,39.9570506 1.8230038,39.0702453 2.06171103,38.2420991 C2.22651711,37.6693501 2.6745019,37.1562488 3.23301141,37.0979194 C4.1538327,37.0016923 4.79441825,37.928702 5.70052471,38.1260993 C4.88761217,37.9491337 5.17569582,32.4579277 7.71776426,35.1750251 C8.22330038,35.7151491 8.47050951,36.4661819 8.67390114,37.198101 C8.7291635,37.3968166 8.80568061,37.623873 8.98912548,37.6917592 C9.14346768,37.7491 9.31252471,37.6660547 9.44463118,37.5629072 C10.1872395,36.9848855 10.3661065,35.8028081 11.1433764,35.2791613 C11.7525703,34.8682188 12.6158403,35.0175027 13.1308593,35.5556494 C13.6458783,36.0941257 13.8139544,36.9502833 13.6256046,37.6930774 C13.4408517,38.4240079 12.9519924,39.0471772 12.7924183,39.7771191" id="Fill-60" fill="#F3E6AE"></path>
                        <path d="M12.4205582,39.6844511 C12.5140791,39.2570314 12.6991589,38.8783843 12.8780259,38.51226 C13.0326951,38.1958969 13.1788624,37.8969997 13.2573414,37.586898 C13.4162616,36.9587855 13.2583224,36.2591618 12.863638,35.8469012 C12.4575087,35.4224474 11.7914175,35.324243 11.3470297,35.6237993 C11.0246114,35.8409694 10.8123909,36.2337868 10.5874175,36.6496724 C10.3444593,37.0985125 10.0933262,37.5625117 9.66953916,37.8923861 C9.3222692,38.1626129 9.04007148,38.1418516 8.86414753,38.0769312 C8.48058099,37.9348974 8.36417034,37.5153868 8.307927,37.3137053 C8.12971407,36.6727406 7.90212471,35.948401 7.447927,35.4629814 C6.87208669,34.8477212 6.43914373,34.6832783 6.16086996,34.9742664 C5.55723498,35.6063334 5.61282433,37.5035232 5.84401065,37.7602386 C5.83812471,37.7539773 5.81458099,37.7351932 5.77697643,37.7269546 L5.62394221,38.5254418 C5.62361521,38.5254418 5.62296122,38.5251122 5.62230722,38.5251122 C5.17105247,38.4262488 4.80121977,38.1883174 4.44315894,37.9582951 C4.02885475,37.6916933 3.67079392,37.4613414 3.27022357,37.5035232 C2.90823878,37.5414208 2.56129582,37.8940338 2.42657338,38.3619875 C2.24312852,38.9983387 2.45469506,39.7292692 2.96579011,40.223916 L3.76464183,40.9976873 L2.68784335,40.932767 C2.50636046,40.9215625 2.32291559,40.8803694 2.14568365,40.8404944 C1.93248213,40.7920513 1.71241369,40.7422901 1.5217749,40.7544832 C1.2385962,40.7722786 0.88151635,40.8447785 0.792246388,41.0886417 C0.63038327,41.5305614 1.12480152,42.4961278 1.68788897,43.1206153 L2.11494601,43.5941713 L1.52766084,43.7918982 C1.15128821,43.918773 0.790284411,44.2809428 0.88838327,44.7762487 C0.977653232,45.2290433 1.33146312,45.649213 1.97041369,46.0601554 C3.04525019,46.7525292 4.3774327,47.2208124 6.04282433,47.4920279 C6.9404289,47.6383458 7.97929582,47.735232 8.87788137,47.3437327 C9.99457338,46.8573245 10.7371817,45.7227015 11.5242616,44.3995789 C12.0634783,43.493001 12.4768015,42.7334001 12.4902084,41.8963562 C12.4944593,41.6501861 12.4617597,41.3961071 12.4270981,41.1271984 C12.3770677,40.7350401 12.3250753,40.3293703 12.3819726,39.9035984 C12.3917825,39.8294508 12.4048624,39.7566214 12.4205582,39.6844511 M5.92739468,48.297765 C4.16161521,48.0104019 2.73820076,47.5065278 1.57572928,46.7581315 C0.746139924,46.2236097 0.27690038,45.630429 0.141196958,44.9446461 C0.0120334601,44.2908291 0.280824335,43.6518416 0.804018251,43.2695696 C0.317447909,42.5982867 -0.204438023,41.572084 0.081356654,40.7917218 C0.211828137,40.4351542 0.560079087,39.9981778 1.47730342,39.9405074 C1.60156198,39.9329279 1.72353156,39.9398483 1.84223118,39.9550074 C1.58390418,39.3773152 1.52340989,38.7241573 1.69671787,38.1224084 C1.92299924,37.3367735 2.52565323,36.7620472 3.19599544,36.6921837 C3.84835285,36.6226498 4.37383574,36.9617514 4.83718935,37.2603191 C4.87283194,37.2830577 4.90847452,37.3061258 4.94379011,37.3285349 C4.82345551,36.2809117 5.0566038,34.6107784 5.95747833,34.1388702 C6.36491559,33.9259842 7.04768365,33.8821547 7.98779772,34.886937 C8.56821597,35.5071404 8.83537186,36.345173 9.03974449,37.0820353 C9.07506008,37.2079214 9.10023878,37.2678986 9.11691559,37.296569 C9.13849734,37.2880008 9.17381293,37.2695463 9.21991939,37.2336259 C9.51290798,37.0055809 9.71368365,36.6345134 9.92623118,36.2416959 C10.1875011,35.7589127 10.457927,35.2593227 10.9395924,34.9343915 C11.6815468,34.4341424 12.7387255,34.5758466 13.3979498,35.2645954 C13.9927559,35.8864466 14.2265582,36.8813425 13.9943909,37.7994545 C13.894003,38.1952378 13.721676,38.5481804 13.554908,38.8892593 C13.3907559,39.2250655 13.2357597,39.5424172 13.1641475,39.8696553 L13.1638205,39.8696553 C13.1530297,39.9194165 13.1442008,39.9695074 13.1373338,40.0195982 C13.0958053,40.3320067 13.1383148,40.6645175 13.1834403,41.0164714 C13.2203909,41.304164 13.2586494,41.6014135 13.2537445,41.910197 C13.2354327,43.0431723 12.6438966,44.0374091 12.1684441,44.8362258 C11.5062768,45.9497579 10.5991894,47.474562 9.16629202,48.0987199 C8.58881673,48.3498331 7.98354677,48.4355148 7.39135665,48.4355148 C6.88516654,48.4355148 6.38845932,48.3729013 5.92739468,48.297765" id="Fill-62" fill="#000000"></path>
                        <path d="M5.36937567,37.3208235 C5.41744411,37.9080724 5.84450114,38.437651 6.3811019,38.5757303" id="Fill-64" fill="#F3E6AE"></path>
                        <path d="M5.65948669,37.3208235 C5.70919011,37.7828454 6.04665019,38.158197 6.4583384,38.2768331 C6.81836122,38.3809693 6.66565399,38.9787637 6.3039962,38.874298 C5.62253612,38.6775597 5.15918251,38.0599926 5.07939544,37.3208235 C5.03655894,36.9256992 5.61697719,36.9289947 5.65948669,37.3208235" id="Fill-66" fill="#000000"></path>
                        <path d="M4.64321521,41.4288968 C4.01015057,41.3320106 3.40749658,41.0219089 2.94185399,40.5536256" id="Fill-68" fill="#F3E6AE"></path>
                        <path d="M4.57425171,41.6961576 C3.8872327,41.5768624 3.27280684,41.2479766 2.75844183,40.7493753 C2.51057871,40.5091371 2.87844943,40.1182969 3.12533156,40.3575464 C3.5775673,40.7958411 4.1108981,41.0574997 4.71224411,41.1616359 C5.04120228,41.2186471 4.9015749,41.7528394 4.57425171,41.6961576" id="Fill-70" fill="#000000"></path>
                        <path d="M3.27774449,43.6960663 C2.74833764,43.4437384 2.18721217,43.5127876 1.66696122,43.2898695" id="Fill-72" fill="#F3E6AE"></path>
                        <path d="M3.21692319,43.8396492 C2.6917673,43.6636723 2.13489278,43.6844336 1.60613992,43.525593 C1.32296122,43.4405704 1.44329582,42.9686622 1.72810951,43.0540143 C2.25653536,43.2128549 2.81308289,43.191764 3.33856578,43.3680705 C3.61880152,43.4619908 3.49912091,43.9342286 3.21692319,43.8396492" id="Fill-74" fill="#000000"></path>
                        <path d="M13.8457384,43.4479852 C13.8457384,43.4479852 12.758476,42.9829974 12.4903392,41.896488 C12.4903392,41.896488 9.00946464,45.8619013 9.0984076,47.2364329 L10.5453658,47.9126589 C10.5453658,47.9126589 14.0128335,45.3679135 13.8457384,43.4479852" id="Fill-76" fill="#F3E6AE"></path>
                        <path d="M60.6203863,45.0474311 C60.6203863,45.0474311 71.5217856,45.487044 73.2610783,41.586551 L76.5071696,47.4992449 C76.5071696,47.4992449 68.2662114,56.6912397 62.3740669,54.3359825 L60.6203863,45.0474311 Z" id="Fill-78" fill="#F3E6AE"></path>
                        <path d="M62.7971346,53.9739446 C67.7632259,55.6496802 74.5722677,48.8376584 75.9145871,47.42457 L73.2325643,42.539397 C70.8526859,45.44796 63.4122144,45.5758234 61.2062981,45.5481416 L62.7971346,53.9739446 Z M64.4608913,55.2097378 C63.6875452,55.2097378 62.9272791,55.0805562 62.1961156,54.7882499 L61.9492335,54.689716 L60.0323817,44.537098 L60.6396137,44.5611547 C63.5825795,44.6791318 71.5047163,44.3390415 72.820549,41.3869787 L73.2162144,40.4998439 L77.0966783,47.567922 L76.865492,47.8256261 C76.5610586,48.1650573 70.1705719,55.2090787 64.4608913,55.2097378 Z" id="Fill-80" fill="#000000"></path>
                        <path d="M73.0617414,39.8667553 C73.0751483,39.9277211 73.0859392,39.989346 73.0944411,40.0516299 C73.1804411,40.695231 72.9718175,41.3431162 72.9819544,41.9933082 C72.9979772,42.9819428 73.5110342,43.8730321 74.0077414,44.7077693 C74.7444639,45.9461988 75.5596654,47.2567987 76.8320076,47.8107637 C77.7825856,48.224672 78.8541521,48.1501949 79.8691483,47.9847633 C81.3403042,47.7451842 82.8065551,47.3197418 84.0808593,46.4988456 C84.6452548,46.1353576 85.2031103,45.6387335 85.3391407,44.9499847 C85.4768061,44.2543155 85.0262053,43.6901347 84.4408821,43.4930669 C85.2171711,42.6326253 86.3534829,40.562754 84.3545551,40.4371974 C83.9409049,40.4114929 83.5115589,40.5934017 83.1446692,40.6154812 C83.7319544,40.0470163 84.0308289,39.1598815 83.7924487,38.3320649 C83.6276426,37.7593159 83.1793308,37.245885 82.6208213,37.1875556 C81.700327,37.0913285 81.0597414,38.0183382 80.153635,38.2160651 C80.9662205,38.0387699 80.6784639,32.5478935 78.1363954,35.2646613 C77.6308593,35.8047853 77.3833232,36.5558181 77.1802586,37.2877372 C77.1249962,37.4864528 77.0484791,37.7135092 76.8650342,37.7813954 C76.710365,37.8387362 76.541635,37.7556909 76.4092015,37.6528729 C75.6665932,37.0745217 75.4877262,35.8927738 74.7107833,35.3687975 C74.1012624,34.957855 73.2383194,35.1074684 72.7233004,35.6456152 C72.2082814,36.1837619 72.0402053,37.040249 72.2282281,37.7830431 C72.413308,38.5136441 72.9021673,39.1368134 73.0617414,39.8667553" id="Fill-82" fill="#F3E6AE"></path>
                        <path d="M73.433438,39.774252 C73.4491338,39.8464224 73.4622137,39.9192518 73.4720236,39.9933994 C73.5289209,40.4191713 73.4769285,40.824841 73.4268981,41.2169994 C73.3925635,41.485908 73.3598639,41.7399871 73.3637878,41.9861571 C73.3771947,42.8232011 73.7905179,43.582802 74.3297346,44.4893799 C75.1168144,45.8125025 75.8594228,46.9471254 76.9761148,47.4335337 C77.8747004,47.8250329 78.9135673,47.7281468 79.8114989,47.5818288 C81.4765635,47.3106134 82.808746,46.8423302 83.8839095,46.1499564 C84.5225331,45.739014 84.876343,45.3188443 84.9659399,44.8660497 C85.0637118,44.3707437 84.703035,44.0085739 84.3263354,43.8816992 L83.7390502,43.6839722 L84.1661072,43.2104163 C84.7295217,42.5859288 85.2236129,41.6203623 85.0617498,41.1784427 C84.9724798,40.9345795 84.615727,40.8620796 84.3322213,40.8442842 C84.1415825,40.832091 83.9215141,40.8818523 83.7083125,40.9299659 C83.5310806,40.9701703 83.3479627,41.0113634 83.1664798,41.022568 L82.0893544,41.0874883 L82.8882061,40.313717 C83.3993011,39.8190701 83.6108677,39.0881396 83.4274228,38.4517885 C83.2927004,37.9838348 82.9457574,37.6308923 82.5837726,37.5929946 C82.1832023,37.5511424 81.8251414,37.7814943 81.4108373,38.0480961 C81.0531034,38.2781184 80.6829437,38.5160498 80.231689,38.6149132 C80.231362,38.6149132 80.230708,38.6152428 80.230054,38.6152428 L80.0770198,37.8167556 C80.0394152,37.8249942 80.0158715,37.8437782 80.0099856,37.8500396 C80.2411719,37.5933242 80.2967612,35.6961344 79.6931262,35.0640674 C79.4148525,34.7730792 78.9819095,34.9375221 78.4060692,35.5527824 C77.9518715,36.038202 77.7242821,36.7625416 77.5460692,37.4035063 C77.4901529,37.6051878 77.3734152,38.0246984 76.9898487,38.1667322 C76.8139247,38.231323 76.531727,38.2524139 76.184457,37.9821871 C75.76067,37.6523127 75.5095369,37.187984 75.2669057,36.7394734 C75.0416053,36.3235878 74.8293848,35.9307703 74.5069665,35.7136003 C74.0629057,35.414044 73.3964875,35.5122484 72.9903582,35.9367021 C72.5956738,36.3489628 72.4377346,37.0485865 72.5966548,37.676699 C72.6751338,37.9868007 72.8213011,38.2856979 72.9759703,38.602061 C73.1548373,38.9681853 73.3399171,39.3465028 73.433438,39.774252 M78.4626395,48.5253158 C77.8704494,48.5253158 77.2651795,48.4396341 76.6880312,48.1881914 C75.2548068,47.564363 74.3477194,46.0395589 73.6855521,44.9260268 C73.2100996,44.1272101 72.6185635,43.1329732 72.6002517,41.999998 C72.5953468,41.6912145 72.6336053,41.393965 72.6705559,41.1062724 C72.7156814,40.7543184 72.7585179,40.4218077 72.7166624,40.1093992 C72.7097954,40.0593083 72.7009665,40.0092175 72.6901757,39.9594562 C72.6182365,39.6322182 72.4632403,39.3148665 72.2990882,38.9790603 C72.1323202,38.6379814 71.9599932,38.2850388 71.8599323,37.8892554 C71.627438,36.9711435 71.8615673,35.9762475 72.4563734,35.3543964 C73.1152707,34.6656476 74.1724494,34.5239433 74.9144038,35.0241924 C75.3960692,35.3491237 75.6664951,35.8487137 75.927765,36.3314969 C76.1403125,36.7243144 76.3410882,37.0953819 76.6344038,37.3234269 C76.6801833,37.3593473 76.7154989,37.3778018 76.7370806,37.38637 C76.7537574,37.3576996 76.7792631,37.2977224 76.8142517,37.1718363 C77.0189513,36.434974 77.2857802,35.5969414 77.8661985,34.976738 C78.8063125,33.9719557 79.4890806,34.0157852 79.8965179,34.2286711 C80.7973924,34.7005794 81.0305407,36.3707127 80.9102061,37.4183358 C80.9455217,37.3959268 80.9811643,37.3728586 81.0168068,37.3497905 C81.4801605,37.0515524 82.0056433,36.7124507 82.6580008,36.7819847 C83.328343,36.8518482 83.930997,37.4265745 84.1572783,38.2122094 C84.3305863,38.8139583 84.270092,39.4671162 84.011765,40.0448084 C84.1304646,40.0296493 84.2524342,40.0227289 84.3766928,40.0303084 C85.2939171,40.0879787 85.6421681,40.5249552 85.7726395,40.8815228 C86.0584342,41.661885 85.5365483,42.6880877 85.0503049,43.3593706 C85.5731719,43.7416426 85.8419627,44.3806301 85.7127992,45.0344471 C85.5770958,45.7202299 85.1078563,46.3134107 84.2782669,46.8479324 C83.1157954,47.5963288 81.692381,48.0998734 79.9266015,48.387566 C79.4655369,48.4627022 78.9688297,48.5253158 78.4626395,48.5253158" id="Fill-84" fill="#000000"></path>
                        <path d="M80.484784,37.4106245 C80.4367156,37.9978734 80.0096586,38.527452 79.4730578,38.6655313" id="Fill-86" fill="#F3E6AE"></path>
                        <path d="M80.194673,37.4106245 C80.1446426,37.8726464 79.8075095,38.247998 79.3958213,38.3666341 C79.0357985,38.4707703 79.1885057,39.0685647 79.5501635,38.9640989 C80.2316236,38.7673607 80.6949772,38.1497936 80.7747643,37.4106245 C80.8176008,37.0151706 80.2368555,37.0187956 80.194673,37.4106245" id="Fill-88" fill="#000000"></path>
                        <path d="M81.2109445,41.5186648 C81.8440091,41.4217786 82.4466631,41.1116769 82.9119787,40.6433936" id="Fill-90" fill="#F3E6AE"></path>
                        <path d="M81.279908,41.7859586 C81.966927,41.6666634 82.5813529,41.3377776 83.0957179,40.8391762 C83.343581,40.598938 82.9757103,40.2080978 82.7285011,40.4473474 C82.2762654,40.8856421 81.7432616,41.1473007 81.1419156,41.2514369 C80.8129574,41.3084481 80.9525848,41.8426403 81.279908,41.7859586" id="Fill-92" fill="#000000"></path>
                        <path d="M82.5762517,43.7856695 C83.1056586,43.5333416 83.666784,43.6023908 84.187035,43.3794728" id="Fill-94" fill="#F3E6AE"></path>
                        <path d="M82.6372365,43.9294173 C83.1620654,43.7534403 83.7189399,43.7742016 84.2476928,43.615361 C84.5311985,43.5303384 84.4108639,43.0584302 84.1260502,43.1437823 C83.5972973,43.3026229 83.0407498,43.2815321 82.5152669,43.4578386 C82.2353582,43.5517588 82.3547118,44.0239966 82.6372365,43.9294173" id="Fill-96" fill="#000000"></path>
                        <path d="M72.0082578,43.5377861 C72.0082578,43.5377861 73.0955202,43.0724688 73.363984,41.9862889 C73.363984,41.9862889 76.8445316,45.9517022 76.7555886,47.3262338 L75.3086304,48.0024599 C75.3086304,48.0024599 71.8414897,45.4573849 72.0082578,43.5377861" id="Fill-98" fill="#F3E6AE"></path>
                        <path d="M30.9996319,10.5131401 C30.9996319,10.5131401 29.9382023,2.5704499 21.0249399,4.46269649 C21.0249399,4.46269649 16.6163772,4.47423056 15.9087574,1.89883748 C15.9087574,1.89883748 11.0191833,15.3646995 25.4416776,16.554686 C25.4416776,16.554686 30.0680198,16.3879363 30.9996319,10.5131401" id="Fill-100" fill="#793E0E"></path>
                        <g id="Group-104" transform="translate(14.387833, 0.000000)">
                            <mask id="mask-4" fill="white">
                                <use xlink:href="#path-3"></use>
                            </mask>
                            <g id="Clip-103"></g>
                            <path d="M1.69276122,3.30161108 C1.25000837,5.1978122 0.734662357,8.94770316 2.58742281,11.8612093 C4.11645703,14.2655686 6.96753688,15.6592138 11.0618563,16.0039177 C11.4529437,15.9778836 15.212092,15.594623 16.0590122,10.5130412 C15.9749741,10.0398148 15.4220236,7.42718318 13.2546928,5.89183368 C11.6174228,4.73150623 9.42851027,4.43162041 6.74943042,5.00041483 L6.69449506,5.0119489 L6.63857871,5.01227845 C6.47213764,5.00799436 3.24370418,4.99777847 1.69276122,3.30161108 Z M11.0412555,17.1052566 L11.0092099,17.1026202 C6.53524791,16.7332005 3.39150646,15.1675328 1.66562053,12.4484582 C-1.19984715,7.93501181 0.917453232,1.96201123 1.00901217,1.70990941 L1.59302738,0.101071408 L2.0465711,1.75209115 C2.5975597,3.75803071 6.11374981,3.90204182 6.58429734,3.91225771 C9.55080684,3.2943611 12.0091643,3.66015589 13.8933163,5.00041483 C16.6597042,6.96845673 17.1335217,10.2988371 17.1521605,10.4398823 L17.1629513,10.5199617 L17.1501985,10.5997115 C16.6361605,13.842433 15.0260312,15.4390778 13.7657878,16.2072469 C12.3874989,17.0475863 11.1262745,17.1019612 11.0733011,17.1039384 L11.0412555,17.1052566 Z" id="Fill-102" fill="#000000" mask="url(#mask-4)"></path>
                        </g>
                        <path d="M65.1178593,75.3336912 C64.0534867,77.6213916 62.5329544,79.7453082 60.6900038,81.5587936 C59.8224829,82.3701331 58.8719049,83.0770068 57.8078593,83.6945738 C56.7438137,84.3121409 55.5663004,84.8404013 54.2449087,85.2955028 C49.1921635,87.0351701 43.7545437,87.5532146 38.488597,86.7553865 C36.4448707,86.4456143 34.4282852,85.7885019 32.5012966,84.8555604 C31.5376388,84.3892544 30.5965437,83.8540736 29.6852053,83.2635292 C12.0973878,72.3117649 12.3508099,45.4970292 23.9431521,30.2582158 C24.9715551,28.8576502 26.0869392,27.537823 27.2834183,26.3194956 C30.8728555,22.663525 35.1941103,19.9207231 40.0961103,18.6308845 C41.9812433,18.3375896 43.8094791,18.3227601 45.5687186,18.5481688 C51.726384,19.3367696 57.0364753,23.0685356 61.0016312,28.1636287 C61.9927567,29.4373196 62.8982091,30.7963626 63.7088327,32.2196668 C69.6294259,44.4352357 71.4037072,59.302652 66.5376768,72.1496288 C66.1165057,73.2298768 65.6439962,74.2919999 65.1178593,75.3336912" id="Fill-105" fill="#E0D09B"></path>
                        <path d="M40.2069293,19.1697892 C35.6041308,20.3864689 31.3865338,22.921987 27.671203,26.7061506 C26.5110205,27.887569 25.4041384,29.1925666 24.3816213,30.5852232 C17.7756441,39.2690598 14.9301232,51.5426285 16.9496517,62.6239039 C18.0807316,68.8315405 21.2584806,77.3700478 29.9719483,82.7960039 C30.8862297,83.3888551 31.8139179,83.9131609 32.7373551,84.3600238 C34.6685947,85.2952721 36.6312259,85.9181119 38.5699863,86.2117363 C43.7152715,86.991769 49.0750662,86.4948154 54.0686251,84.7755798 C55.365492,84.328717 56.4998418,83.8192407 57.5357658,83.2181508 C58.5592639,82.6239815 59.4683133,81.9510509 60.3142525,81.1608023 C62.1140395,79.3881805 63.6041612,77.2929343 64.6240624,75.1004723 L64.6319103,75.0843246 C65.1423513,74.0736105 65.6128989,73.0184079 66.030473,71.9487053 C70.5122829,60.1147494 69.4649141,45.3587192 63.2268076,32.4774698 C62.4289369,31.0778927 61.5362373,29.7409292 60.5725795,28.5028292 C57.6234008,24.7130633 52.614473,20.0045264 45.5000167,19.0933348 C43.7620319,18.8708921 41.9812106,18.8965966 40.2069293,19.1697892 M43.3585186,87.6699723 C41.6986859,87.6699723 40.0434312,87.5467226 38.4077962,87.2989048 C36.361454,86.9888031 34.294511,86.3333384 32.2651726,85.3509652 C31.3011878,84.8846592 30.3339331,84.3376147 29.3902221,83.7256499 C25.7183817,81.4395972 22.6717582,78.3847164 20.3425643,74.6516322 C18.1771954,71.1805362 16.6746479,67.200623 15.8767772,62.8226195 C14.864397,57.2664932 15.0416289,51.2592199 16.3901612,45.4509918 C17.7380395,39.6444114 20.1999939,34.2754665 23.5101764,29.9238266 C24.5581992,28.4965679 25.699089,27.1513657 26.8955681,25.9327088 C30.7580471,21.9992614 35.152876,19.3635616 39.9584122,18.099098 L40.0130205,18.0875639 C41.8971726,17.7949281 43.7898266,17.7662577 45.6376821,18.0028709 C48.6813627,18.3927225 51.6295605,19.4943909 54.4008532,21.2775582 C56.9726783,22.9325324 59.3381688,25.1352103 61.4309445,27.8242963 C62.4302449,29.1085327 63.3559711,30.4952574 64.1819635,31.9462434 L64.1989673,31.9785388 C67.237089,38.2471412 69.1434768,45.1362764 69.7114692,51.9015029 C70.3232791,59.1841147 69.4269825,66.0627046 67.0474312,72.3458068 C66.6161232,73.4507708 66.1324958,74.5353029 65.6076669,75.5753465 C64.5321764,77.8847968 62.9635757,80.0897815 61.0712487,81.9520395 L61.0611118,81.9615963 C60.1530433,82.8111629 59.1779407,83.5335253 58.0802144,84.1705355 C56.9824882,84.8075457 55.7856821,85.3456925 54.421127,85.8156234 C50.8493475,87.0454848 47.0951042,87.6699723 43.3585186,87.6699723" id="Fill-107" fill="#000000"></path>
                        <path d="M32.2426099,22.7462078 C31.2766631,23.9727737 30.3486479,25.2570101 29.4677202,26.5906781 C28.5867924,27.9236871 27.7532791,29.3061278 26.9773171,30.7281138 C17.6729673,45.5474166 18.4335605,70.7318938 36.4595529,77.8240288 C38.0121308,78.4860844 39.5961004,78.949754 41.2435072,79.2150376 C42.5106175,79.2150376 43.5243057,79.7449457 44.6962601,79.570287 C45.8521916,79.6358664 47.0123741,79.610821 48.1594768,79.4865826 C49.3062525,79.3623442 50.4392943,79.1389128 51.5419255,78.810027 C53.0124274,78.3720619 54.4293019,77.7472448 55.7533095,76.922394 C70.3896593,67.0205596 70.6430814,43.692079 61.1768684,29.5766841 C60.268146,28.2660842 59.2724426,27.0319387 58.1972791,25.8976453 C54.9711346,22.4950946 51.0295224,19.9918718 46.5764882,19.0279531 C44.8800319,18.6605106 43.1093475,18.5168291 41.2758798,18.6315107 C39.6032943,18.8499989 37.9702753,19.3795775 36.4013475,20.2456214 C34.8925871,20.9024043 33.4992563,21.7361528 32.2426099,22.7462078" id="Fill-109" fill="#F3E6AE"></path>
                        <path d="M23.1699042,31.465767 C23.1699042,31.465767 31.869965,31.0508701 32.5484821,27.7132397 C32.5484821,27.7132397 50.7347027,39.7640361 62.9682844,25.7231183 C64.5153034,23.946542 65.3703985,21.9478524 63.2478662,20.8985816 C61.1724213,19.8727084 58.5512198,19.6914588 56.6095163,18.3650407 C55.4522768,17.574133 54.485676,16.5703394 53.2512654,15.8446816 C47.5824593,12.5126535 40.7891133,12.3561197 34.6706875,14.4668546 C34.6706875,14.4668546 21.8848091,17.8891779 23.1699042,31.465767" id="Fill-111" fill="#793E0E"></path>
                        <path d="M32.1754122,26.8091993 L32.8477163,27.2540849 C32.8925148,27.2837439 37.4017924,30.2354772 43.3122487,31.4518273 C51.1552525,33.0652789 57.6307582,31.016169 62.5585909,25.3605201 C63.5945148,24.1705336 64.0879521,23.1238991 63.9470167,22.41373 C63.8646137,21.9978444 63.5572373,21.6636859 63.0078837,21.3921409 C62.1639065,20.9749371 61.2254274,20.7050399 60.2323399,20.4186654 C58.8828266,20.030132 57.4872068,19.6284168 56.3034806,18.8197137 C55.7907506,18.4694076 55.3146441,18.079556 54.8542335,17.7025567 C54.2342487,17.1943985 53.6482715,16.7145812 52.9766213,16.3194569 C47.8077924,13.2813828 41.2001802,12.7956337 34.8472981,14.9867775 L34.8110015,14.997982 C34.7802639,15.0062206 31.6652981,15.8653441 28.7569939,18.3230896 C25.0230243,21.4784817 23.3128342,25.7025877 23.6695871,30.8836919 C26.256127,30.6872832 31.5613133,29.8307961 32.014203,27.6030729 L32.1754122,26.8091993 Z M48.2407354,33.0741766 C46.5704388,33.0741766 44.8406289,32.8902906 43.0611156,32.5218594 C38.1404768,31.5035658 34.253473,29.3845924 32.8294046,28.5337076 C32.1708342,29.7922394 30.4596631,30.7469308 27.7263019,31.3770206 C25.4455034,31.9026447 23.2863475,32.0104058 23.1957696,32.0146899 L22.6764996,32.0397353 L22.6271232,31.5180658 C21.9407582,24.2664312 25.2185681,19.8670073 28.0889407,17.4530912 C31.0920738,14.9281185 34.2080205,14.0245065 34.511473,13.9408021 C37.7222487,12.8358382 40.9693209,12.3731572 44.1624388,12.5662705 C47.5599293,12.7715769 50.7105376,13.7150639 53.5259749,15.3700382 C54.2708722,15.8080033 54.9173437,16.3375819 55.5422335,16.8496946 C56.0049331,17.2286712 56.4418,17.5865569 56.9156175,17.9101699 C57.9548114,18.61968 59.2065529,18.9802021 60.5318684,19.361815 C61.5275719,19.6485191 62.5569559,19.9447799 63.4879141,20.4051541 C64.350857,20.8315851 64.8652221,21.4349817 65.0166213,22.1982076 C65.2314578,23.2824102 64.6804692,24.5903738 63.3783703,26.0855188 C60.5125757,29.374706 57.0827125,31.5299294 53.1839369,32.4915413 C51.6081422,32.8800747 49.9561574,33.0741766 48.2407354,33.0741766 Z" id="Fill-113" fill="#000000"></path>
                        <path d="M62.3403209,21.1291971 C60.353819,20.1036535 57.8444502,19.9217447 55.9858038,18.5956562 C54.8779407,17.8050781 53.9525414,16.8009549 52.7707772,16.0752971 C47.3446023,12.743269 40.8413019,12.5870648 34.984473,14.6971405 C34.984473,14.6971405 26.0950814,17.1852042 24.230549,26.32579 C27.4089521,20.6744252 33.3952715,18.9990191 33.3952715,18.9990191 C39.2524274,16.8886138 45.7554008,17.0448181 51.1815757,20.3771757 C52.3633399,21.1025039 53.2887392,22.1066271 54.3966023,22.8972052 C56.2552487,24.2236233 58.7646175,24.4052025 60.7511194,25.4307461 C61.2380167,25.6821888 61.559454,25.988336 61.7491118,26.3327104 C61.8576745,26.2081424 61.9655833,26.0822563 62.073165,25.9537338 C63.5538038,24.1771575 64.3722753,22.1784679 62.3403209,21.1291971" id="Fill-115" fill="#C56415"></path>
                        <path d="M57.0108388,46.4703729 C56.8584586,44.913603 55.8970897,44.0531613 54.8716297,44.1197294 C53.980892,44.1777293 53.0859034,44.2812064 52.1997437,44.414013 C51.31293,44.5471491 50.2184738,44.7831032 49.7387703,45.9908851 C49.4395688,46.7448838 49.4081772,47.4972347 49.772451,48.234097 C50.3976677,49.5002083 51.5509833,49.5707309 52.5322989,49.5657878 C53.4868008,49.5608446 54.4432646,49.5710605 55.3961316,49.509106 C56.4179947,49.4428675 57.1449072,47.8399613 57.0108388,46.4703729" id="Fill-117" fill="#FF6A8C"></path>
                        <path d="M55.3372068,46.0209396 C53.8428342,45.7533492 52.224857,45.8924171 50.7589331,46.3162118 C50.7265605,46.3254391 50.7380053,46.3758594 50.767435,46.3752003 C52.2820814,46.343564 53.8323703,46.2951209 55.3401498,46.1135417 C55.3846213,46.108269 55.3787354,46.0281896 55.3372068,46.0209396" id="Fill-119" fill="#EEC1D0"></path>
                        <path d="M54.0405688,46.749069 C53.3120213,46.9491027 52.5945916,47.156716 51.8474053,47.1573751 C51.785276,47.1573751 51.792797,47.2822726 51.8516563,47.2882044 C52.6089795,47.365977 53.3695726,47.2977612 54.0667285,46.8515574 C54.111527,46.822887 54.0870023,46.7362167 54.0405688,46.749069" id="Fill-121" fill="#EEC1D0"></path>
                        <path d="M36.9396814,46.0045283 C36.7873011,44.4477584 35.8259323,43.5873167 34.8004722,43.6542143 C33.9097346,43.7118847 33.014746,43.8153618 32.1285863,43.9484979 C31.2417726,44.0813045 30.1473163,44.3172586 29.6676129,45.5250405 C29.3684114,46.2790391 29.3370198,47.0313901 29.7012935,47.7682524 C30.3265103,49.0343637 31.4798259,49.1048863 32.4611414,49.0999431 C33.4156433,49.095 34.3721072,49.1052159 35.3253011,49.0432614 C36.3468373,48.9770229 37.0737498,47.3741167 36.9396814,46.0045283" id="Fill-123" fill="#FF6A8C"></path>
                        <path d="M35.2660494,45.555128 C33.7720038,45.2875375 32.1536996,45.4266055 30.6877757,45.8504001 C30.655403,45.8596274 30.6668479,45.9100478 30.6962776,45.9097182 C32.210924,45.8777524 33.7612129,45.8293093 35.2689924,45.6480596 C35.3134639,45.6424573 35.3075779,45.5623779 35.2660494,45.555128" id="Fill-125" fill="#EEC1D0"></path>
                        <path d="M33.9694114,46.2832244 C33.2411909,46.4832581 32.5234342,46.6908714 31.7762479,46.6915304 C31.7144456,46.6915304 31.7216395,46.8164279 31.7804989,46.8223598 C32.5378221,46.9004619 33.2984152,46.8319166 33.9955711,46.3857128 C34.0403696,46.3570424 34.0158449,46.2703721 33.9694114,46.2832244" id="Fill-127" fill="#EEC1D0"></path>
                        <path d="M35.1174297,13.8011739 C35.1174297,13.8011739 35.4369049,10.6326001 30.6254829,11.373417 C30.6254829,11.373417 22.6078631,12.8286871 26.2450418,19.355323 C26.2450418,19.355323 31.3317947,18.4507224 35.1174297,13.8011739" id="Fill-129" fill="#67C9A9"></path>
                        <path d="M30.7166821,11.9153205 C30.558743,11.9459682 27.1772753,12.6277965 26.1442943,14.8426675 C25.6430091,15.9173133 25.7728266,17.2223109 26.5294958,18.7263537 C27.7351308,18.4169111 31.5727582,17.1946292 34.5749103,13.5989652 C34.5628114,13.3481816 34.4823703,12.8347507 34.0540053,12.4317173 C33.4399065,11.8536956 32.2856099,11.6750823 30.7166821,11.9153205 Z M25.9588875,19.9644537 L25.7695567,19.624693 C24.6630015,17.6388556 24.4576479,15.871177 25.1590548,14.3707593 C26.4542867,11.6012643 30.3628722,10.8627542 30.5286593,10.8324361 L30.5430471,10.8301293 C32.5001194,10.5285958 33.9375947,10.8031066 34.8162335,11.6454233 C35.7779293,12.5668307 35.6651156,13.8046012 35.6598837,13.8569988 L35.6432068,14.0217713 L35.5388951,14.1499642 C31.669876,18.9020011 26.5553285,19.8583403 26.339511,19.8965675 L25.9588875,19.9644537 Z" id="Fill-131" fill="#000000"></path>
                        <path d="M61.8137262,34.6080432 C61.1025095,33.5600905 59.508403,32.0399001 58.1170342,32.5945241 C57.7122129,32.7560011 57.4251103,33.2209889 57.6932471,33.6434654 C57.9947376,34.1173509 58.4293156,34.3401232 58.8570266,34.6765885 C59.2860456,35.0140424 59.6761521,35.4411326 59.9766616,35.8965636 C60.2562433,36.3203583 60.4481901,36.7777665 60.5956654,37.2621975 C60.7833612,37.8774577 60.8134449,38.5718087 61.2957643,39.0423988 C61.752251,39.4876139 62.4144183,39.3495346 62.7574373,38.852581 C63.554,37.6995035 62.4870114,35.6006323 61.8137262,34.6080432" id="Fill-133" fill="#FFFFFF"></path>
                        <path d="M63.2477027,40.2226967 C63.0750487,39.9069927 62.5554517,39.8031861 62.3128205,40.1014242 C62.1087749,40.3522078 62.0387977,40.6165028 61.9612996,40.9239681 C61.8795506,41.2472516 61.8475049,41.7059781 62.0695354,41.9972957 C62.2644251,42.252693 62.5845544,42.4023064 62.8883338,42.2134772 C63.480524,41.8457051 63.563254,40.8003888 63.2477027,40.2226967" id="Fill-135" fill="#FFFFFF"></path>
                        <path d="M61.8137262,34.6080432 C61.1025095,33.5600905 59.508403,32.0399001 58.1170342,32.5945241 C57.7122129,32.7560011 57.4251103,33.2209889 57.6932471,33.6434654 C57.9947376,34.1173509 58.4293156,34.3401232 58.8570266,34.6765885 C59.2860456,35.0140424 59.6761521,35.4411326 59.9766616,35.8965636 C60.2562433,36.3203583 60.4481901,36.7777665 60.5956654,37.2621975 C60.7833612,37.8774577 60.8134449,38.5718087 61.2957643,39.0423988 C61.752251,39.4876139 62.4144183,39.3495346 62.7574373,38.852581 C63.554,37.6995035 62.4870114,35.6006323 61.8137262,34.6080432" id="Fill-137" fill="#FFFFFF"></path>
                        <path d="M63.2477027,40.2226967 C63.0750487,39.9069927 62.5554517,39.8031861 62.3128205,40.1014242 C62.1087749,40.3522078 62.0387977,40.6165028 61.9612996,40.9239681 C61.8795506,41.2472516 61.8475049,41.7059781 62.0695354,41.9972957 C62.2644251,42.252693 62.5845544,42.4023064 62.8883338,42.2134772 C63.480524,41.8457051 63.563254,40.8003888 63.2477027,40.2226967" id="Fill-139" fill="#FFFFFF"></path>
                        <path d="M61.8137262,34.6080432 C61.1025095,33.5600905 59.508403,32.0399001 58.1170342,32.5945241 C57.7122129,32.7560011 57.4251103,33.2209889 57.6932471,33.6434654 C57.9947376,34.1173509 58.4293156,34.3401232 58.8570266,34.6765885 C59.2860456,35.0140424 59.6761521,35.4411326 59.9766616,35.8965636 C60.2562433,36.3203583 60.4481901,36.7777665 60.5956654,37.2621975 C60.7833612,37.8774577 60.8134449,38.5718087 61.2957643,39.0423988 C61.752251,39.4876139 62.4144183,39.3495346 62.7574373,38.852581 C63.554,37.6995035 62.4870114,35.6006323 61.8137262,34.6080432" id="Fill-141" fill="#FFFFFF"></path>
                        <path d="M63.2477027,40.2226967 C63.0750487,39.9069927 62.5554517,39.8031861 62.3128205,40.1014242 C62.1087749,40.3522078 62.0387977,40.6165028 61.9612996,40.9239681 C61.8795506,41.2472516 61.8475049,41.7059781 62.0695354,41.9972957 C62.2644251,42.252693 62.5845544,42.4023064 62.8883338,42.2134772 C63.480524,41.8457051 63.563254,40.8003888 63.2477027,40.2226967" id="Fill-143" fill="#FFFFFF"></path>
                        <path d="M17.8516053,6.4738099 C18.9728753,6.58849151 20.0938183,6.70284358 21.2150882,6.81752519 C22.1741681,6.91572956 23.2447536,6.90024095 24.1619779,7.22253582 C25.6409817,7.74255761 26.138343,9.55373615 26.5245255,10.9108019 C26.7825255,11.8157321 28.1859932,11.4311532 27.9270122,10.5212799 C27.4443658,8.82577156 26.7720616,6.8455365 25.0736433,6.02398117 C24.070092,5.53856159 22.9040236,5.5247207 21.8157802,5.41333454 C20.4943886,5.27822115 19.172997,5.14310776 17.8516053,5.00832391 C16.9213011,4.91308544 16.9278411,6.37923052 17.8516053,6.4738099" id="Fill-145" fill="#C56415"></path>
                        <path d="M67.9343757,45.2508262 C67.9343757,45.2508262 67.8774783,45.3028943 67.7712046,45.3938487 C63.8953186,63.2044302 42.4613719,62.3690339 42.4613719,62.3690339 C27.1667787,63.1935552 18.2067559,47.845992 17.0112578,45.6617687 C16.9775772,45.6429846 16.9438966,45.6261778 16.910216,45.6073938 C16.910216,45.6073938 14.3740335,60.9823092 17.6482464,65.7303915 C17.6482464,65.7303915 40.8895011,90.7705281 68.3915163,64.4866892 C68.3915163,64.4866892 70.3214479,54.9602064 67.9343757,45.2508262" id="Fill-147" fill="#D91FCB"></path>
                        <path d="M18.0241939,65.4225637 C18.5588327,65.9818013 27.9619354,75.5992385 41.405403,76.0002946 C50.5312129,76.2692032 59.4552662,72.315983 67.9467034,64.2411453 C68.15827,63.0801588 69.4538289,55.3032297 67.8414106,47.0718582 C65.8892433,53.7125166 61.0716084,58.5166216 53.8191597,61.020833 C48.0908403,62.9984317 42.9046806,62.8712274 42.4651977,62.8557388 C42.0698593,62.8768296 41.6751749,62.8870455 41.2880114,62.8870455 C27.994962,62.8886932 19.5908327,50.8731581 17.2008175,46.9502561 C16.6897224,50.6839994 15.4611977,61.6384 18.0241939,65.4225637 M42.2876388,76.9862928 C41.9802624,76.9862928 41.6735399,76.9820087 41.3655095,76.9727814 C27.1836844,76.5443731 17.3930913,66.1676646 17.2956464,66.0628693 L17.2518289,66.0081649 C13.9040418,61.15331 16.3287186,46.163303 16.4340114,45.527611 L16.5455171,44.852044 L17.3656236,45.3018727 L17.4339658,45.4267702 C18.4031825,47.1967557 27.3282167,62.6978868 42.4354411,61.8829223 L42.4573498,61.8819337 L42.4795856,61.8825928 C42.5325589,61.8845701 47.8393802,62.0631834 53.533365,60.0908574 C61.101038,57.4696576 65.7326122,52.4895757 67.299251,45.2896796 L67.3342395,45.1295208 L67.4581711,45.0234073 C67.554635,44.9410211 67.6072814,44.8929076 67.6102243,44.8902712 L68.2089544,44.3445449 L68.4028631,45.1338048 C70.7886274,54.8372532 68.8842015,64.4876449 68.8649087,64.583872 L68.8341711,64.7341445 L68.7239734,64.8395988 C60.2868175,72.9029024 51.3970989,76.9862928 42.2876388,76.9862928" id="Fill-149" fill="#000000"></path>
                        <path d="M29.9231605,38.0315859 C29.9231605,40.640263 31.9348411,42.7549523 34.4167422,42.7549523 C36.8983163,42.7549523 38.90967,40.640263 38.90967,38.0315859 C38.90967,35.4225792 36.8983163,33.3078898 34.4167422,33.3078898 C31.9348411,33.3078898 29.9231605,35.4225792 29.9231605,38.0315859" id="Fill-151" fill="#E6E6E6"></path>
                        <path d="M34.4166441,33.3077251 C34.4205681,33.3077251 34.424819,33.3077251 34.428743,33.3077251 C36.2445529,33.9140876 37.5610395,35.7005503 37.5610395,37.810626 C37.5610395,40.4196327 35.5490319,42.534322 33.0677848,42.534322 C33.0638608,42.534322 33.0596099,42.5339925 33.0556859,42.5339925 C31.239549,41.9279595 29.9230624,40.1414968 29.9230624,38.0314211 C29.9230624,35.4224144 31.93507,33.3077251 34.4166441,33.3077251" id="Fill-153" fill="#FFFFFF"></path>
                        <path d="M29.9231605,38.0315859 C29.9162935,36.8198494 30.3688563,35.608113 31.1873278,34.7094441 C31.594765,34.2602745 32.0888563,33.885582 32.6421338,33.6282074 C33.1937764,33.3688556 33.8023163,33.2255036 34.4164152,33.2129809 C35.0301871,33.2001287 35.6501719,33.316458 36.2207802,33.5586735 C36.7910616,33.8018776 37.3136015,34.1630588 37.7439285,34.6158534 C38.1739285,35.0683185 38.5195635,35.6048175 38.7481338,36.1897596 C38.9767042,36.7743722 39.0944228,37.4028143 39.0967118,38.0312563 C39.0937688,38.6593688 38.9770312,39.2878109 38.7481338,39.8724234 C38.5185825,40.457036 38.1736015,40.9935351 37.7439285,41.4460001 C37.3129475,41.8978061 36.7910616,42.2596464 36.2207802,42.502521 C35.6501719,42.7447364 35.0305141,42.8613953 34.4167422,42.8488726 C33.8026433,42.8366795 33.1944304,42.6933274 32.6427878,42.4339756 C32.0895103,42.1769306 31.595746,41.8022381 31.1876548,41.353398 C30.3691833,40.4550588 29.9162935,39.2433223 29.9231605,38.0315859 M29.9231605,38.0315859 C29.9261034,38.6372893 30.0389171,39.2420041 30.2593125,39.8045372 C30.480035,40.3670703 30.8122631,40.8831375 31.2255863,41.3174777 C31.6395635,41.7521473 32.1415027,42.098499 32.6879133,42.3308281 C33.2353049,42.5628277 33.828476,42.6735547 34.4167422,42.661032 C35.0053354,42.6488389 35.5870616,42.5110891 36.1154875,42.2622828 C36.6452213,42.0151241 37.1187118,41.6562498 37.5094722,41.2242165 C37.9021947,40.7935013 38.2069551,40.2853432 38.4126357,39.740935 C38.6209323,39.197186 38.7245901,38.6142212 38.7229551,38.0312563 C38.7288411,36.8649971 38.2936091,35.7017037 37.5084913,34.8386257 C37.1170768,34.407581 36.6442403,34.0480476 36.1148335,33.8012185 C35.5864076,33.5527417 35.0046814,33.4149919 34.4164152,33.4024692 C33.828149,33.3899465 33.2349779,33.5006736 32.6879133,33.7323436 C32.1411757,33.9650023 31.6398905,34.3113539 31.2255863,34.7456941 C30.8122631,35.1800342 30.480035,35.6961014 30.2593125,36.2586345 C30.0389171,36.8211676 29.9261034,37.4258824 29.9231605,38.0315859" id="Fill-155" fill="#221F1F"></path>
                        <path d="M37.292543,37.8597282 C37.292543,40.021872 35.6248624,41.7740621 33.5693643,41.7740621 C31.5122312,41.7740621 29.8452046,40.021872 29.8452046,37.8597282 C29.8452046,35.6975844 31.5122312,33.9447353 33.5693643,33.9447353 C35.6248624,33.9447353 37.292543,35.6975844 37.292543,37.8597282" id="Fill-157" fill="#101010"></path>
                        <path d="M33.7391734,37.4374824 C33.7391734,38.4930146 32.8899643,39.348513 31.8425954,39.348513 C30.7952266,39.348513 29.9460175,38.4930146 29.9460175,37.4374824 C29.9460175,36.3819502 30.7952266,35.5261222 31.8425954,35.5261222 C32.8899643,35.5261222 33.7391734,36.3819502 33.7391734,37.4374824" id="Fill-159" fill="#FFFFFF"></path>
                        <path d="M34.8165932,38.7246187 C34.8165932,39.2565041 34.3885551,39.6878783 33.8607833,39.6878783 C33.3323574,39.6878783 32.9046464,39.2565041 32.9046464,38.7246187 C32.9046464,38.1927333 33.3323574,37.7610295 33.8607833,37.7610295 C34.3885551,37.7610295 34.8165932,38.1927333 34.8165932,38.7246187" id="Fill-161" fill="#FFFFFF"></path>
                        <path d="M38.79133,37.9281088 C38.7838091,36.7051678 38.3312464,35.48717 37.5111399,34.5901489 C36.6959384,33.6918096 35.5053452,33.1533333 34.3098471,33.1829923 C33.1114061,33.1925491 31.9656114,33.7738663 31.1932464,34.6672624 C30.4042046,35.5534085 29.9820525,36.7430655 29.9889194,37.9281088 C29.9810715,39.1131521 30.4042046,40.3031386 31.1929194,41.1892847 C31.9646304,42.0836694 33.1117331,42.6643275 34.3098471,42.6742138 C35.5053452,42.7035433 36.6965924,42.165067 37.5111399,41.2660687 C38.3312464,40.3690475 38.7838091,39.1510497 38.79133,37.9281088 M38.79133,37.9281088 C38.7991779,39.1510497 38.362311,40.3809112 37.5458015,41.297705 C36.7462958,42.2227374 35.5543947,42.8264636 34.3098471,42.8356908 C33.0679156,42.8656794 31.831543,42.304135 30.9892008,41.3748185 C30.1412996,40.4468201 29.675003,39.1889474 29.6674821,37.9281088 C29.6736951,36.6669406 30.1409726,35.4090679 30.9888738,34.4810695 C31.830562,33.5507644 33.0679156,32.9898791 34.3098471,33.0198676 C35.5547217,33.0294244 36.7469498,33.6328211 37.5458015,34.558183 C38.362638,35.4753064 38.7995049,36.7051678 38.79133,37.9281088" id="Fill-163" fill="#000000"></path>
                        <path d="M49.550911,37.9153883 C49.550911,40.5240654 51.5625916,42.6387548 54.0444928,42.6387548 C56.5260669,42.6387548 58.5374205,40.5240654 58.5374205,37.9153883 C58.5374205,35.3063817 56.5260669,33.1916923 54.0444928,33.1916923 C51.5625916,33.1916923 49.550911,35.3063817 49.550911,37.9153883" id="Fill-165" fill="#E6E6E6"></path>
                        <path d="M54.0443947,33.1915605 C54.0483186,33.1915605 54.0525696,33.1915605 54.0564935,33.1915605 C55.8723034,33.7979231 57.1887901,35.5843857 57.1887901,37.6944615 C57.1887901,40.3034681 55.1767825,42.4181575 52.6955354,42.4181575 C52.6916114,42.4181575 52.6876875,42.4178279 52.6834365,42.4178279 C50.8676266,41.8117949 49.5508129,40.0253323 49.5508129,37.9152565 C49.5508129,35.3062499 51.5628205,33.1915605 54.0443947,33.1915605" id="Fill-167" fill="#FFFFFF"></path>
                        <path d="M49.550911,37.9153883 C49.5440441,36.7036519 49.9966068,35.4919154 50.8150783,34.5932466 C51.2225156,34.144077 51.7166068,33.7693845 52.2698844,33.5120099 C52.821527,33.2526581 53.4300669,33.1093061 54.0441658,33.0967834 C54.6579376,33.0839312 55.2779224,33.2002605 55.8488578,33.4428055 C56.4188122,33.6856801 56.9413521,34.0468612 57.3716791,34.4996559 C57.8016791,34.952121 58.1473141,35.48862 58.3758844,36.0735621 C58.6047817,36.6581747 58.7221734,37.2866167 58.7247894,37.9150588 C58.7215194,38.5431713 58.6047817,39.1716133 58.3758844,39.7562259 C58.1463331,40.3408385 57.8016791,40.8776671 57.3716791,41.3298026 C56.9406981,41.7819382 56.4188122,42.1437784 55.8488578,42.386653 C55.2779224,42.6285389 54.6582646,42.7451978 54.0444928,42.7326751 C53.4307209,42.7204819 52.822508,42.5771299 52.2705384,42.3181077 C51.7172608,42.0607331 51.2234966,41.6863702 50.8157323,41.2375301 C49.9972608,40.3388612 49.5440441,39.1271248 49.550911,37.9153883 M49.550911,37.9153883 C49.553854,38.5210918 49.6666677,39.1258066 49.8870631,39.6883397 C50.1077856,40.2508728 50.4400137,40.76694 50.8533369,41.2016097 C51.2676411,41.6359498 51.7692532,41.9823015 52.3156639,42.2149601 C52.8630555,42.4466302 53.4562266,42.5573572 54.0444928,42.5448345 C54.6330859,42.5326414 55.2148122,42.3948916 55.743238,42.1460852 C56.2729719,41.8992561 56.7464624,41.5400522 57.1372228,41.1083485 C57.5299452,40.6776334 57.8347057,40.1691456 58.0407133,39.6247375 C58.2486829,39.0809885 58.3523407,38.4980237 58.3507057,37.9150588 C58.3565916,36.7487995 57.9213597,35.5855062 57.1365688,34.7224282 C56.7451544,34.2913835 56.2719909,33.9318501 55.742584,33.685021 C55.2141582,33.4365442 54.6324319,33.2987944 54.0441658,33.2866012 C53.4558996,33.273749 52.8627285,33.3844761 52.3156639,33.6161461 C51.7689262,33.8488048 51.2676411,34.1951564 50.8533369,34.6294965 C50.4400137,35.0638367 50.1077856,35.5799039 49.8870631,36.142437 C49.6666677,36.7049701 49.553854,37.3096849 49.550911,37.9153883" id="Fill-169" fill="#221F1F"></path>
                        <path d="M56.9202935,37.7436955 C56.9202935,39.9055097 55.2529399,41.6576998 53.1971148,41.6576998 C51.1403087,41.6576998 49.4732821,39.9055097 49.4732821,37.7436955 C49.4732821,35.5815516 51.1403087,33.8287025 53.1971148,33.8287025 C55.2529399,33.8287025 56.9202935,35.5815516 56.9202935,37.7436955" id="Fill-171" fill="#101010"></path>
                        <path d="M53.3670875,37.3213178 C53.3670875,38.37685 52.5178783,39.2323485 51.4705095,39.2323485 C50.4231407,39.2323485 49.5739316,38.37685 49.5739316,37.3213178 C49.5739316,36.2657856 50.4231407,35.4099576 51.4705095,35.4099576 C52.5178783,35.4099576 53.3670875,36.2657856 53.3670875,37.3213178" id="Fill-173" fill="#FFFFFF"></path>
                        <path d="M54.4443437,38.6084541 C54.4443437,39.1403395 54.0163057,39.5717138 53.4885338,39.5717138 C52.960108,39.5717138 52.532397,39.1403395 52.532397,38.6084541 C52.532397,38.0765687 52.960108,37.6451945 53.4885338,37.6451945 C54.0163057,37.6451945 54.4443437,38.0765687 54.4443437,38.6084541" id="Fill-175" fill="#FFFFFF"></path>
                        <path d="M58.4190806,37.8119442 C58.4115597,36.5890032 57.958997,35.3710054 57.1388905,34.4739843 C56.324016,33.575645 55.1330958,33.0371687 53.9375977,33.0668278 C52.7394837,33.0763846 51.593689,33.6577017 50.820997,34.5510978 C50.0319551,35.437244 49.61013,36.6269009 49.61667,37.8119442 C49.6088221,38.9973171 50.0319551,40.186974 50.82067,41.0731201 C51.592708,41.9675049 52.7394837,42.5481629 53.9375977,42.5580493 C55.1330958,42.5873788 56.324343,42.0489025 57.1392175,41.1502336 C57.959324,40.252883 58.4118867,39.0352147 58.4190806,37.8119442 M58.4190806,37.8119442 C58.4272555,39.0348852 57.9903886,40.2647466 57.1735521,41.1818699 C56.3740464,42.1069024 55.1824722,42.710299 53.9375977,42.7195263 C52.6956662,42.7495148 51.4592935,42.1879704 50.6169513,41.2586539 C49.7690502,40.3306556 49.3027536,39.0731124 49.2955597,37.8119442 C49.3017726,36.550776 49.7687232,35.2929033 50.6166243,34.364905 C51.4583125,33.4345998 52.6956662,32.8737145 53.9375977,32.9037031 C55.1824722,32.9132599 56.3747004,33.5166565 57.1738791,34.4420185 C57.9903886,35.3591418 58.4272555,36.5890032 58.4190806,37.8119442" id="Fill-177" fill="#000000"></path>
                        <path d="M39.1912791,44.1204215 C40.0372183,45.8884296 42.2692943,46.0337589 44.0030281,46.2281904 C46.0333475,46.4562354 47.9622981,46.0924179 49.4792335,44.6496705 C49.8565871,44.2907961 49.2869597,43.7180472 48.9102601,44.0762624 C47.7059331,45.2217604 46.2060015,45.568112 44.5844274,45.4705667 C43.1636289,45.3852146 40.5882068,45.1782605 39.886146,43.7111267 C39.6611726,43.2411958 38.9669597,43.6521382 39.1912791,44.1204215" id="Fill-179" fill="#000000"></path>
                        <path d="M46.5428076,86.5749277 C66.6628837,85.5187365 68.4090433,64.5039903 68.4090433,64.5039903 C41.7281156,76.5185368 16.7181384,64.5039903 16.7181384,64.5039903 C16.7181384,64.5039903 21.4981688,84.9779533 39.8933399,86.5749277 L46.5428076,86.5749277 Z" id="Fill-181" fill="#49CEA7"></path>
                        <path d="M39.9211346,85.9261198 L46.5261308,85.9261198 C54.6248456,85.4963933 60.6575985,81.7633091 64.4572943,74.8296853 C66.5176973,71.0702376 67.3263589,67.3523124 67.6180395,65.5585998 C54.0692791,71.3503507 41.0705262,70.9993854 32.4594084,69.6505583 C25.2890357,68.5274694 20.016876,66.5966661 17.7144958,65.6465883 C18.2929521,67.4821531 19.5983209,71.0214649 21.9667544,74.6164698 C26.4825719,81.4710029 32.5231726,85.2759278 39.9211346,85.9261198 Z M46.5598114,87.2238675 L39.8380776,87.2212311 C32.1141004,86.5509369 25.5552106,82.4280011 20.8709901,75.2986276 C17.353492,69.9455009 16.1416441,64.866226 16.0916137,64.652681 L15.7845643,63.337797 L16.9951042,63.9181255 C17.0572335,63.9481141 23.3054768,66.9097337 32.7017125,68.3755492 C41.352724,69.7247059 54.5241308,70.0460121 68.1461384,63.9115346 L69.1411878,63.4633536 L69.0506099,64.5581016 C69.0319711,64.7782376 68.5679635,70.0127281 65.5841232,75.4568092 C62.8125034,80.5149932 57.2650129,86.6616639 46.5764882,87.2228788 L46.5598114,87.2238675 Z" id="Fill-183" fill="#000000"></path>
                        <path d="M25.6709346,60.8726696 C25.6709346,62.4284509 24.4195202,63.6896191 22.8757711,63.6896191 C21.3320221,63.6896191 20.0802806,62.4284509 20.0802806,60.8726696 C20.0802806,59.3168883 21.3320221,58.0557201 22.8757711,58.0557201 C24.4195202,58.0557201 25.6709346,59.3168883 25.6709346,60.8726696" id="Fill-185" fill="#CA88BB"></path>
                        <path d="M63.9705278,61.2377724 C63.9705278,62.5918722 62.8813034,63.6895861 61.537676,63.6895861 C60.1937217,63.6895861 59.1044973,62.5918722 59.1044973,61.2377724 C59.1044973,59.8836725 60.1937217,58.7856291 61.537676,58.7856291 C62.8813034,58.7856291 63.9705278,59.8836725 63.9705278,61.2377724" id="Fill-187" fill="#CA88BB"></path>
                        <path d="M33.1409011,64.5039244 C33.1409011,65.8583538 32.0516768,66.9560677 30.7080494,66.9560677 C29.3640951,66.9560677 28.2748707,65.8583538 28.2748707,64.5039244 C28.2748707,63.1498246 29.3640951,62.0521107 30.7080494,62.0521107 C32.0516768,62.0521107 33.1409011,63.1498246 33.1409011,64.5039244" id="Fill-189" fill="#CA88BB"></path>
                        <path d="M47.6499186,66.4454709 C47.6499186,67.5178099 46.7873027,68.3868197 45.723584,68.3868197 C44.6595384,68.3868197 43.7969224,67.5178099 43.7969224,66.4454709 C43.7969224,65.3731319 44.6595384,64.5037926 45.723584,64.5037926 C46.7873027,64.5037926 47.6499186,65.3731319 47.6499186,66.4454709" id="Fill-191" fill="#CA88BB"></path>
                        <path d="M66.9882122,57.1435729 C66.9882122,58.2159119 66.1255962,59.0849217 65.0618776,59.0849217 C63.9978319,59.0849217 63.135216,58.2159119 63.135216,57.1435729 C63.135216,56.071234 63.9978319,55.2022242 65.0618776,55.2022242 C66.1255962,55.2022242 66.9882122,56.071234 66.9882122,57.1435729" id="Fill-193" fill="#CA88BB"></path>
                        <path d="M57.6870015,63.6897179 C57.6870015,64.7620569 56.8243856,65.6313962 55.7603399,65.6313962 C54.6966213,65.6313962 53.8340053,64.7620569 53.8340053,63.6897179 C53.8340053,62.6177085 54.6966213,61.7483692 55.7603399,61.7483692 C56.8243856,61.7483692 57.6870015,62.6177085 57.6870015,63.6897179" id="Fill-195" fill="#CA88BB"></path>
                    </g>
                </g>
            </g>
        </g>
    </g>
</svg>