<?xml version="1.0" encoding="UTF-8"?>
<svg width="93px" height="66px" viewBox="0 0 93 66" version="1.1" xmlns="http://www.w3.org/2000/svg" xmlns:xlink="http://www.w3.org/1999/xlink">
    <!-- Generator: Sketch 51.2 (57519) - http://www.bohemiancoding.com/sketch -->
    <title>Frida</title>
    <desc>Created with Sketch.</desc>
    <defs></defs>
    <g id="Page-1" stroke="none" stroke-width="1" fill="none" fill-rule="evenodd">
        <g id="Prowell" transform="translate(-722.000000, -5385.000000)">
            <g id="7" transform="translate(0.000000, 4800.000000)">
                <g id="Frida" transform="translate(722.000000, 585.000000)">
                    <polygon id="Fill-1" fill="#E9D3A9" points="74.7664503 0 74.7664503 0.792788837 72.0247884 0.792788837 72.0247884 1.5856805 70.0664005 1.5856805 70.0664005 3.96425266 68.1080126 3.96425266 68.1080126 6.34282483 65.3664523 6.34282483 65.3664523 9.11779141 63.0164274 9.11779141 63.0164274 11.8928608 61.0580395 11.8928608 61.0580395 13.8749357 59.0997531 13.8749357 59.0997531 15.8571135 55.9663527 15.8571135 55.9663527 17.5256718 53.6898804 17.4744644 53.6727114 18.2586159 52 18.2209815 52 37 73.5914378 37 73.5914378 34.814638 74.2804344 34.814638 74.2804344 32.3530852 74.9753233 32.3530852 74.9753233 29.8914296 75.6702122 29.8914296 75.6702122 27.429774 76.3649995 27.429774 76.3649995 24.9681184 77.7547774 24.9681184 77.7547774 22.8581278 79.1446568 22.8581278 79.1446568 20.3964722 80.534333 20.3964722 80.534333 18.804725 83.7748113 18.804725 83.7748113 17.5831515 86.7883332 17.5831515 86.7883332 16.6499023 88.4749627 16.6499023 88.4749627 16.2536107 90.0416121 16.2536107 90.0416121 14.6678274 91.2166245 14.6678274 91.2166245 12.2893581 92 12.2893581 92 9.51428865 90.0416121 9.51428865 90.0416121 9.11779141 88.4749627 9.11779141 88.4749627 8.32500257 86.5165747 8.32500257 86.5165747 7.53211091 84.9499253 7.53211091 84.9499253 5.15353874 83.7748113 5.15353874 83.7748113 3.56785824 82.5999004 3.56785824 82.5999004 2.37857216 80.2499771 2.37857216 80.2499771 1.18928608 77.5082137 1.18928608 77.5082137 0"></polygon>
                    <polygon id="Fill-2" fill="#E3A572" points="69 19 73 19 73 17 69 17"></polygon>
                    <polygon id="Fill-3" fill="#E3A572" points="73 17 75 17 75 7 73 7"></polygon>
                    <polygon id="Fill-4" fill="#E3A572" points="68 17 70 17 70 11 68 11"></polygon>
                    <polygon id="Fill-5" fill="#733E39" points="89 12 92 12 92 9 89 9"></polygon>
                    <polygon id="Fill-6" fill="#733E39" points="77.9906468 10 80 10 80 6 76 6 76 8.81690507 77.9906468 8.81690507"></polygon>
                    <polygon id="Fill-7" fill="#E3A572" points="32.749937 40 32.749937 41.8571503 30.8749685 41.8571503 30.8749685 43.7143006 29 43.7143006 29 45.5714509 29.8716304 45.6428798 29.8716304 53.1428055 29.8716304 60.2857958 30.8749685 60.2142625 30.8749685 66 36.4999748 66 36.4999748 64.1428497 34.6249055 64.1428497 34.6249055 49.7142203 36.4999748 49.7142203 36.4999748 47.8571744 38.3749433 47.8571744 38.3749433 46.0000241 40.2500126 46.0000241 40.2500126 44.1428738 42.1249811 44.1428738 42.1249811 42.2858279 47.7498865 42.2858279 59 42.3571523 59 40"></polygon>
                    <polygon id="Fill-8" fill="#062066" points="29 60 29 63.7499589 29 64.1249657 29 66 35 66 35 63.7499589 33.4210283 63.7499589 33.4210283 60"></polygon>
                    <polygon id="Fill-9" fill="#030C21" points="34 65 36 65 36 63 34 63"></polygon>
                    <polygon id="Fill-10" fill="#030C21" points="29 63 34 63 34 62 29 62"></polygon>
                    <polygon id="Fill-11" fill="#E9D3A9" points="6 38 13 38 13 36 6 36"></polygon>
                    <polygon id="Fill-12" fill="#E9D3A9" points="4 38 6 38 6 36 4 36"></polygon>
                    <polygon id="Fill-13" fill="#E9D3A9" points="6 41 8 41 8 39 6 39"></polygon>
                    <polygon id="Fill-14" fill="#E9D3A9" points="5 42 7 42 7 40 5 40"></polygon>
                    <polygon id="Fill-15" fill="#E9D3A9" points="4 43 6 43 6 39 4 39"></polygon>
                    <polygon id="Fill-16" fill="#E9D3A9" points="2 41 4 41 4 38 2 38"></polygon>
                    <polygon id="Fill-17" fill="#E9D3A9" points="5 41 7 41 7 39 5 39"></polygon>
                    <polygon id="Fill-18" fill="#E9D3A9" points="2 42 4 42 4 40 2 40"></polygon>
                    <polygon id="Fill-19" fill="#E9D3A9" points="0 43 2 43 2 40 0 40"></polygon>
                    <polygon id="Fill-20" fill="#E9D3A9" points="13 36 15 36 15 34 13 34"></polygon>
                    <polygon id="Fill-21" fill="#E9D3A9" points="15 35 19 35 19 33 15 33"></polygon>
                    <polygon id="Fill-22" fill="#E3A572" points="71.4999529 37 71.4999529 38.8256723 69.7499765 38.8256723 69.7499765 40.6513446 68 40.6513446 68 60.522983 69.7499765 60.522983 69.7499765 66 75 66 75 64.1743277 73.2499294 64.1743277 73.2499294 37"></polygon>
                    <polygon id="Fill-23" fill="#062066" points="69 60 69 63.7499589 69 64.1249657 69 66 75 66 75 63.7499589 73.4210526 63.7499589 73.4210526 60"></polygon>
                    <polygon id="Fill-24" fill="#030C21" points="75 65 77 65 77 63 75 63"></polygon>
                    <polygon id="Fill-25" fill="#030C21" points="69 63 74 63 74 62 69 62"></polygon>
                    <polygon id="Fill-26" fill="#E9D3A9" points="58.1379587 18.8000101 56.2759173 18.8000101 56.2759173 17.1384623 51.8169132 17.1384623 51.8169132 17 24.6207138 17 24.6207138 18.8000101 22.7586725 18.8000101 22.7586725 20.6000202 20.896531 20.6000202 20.896531 22.4000304 19.0344897 22.4000304 19.0344897 24.2000405 17.1724483 24.2000405 17.1724483 25.9999494 15.3103068 25.9999494 15.3103068 29.6000709 13.4482655 29.6000709 13.4482655 31.3999798 12.3485875 31.3999798 12.3485875 31.4912758 11.6652447 31.4912758 11.6652447 33.3714483 8.24813048 33.3714483 8.24813048 35.2132603 6 35.2132603 6 36.8000101 13.4482655 36.8000101 13.4482655 35 15.3103068 35 15.3103068 33.1999899 18.1999162 33.1999899 18.1999162 53 19.0344897 53 19.0344897 45.7999595 20.896531 45.7999595 20.896531 42.2000405 22.7586725 42.2000405 22.7586725 38.6001215 24.6207138 38.6001215 24.6207138 31.3999798 30.206938 31.3999798 30.206938 33.1999899 33.9310207 33.1999899 33.9310207 35 28.3447965 35 28.3447965 36.8000101 45.103469 36.8000101 45.103469 35 39.5172448 35 39.5172448 31.3999798 41.3792862 31.3999798 41.3792862 33.1999899 48.8276518 33.1999899 48.8276518 29.6000709 52.5517345 29.6000709 52.5517345 31.3999798 56.2759173 31.3999798 56.2759173 29.6000709 58.1379587 29.6000709 58.1379587 27.7999595 60 27.7999595 60 20.6000202 58.1379587 20.6000202"></polygon>
                    <polygon id="Fill-27" fill="#5A6987" points="88 17 92 17 92 13 88 13"></polygon>
                    <polygon id="Fill-28" fill="#E9D3A9" points="55.1778304 17 55.1778304 18.4516957 57.0448515 18.4516957 57.0448515 20.2804806 58.9118726 20.2804806 58.9118726 27.5956201 57.0448515 27.5956201 57.0448515 29.424405 55.1778304 29.424405 55.1778304 31.2531899 51.4436877 31.2531899 51.4436877 29.424405 47.7095451 29.424405 47.7095451 33.0819748 40.2414606 33.0819748 40.2414606 31.2531899 38.374339 31.2531899 38.374339 34.9107597 43.9755028 34.9107597 43.9755028 36.7395446 27.1720115 36.7395446 27.1720115 34.9107597 32.7731753 34.9107597 32.7731753 33.0819748 29.0390326 33.0819748 29.0390326 31.2531899 23.4379692 31.2531899 23.4379692 38.5683295 21.5709481 38.5683295 21.5709481 42.2258993 19.7038266 42.2258993 19.7038266 45.8833662 17.8368055 45.8833662 17.8368055 53.1985058 17 53.1985058 17 60.3026317 17.8368055 60.3026317 17.8368055 66 23.4379692 66 23.4379692 64.1712151 21.5709481 64.1712151 21.5709481 49.5410388 23.4379692 49.5410388 23.4379692 47.7122539 25.3049904 47.7122539 25.3049904 45.8833662 27.1720115 45.8833662 27.1720115 44.0545813 29.0390326 44.0545813 29.0390326 42.2258993 30.9061541 42.2258993 30.9061541 40.3971144 57.0448515 40.3971144 57.0448515 60.5136453 58.9118726 60.5136453 58.9118726 66 64.5130364 66 64.5130364 64.1712151 62.6460153 64.1712151 62.6460153 49.5410388 62.7271552 49.5410388 62.7271552 48.0638405 63.7574713 48.0638405 63.7574713 46.6571857 65.8181035 46.6571857 65.8181035 45.2504281 67.1918583 45.2504281 67.1918583 42.7886023 68.9090517 42.7886023 68.9090517 41.0301553 70.6262452 41.0301553 70.6262452 38.5683295 72 38.5683295 72 36.7395446 70.1142002 36.7395446 70.1142002 34.9107597 68.2470787 34.9107597 68.2470787 33.0819748 66.3800576 33.0819748 66.3800576 22.1092655 64.5130364 22.1092655 64.5130364 20.2804806 60.7789942 20.2804806 60.7789942 18.4516957 58.9118726 18.4516957 58.9118726 17"></polygon>
                    <polygon id="Fill-29" fill="#062066" points="17 60 17 63.7499589 17 64.1249657 17 66 23 66 23 63.7499589 21.4210526 63.7499589 21.4210526 60"></polygon>
                    <polygon id="Fill-30" fill="#030C21" points="23 65 25 65 25 63 23 63"></polygon>
                    <polygon id="Fill-31" fill="#030C21" points="17 63 22 63 22 62 17 62"></polygon>
                    <polygon id="Fill-32" fill="#062066" points="61 60 61 63.7499589 61 64.1249657 61 66 67 66 67 63.7499589 65.4210526 63.7499589 65.4210526 60"></polygon>
                    <polygon id="Fill-33" fill="#030C21" points="65 65 67 65 67 63 65 63"></polygon>
                    <polygon id="Fill-34" fill="#030C21" points="61 63 66 63 66 62 61 62"></polygon>
                    <polygon id="Fill-35" fill="#493A0F" points="59.1098061 20.6491384 59.1098061 18.8245692 57.2196121 18.8245692 57.2196121 17 57.1436668 17 57.1436668 17.1428138 51.3623696 17.1428138 51.3623696 17 26.9656309 17 26.9656309 18.6595947 25.085807 18.6595947 25.085807 18.8245692 25 18.8245692 25 26.4773156 26.7343383 26.4773156 26.7343383 29.6277343 28.5843738 29.6277343 28.5843738 31.5965536 30.7564905 31.5965536 30.7564905 33.4211228 34.5368783 33.4211228 34.5368783 35.1894694 35.8301849 35.1894694 35.8301849 41 37.9114113 41 37.9114113 35.0351648 39.828242 35.0351648 39.828242 32.579014 47.7009322 32.579014 47.7009322 33.4211228 49.2161781 33.4211228 49.2161781 41 51.3023861 41 51.3023861 33.2807714 54.4316981 33.2807714 54.4316981 31.5965536 57.2196121 31.5965536 57.2196121 29.7719844 59.1098061 29.7719844 59.1098061 27.9474152 61 27.9474152 61 20.6491384"></polygon>
                    <polygon id="Fill-36" fill="#B6A57E" points="51.6799189 20.1036062 51.6799189 19 33.2484098 19 33.2484098 20.0482456 32 20.0482456 32 22.8193957 33.1912338 22.8193957 33.1912338 24 51.6226422 24 51.6226422 22.8747563 53 22.8747563 53 20.1036062"></polygon>
                    <text id="-" font-family="LucidaGrande, Lucida Grande" font-size="59.0534" font-weight="normal"></text>
                    <polygon id="Fill-37" fill="#F5757A" points="88 14 88 16.3846154 89.8996449 16.3846154 89.8996449 20 93 20 93 14"></polygon>
                    <polygon id="Fill-38" fill="#493A0F" points="82 4 84 4 84 2 82 2"></polygon>
                    <polygon id="Fill-39" fill="#493A0F" points="80 4 82 4 82 2 80 2"></polygon>
                    <polygon id="Fill-40" fill="#493A0F" points="78 5 80 5 80 3 78 3"></polygon>
                    <polygon id="Fill-41" fill="#493A0F" points="76 6 78 6 78 4 76 4"></polygon>
                    <polygon id="Fill-42" fill="#493A0F" points="75 6 77 6 77 4 75 4"></polygon>
                    <polygon id="Fill-43" fill="#493A0F" points="73 6 75 6 75 4 73 4"></polygon>
                    <polygon id="Fill-44" fill="#493A0F" points="72 8 74 8 74 6 72 6"></polygon>
                    <polygon id="Fill-45" fill="#493A0F" points="74 9 76 9 76 7 74 7"></polygon>
                    <polygon id="Fill-46" fill="#493A0F" points="74 11 76 11 76 9 74 9"></polygon>
                    <polygon id="Fill-47" fill="#493A0F" points="76 12 78 12 78 10 76 10"></polygon>
                    <polygon id="Fill-48" fill="#493A0F" points="76 12 78 12 78 10 76 10"></polygon>
                    <polygon id="Fill-49" fill="#493A0F" points="78 12 80 12 80 10 78 10"></polygon>
                    <polygon id="Fill-50" fill="#493A0F" points="80 11 82 11 82 9 80 9"></polygon>
                    <polygon id="Fill-51" fill="#493A0F" points="82 10 84 10 84 8 82 8"></polygon>
                    <polygon id="Fill-52" fill="#493A0F" points="82 9 84 9 84 7 82 7"></polygon>
                    <polygon id="Fill-53" fill="#493A0F" points="84 8 86 8 86 6 84 6"></polygon>
                    <polygon id="Fill-54" fill="#493A0F" points="85 8 87 8 87 6 85 6"></polygon>
                    <polygon id="Fill-55" fill="#493A0F" points="85 7 87 7 87 5 85 5"></polygon>
                    <polygon id="Fill-56" fill="#493A0F" points="84 6 86 6 86 4 84 4"></polygon>
                    <polygon id="Fill-57" fill="#493A0F" points="83 5 85 5 85 3 83 3"></polygon>
                    <polygon id="Fill-58" fill="#493A0F" points="82 4 84 4 84 2 82 2"></polygon>
                    <polygon id="Fill-59" fill="#493A0F" points="76 13 79 13 79 11 76 11"></polygon>
                    <polygon id="Fill-60" fill="#493A0F" points="77 15 80 15 80 13 77 13"></polygon>
                    <polygon id="Fill-61" fill="#493A0F" points="78 17 80 17 80 15 78 15"></polygon>
                    <polygon id="Fill-62" fill="#493A0F" points="80 19 82 19 82 17 80 17"></polygon>
                    <polygon id="Fill-63" fill="#493A0F" points="82 20 84 20 84 18 82 18"></polygon>
                    <polygon id="Fill-64" fill="#E9D3A9" points="74.7664503 0 74.7664503 0.792788837 72.0247884 0.792788837 72.0247884 1.5856805 70.0664005 1.5856805 70.0664005 3.96425266 68.1080126 3.96425266 68.1080126 6.34282483 65.3664523 6.34282483 65.3664523 9.11779141 63.0164274 9.11779141 63.0164274 11.8928608 61.0580395 11.8928608 61.0580395 13.8749357 59.0997531 13.8749357 59.0997531 15.8571135 55.9663527 15.8571135 55.9663527 17.5256718 53.6898804 17.4744644 53.6727114 18.2586159 52 18.2209815 52 37 73.5914378 37 73.5914378 34.814638 74.2804344 34.814638 74.2804344 32.3530852 74.9753233 32.3530852 74.9753233 29.8914296 75.6702122 29.8914296 75.6702122 27.429774 76.3649995 27.429774 76.3649995 24.9681184 77.7547774 24.9681184 77.7547774 22.8581278 79.1446568 22.8581278 79.1446568 20.3964722 80.534333 20.3964722 80.534333 18.804725 83.7748113 18.804725 83.7748113 17.5831515 86.7883332 17.5831515 86.7883332 16.6499023 88.4749627 16.6499023 88.4749627 16.2536107 90.0416121 16.2536107 90.0416121 14.6678274 91.2166245 14.6678274 91.2166245 12.2893581 92 12.2893581 92 9.51428865 90.0416121 9.51428865 90.0416121 9.11779141 88.4749627 9.11779141 88.4749627 8.32500257 86.5165747 8.32500257 86.5165747 7.53211091 84.9499253 7.53211091 84.9499253 5.15353874 83.7748113 5.15353874 83.7748113 3.56785824 82.5999004 3.56785824 82.5999004 2.37857216 80.2499771 2.37857216 80.2499771 1.18928608 77.5082137 1.18928608 77.5082137 0"></polygon>
                    <polygon id="Fill-65" fill="#E3A572" points="69 19 73 19 73 17 69 17"></polygon>
                    <polygon id="Fill-66" fill="#E3A572" points="73 17 75 17 75 7 73 7"></polygon>
                    <polygon id="Fill-67" fill="#E3A572" points="68 17 70 17 70 11 68 11"></polygon>
                    <polygon id="Fill-68" fill="#733E39" points="89 12 92 12 92 9 89 9"></polygon>
                    <polygon id="Fill-69" fill="#733E39" points="77.9906468 10 80 10 80 6 76 6 76 8.81690507 77.9906468 8.81690507"></polygon>
                    <polygon id="Fill-70" fill="#E3A572" points="32.749937 40 32.749937 41.8571503 30.8749685 41.8571503 30.8749685 43.7143006 29 43.7143006 29 45.5714509 29.8716304 45.6428798 29.8716304 53.1428055 29.8716304 60.2857958 30.8749685 60.2142625 30.8749685 66 36.4999748 66 36.4999748 64.1428497 34.6249055 64.1428497 34.6249055 49.7142203 36.4999748 49.7142203 36.4999748 47.8571744 38.3749433 47.8571744 38.3749433 46.0000241 40.2500126 46.0000241 40.2500126 44.1428738 42.1249811 44.1428738 42.1249811 42.2858279 47.7498865 42.2858279 59 42.3571523 59 40"></polygon>
                    <polygon id="Fill-71" fill="#062066" points="29 60 29 63.7499589 29 64.1249657 29 66 35 66 35 63.7499589 33.4210283 63.7499589 33.4210283 60"></polygon>
                    <polygon id="Fill-72" fill="#030C21" points="34 65 36 65 36 63 34 63"></polygon>
                    <polygon id="Fill-73" fill="#030C21" points="29 63 34 63 34 62 29 62"></polygon>
                    <polygon id="Fill-74" fill="#E9D3A9" points="6 38 13 38 13 36 6 36"></polygon>
                    <polygon id="Fill-75" fill="#E9D3A9" points="4 38 6 38 6 36 4 36"></polygon>
                    <polygon id="Fill-76" fill="#E9D3A9" points="6 41 8 41 8 39 6 39"></polygon>
                    <polygon id="Fill-77" fill="#E9D3A9" points="5 42 7 42 7 40 5 40"></polygon>
                    <polygon id="Fill-78" fill="#E9D3A9" points="4 43 6 43 6 39 4 39"></polygon>
                    <polygon id="Fill-79" fill="#E9D3A9" points="2 41 4 41 4 38 2 38"></polygon>
                    <polygon id="Fill-80" fill="#E9D3A9" points="5 41 7 41 7 39 5 39"></polygon>
                    <polygon id="Fill-81" fill="#E9D3A9" points="2 42 4 42 4 40 2 40"></polygon>
                    <polygon id="Fill-82" fill="#E9D3A9" points="0 43 2 43 2 40 0 40"></polygon>
                    <polygon id="Fill-83" fill="#E9D3A9" points="13 36 15 36 15 34 13 34"></polygon>
                    <polygon id="Fill-84" fill="#E9D3A9" points="15 35 19 35 19 33 15 33"></polygon>
                    <polygon id="Fill-85" fill="#E3A572" points="71.4999529 37 71.4999529 38.8256723 69.7499765 38.8256723 69.7499765 40.6513446 68 40.6513446 68 60.522983 69.7499765 60.522983 69.7499765 66 75 66 75 64.1743277 73.2499294 64.1743277 73.2499294 37"></polygon>
                    <polygon id="Fill-86" fill="#062066" points="69 60 69 63.7499589 69 64.1249657 69 66 75 66 75 63.7499589 73.4210526 63.7499589 73.4210526 60"></polygon>
                    <polygon id="Fill-87" fill="#030C21" points="75 65 77 65 77 63 75 63"></polygon>
                    <polygon id="Fill-88" fill="#030C21" points="69 63 74 63 74 62 69 62"></polygon>
                    <polygon id="Fill-89" fill="#E9D3A9" points="58.1379587 18.8000101 56.2759173 18.8000101 56.2759173 17.1384623 51.8169132 17.1384623 51.8169132 17 24.6207138 17 24.6207138 18.8000101 22.7586725 18.8000101 22.7586725 20.6000202 20.896531 20.6000202 20.896531 22.4000304 19.0344897 22.4000304 19.0344897 24.2000405 17.1724483 24.2000405 17.1724483 25.9999494 15.3103068 25.9999494 15.3103068 29.6000709 13.4482655 29.6000709 13.4482655 31.3999798 12.3485875 31.3999798 12.3485875 31.4912758 11.6652447 31.4912758 11.6652447 33.3714483 8.24813048 33.3714483 8.24813048 35.2132603 6 35.2132603 6 36.8000101 13.4482655 36.8000101 13.4482655 35 15.3103068 35 15.3103068 33.1999899 18.1999162 33.1999899 18.1999162 53 19.0344897 53 19.0344897 45.7999595 20.896531 45.7999595 20.896531 42.2000405 22.7586725 42.2000405 22.7586725 38.6001215 24.6207138 38.6001215 24.6207138 31.3999798 30.206938 31.3999798 30.206938 33.1999899 33.9310207 33.1999899 33.9310207 35 28.3447965 35 28.3447965 36.8000101 45.103469 36.8000101 45.103469 35 39.5172448 35 39.5172448 31.3999798 41.3792862 31.3999798 41.3792862 33.1999899 48.8276518 33.1999899 48.8276518 29.6000709 52.5517345 29.6000709 52.5517345 31.3999798 56.2759173 31.3999798 56.2759173 29.6000709 58.1379587 29.6000709 58.1379587 27.7999595 60 27.7999595 60 20.6000202 58.1379587 20.6000202"></polygon>
                    <polygon id="Fill-90" fill="#5A6987" points="88 17 92 17 92 13 88 13"></polygon>
                    <polygon id="Fill-91" fill="#E9D3A9" points="55.1778304 17 55.1778304 18.4516957 57.0448515 18.4516957 57.0448515 20.2804806 58.9118726 20.2804806 58.9118726 27.5956201 57.0448515 27.5956201 57.0448515 29.424405 55.1778304 29.424405 55.1778304 31.2531899 51.4436877 31.2531899 51.4436877 29.424405 47.7095451 29.424405 47.7095451 33.0819748 40.2414606 33.0819748 40.2414606 31.2531899 38.374339 31.2531899 38.374339 34.9107597 43.9755028 34.9107597 43.9755028 36.7395446 27.1720115 36.7395446 27.1720115 34.9107597 32.7731753 34.9107597 32.7731753 33.0819748 29.0390326 33.0819748 29.0390326 31.2531899 23.4379692 31.2531899 23.4379692 38.5683295 21.5709481 38.5683295 21.5709481 42.2258993 19.7038266 42.2258993 19.7038266 45.8833662 17.8368055 45.8833662 17.8368055 53.1985058 17 53.1985058 17 60.3026317 17.8368055 60.3026317 17.8368055 66 23.4379692 66 23.4379692 64.1712151 21.5709481 64.1712151 21.5709481 49.5410388 23.4379692 49.5410388 23.4379692 47.7122539 25.3049904 47.7122539 25.3049904 45.8833662 27.1720115 45.8833662 27.1720115 44.0545813 29.0390326 44.0545813 29.0390326 42.2258993 30.9061541 42.2258993 30.9061541 40.3971144 57.0448515 40.3971144 57.0448515 60.5136453 58.9118726 60.5136453 58.9118726 66 64.5130364 66 64.5130364 64.1712151 62.6460153 64.1712151 62.6460153 49.5410388 62.7271552 49.5410388 62.7271552 48.0638405 63.7574713 48.0638405 63.7574713 46.6571857 65.8181035 46.6571857 65.8181035 45.2504281 67.1918583 45.2504281 67.1918583 42.7886023 68.9090517 42.7886023 68.9090517 41.0301553 70.6262452 41.0301553 70.6262452 38.5683295 72 38.5683295 72 36.7395446 70.1142002 36.7395446 70.1142002 34.9107597 68.2470787 34.9107597 68.2470787 33.0819748 66.3800576 33.0819748 66.3800576 22.1092655 64.5130364 22.1092655 64.5130364 20.2804806 60.7789942 20.2804806 60.7789942 18.4516957 58.9118726 18.4516957 58.9118726 17"></polygon>
                    <polygon id="Fill-92" fill="#062066" points="17 60 17 63.7499589 17 64.1249657 17 66 23 66 23 63.7499589 21.4210526 63.7499589 21.4210526 60"></polygon>
                    <polygon id="Fill-93" fill="#030C21" points="23 65 25 65 25 63 23 63"></polygon>
                    <polygon id="Fill-94" fill="#030C21" points="17 63 22 63 22 62 17 62"></polygon>
                    <polygon id="Fill-95" fill="#062066" points="61 60 61 63.7499589 61 64.1249657 61 66 67 66 67 63.7499589 65.4210526 63.7499589 65.4210526 60"></polygon>
                    <polygon id="Fill-96" fill="#030C21" points="65 65 67 65 67 63 65 63"></polygon>
                    <polygon id="Fill-97" fill="#030C21" points="61 63 66 63 66 62 61 62"></polygon>
                    <polygon id="Fill-98" fill="#493A0F" points="59.1098061 20.6491384 59.1098061 18.8245692 57.2196121 18.8245692 57.2196121 17 57.1436668 17 57.1436668 17.1428138 51.3623696 17.1428138 51.3623696 17 26.9656309 17 26.9656309 18.6595947 25.085807 18.6595947 25.085807 18.8245692 25 18.8245692 25 26.4773156 26.7343383 26.4773156 26.7343383 29.6277343 28.5843738 29.6277343 28.5843738 31.5965536 30.7564905 31.5965536 30.7564905 33.4211228 34.5368783 33.4211228 34.5368783 35.1894694 35.8301849 35.1894694 35.8301849 41 37.9114113 41 37.9114113 35.0351648 39.828242 35.0351648 39.828242 32.579014 47.7009322 32.579014 47.7009322 33.4211228 49.2161781 33.4211228 49.2161781 41 51.3023861 41 51.3023861 33.2807714 54.4316981 33.2807714 54.4316981 31.5965536 57.2196121 31.5965536 57.2196121 29.7719844 59.1098061 29.7719844 59.1098061 27.9474152 61 27.9474152 61 20.6491384"></polygon>
                    <polygon id="Fill-99" fill="#B6A57E" points="51.6799189 20.1036062 51.6799189 19 33.2484098 19 33.2484098 20.0482456 32 20.0482456 32 22.8193957 33.1912338 22.8193957 33.1912338 24 51.6226422 24 51.6226422 22.8747563 53 22.8747563 53 20.1036062"></polygon>
                    <text id="-" font-family="LucidaGrande, Lucida Grande" font-size="59.0534" font-weight="normal"></text>
                    <polygon id="Fill-100" fill="#F5757A" points="88 14 88 16.3846154 89.8996449 16.3846154 89.8996449 20 93 20 93 14"></polygon>
                    <polygon id="Fill-101" fill="#493A0F" points="82 4 84 4 84 2 82 2"></polygon>
                    <polygon id="Fill-102" fill="#493A0F" points="80 4 82 4 82 2 80 2"></polygon>
                    <polygon id="Fill-103" fill="#493A0F" points="78 5 80 5 80 3 78 3"></polygon>
                    <polygon id="Fill-104" fill="#493A0F" points="76 6 78 6 78 4 76 4"></polygon>
                    <polygon id="Fill-105" fill="#493A0F" points="75 6 77 6 77 4 75 4"></polygon>
                    <polygon id="Fill-106" fill="#493A0F" points="73 6 75 6 75 4 73 4"></polygon>
                    <polygon id="Fill-107" fill="#493A0F" points="72 8 74 8 74 6 72 6"></polygon>
                    <polygon id="Fill-108" fill="#493A0F" points="74 9 76 9 76 7 74 7"></polygon>
                    <polygon id="Fill-109" fill="#493A0F" points="74 11 76 11 76 9 74 9"></polygon>
                    <polygon id="Fill-110" fill="#493A0F" points="76 12 78 12 78 10 76 10"></polygon>
                    <polygon id="Fill-111" fill="#493A0F" points="76 12 78 12 78 10 76 10"></polygon>
                    <polygon id="Fill-112" fill="#493A0F" points="78 12 80 12 80 10 78 10"></polygon>
                    <polygon id="Fill-113" fill="#493A0F" points="80 11 82 11 82 9 80 9"></polygon>
                    <polygon id="Fill-114" fill="#493A0F" points="82 10 84 10 84 8 82 8"></polygon>
                    <polygon id="Fill-115" fill="#493A0F" points="82 9 84 9 84 7 82 7"></polygon>
                    <polygon id="Fill-116" fill="#493A0F" points="84 8 86 8 86 6 84 6"></polygon>
                    <polygon id="Fill-117" fill="#493A0F" points="85 8 87 8 87 6 85 6"></polygon>
                    <polygon id="Fill-118" fill="#493A0F" points="85 7 87 7 87 5 85 5"></polygon>
                    <polygon id="Fill-119" fill="#493A0F" points="84 6 86 6 86 4 84 4"></polygon>
                    <polygon id="Fill-120" fill="#493A0F" points="83 5 85 5 85 3 83 3"></polygon>
                    <polygon id="Fill-121" fill="#493A0F" points="82 4 84 4 84 2 82 2"></polygon>
                    <polygon id="Fill-122" fill="#493A0F" points="76 13 79 13 79 11 76 11"></polygon>
                    <polygon id="Fill-123" fill="#493A0F" points="77 15 80 15 80 13 77 13"></polygon>
                    <polygon id="Fill-124" fill="#493A0F" points="78 17 80 17 80 15 78 15"></polygon>
                    <polygon id="Fill-125" fill="#493A0F" points="80 19 82 19 82 17 80 17"></polygon>
                    <polygon id="Fill-126" fill="#493A0F" points="82 20 84 20 84 18 82 18"></polygon>
                </g>
            </g>
        </g>
    </g>
</svg>