<?xml version="1.0" encoding="UTF-8"?>
<svg width="569px" height="469px" viewBox="0 0 569 469" version="1.1" xmlns="http://www.w3.org/2000/svg" xmlns:xlink="http://www.w3.org/1999/xlink">
    <!-- Generator: Sketch 51.2 (57519) - http://www.bohemiancoding.com/sketch -->
    <title>heart</title>
    <desc>Created with Sketch.</desc>
    <defs>
        <polygon id="path-1" points="0.00194406426 0.113404091 568.44439 0.113404091 568.44439 469 0.00194406426 469"></polygon>
    </defs>
    <g id="Page-1" stroke="none" stroke-width="1" fill="none" fill-rule="evenodd" opacity="0.402790179">
        <g id="Prowell" transform="translate(-316.000000, -1010.000000)">
            <g id="heart" style="mix-blend-mode: soft-light;" transform="translate(316.000000, 1010.000000)">
                <path d="M318.385,170.001439 C304.8845,169.890232 292.1315,176.229035 284,187.074995 C275.8685,176.229035 263.1155,169.890232 249.615,170.001439 C225.6365,169.890232 206.1105,189.371093 206,213.503027 L206,213.699274 C206,255.63088 279.645,296.908326 282.765,298.739972 C283.389,299.086676 284.1495,299.086676 284.78,298.739972 C298.1895,291.086309 310.949,282.333659 322.935,272.573603 C349,251.313429 362,231.557821 362,213.699274 C362,189.567341 342.565,170.001439 318.58,170.001439 L318.385,170.001439 Z" id="Fill-1" fill="#000000"></path>
                <g id="Group-5">
                    <mask id="mask-2" fill="white">
                        <use xlink:href="#path-1"></use>
                    </mask>
                    <g id="Clip-4"></g>
                    <path d="M362.440324,309.957192 C338.502413,329.323767 313.00925,346.69138 286.233005,361.878306 C284.975844,362.55977 283.465954,362.55977 282.215272,361.878306 C275.735058,358.438532 128.886924,276.468074 128.886924,193.134687 C128.925806,145.217989 167.683967,106.368016 215.533868,106.296624 C242.51748,106.08894 267.997682,118.70577 284.224139,140.304954 C300.463556,118.731731 325.937278,106.140861 352.907929,106.361526 C400.809673,106.329075 439.677997,145.166068 439.74928,193.134687 C439.74928,228.700649 413.828423,267.965992 362.440324,309.957192 M409.869012,0.117947189 C360.522181,-0.316892137 313.89704,22.7295921 284.224139,62.2285792 C254.551238,22.7295921 207.919617,-0.316892137 158.572786,0.117947189 C71.0510125,0.18933872 0.105627491,71.2109319 0.00194406426,158.866752 C0.00194406426,311.514826 269.060438,461.566844 280.530417,468.056983 C282.830893,469.31607 285.617385,469.31607 287.917861,468.056983 C336.934201,440.116934 383.578783,408.185449 427.372071,372.587035 C521.011166,295.87359 568.446334,223.962848 568.446334,158.931653 C568.368571,71.2498727 497.416706,0.18933872 409.869012,0.117947189" id="Fill-3" fill="#000000" mask="url(#mask-2)"></path>
                </g>
            </g>
        </g>
    </g>
</svg>