<?xml version="1.0" encoding="UTF-8"?>
<svg width="130px" height="130px" viewBox="0 0 130 130" version="1.1" xmlns="http://www.w3.org/2000/svg" xmlns:xlink="http://www.w3.org/1999/xlink">
    <!-- Generator: Sketch 51.2 (57519) - http://www.bohemiancoding.com/sketch -->
    <title>ic_no</title>
    <desc>Created with Sketch.</desc>
    <defs>
        <polygon id="path-1" points="0 0 59.3125 0 59.3125 59.3125 0 59.3125"></polygon>
    </defs>
    <g id="Page-1" stroke="none" stroke-width="1" fill="none" fill-rule="evenodd">
        <g id="Prowell" transform="translate(-442.000000, -9124.000000)">
            <g id="12" transform="translate(0.000000, 8800.000000)">
                <g id="ic_no" transform="translate(442.000000, 324.000000)">
                    <circle id="Oval-Copy" fill="#FFFFFF" cx="65" cy="65" r="65"></circle>
                    <g id="Group-3" transform="translate(35.750000, 35.750000)">
                        <mask id="mask-2" fill="white">
                            <use xlink:href="#path-1"></use>
                        </mask>
                        <g id="Clip-2"></g>
                        <path d="M39.5210551,29.6460523 L58.4554617,48.5802396 C59.5981794,49.7229615 59.5981794,51.5999198 58.4554617,52.8242235 L52.824031,58.4556748 C51.5997317,59.5981084 49.7227803,59.5981084 48.5803508,58.4556748 L29.6459442,39.5211991 L10.7934074,58.4556748 C9.56910812,59.5981084 7.69186846,59.5981084 6.54943897,58.4556748 L0.918008249,52.8242235 C-0.30600275,51.5999198 -0.30600275,49.7229615 0.918008249,48.5802396 L19.7708333,29.6460523 L0.918008249,10.7934467 C-0.30600275,9.56914301 -0.30600275,7.6918965 0.918008249,6.54946285 L6.54943897,0.918011595 C7.69186846,-0.306003865 9.56910812,-0.306003865 10.7934074,0.918011595 L29.6459442,19.7709054 L48.5803508,0.918011595 C49.7227803,-0.306003865 51.5997317,-0.306003865 52.824031,0.918011595 L58.4554617,6.54946285 C59.5981794,7.6918965 59.5981794,9.56914301 58.4554617,10.7934467 L39.5210551,29.6460523 Z" id="Fill-1" fill="#EB4141" mask="url(#mask-2)"></path>
                    </g>
                </g>
            </g>
        </g>
    </g>
</svg>