<?xml version="1.0" encoding="UTF-8"?>
<svg width="340px" height="336px" viewBox="0 0 340 336" version="1.1" xmlns="http://www.w3.org/2000/svg" xmlns:xlink="http://www.w3.org/1999/xlink">
    <!-- Generator: Sketch 51.2 (57519) - http://www.bohemiancoding.com/sketch -->
    <title>Logo Prowell</title>
    <desc>Created with Sketch.</desc>
    <defs>
        <polygon id="path-1" points="0 0.302835052 339.011571 0.302835052 339.011571 336 0 336"></polygon>
    </defs>
    <g id="Page-1" stroke="none" stroke-width="1" fill="none" fill-rule="evenodd">
        <g id="Prowell" transform="translate(-430.000000, -166.000000)">
            <g id="Logo-Prowell" transform="translate(430.000000, 166.000000)">
                <polygon id="Fill-1" fill="#000000" points="129 192 129 203.916768 129 208.223826 129 243.994803 142.441683 253 142.441683 217.230745 169.5 235.358291 196.556584 217.230745 196.556584 253 210 243.994803 210 208.223826 210 203.916768 210 192 169.5 219.134465"></polygon>
                <polygon id="Fill-2" fill="#000000" points="196.556584 185.192178 169.498268 166.851182 142.441683 185.192178 142.441683 149 129 158.112975 129 183.28173 149.237009 197 169.498268 183.266042 189.761259 197 210 183.28173 210 158.112975 196.556584 149"></polygon>
                <g id="Group-26">
                    <mask id="mask-2" fill="white">
                        <use xlink:href="#path-1"></use>
                    </mask>
                    <g id="Clip-4"></g>
                    <path d="M142.780918,120.271361 L196.259796,120.271361 L196.259796,107.24301 L142.780918,107.24301 L142.780918,120.271361 Z M202.985204,94.2163969 L184.616531,94.2163969 L136.05551,94.2163969 L128.960612,94.2163969 L128.960612,101.319454 L128.960612,122.911773 L128.960612,126.340835 L128.960612,133.445629 L128.960612,149.041433 L142.423571,139.959804 L142.423571,133.445629 L184.616531,133.445629 L202.985204,133.445629 C206.902143,133.445629 210.078367,130.264974 210.078367,126.340835 L210.078367,101.319454 C210.078367,97.3970515 206.902143,94.2163969 202.985204,94.2163969 Z" id="Fill-3" fill="#000000" mask="url(#mask-2)"></path>
                    <path d="M34.9395102,77.1921644 L34.0981837,78.4237778 L31.3209388,76.5216387 L32.1917551,75.2465974 C32.7607347,74.4145201 33.6107347,74.3693552 34.4277755,74.9269686 C35.2430816,75.4863191 35.5379796,76.3166593 34.9395102,77.1921644 Z M39.4080816,82.0612933 L36.244,79.8951129 L37.4374694,78.1458397 C38.7992041,76.1533706 38.2302245,73.7874222 36.1694082,72.3768861 C34.1085918,70.9646129 31.7285918,71.3120356 30.3685918,73.3062418 L27.4612449,77.5621696 L37.6959388,84.5696851 L39.4080816,82.0612933 Z" id="Fill-5" fill="#000000" mask="url(#mask-2)"></path>
                    <path d="M68.9540816,40.5753773 L67.1239796,38.1712124 L67.937551,37.5493258 C69.1535714,36.6217072 69.7659184,36.8527433 70.334898,37.5997021 C70.9333673,38.3883515 70.7772449,39.1856866 70.0018367,39.7763052 L68.9540816,40.5753773 Z M73.0653061,45.9812742 L70.5309184,42.6477536 L71.6636735,41.7861454 L75.950102,43.7803515 L78.6423469,41.7270835 L74.0939796,39.7346144 C73.5440816,39.498367 73.2682653,39.4236711 73.2682653,39.4236711 L73.2491837,39.3958773 C73.8493878,38.1521041 73.4746939,36.6251814 72.6767347,35.5724907 C71.5821429,34.1358979 70.1093878,33.6634031 68.6661224,34.0889959 C68.1127551,34.2488103 67.575,34.5493309 66.5688776,35.3171351 L63.132449,37.9384392 L70.6506122,47.8226144 L73.0653061,45.9812742 Z" id="Fill-6" fill="#000000" mask="url(#mask-2)"></path>
                    <path d="M114.271224,16.197249 C113.624184,14.2707902 114.552245,12.3460686 116.311224,11.7537129 C118.068469,11.1630943 119.969694,12.1341407 120.616735,14.0588624 C121.291531,16.0687026 120.38602,18.0576974 118.628776,18.6517902 C116.869796,19.2424088 114.94602,18.2053521 114.271224,16.197249 M123.591735,13.0582851 C122.460714,9.68307371 118.977449,7.92511495 115.426531,9.12024897 C111.875612,10.315383 110.165204,13.8243521 111.296224,17.1995634 C112.458469,20.6564191 115.962551,22.4821253 119.511735,21.2852541 C123.062653,20.088383 124.75398,16.5134036 123.591735,13.0582851" id="Fill-7" fill="#000000" mask="url(#mask-2)"></path>
                    <path d="M170.838551,12.849484 L172.519469,6.60629845 C172.725898,5.81243763 172.790082,5.15233454 172.790082,5.15233454 L172.824776,5.15233454 C172.824776,5.15233454 172.864673,5.81243763 173.039878,6.61672113 L174.481408,12.9189686 L177.865796,12.9832418 L181.243245,0.621942784 L178.101714,0.561143814 L176.252531,8.29650979 C176.082531,9.05562835 176.073857,9.59587062 176.073857,9.59587062 L176.039163,9.59587062 C176.039163,9.59587062 176.032224,9.05562835 175.855286,8.28782423 L174.146612,0.486447938 L171.698959,0.439545876 L169.643347,8.1679634 C169.436918,8.92881907 169.410898,9.46732423 169.410898,9.46732423 L169.374469,9.46732423 C169.374469,9.46732423 169.384878,8.92881907 169.244367,8.16101495 L167.832327,0.36485 L164.638755,0.302313918 L167.419469,12.7834737 L170.838551,12.849484 Z" id="Fill-8" fill="#000000" mask="url(#mask-2)"></path>
                    <polygon id="Fill-9" fill="#000000" mask="url(#mask-2)" points="220.345153 21.2694464 227.861582 24.0453536 228.761888 21.5994979 224.092092 19.8780186 224.902194 17.6770959 228.449643 18.9868794 229.348214 16.5427608 225.8025 15.2329773 226.581378 13.1154361 231.022194 14.7552711 231.9225 12.3111526 224.633316 9.62036392"></polygon>
                    <polygon id="Fill-10" fill="#000000" mask="url(#mask-2)" points="270.918939 34.1324237 263.319245 43.9471144 269.720265 48.9169959 271.316184 46.8602536 267.314245 43.7508206 273.31802 35.9963464"></polygon>
                    <polygon id="Fill-11" fill="#000000" mask="url(#mask-2)" points="297.074827 78.2728227 301.652684 84.9659206 303.7985 83.4928485 300.93799 79.3098794 309.023398 73.7650134 307.306051 71.2566216"></polygon>
                    <path d="M333.771061,169.73167 L339.011571,167.923335 L339.011571,164.621082 L326.601571,163.594448 L326.601571,166.655242 L332.19249,167.037407 C333.129224,167.106891 334.274122,167.037407 334.274122,167.037407 L334.272388,167.072149 C334.272388,167.072149 332.971367,167.489056 332.190755,167.768731 L328.598204,169.071566 L328.598204,171.680711 L332.190755,172.983546 C332.971367,173.261484 334.274122,173.676654 334.274122,173.676654 L334.272388,173.713134 C334.272388,173.713134 333.12749,173.643649 332.190755,173.713134 L326.601571,174.093561 L326.601571,177.135247 L339.011571,176.127721 L339.011571,172.827206 L333.771061,171.018871 C332.971367,170.740932 331.720653,170.391773 331.720653,170.391773 L331.720653,170.35703 C331.720653,170.35703 332.971367,170.009608 333.771061,169.73167" id="Fill-12" fill="#000000" mask="url(#mask-2)"></path>
                    <polygon id="Fill-13" fill="#000000" mask="url(#mask-2)" points="316.793439 225.014782 319.253235 225.855545 320.864765 221.142757 323.078235 221.903612 321.855276 225.483803 324.315071 226.32804 325.538031 222.744375 327.669969 223.4757 326.138235 227.95919 328.596296 228.805164 331.111602 221.446752 319.386806 217.428808"></polygon>
                    <path d="M303.837357,269.319686 L303.0845,270.316789 C301.854602,271.954887 300.081745,272.29015 298.197867,270.869191 C296.301847,269.436073 296.074602,267.659006 297.339194,265.979217 L298.090316,264.982114 L303.837357,269.319686 Z M295.188173,264.509619 C292.841133,267.629475 293.191541,271.027269 296.308786,273.37932 C299.426031,275.729635 302.742765,275.102537 305.091541,271.984418 L307.742153,268.459815 L297.838786,260.986753 L295.188173,264.509619 Z" id="Fill-14" fill="#000000" mask="url(#mask-2)"></path>
                    <polygon id="Fill-15" fill="#000000" mask="url(#mask-2)" points="259.287643 299.256056 266.47101 309.383427 268.944684 307.621994 261.763051 297.494623"></polygon>
                    <path d="M221.261592,326.523873 C221.291082,327.338579 221.448939,328.714373 221.448939,328.714373 L221.41598,328.724795 C221.41598,328.724795 220.729041,327.522713 220.272816,326.848713 L218.860776,324.769388 L221.185265,324.006795 L221.261592,326.523873 Z M221.103735,321.474084 L217.427918,322.681378 L215.889245,320.442239 L212.922918,321.418496 L220.794959,331.908924 L223.830673,330.910084 L223.971184,317.789666 L221.004857,318.764187 L221.103735,321.474084 Z" id="Fill-16" fill="#000000" mask="url(#mask-2)"></path>
                    <path d="M125.695918,321.00211 C123.713163,320.423652 122.262959,321.121971 122.262959,321.121971 L122.23,321.113286 C122.23,321.113286 122.321939,320.868353 122.393061,320.618208 L122.490204,320.284682 L120.058163,319.57594 L118.099694,326.31594 L122.365306,327.556239 L123.085204,325.072167 L121.402551,324.582301 L121.671429,323.663368 C121.671429,323.663368 122.937755,323.093595 124.337653,323.500079 C126.186837,324.040322 127.35949,325.84692 126.700306,328.113853 C126.186837,329.882234 124.705408,331.186806 122.205714,330.458956 C120.526531,329.96909 119.629694,328.515126 119.629694,328.515126 L117.594898,330.292193 C117.594898,330.292193 118.666939,332.322878 121.714796,333.210543 C125.34551,334.270182 128.736837,332.362832 129.744694,328.893816 C130.877449,324.990523 128.74551,321.889775 125.695918,321.00211" id="Fill-17" fill="#000000" mask="url(#mask-2)"></path>
                    <path d="M75.3355,308.092578 L74.4959082,307.507171 C73.2417245,306.63514 73.2764184,305.980248 73.8089694,305.210707 C74.3727449,304.396001 75.1793776,304.30046 75.975602,304.856336 L77.0597857,305.608506 L75.3355,308.092578 Z M78.5446837,303.47012 L77.3772347,302.657151 L77.9548878,297.958259 L75.1759082,296.026589 L74.6815204,300.968676 C74.6260102,301.566243 74.6398878,301.85113 74.6398878,301.85113 L74.6190714,301.880661 C73.2521327,301.689578 71.9164184,302.516444 71.1652959,303.60214 C70.1348878,305.085635 70.1383571,306.631666 70.9848878,307.877176 C71.3075408,308.354882 71.7568265,308.775264 72.7959082,309.49964 L76.3450918,311.968078 L83.4243776,301.766011 L80.9333571,300.032372 L78.5446837,303.47012 Z" id="Fill-18" fill="#000000" mask="url(#mask-2)"></path>
                    <path d="M39.9893776,269.914995 C38.3552959,271.120552 36.2389694,270.823505 35.1357041,269.326113 C34.0359082,267.828722 34.3811122,265.718129 36.0169286,264.512572 C37.7221327,263.253165 39.8922347,263.508521 40.9955,265.009387 C42.0970306,266.505041 41.6945816,268.657325 39.9893776,269.914995 M34.1538673,261.976387 C31.2864184,264.088716 30.6775408,267.95032 32.8996837,270.974634 C35.1218265,274.000686 38.9849898,274.56351 41.8524388,272.449443 C44.7892755,270.285 45.455398,266.383443 43.2332551,263.359129 C41.0093776,260.333077 37.0907041,259.81368 34.1538673,261.976387" id="Fill-19" fill="#000000" mask="url(#mask-2)"></path>
                    <path d="M13.7488367,213.596215 L6.26883673,215.946529 L7.17781633,218.845772 L14.6560816,216.497194 C15.8981224,216.106344 16.8157755,216.710859 17.2026122,217.954632 C17.5929184,219.198406 17.1852653,220.218091 15.9449592,220.607205 L8.46322449,222.957519 L9.37393878,225.856761 L16.8522041,223.506447 C19.5166939,222.670895 20.7916939,220.12255 19.8462857,217.106921 C18.9130204,214.124297 16.4133265,212.760663 13.7488367,213.596215" id="Fill-20" fill="#000000" mask="url(#mask-2)"></path>
                    <path d="M6.01713265,168.292297 L2.65356122,168.234973 L2.67958163,166.688942 C2.69692857,165.681416 3.38039796,165.172442 4.37090816,165.189813 C5.35794898,165.207184 6.0605,165.738741 6.04315306,166.79838 L6.01713265,168.292297 Z M12.4493776,168.401736 L8.61743878,168.335725 L8.65560204,166.218184 C8.6955,163.805334 6.92090816,162.141179 4.42294898,162.099488 C1.92672449,162.05606 0.129581633,163.657679 0.0879489796,166.072266 L-0.000520408163,171.228019 L12.3990714,171.439947 L12.4493776,168.401736 Z" id="Fill-21" fill="#000000" mask="url(#mask-2)"></path>
                    <path d="M169.519663,331.440077 C168.26201,331.440077 167.243745,332.4615 167.243745,333.71917 C167.243745,334.978577 168.26201,336 169.519663,336 C170.777316,336 171.797316,334.978577 171.797316,333.71917 C171.797316,332.4615 170.777316,331.440077 169.519663,331.440077" id="Fill-22" fill="#000000" mask="url(#mask-2)"></path>
                    <path d="M16.2950204,124.450508 C17.5526735,124.450508 18.5709388,123.430823 18.5709388,122.171415 C18.5709388,120.912008 17.5526735,119.890586 16.2950204,119.890586 C15.0373673,119.890586 14.019102,120.912008 14.019102,122.171415 C14.019102,123.430823 15.0373673,124.450508 16.2950204,124.450508" id="Fill-23" fill="#000000" mask="url(#mask-2)"></path>
                    <path d="M322.746214,124.450508 C324.003867,124.450508 325.022133,123.430823 325.022133,122.171415 C325.022133,120.912008 324.003867,119.890586 322.746214,119.890586 C321.486827,119.890586 320.470296,120.912008 320.470296,122.171415 C320.470296,123.430823 321.486827,124.450508 322.746214,124.450508" id="Fill-24" fill="#000000" mask="url(#mask-2)"></path>
                    <polygon id="Fill-25" fill="#000000" mask="url(#mask-2)" points="172.774816 253.434479 169.520531 255.800427 166.266245 253.434479 167.508286 257.264814 164.255735 259.630762 168.276755 259.630762 169.520531 263.461097 170.762571 259.630762 174.785327 259.630762 171.531041 257.264814"></polygon>
                </g>
            </g>
        </g>
    </g>
</svg>