<?xml version="1.0" encoding="UTF-8"?>
<svg width="158px" height="32px" viewBox="0 0 158 32" version="1.1" xmlns="http://www.w3.org/2000/svg" xmlns:xlink="http://www.w3.org/1999/xlink">
    <!-- Generator: Sketch 51.2 (57519) - http://www.bohemiancoding.com/sketch -->
    <title>atomix</title>
    <desc>Created with Sketch.</desc>
    <defs></defs>
    <g id="Page-1" stroke="none" stroke-width="1" fill="none" fill-rule="evenodd">
        <g id="Prowell" transform="translate(-139.000000, -4489.000000)" fill="#0D1040">
            <g id="6" transform="translate(0.000000, 4000.000000)">
                <g id="atomix" transform="translate(139.000000, 489.000000)">
                    <path d="M0.332582115,31.000502 C1.4548045,28.3012118 2.5895054,25.6072908 3.69688848,22.9015923 C6.51079156,16.0261529 9.31946715,9.14846201 12.1045348,2.26055242 C12.3151517,1.73991935 12.5731532,1.58698556 13.0940466,1.5914887 C15.7900783,1.61521682 18.4862788,1.61244566 21.1823105,1.59322068 C21.6603722,1.58975672 21.9230954,1.71359326 22.1225828,2.20512907 C25.984849,11.7201053 29.8676879,21.2262484 33.7454679,30.7346431 C33.7869505,30.8363103 33.8159546,30.9433467 33.8889707,31.1614029 L31.1713545,31.1614029 C28.8404033,31.1612297 26.5091149,31.1458151 24.178501,31.1733535 C23.6771686,31.1794155 23.4335005,31.018861 23.2706054,30.5321747 C22.9795526,29.6616818 22.5707973,28.8310244 22.3028466,27.9542963 C22.1224142,27.3636913 21.808428,27.2362176 21.2571816,27.2408939 C18.4490119,27.2653148 15.6403363,27.2673932 12.8321666,27.2395083 C12.2444964,27.2337928 11.9261259,27.3893246 11.7325404,27.9993278 C11.3952835,29.0613776 10.9587044,30.0900003 10.5484314,31.1736999 L0.332582115,31.1736999 L0.332582115,31.000502 Z" id="Fill-4"></path>
                    <path d="M85.0225153,2.40708291 L86.3342239,2.40708291 C88.8510733,2.40708291 91.3684261,2.43227468 93.884772,2.39142316 C94.6315866,2.37933792 95.0840389,2.580021 95.486144,3.27126271 C97.2583604,6.32082846 99.1013983,9.32801076 100.997972,12.4824287 C101.228394,12.1220843 101.407629,11.8555282 101.573439,11.5808017 C103.294972,8.72902539 105.003919,5.86924898 106.750459,3.03347284 C106.92382,2.75159737 107.321059,2.43908327 107.618442,2.43499812 C110.610232,2.39278488 113.602693,2.41150849 116.594987,2.41644472 C116.702394,2.41661493 116.809465,2.45065786 116.980981,2.47993478 L116.980981,31.1679126 L107.622638,31.1679126 L107.622638,17.3369507 C107.548124,17.3037588 107.473275,17.2703968 107.398761,17.2370347 C105.2768,20.5533268 103.15484,23.8697891 100.936213,27.3368914 C98.739403,23.9041725 96.6192884,20.5909442 94.3563561,17.0547348 L94.3563561,31.1736999 L85.0225153,31.1736999 L85.0225153,2.40708291 Z" id="Fill-6"></path>
                    <path d="M143.256151,10.3234587 C145.949657,7.6254437 148.599069,4.97153605 151.175216,2.39091452 C153.369943,4.58797141 155.474786,6.69494744 157.624741,8.84704872 C155.070302,11.3979826 152.415124,14.0495152 149.75435,16.7066461 C152.460236,19.4126344 155.12966,22.0819796 157.728024,24.6804138 C155.623521,26.7862023 153.593809,28.8170082 151.521529,30.8902251 C149.010506,28.2923 146.389417,25.5803741 143.707613,22.8056801 C140.876225,25.7498483 138.261581,28.4685599 135.659825,31.1736999 C133.33841,28.8349905 131.251205,26.7320859 129.148737,24.6137437 C131.757955,22.027015 134.419069,19.3888843 137.052878,16.7775572 C134.272539,14.00914 131.600232,11.3481073 128.965405,8.7245659 C131.178958,6.53412512 133.235466,4.4992477 135.350993,2.40567354 C137.926292,4.98510755 140.594698,7.65767602 143.256151,10.3234587" id="Fill-8"></path>
                    <polygon id="Fill-10" points="26.698316 2.39091452 53.0640499 2.39091452 53.0640499 10.5307422 44.6836493 10.5307422 44.6836493 31.1736999 35.1154899 31.1736999 35.1154899 10.5626397 26.698316 10.5626397"></polygon>
                    <path d="M128.166443,2.40816752 L128.166443,31.1736999 L118.597347,31.1736999 C118.597347,30.8721827 118.597516,30.5715166 118.597516,30.2705101 C118.597516,21.3079045 118.607995,12.3449583 118.578925,3.38218243 C118.57639,2.58863524 118.799988,2.37837333 119.566442,2.39148277 C122.127936,2.43557819 124.690613,2.40816752 127.252952,2.40816752 L128.166443,2.40816752 Z" id="Fill-12"></path>
                    <path d="M71.6766124,24.2912554 L67.8448402,20.4567965 L64.0128986,24.2912554 L59.941503,20.2170052 L63.7734446,16.3825463 L59.941503,12.5480875 L64.0128986,8.47383728 L67.8448402,12.3082961 L71.6766124,8.47383728 L75.748008,12.5480875 L71.9160664,16.3825463 L75.748008,20.2170052 L71.6766124,24.2912554 Z M67.8448402,0.791870891 C59.2402448,0.791870891 52.2650883,7.77208742 52.2650883,16.3825463 C52.2650883,24.9931747 59.2402448,31.9732218 67.8448402,31.9732218 C76.4492662,31.9732218 83.424592,24.9931747 83.424592,16.3825463 C83.424592,7.77208742 76.4492662,0.791870891 67.8448402,0.791870891 Z" id="Fill-14"></path>
                </g>
            </g>
        </g>
    </g>
</svg>