<?xml version="1.0" encoding="UTF-8"?>
<svg width="187px" height="30px" viewBox="0 0 187 30" version="1.1" xmlns="http://www.w3.org/2000/svg" xmlns:xlink="http://www.w3.org/1999/xlink">
    <!-- Generator: Sketch 51.2 (57519) - http://www.bohemiancoding.com/sketch -->
    <title>mx bits</title>
    <desc>Created with Sketch.</desc>
    <defs></defs>
    <g id="Page-1" stroke="none" stroke-width="1" fill="none" fill-rule="evenodd">
        <g id="Prowell" transform="translate(-888.000000, -4489.000000)" fill="#1D1F4A">
            <g id="6" transform="translate(0.000000, 4000.000000)">
                <g id="mx-bits" transform="translate(888.000000, 489.000000)">
                    <polygon id="Fill-2" points="182 17 187 17 187 12 182 12"></polygon>
                    <polygon id="Fill-3" points="177 12 182 12 182 7 177 7"></polygon>
                    <polygon id="Fill-4" points="180 26 185 26 185 21 180 21"></polygon>
                    <polygon id="Fill-5" points="0 17 5 17 5 12 0 12"></polygon>
                    <polygon id="Fill-6" points="44.4939417 6.9280181 48.9336814 6.9280181 48.9139813 0 41.9052591 0 31.5860187 17.3142883 21.0087222 0 14 0 14 11.5159932 18.4692146 11.5159932 18.4692146 16.1700215 14 16.1700215 14 30 21.8686087 30 21.8686087 14.5283857 29.56518 27.0427528 33.3488012 27.0427528 41.0883819 14.0999485 41.1744006 30 49 30 48.9470654 11.5818949 44.4939417 11.5818949"></polygon>
                    <polygon id="Fill-7" points="83.3097844 0 74.0808658 0 68.1294154 8.6572199 62.0916881 0 52.4745232 0 62.9974453 14.8285039 52 30 61.7467311 30 67.9137231 20.6999727 74.1669919 30 84 30 72.7870132 14.4856632"></polygon>
                    <path d="M93.800148,11.5383915 L98.2,11.5383915 L98.2,6.92291358 L93.800148,6.92291358 L93.800148,11.5383915 Z M93.800148,23.0767831 L98.2,23.0767831 L98.2,18.4614568 L93.800148,18.4614568 L93.800148,23.0767831 Z M102.6,0 L85,0 L85,11.4944057 L89.4218986,11.4944057 L89.4218986,16.1538695 L85,16.1538695 L85,30 L102.6,30 L104.799926,27.692261 L107,25.384522 L107,16.1538695 L104.799926,13.8461305 L107,11.5383915 L107,4.6151746 L104.799926,2.30773898 L102.6,0 Z" id="Fill-8"></path>
                    <polygon id="Fill-9" points="115.5 20.7472029 120 20.7472029 120 0 111 0 111 30 120 30 120 25.4066666 115.5 25.4066666"></polygon>
                    <polygon id="Fill-10" points="125 6.92306526 131.599882 6.92306526 131.599882 30 140.39997 30 140.39997 11.5603844 136 11.5603844 136 6.90107234 140.545418 6.90107234 140.545418 6.92306526 147 6.92306526 147 0 125 0"></polygon>
                    <polygon id="Fill-11" points="173 9.23065256 173 4.6151746 170.799941 2.3075873 168.60003 0 155.400118 0 153.200207 2.3075873 151 4.6151746 151 13.8461305 153.200207 16.1538695 155.400118 18.4614568 164.199911 18.4614568 164.199911 23.0767831 159.800089 23.0767831 159.800089 20.7690441 151 20.7690441 151 25.384522 153.200207 27.692261 155.400118 30 168.60003 30 170.799941 27.692261 173 25.384522 173 16.1538695 170.799941 13.8461305 168.60003 11.5383915 159.800089 11.5383915 159.800089 6.92291358 164.199911 6.92291358 164.199911 9.23065256"></polygon>
                    <polygon id="Fill-12" points="5 12 10 12 10 7 5 7"></polygon>
                    <polygon id="Fill-13" points="2 26 7 26 7 21 2 21"></polygon>
                </g>
            </g>
        </g>
    </g>
</svg>