<?xml version="1.0" encoding="UTF-8"?>
<svg width="169px" height="32px" viewBox="0 0 169 32" version="1.1" xmlns="http://www.w3.org/2000/svg" xmlns:xlink="http://www.w3.org/1999/xlink">
    <!-- Generator: Sketch 51.2 (57519) - http://www.bohemiancoding.com/sketch -->
    <title>Referee</title>
    <desc>Created with Sketch.</desc>
    <defs>
        <polygon id="path-1" points="0.198702536 0.372666667 46.6997605 0.372666667 46.6997605 31.8842222 0.198702536 31.8842222"></polygon>
    </defs>
    <g id="Page-1" stroke="none" stroke-width="1" fill="none" fill-rule="evenodd">
        <g id="Prowell" transform="translate(-515.000000, -4488.000000)">
            <g id="6" transform="translate(0.000000, 4000.000000)">
                <g id="Referee" transform="translate(515.000000, 488.000000)">
                    <path d="M113.271324,10.3764507 C112.78557,13.4118045 110.457241,13.7596283 108.243128,13.7596283 L104.781077,13.7596283 C104.72819,13.7600664 104.689526,13.7140695 104.698859,13.663254 C104.833074,12.904525 105.715253,7.91846677 105.880578,6.98363561 C105.895688,6.89602257 105.972573,6.83294118 106.062347,6.83294118 L109.258633,6.83294118 C111.67407,6.83294118 113.761966,7.31087032 113.271324,10.3764507 Z M114.40549,18.8149009 C114.346826,18.7250975 114.387713,18.6050676 114.490819,18.5708985 C116.547162,17.895402 120.986498,15.8251058 121.542471,9.07714926 C121.875788,5.84378993 120.215425,2.98804281 118.20708,1.58404381 C116.447611,0.353956691 113.985955,0 109.782163,0 L99.7773239,0 C99.2795707,0 98.853814,0.353518626 98.767596,0.838456816 L93.6202947,29.9343101 C93.5740748,30.2282519 93.5162999,30.4871484 93.6736254,30.7412263 C93.7936195,30.9357272 94.0384963,31.0588235 94.3304819,31.0588235 L100.959043,31.0588235 C101.341691,31.0588235 101.66923,30.786785 101.735005,30.4144296 L103.542471,20.1983108 C103.551804,20.1431146 103.600246,20.1032506 103.656243,20.1032506 L105.581482,20.1032506 C105.92902,20.1032506 106.212117,20.1142023 106.44455,20.2443076 C106.674317,20.3722227 106.885417,20.548763 107.084963,20.8751215 L112.94334,30.1182975 C113.367764,30.7859089 113.734412,31.0588235 114.371714,31.0588235 L121.684242,31.0588235 C122.103776,31.0588235 122.357097,30.5992931 122.128664,30.2510313 L114.40549,18.8149009 Z" id="Fill-1" fill="#1D1F4A"></path>
                    <path d="M19.7009769,10.3764507 C19.2152273,13.4118045 16.8864736,13.7596283 14.6723799,13.7596283 L11.2103585,13.7596283 C11.1579171,13.7600664 11.1192527,13.7140695 11.1281411,13.663254 C11.2623555,12.904525 12.1445265,7.91846677 12.3098503,6.98363561 C12.3249605,6.89602257 12.4022894,6.83294118 12.4916175,6.83294118 L15.6878765,6.83294118 C18.1032919,6.83294118 20.1916151,7.31087032 19.7009769,10.3764507 Z M20.8346889,18.8149009 C20.7760257,18.7250975 20.8173566,18.6050676 20.9200173,18.5708985 C22.9763424,17.895402 27.4156404,15.8251058 27.9720525,9.07714926 C28.3053665,5.84378993 26.6450184,2.98804281 24.6362461,1.58404381 C22.8772371,0.353956691 20.4151577,0 16.2118461,0 L5.34536554,0 L4.78495361,0 C4.4725273,0 4.41875264,0.18661578 4.43030753,0.430180038 C4.47652707,1.42152161 4.75739966,2.97752925 3.93700282,7.9609591 L3.93700282,7.96183523 L0.0496728452,29.9343101 C0.00345330504,30.2282519 -0.0543211201,30.4871484 0.103003084,30.7412263 C0.222996121,30.9357272 0.4678708,31.0588235 0.760298275,31.0588235 L7.3883581,31.0588235 C7.77144698,31.0588235 8.09898352,30.786785 8.16475749,30.4144296 L9.97220816,20.1983108 C9.98154095,20.1431146 10.0299826,20.1032506 10.0859793,20.1032506 L12.0107565,20.1032506 C12.3582919,20.1032506 12.6413866,20.1142023 12.8738176,20.2443076 C13.103582,20.3722227 13.3151253,20.548763 13.5142248,20.8751215 L19.3725515,30.1182975 C19.7974158,30.7859089 20.1640612,31.0588235 20.8009131,31.0588235 L28.1133777,31.0588235 C28.5333533,31.0588235 28.7862275,30.5992931 28.5582407,30.2510313 L20.8346889,18.8149009 Z" id="Fill-3" fill="#1D1F4A"></path>
                    <path d="M75.3005585,0.218594541 C75.0982806,0.0113896955 74.6466311,0 73.8877524,0 L64.7439818,0 C61.5757081,0 58.937573,0.381116734 57.1354604,1.80658093 C55.4122855,3.17027794 54.367706,4.48929229 53.6711702,7.86721314 L49.6610434,30.2111673 C49.5816572,30.6536132 49.9297008,31.0588235 50.3885264,31.0588235 L56.9627841,31.0588235 C57.437756,31.0588235 57.844106,30.7250178 57.9261833,30.2668016 L59.9041118,19.2446428 C59.9736308,18.8595835 60.3144983,18.5792218 60.7141206,18.5792218 L70.0050025,18.5792218 C70.6252917,18.5792218 71.1558788,18.1437849 71.2648667,17.546264 L72.0932645,13.0140413 C72.1659231,12.6180304 71.8546572,12.2544362 71.4433737,12.2544362 L61.2778975,12.2544362 C61.2155546,12.2544362 61.1689096,12.19924 61.1796739,12.1392251 L61.8174549,8.58739235 C61.9869916,7.63810504 62.8288446,6.94552394 63.8133238,6.94552394 L72.4413081,6.94552394 C72.8530402,6.94552394 73.2235093,6.69976935 73.3764512,6.3252236 C73.3764512,6.3252236 74.7224293,2.80887414 75.1709392,1.62346968 C75.4463242,0.894529163 75.5207769,0.444198125 75.3005585,0.218594541" id="Fill-5" fill="#1D1F4A"></path>
                    <path d="M93.2419129,12.2062755 L82.9484661,12.2062755 C82.8862494,12.2062755 82.838111,12.1517325 82.8490103,12.0915171 L83.4943376,8.55320697 C83.6669092,7.60808677 84.5197767,6.9186639 85.5156969,6.9186639 L94.2410121,6.9186639 C94.8141317,6.9186639 95.3045986,6.52028221 95.4013296,5.97572541 L96.4190484,0.784982111 C96.491256,0.376564515 96.3282212,0.00436343586 95.7355737,0.00436343586 L86.4580292,0 C83.2500124,0 80.5792385,0.37961892 78.75452,1.79991729 C77.0092753,3.15825488 75.9515926,4.47164907 75.2467735,7.83629446 C75.2467735,7.83629446 73.4061602,17.9188857 72.9025234,20.7590461 C72.0855327,25.3672707 72.854385,27.5044816 74.1096169,28.8684916 C75.4543136,30.32937 77.6309875,30.9332695 79.6945816,31.0183565 C82.868084,31.1492596 87.6151677,30.9367602 89.5202683,30.7486962 C90.7210039,30.6300107 90.9003876,30.3145343 91.0479818,29.550933 C91.195576,28.7886408 91.9158357,24.8336225 91.9158357,24.8336225 C91.9771441,24.4963289 91.7078414,24.1869613 91.3517988,24.1869613 L82.1864259,24.1869613 C80.9584421,24.1869613 80.7504478,23.4744122 80.8962254,22.6990297 L81.5579016,19.1690101 C81.6278386,18.7859004 81.9738902,18.5062042 82.3780712,18.5062042 L91.7854987,18.5062042 C92.4131146,18.5062042 92.9503575,18.0724786 93.0611667,17.4777423 L93.8999559,12.9633316 C93.9726177,12.568877 93.6583556,12.2062755 93.2419129,12.2062755" id="Fill-7" fill="#1D1F4A"></path>
                    <g id="Group-11" transform="translate(122.214689, 0.000000)">
                        <mask id="mask-2" fill="white">
                            <use xlink:href="#path-1"></use>
                        </mask>
                        <g id="Clip-10"></g>
                        <path d="M46.5713905,0.594888889 C46.370882,0.384666667 45.9221886,0.372666667 45.1682767,0.372666667 L36.3133769,0.372666667 C33.166285,0.372666667 30.5449709,0.759777778 28.7550986,2.206 C27.0423106,3.59 26.0050134,4.92777778 25.3130364,8.35488889 C25.3130364,8.35488889 23.3507268,19.4366667 22.6110733,23.802 C22.4925505,24.5002222 21.8883517,25.0091111 21.1807795,25.0091111 L9.55039687,25.0091111 C8.34511815,25.0091111 8.14149066,24.2828889 8.28407446,23.4931111 L8.93327635,19.898 C9.00234038,19.5073333 9.34142249,19.2224444 9.73798369,19.2224444 L18.9685027,19.2224444 C19.5842865,19.2224444 20.111401,18.7811111 20.2201212,18.1748889 L21.0426515,13.5766667 C21.114389,13.1753333 20.8056059,12.8055556 20.3974598,12.8055556 L10.2980707,12.8055556 C10.2365814,12.8055556 10.1897961,12.7504444 10.2004899,12.6891111 L10.8336511,9.08555556 C11.0029694,8.12244444 11.8393125,7.42022222 12.8169027,7.42022222 L21.3884172,7.42022222 C21.7974545,7.42022222 22.1654989,7.17088889 22.3174398,6.79044444 C22.3174398,6.79044444 23.6546085,3.22288889 24.1001829,2.02022222 C24.3742112,1.28066667 24.4481765,0.823777778 24.2289539,0.594888889 C24.0279999,0.384666667 23.5793065,0.372666667 22.8253946,0.372666667 L13.7414696,0.372666667 C10.5939321,0.372666667 7.97306354,0.759777778 6.18274565,2.206 C4.47084885,3.59 3.4331061,4.92777778 2.74112908,8.35488889 C2.74112908,8.35488889 0.908036045,18.6197778 0.441074087,21.5171111 C-0.142628362,25.1428889 0.229871827,26.6357778 2.64533058,29.5291111 C4.05735582,31.2202222 5.54824772,31.7491111 8.88961006,31.8842222 L40.5209359,31.8842222 C41.740473,31.8842222 42.8209908,31.1011111 43.2010658,29.9424444 L44.4825377,26.0331111 C44.6478458,25.5282222 44.4277321,25.0091111 43.7406564,25.0091111 L32.1223042,25.0091111 C30.9174711,25.0091111 30.713398,24.2828889 30.8559818,23.4931111 L31.5056293,19.898 C31.5742477,19.5073333 31.9133298,19.2224444 32.309891,19.2224444 L41.5399645,19.2224444 C42.1561939,19.2224444 42.6833084,18.7811111 42.7915829,18.1748889 L43.6145588,13.5766667 C43.6862963,13.1753333 43.3775133,12.8055556 42.9689215,12.8055556 L32.869978,12.8055556 C32.8084888,12.8055556 32.7612579,12.7504444 32.7719517,12.6891111 L33.4055585,9.08555556 C33.5748767,8.12244444 34.4112198,7.42022222 35.3888101,7.42022222 L43.7308537,7.42022222 C44.139891,7.42022222 44.5083811,7.17088889 44.6603219,6.79044444 C44.6603219,6.79044444 45.9974907,3.22288889 46.4426195,2.02022222 C46.7166477,1.28066667 46.7910586,0.823777778 46.5713905,0.594888889" id="Fill-9" fill="#1D1F4A" mask="url(#mask-2)"></path>
                    </g>
                    <path d="M49.3966127,12.2318565 L39.0099019,12.2318565 C38.9466633,12.2318565 38.898547,12.1771993 38.909545,12.1172949 L39.5607193,8.57156945 C39.7353128,7.62403127 40.5954494,6.93360082 41.6003932,6.93360082 L50.4157623,6.93360082 C50.8368947,6.93360082 51.2154098,6.68829905 51.3712151,6.31400617 C51.3712151,6.31400617 52.7468837,2.80369858 53.2046762,1.62047831 C53.4860422,0.892880928 53.56257,0.443816915 53.3371107,0.218191764 C53.1304396,0.0118059672 52.6685229,0 51.8936209,0 L42.5512635,0 C39.3141804,0 36.6192079,0.380851757 34.7779565,1.80368943 C33.0164407,3.16487373 31.9496331,4.4814577 31.2384279,7.85315448 C31.2384279,7.85315448 29.3508932,17.951629 28.8724795,20.8025515 C28.2620895,24.4444737 28.8165729,26.1484683 31.247593,28.8432897 C32.5339027,30.2691882 33.7610982,30.7903997 35.8429312,30.9456263 C39.0337309,31.1830575 43.7184281,31.0020326 45.6412481,30.8131372 C46.8524047,30.6946402 47.033872,30.3780654 47.1828035,29.6133011 C47.3312767,28.848974 48.0585206,24.8856671 48.0585206,24.8856671 C48.1199262,24.5476666 47.8481835,24.2380879 47.4893732,24.2380879 L38.2409572,24.2380879 C37.0018473,24.2380879 36.7919684,23.5236083 36.9386087,22.747038 L37.60628,19.2091832 C37.6777671,18.8252706 38.0264959,18.5449882 38.4338808,18.5449882 L47.9270027,18.5449882 C48.5598469,18.5449882 49.1024158,18.110791 49.2142289,17.514371 L50.0601598,12.9904993 C50.1339381,12.595218 49.8163704,12.2318565 49.3966127,12.2318565" id="Fill-12" fill="#1D1F4A"></path>
                </g>
            </g>
        </g>
    </g>
</svg>