<?xml version="1.0" encoding="UTF-8"?>
<svg width="193px" height="41px" viewBox="0 0 193 41" version="1.1" xmlns="http://www.w3.org/2000/svg" xmlns:xlink="http://www.w3.org/1999/xlink">
    <!-- Generator: Sketch 51.2 (57519) - http://www.bohemiancoding.com/sketch -->
    <title>hi sweaty</title>
    <desc>Created with Sketch.</desc>
    <defs>
        <polygon id="path-1" points="0.105897396 0.116077922 9.54059494 0.116077922 9.54059494 8.36370714 0.105897396 8.36370714"></polygon>
        <polygon id="path-3" points="0 41 193 41 193 0.931818182 0 0.931818182"></polygon>
    </defs>
    <g id="Page-1" stroke="none" stroke-width="1" fill="none" fill-rule="evenodd">
        <g id="Prowell" transform="translate(-506.000000, -4611.000000)">
            <g id="6" transform="translate(0.000000, 4000.000000)">
                <g id="hi-sweaty" transform="translate(506.000000, 611.000000)">
                    <path d="M61.0506447,10.25 C58.7372198,10.25 56.7827862,10.5579355 55.147575,11.1738064 C53.5122299,11.7896774 52.235876,12.6364676 51.398319,13.7143064 C50.5208592,14.792016 50.1219652,16.0237579 50.1219652,17.4094029 C50.1219652,19.1031127 50.560762,20.3732334 51.4781246,21.335548 C52.3954872,22.2593544 53.4723271,22.9137334 54.748681,23.260177 C56.0250348,23.6066206 57.5406715,23.876048 59.335494,24.1069673 C60.7315562,24.2993785 61.7686272,24.4919189 62.446573,24.6843301 C63.0847499,24.8767413 63.4038384,25.2233141 63.4038384,25.6851527 C63.4038384,26.1469913 63.1246527,26.531943 62.6061842,26.8013704 C62.0478129,27.0707978 61.1703531,27.186322 59.8939992,27.186322 C58.4979369,27.186322 57.1020086,26.9937816 55.7059464,26.6474673 C54.310018,26.3010237 53.073433,25.8005478 52.036496,25.1846768 L49.6831683,30.3810718 C50.8000449,31.0354509 52.2757788,31.5743057 54.0706012,31.9977654 C55.9053264,32.4210959 57.7400516,32.6136364 59.6146796,32.6136364 C61.9680073,32.6136364 63.9623436,32.3057009 65.6374577,31.6898299 C67.3127056,31.073959 68.5890594,30.2271687 69.4266164,29.1493299 C70.2643073,28.0716204 70.7029703,26.8398785 70.7029703,25.4927415 C70.7029703,23.8375399 70.2643073,22.5672899 69.3469447,21.6434834 C68.4294482,20.719677 67.3925112,20.1038061 66.1559262,19.7573625 C64.919609,19.4110481 63.4038384,19.1031127 61.5691132,18.8335561 C60.0933793,18.6026368 59.0563083,18.4102255 58.4181314,18.2178143 C57.7799544,18.0252739 57.460866,17.6788303 57.460866,17.1784836 C57.460866,16.7165158 57.7400516,16.3702015 58.3384597,16.062266 C58.9367338,15.7928386 59.8141936,15.6388062 61.0905475,15.6388062 C63.4038384,15.6388062 65.557786,16.177661 67.5519884,17.2169917 L68.269971,15.6002982 L66.0363517,10.7503467 C65.9964489,10.7503467 65.9166433,10.7118386 65.8767405,10.7118386 C64.2812982,10.4039031 62.6859898,10.25 61.0506447,10.25" id="Fill-1" fill="#1D1F4A"></path>
                    <path d="M38.7322464,25.1590909 C37.7401254,25.1590909 36.9315753,25.4543241 36.3068426,26.0817102 C35.6821099,26.7090962 35.3514851,27.5209565 35.3514851,28.5172912 C35.3514851,29.1815968 35.4984158,29.8089829 35.7924004,30.2886904 C36.086385,30.8054414 36.5273002,31.17439 37.0786293,31.4327036 L35.6821099,36.3409091 L39.1731616,36.3409091 L41.0473597,31.9494546 C41.4515114,31.0268353 41.7087325,30.32561 41.8557865,29.8826983 C41.966077,29.4399104 42.039604,28.9602029 42.039604,28.5172912 C42.039604,27.5209565 41.7087325,26.7090962 41.0841232,26.0817102 C40.496154,25.4543241 39.6877272,25.1590909 38.7322464,25.1590909" id="Fill-3" fill="#1D1F4A"></path>
                    <path d="M148.282989,17.1559813 L150.284832,17.1559813 L150.284832,24.3849151 C150.284832,27.1149995 151.054861,29.1529134 152.556275,30.5372542 C154.057819,31.9214659 156.252104,32.6136364 159.062361,32.6136364 C160.101862,32.6136364 161.064333,32.4982316 161.988291,32.3060194 C162.912119,32.075339 163.682148,31.8060612 164.336634,31.3831685 L162.450205,26.1152121 C161.795848,26.5767021 161.025819,26.8073825 160.140376,26.8073825 C159.447505,26.8073825 158.908433,26.5767021 158.485033,26.1536803 C158.061505,25.7307877 157.869062,25.1155538 157.869062,24.3464469 L157.869062,17.1944495 L162.065319,17.1944495 L159.293318,10.6961543 L157.869062,10.6961543 L157.869062,5.00530521 L157.869062,4.65909091 L150.284832,4.65909091 L150.284832,5.00530521 L150.284832,10.6961543 L145.97316,10.6961543 L143.316832,10.6961543 L143.316832,10.7344935 C144.086731,11.1190469 144.779732,11.5420687 145.395703,12.0803661 C146.820089,13.3108339 147.821075,15.0411308 148.282989,17.1559813" id="Fill-5" fill="#1D1F4A"></path>
                    <path d="M110.847567,19.3882753 C111.084423,18.2315578 111.558135,17.3447324 112.387197,16.6506502 C113.176894,15.9951424 114.203314,15.6481013 115.387859,15.6481013 C116.572272,15.6481013 117.598825,15.9951424 118.388521,16.6506502 C119.178086,17.3061579 119.691296,18.2315578 119.928284,19.3882753 L110.847567,19.3882753 Z M121.310055,11.59959 C119.533303,10.7127647 117.519828,10.25 115.308863,10.25 C113.019034,10.25 110.926563,10.7127647 109.070948,11.6766096 C108.162757,12.1393743 107.373193,12.717733 106.662493,13.3732408 L103.188119,21.3162241 L103.188119,21.3932437 C103.188119,23.5525101 103.740827,25.4804589 104.806878,27.1769606 C105.872929,28.8735918 107.412691,30.2230524 109.347303,31.1870268 C111.321279,32.1510011 113.571743,32.6136364 116.138058,32.6136364 C120.244136,32.6136364 123.363027,31.4569189 125.534627,29.1434839 C125.495129,29.1049094 125.495129,29.0663349 125.455631,29.0277604 L121.467914,24.9791197 C120.67835,25.6346274 119.888654,26.1358372 119.138587,26.4058587 C118.349023,26.7143254 117.440832,26.8299194 116.374914,26.8299194 C114.953646,26.8299194 113.7691,26.5214528 112.861042,25.9430941 C111.913485,25.3262903 111.281781,24.47791 110.966062,23.359767 L125.100148,23.359767 C125.495129,22.2414945 126.126701,21.2776496 127.074257,20.4678438 C126.955763,18.578599 126.442553,16.9205423 125.534627,15.4553582 C124.507942,13.7974309 123.086673,12.4864154 121.310055,11.59959 Z" id="Fill-7" fill="#1D1F4A"></path>
                    <path d="M139.647557,25.3002011 C139.349401,26.1084833 138.902105,26.7628623 138.231348,27.186322 C137.597751,27.6096526 136.815013,27.8405719 135.957956,27.8405719 C135.100648,27.8405719 134.429891,27.6481606 133.94531,27.2248301 C133.460854,26.8398785 133.199983,26.3010237 133.199983,25.6466446 C133.199983,24.1838542 134.280751,23.4525882 136.442412,23.4525882 L139.647557,23.4525882 L139.647557,25.3002011 Z M144.30607,12.7134838 C142.479975,11.0582822 139.796572,10.25 136.293272,10.25 C134.616192,10.25 132.939112,10.4809193 131.262032,10.904379 C129.584827,11.3277096 128.168618,11.9435805 127.01328,12.7519919 L129.510382,17.9097496 C130.218424,17.3323868 131.112892,16.8705482 132.156375,16.5241046 C133.199983,16.177661 134.206306,16.0236287 135.249789,16.0236287 C138.119492,16.0236287 139.610272,17.1784836 139.722127,19.449427 L135.51066,19.449427 C132.305515,19.449427 129.957553,20.0267899 128.429489,21.1431367 C126.901424,22.2593544 126.118812,23.876048 126.118812,25.916072 C126.118812,27.186322 126.416968,28.3410478 127.05044,29.3417412 C127.646876,30.3425638 128.578504,31.1124671 129.771253,31.728338 C130.963876,32.3055717 132.380085,32.6136364 134.01988,32.6136364 C137.113169,32.6136364 139.20026,31.5743057 140.243869,29.4572654 L140.243869,32.2671928 L147.138614,32.2671928 L147.138614,20.2193303 C147.064044,16.8705482 146.132291,14.3685562 144.30607,12.7134838 Z" id="Fill-9" fill="#1D1F4A"></path>
                    <path d="M180.951688,11.1818182 L175.575759,24.1118005 L170.238393,11.1818182 L162.425743,11.1818182 L171.746624,32.5936765 C171.437343,33.2344174 171.011855,34.440853 170.547804,34.7047172 C170.083753,35.0061679 169.503494,35.1193069 168.768725,35.1193069 C168.149774,35.1193069 167.531083,35.0061679 166.950954,34.7800166 C166.332003,34.5538653 165.829259,34.2522881 165.403901,33.8752849 L162.735283,39.0775241 C163.470052,39.6429656 164.398284,40.0952682 165.558541,40.4722714 C166.718929,40.8115617 167.879056,41 169.039443,41 C171.321266,41 173.255114,40.4722714 174.802168,39.4166878 C176.387913,38.3612307 177.702941,36.5517672 178.824376,33.9507108 L188.222772,11.1818182 L180.951688,11.1818182 Z" id="Fill-11" fill="#1D1F4A"></path>
                    <polygon id="Fill-13" fill="#1D1F4A" points="107.965347 11.1818182 99.5317377 11.1818182 94.4322238 25.5331695 92.9807507 20.584485 96.9819807 11.1818182 90.2741525 11.1818182 88.0383414 17.5390816 86.1554561 11.1818182 79.4477596 11.1818182 83.9195134 20.4702344 81.9973849 25.5331695 76.2703742 11.1818182 67.8366337 11.1818182 77.5647426 32.6136364 85.3316115 32.6136364 87.8813685 24.9621723 91.4118113 32.6136364 98.5509201 32.6136364"></polygon>
                    <path d="M188.546184,31.844396 C186.970961,32.0755347 185.238282,31.4976233 184.490002,29.9564832 C183.505471,27.9530658 184.726252,25.9880637 185.947166,24.5240129 C186.85277,23.4836948 188.034287,22.2509121 188.309934,20.8252767 C188.940023,21.8270501 189.963951,22.5205955 190.712099,23.4067348 C191.657233,24.4469236 192.169131,25.7954696 192.287322,27.2209757 C192.523573,29.6097105 190.869556,31.4976233 188.546184,31.844396 M192.917412,26.6045197 C192.523573,23.9461015 190.672702,22.1738228 188.782435,20.4400887 C188.664376,20.3244547 188.46739,20.3244547 188.349331,20.4400887 L188.349331,19.9005926 C188.309934,19.47686 187.679845,19.4383153 187.679845,19.9005926 C187.640448,22.6746448 184.568796,24.1386955 183.741854,26.6430644 C183.111764,28.4538878 183.466074,30.4958499 185.0019,31.6902173 C186.459064,32.8076247 188.427993,32.8461694 190.042613,32.152624 C192.287322,31.1893953 193.31125,29.0703438 192.917412,26.6045197" id="Fill-15" fill="#1D1F4A"></path>
                    <path d="M189.724097,26.4700524 C189.798169,28.2976045 189.329212,29.7098926 188.366689,29.9590789 C188.144639,30.0421875 188.193937,30.7898859 188.416071,30.7483316 C189.576036,30.457591 190.242436,28.6300388 190.119065,26.4284981 C190.119065,25.9716798 189.724097,25.9716798 189.724097,26.4700524" id="Fill-17" fill="#1D1F4A"></path>
                    <g id="Group-21" transform="translate(23.886139, 0.000000)">
                        <mask id="mask-2" fill="white">
                            <use xlink:href="#path-1"></use>
                        </mask>
                        <g id="Clip-20"></g>
                        <path d="M8.25401553,1.22637922 C7.39633955,0.472937662 6.22663861,0.116051299 4.82318073,0.116051299 C3.41959196,0.116051299 2.2500219,0.512606494 1.39234592,1.30571688 C0.534669944,2.09869416 0.105897396,3.09001558 0.105897396,4.23987922 C0.105897396,5.42941169 0.534669944,6.42073312 1.39234592,7.17417468 C2.2500219,7.96715195 3.41959196,8.36370714 4.82318073,8.36370714 C6.22663861,8.36370714 7.39633955,7.96715195 8.25401553,7.13450584 C9.11169151,6.34139545 9.54059494,5.31053831 9.54059494,4.08133701 C9.54059494,2.93134026 9.11169151,1.97968766 8.25401553,1.22637922" id="Fill-19" fill="#1D1F4A" mask="url(#mask-2)"></path>
                    </g>
                    <path d="M25.3047755,32.6136364 L32.4851485,32.6136364 L32.4851485,11.1818182 L24.8415842,11.1818182 L24.8415842,16.8739355 C25.1504216,18.0583504 25.3433964,19.3571669 25.3433964,20.808989 L25.3433964,32.6136364 L25.3047755,32.6136364 Z" id="Fill-22" fill="#1D1F4A"></path>
                    <path d="M23.8861386,32.5752735 L23.8861386,20.1894798 C23.8861386,16.9682877 23.0473674,14.552458 21.3298644,12.941862 C19.6521879,11.3313947 17.37537,10.526161 14.6192925,10.526161 C13.3011277,10.526161 12.0628842,10.7178465 10.9044279,11.1395804 C9.74610561,11.5230802 8.74749185,12.1366283 7.86876001,12.9034991 L7.86876001,4.65909091 L0,4.65909091 L0,32.5752735 L7.86876001,32.5752735 L7.86876001,22.1067211 C7.86876001,20.4195281 8.26823233,19.1157062 9.10700353,18.2721097 C9.90594818,17.4283844 10.9843491,17.0066505 12.3424746,17.0066505 C14.779001,17.0066505 16.0172445,18.502158 16.0172445,21.4548101 L16.0172445,32.6136364 L23.8861386,32.6136364 L23.8861386,32.5752735 Z" id="Fill-24" fill="#1D1F4A"></path>
                    <mask id="mask-4" fill="white">
                        <use xlink:href="#path-3"></use>
                    </mask>
                    <g id="Clip-45"></g>
                </g>
            </g>
        </g>
    </g>
</svg>