<?xml version="1.0" encoding="UTF-8"?>
<svg width="95px" height="56px" viewBox="0 0 95 56" version="1.1" xmlns="http://www.w3.org/2000/svg" xmlns:xlink="http://www.w3.org/1999/xlink">
    <!-- Generator: Sketch 51.2 (57519) - http://www.bohemiancoding.com/sketch -->
    <title>5P</title>
    <desc>Created with Sketch.</desc>
    <defs>
        <polygon id="path-1" points="0 56 95 56 95 0 0 0"></polygon>
    </defs>
    <g id="Page-1" stroke="none" stroke-width="1" fill="none" fill-rule="evenodd">
        <g id="Prowell" transform="translate(-172.000000, -4602.000000)">
            <g id="6" transform="translate(0.000000, 4000.000000)">
                <g id="5P" transform="translate(172.000000, 602.000000)">
                    <path d="M16.7928237,34.7277956 C16.7928237,36.5036548 17.756595,38.6492471 20.6479087,38.6492471 C23.6139333,38.6492471 24.577265,35.8747138 24.577265,32.7304474 C24.577265,29.5857424 23.5770173,26.8476123 20.6479087,26.8476123 C17.793511,26.8476123 16.7928237,28.883118 16.7928237,30.0295976 L13.7903226,30.0295976 L13.7903226,15.3424658 L25.0967259,15.3424658 L25.0967259,18.116999 L16.7928237,18.116999 L16.7928237,25.6638524 C17.9416144,24.5542145 19.387491,24.0735176 20.6479087,24.0735176 C24.5407885,24.0735176 27.5806452,26.7370871 27.5806452,32.7304474 C27.5806452,38.7233691 24.5034331,41.4246575 20.6479087,41.4246575 C16.9413667,41.4246575 13.7903226,39.3150298 13.7903226,34.7277956 L16.7928237,34.7277956 Z" id="Fill-1" fill="#1D1F4A"></path>
                    <mask id="mask-2" fill="white">
                        <use xlink:href="#path-1"></use>
                    </mask>
                    <g id="Clip-4"></g>
                    <path d="M1.13092085,54.880035 L93.8690791,54.880035 L93.8690791,1.12040217 L1.13092085,1.12040217 L1.13092085,54.880035 Z M0,56 L95,56 L95,0 L0,0 L0,56 Z" id="Fill-3" fill="#1D1F4A" mask="url(#mask-2)"></path>
                    <polygon id="Fill-5" fill="#1D1F4A" mask="url(#mask-2)" points="37.8249648 56 36.7741935 55.5715121 59.4734223 0 60.5241935 0.428930519"></polygon>
                    <path d="M34.858871,16.8395935 C33.3601531,16.8395935 32.1403486,18.060981 32.1403486,19.5616438 C32.1403486,21.0627486 33.3601531,22.2836942 34.858871,22.2836942 C36.3575888,22.2836942 37.5773933,21.0627486 37.5773933,19.5616438 C37.5773933,18.060981 36.3575888,16.8395935 34.858871,16.8395935 M34.858871,24.5479452 C32.1125455,24.5479452 29.8790323,22.3115334 29.8790323,19.5616438 C29.8790323,16.8121962 32.1125455,14.5753425 34.858871,14.5753425 C37.6051964,14.5753425 39.8387097,16.8121962 39.8387097,19.5616438 C39.8387097,22.3115334 37.6051964,24.5479452 34.858871,24.5479452" id="Fill-6" fill="#1D1F4A" mask="url(#mask-2)"></path>
                    <path d="M69.5625852,27.690533 L70.7987252,27.690533 C73.9829758,27.5796102 74.4701137,25.9398826 74.4701137,23.7788619 C74.4701137,21.5801362 73.9829758,19.8294858 70.8361973,19.8294858 L69.5625852,19.8294858 L69.5625852,27.690533 Z M64.3548387,14.5753425 L70.8361973,14.5753425 C78.4787516,14.5753425 79.6774194,19.7540759 79.6774194,23.7788619 C79.6774194,27.802771 78.4787516,32.9446763 70.8361973,32.9446763 L69.5625852,32.9446763 L69.5625852,40.6575342 L64.3548387,40.6575342 L64.3548387,14.5753425 Z" id="Fill-7" fill="#1D1F4A" mask="url(#mask-2)"></path>
                </g>
            </g>
        </g>
    </g>
</svg>