<?xml version="1.0" encoding="UTF-8"?>
<svg width="228px" height="144px" viewBox="0 0 228 144" version="1.1" xmlns="http://www.w3.org/2000/svg" xmlns:xlink="http://www.w3.org/1999/xlink">
    <!-- Generator: Sketch 51.2 (57519) - http://www.bohemiancoding.com/sketch -->
    <title>Love</title>
    <desc>Created with Sketch.</desc>
    <defs>
        <polygon id="path-1" points="0 0.643668606 52.3332024 0.643668606 52.3332024 123.776502 0 123.776502"></polygon>
        <polygon id="path-3" points="0.566115814 0.248527765 65.6425002 0.248527765 65.6425002 124.510258 0.566115814 124.510258"></polygon>
        <polygon id="path-5" points="0 0.340260247 53.255239 0.340260247 53.255239 124.684395 0 124.684395"></polygon>
        <polygon id="path-7" points="0.583238102 0.713101381 65.8992632 0.713101381 65.8992632 125.55119 0.583238102 125.55119"></polygon>
        <polygon id="path-9" points="0 0.330394437 53.1354512 0.330394437 53.1354512 124.674529 0 124.674529"></polygon>
        <polygon id="path-11" points="0.583238102 0.704000438 65.8992632 0.704000438 65.8992632 125.541565 0.583238102 125.541565"></polygon>
    </defs>
    <g id="Page-1" stroke="none" stroke-width="1" fill="none" fill-rule="evenodd">
        <g id="Prowell" transform="translate(-485.000000, -3555.000000)">
            <g id="Love" transform="translate(485.000000, 3555.000000)">
                <g id="Group-15" transform="translate(0.000000, 10.000000)">
                    <g id="Group-3" transform="translate(0.000000, 10.106422)">
                        <mask id="mask-2" fill="white">
                            <use xlink:href="#path-1"></use>
                        </mask>
                        <g id="Clip-2"></g>
                        <path d="M43.8243438,93.5138318 C41.4863968,92.7861694 36.9963222,92.6615236 34.8104093,94.3796153 C34.5570191,94.4537291 34.3036289,94.5278428 34.0468602,94.5851126 C32.6109823,94.9051493 31.134562,95.066852 29.6784129,95.2790869 C28.5229536,95.4508961 27.3607371,95.6125988 26.2052778,95.7776704 C25.8370173,83.7106025 25.57687,71.6435346 25.4383501,59.5730979 C25.3437511,51.2285621 25.0937394,42.8907639 24.9450838,34.549597 C24.7727784,25.036085 25.570113,14.4142355 21.5124911,5.61827954 C18.3670739,-1.20018652 7.61995043,-0.826248902 4.36304158,5.61827954 C0.109464571,14.0436667 0.683815716,24.6857291 0.427046969,33.936474 C0.187170903,42.4831383 -0.0391910193,51.0264337 0.00472995061,59.5730979 C0.0959504266,76.6596887 0.423668433,93.7462795 0.970991289,110.826133 C1.2615454,120.01287 8.92068684,124.988599 17.2622926,123.523168 C22.8503914,122.542845 28.4114619,121.343549 33.9759109,120.241949 C36.2969652,119.780423 38.6855903,119.457017 40.9492095,118.763043 C45.2061651,117.455946 48.1184632,114.838382 50.6557439,111.186595 C52.8788207,107.992966 52.9058489,102.175036 50.6557439,98.9881438 C48.8583626,96.4345878 46.8447551,94.4503603 43.8243438,93.5138318" id="Fill-1" fill="#E0D9C5" mask="url(#mask-2)"></path>
                    </g>
                    <path d="M78.5779937,26.5507008 C78.466502,26.6719779 78.3550103,26.7865173 78.2401401,26.9044256 L78.182705,26.9718017 C78.4800162,26.6753467 78.5881293,26.5507008 78.5779937,26.5507008" id="Fill-4" fill="#E0D9C5"></path>
                    <path d="M87.4912478,58.146408 C87.2750215,60.7235456 86.9979815,63.2973144 86.6905347,65.8677144 C86.5621503,66.9625768 86.4270089,68.0574392 86.2884889,69.1523016 C86.1938899,69.8799639 86.0992909,70.6076263 86.0080704,71.3352887 C85.9709065,71.6351126 85.9438782,71.8338722 85.9303641,71.9719933 C85.923607,72.0225254 85.9168499,72.0696887 85.9067143,72.1336961 C85.1701934,77.4867309 84.3661018,82.836397 82.9775235,88.0546795 C82.6903479,89.1293291 82.3829011,90.2006098 82.0450475,91.2584153 C81.8220641,91.9658649 81.5551598,92.6598392 81.3355549,93.3672887 C81.2105491,93.7715456 81.1497354,94.0073621 81.1260857,94.1353768 C80.8118818,94.7383933 80.3692936,95.4458428 80.2679375,95.6243896 C80.0584683,96.0151713 79.5381737,96.7563089 79.2239698,97.2279419 C78.3151436,96.8270539 77.3691535,96.5238612 76.3995136,96.2038245 C78.0144539,96.7360961 76.5684404,96.0454905 75.7069137,95.6412337 C75.6528571,95.5368006 75.5988005,95.4357364 75.5481225,95.3414098 C75.595422,95.4761621 75.6292074,95.5805951 75.639343,95.6075456 L75.6359644,95.6075456 C75.6292074,95.5839639 75.5988005,95.496375 75.5481225,95.3414098 C75.3420318,94.9304153 75.2001333,94.6238539 75.2440542,94.5935346 C75.2778396,94.5665841 75.4433879,95.0213731 75.5481225,95.3346722 C75.5143371,95.233608 75.4771732,95.1123309 75.4231167,94.9438905 C75.2947323,94.5463713 75.1528338,94.1522208 75.0312065,93.7513327 C74.7440309,92.8350172 74.4940192,91.9052263 74.2811714,90.9686979 C74.0108885,89.7626649 73.7980408,88.536419 73.5987071,87.3169107 C73.4737013,86.5488227 73.3622096,85.7841034 73.257475,85.0160153 C73.2439608,84.9183199 73.2304467,84.8442061 73.2203111,84.7734612 C73.213554,84.6926098 73.2034184,84.5982832 73.1899043,84.4770061 C71.7945688,71.732808 72.5919034,58.8403823 72.9838136,46.0591272 L73.1358477,40.9452777 C73.395995,39.7796704 73.6662779,38.6174318 73.9534534,37.4619309 C74.2507646,36.2727419 74.5615899,35.0869217 74.9129577,33.9145768 C75.0649918,33.4092557 75.223783,32.9073034 75.3859528,32.4087199 C75.4366308,32.2604924 75.6528571,31.6271566 75.78462,31.2330061 C75.8690834,31.0207713 75.9535468,30.8119052 75.9738181,30.7714795 C76.2745078,30.151619 76.578576,29.5283896 76.9164296,28.9287419 C77.1664413,28.4773217 77.4333457,28.036008 77.7137642,27.6014318 C77.8590412,27.3723529 78.0313466,27.1533805 78.1833807,26.9748337 L78.0347251,27.1196924 C78.1056744,27.0523162 78.1732451,26.9782025 78.2408158,26.9040887 C78.4266353,26.6918539 78.5651553,26.5537327 78.5786694,26.5503639 C78.7138109,26.4021364 78.8523308,26.2539089 78.9976079,26.112419 C79.1259923,25.9877731 79.5179025,25.6980557 79.7881854,25.4891896 C79.8895414,25.4352887 79.9706263,25.3847566 80.0044117,25.3679126 C80.1361746,25.29043 80.2442877,25.2264227 80.3422653,25.1691529 C80.5956555,25.098408 80.8558028,25.0242942 81.0618935,24.9164924 C81.0923003,24.8996483 81.1125715,24.8861731 81.1429784,24.8693291 C81.1767637,24.8693291 81.2105491,24.8659603 81.247713,24.8659603 C81.4842105,24.9367052 81.6227305,24.9703933 81.6497588,24.9636557 C82.1159968,25.4150759 82.5484494,25.8934465 82.9944162,26.3684483 C83.2511849,26.7929181 83.5484961,27.2039126 83.7917507,27.6250135 C84.1296043,28.211186 84.9674813,30.0033915 84.9336959,29.801263 C85.7107592,31.8730795 86.339167,34.0122722 86.8290547,36.1716777 C87.1060947,37.3979236 87.2851571,38.6342759 87.5317902,39.8672594 C87.6094965,40.6454539 87.6872029,41.4236483 87.7412595,42.2052116 C88.1297911,47.514452 87.933836,52.847274 87.4912478,58.146408 M75.9298971,2.4330722 C60.2028113,5.93326302 54.1687458,22.1675456 51.5368661,36.5523529 C48.4353699,53.5075603 47.8846685,70.6244704 50.2327511,87.7043236 C50.9557579,92.9562942 52.367986,98.2150025 54.8478315,102.867325 C55.9289631,105.862195 57.3378127,108.705469 59.1723578,111.312925 C63.6387826,117.659758 70.0546227,122.069527 77.9299905,122.170591 C85.1330295,122.268287 91.7853672,118.303201 96.1909784,112.670555 C105.505603,100.761821 106.948237,84.8340997 108.792918,70.2437951 C110.570028,56.2127126 111.874143,41.7706355 108.107075,27.9248373 C104.042696,12.9774392 92.741493,-1.30630395 75.9298971,2.4330722" id="Fill-6" fill="#E0D9C5"></path>
                    <path d="M75.5491361,95.3397254 C75.5491361,95.3397254 75.5491361,95.3363566 75.5491361,95.3329878 C75.5491361,95.3363566 75.5491361,95.3363566 75.5491361,95.3397254" id="Fill-8" fill="#E0D9C5"></path>
                    <path d="M167.602759,27.5653856 C168.268331,25.2409085 169.028501,22.9164315 169.60961,20.5683727 C170.413701,17.3039984 170.20761,14.1575324 169.835971,10.8628388 C169.362976,6.65856724 167.687222,3.20890853 163.660007,1.47060394 C160.240929,-0.00493367268 155.220424,0.456592933 152.679765,3.59632137 C150.949954,5.73888284 148.92959,7.97240211 147.642367,10.4383691 C146.41258,12.799903 145.804444,15.5084241 145.061166,18.0586113 L141.314369,30.8668168 C139.446039,37.2507067 137.577708,43.6345966 135.712756,50.0184865 C135.6114,46.5755654 135.526937,43.1326443 135.469502,39.6897232 C135.320846,31.0251507 136.432385,21.2522406 132.996413,13.1805783 C130.057087,6.27789202 119.9181,7.46708101 116.644298,13.1805783 C114.252295,17.3477929 113.745514,22.9265379 113.299548,27.6731874 C112.94818,31.4630957 112.802903,35.286692 112.620462,39.0867067 C112.242066,46.9023397 112.106924,54.7011287 112.235309,62.5234994 C112.492077,78.1581342 113.471853,93.7354994 115.404376,109.245488 C115.921292,113.385753 116.944988,116.545694 120.276225,119.176732 C123.445292,121.683125 127.151546,122.393943 131.057134,121.44394 C142.341444,118.698362 144.892239,106.732358 147.696424,96.959448 L155.727204,68.9713966 C158.403005,59.6398003 161.078806,50.3082039 163.754606,40.9766076 C165.03845,36.5062003 166.318915,32.0357929 167.602759,27.5653856" id="Fill-10" fill="#E0D9C5"></path>
                    <g id="Group-14" transform="translate(161.401886, 2.499438)">
                        <mask id="mask-4" fill="white">
                            <use xlink:href="#path-3"></use>
                        </mask>
                        <g id="Clip-13"></g>
                        <path d="M29.7945424,41.6731574 C30.9500018,37.8765116 32.3047948,34.2651501 33.4061976,31.8631905 C34.0785263,30.4044969 34.7778833,28.9626473 35.5617036,27.5612235 C35.9502353,26.8638804 36.3590382,26.1766437 36.7881123,25.5028822 C36.9469035,25.2569593 37.4840907,24.5225593 37.5922039,24.3541189 C38.0651989,23.8252161 38.5719793,23.3266327 39.0314603,22.7876235 C39.1530876,22.6461336 39.6294612,22.2418767 39.7341958,22.1374437 C40.176784,21.8376198 40.643022,21.5647464 41.1126385,21.3188235 C40.7612708,21.5243207 41.4234639,21.3019794 42.0113291,21.0964822 C42.1768774,21.1032198 42.9742119,20.9650987 43.4607211,20.9145666 C43.5282919,20.9549923 43.5992411,20.9886804 43.6634333,21.0291061 C43.6228909,21.0661629 44.3087337,21.6725483 44.5790166,21.9319464 C44.5823952,21.938684 44.5857737,21.938684 44.5925308,21.9420528 C44.6296947,22.0397483 44.6736156,22.1576565 44.7310507,22.2924088 C44.7344293,22.2991464 45.173639,23.39064 45.3527014,23.7477336 C45.4743287,24.2092602 45.6128487,24.7145813 45.6094701,24.7011061 C45.6837979,25.1087317 45.734476,25.3681299 45.7648828,25.4826694 C45.785154,25.8027061 45.8020467,26.1227428 45.8088038,26.4427794 C45.967595,30.9569813 45.2986448,33.1770253 44.3154908,38.1763354 C43.8526313,40.5311317 43.3695007,42.8791905 42.9235339,45.2339868 C42.741093,46.2176785 42.5924374,47.2081079 42.4099964,48.1951684 C42.4099964,48.2052749 42.4066179,48.2187501 42.4032393,48.2322253 C41.7613175,48.4444602 41.10926,48.6364822 40.4673381,48.831873 C38.3625101,49.4685776 36.2238967,49.9974804 34.0683907,50.4084749 C31.7540934,50.8531574 29.4600674,51.3820602 27.1525272,51.8368492 C27.9059407,48.4141409 28.7742245,45.0217519 29.7945424,41.6731574 M23.7503413,74.5493483 C23.9192681,72.7099794 24.101709,70.8773483 24.3044212,69.0447171 C24.3415851,68.7179428 24.3821275,68.3945372 24.4192914,68.0711317 C33.6325595,69.6847905 43.2951729,69.1626253 51.9881464,65.4064051 C58.0931612,62.7719978 60.5865209,57.5031831 61.9615851,51.2237262 C63.0798806,46.1267207 64.2285828,40.9657079 65.0056462,35.7979574 C66.7827562,23.9599684 65.2353866,11.919851 55.2889762,4.27265835 C45.8493462,-2.98712147 32.7169762,0.354735413 24.6794387,8.1063611 C17.3007158,15.2179134 13.3613426,25.9913593 10.0706484,35.5419281 C6.7799542,45.0823905 4.70215447,55.0170033 3.23586978,65.0122547 C0.414792097,84.2279317 -4.91653794,112.465275 17.2500377,122.032688 C28.4971846,126.887139 40.6464005,124.363902 49.9711603,116.595433 C58.772247,109.25817 63.2961069,97.1506767 63.6103107,85.797796 C63.7724805,80.0506106 59.194564,75.1961593 53.82607,74.4583905 C48.7244805,73.7576785 42.4235106,77.0591097 41.4437351,82.7288125 C40.8727625,86.0403501 39.9774504,89.2777739 38.9537539,92.4714033 C38.9064544,92.6196308 38.8760476,92.7644895 38.8523978,92.895873 C38.5686008,93.4955207 38.1124984,94.155807 37.8692438,94.5870143 C37.5719326,95.1091794 37.2239434,95.6043941 36.9367678,96.1299281 C36.8286547,96.288262 36.7441913,96.4129079 36.6698635,96.5207097 C36.4603943,96.7666327 36.2610606,97.0192932 36.0448343,97.2584785 C35.6427885,97.6896859 35.1866861,98.0872051 34.7947759,98.5285189 C34.7035555,98.6363207 34.6258491,98.7272785 34.5616569,98.8047611 C34.5076004,98.8384492 34.4501652,98.8721372 34.3893516,98.9091941 C33.8048648,99.2629189 33.2440278,99.6435941 32.6426484,99.9669996 C32.4365577,100.07817 32.2777665,100.172497 32.1561392,100.253348 C31.5344885,100.425157 30.6763404,100.55991 30.4668711,100.627286 C30.2607804,100.698031 30.1155034,100.755301 30.0141473,100.809201 C29.5107454,100.81257 28.9904508,100.775513 28.7201679,100.775513 C28.3147436,100.782251 27.9093193,100.768776 27.5038949,100.741825 C27.4025388,100.735088 27.3180754,100.72835 27.2471262,100.724981 C26.811295,100.583491 26.4024921,100.435264 26.2538366,100.404945 C26.1153166,100.377994 25.9970678,100.354412 25.8990903,100.3342 C25.6321859,100.189341 25.3585245,100.027638 25.1389196,99.8895171 C25.0679704,99.8086657 24.983507,99.7177079 24.8889079,99.6132749 C24.7132241,99.4279905 24.5105119,99.1450106 24.3584778,98.929407 C24.1253588,98.5083061 23.8922398,98.0838363 23.6456066,97.6795794 C23.628714,97.5987281 23.6151998,97.5178767 23.5949286,97.4235501 C23.3820808,96.392695 23.1151765,95.344996 22.8786789,94.3175097 C22.8753004,94.2299207 22.8753004,94.1355941 22.8719219,94.0311611 C22.8550292,93.071051 22.7705658,92.1143097 22.7570516,91.1541996 C22.7367804,89.5506473 22.790837,87.9504639 22.8753004,86.3536492 C23.0780126,82.4155134 23.395595,78.4773776 23.7503413,74.5493483" id="Fill-12" fill="#E0D9C5" mask="url(#mask-4)"></path>
                    </g>
                </g>
                <g id="Group-18" transform="translate(0.000000, 16.000000)">
                    <mask id="mask-6" fill="white">
                        <use xlink:href="#path-5"></use>
                    </mask>
                    <g id="Clip-17"></g>
                    <path d="M44.4961549,94.1234171 C42.122368,93.3885844 37.5634623,93.2627103 35.3440402,94.997732 C35.0867656,95.0725761 34.829491,95.1474201 34.5687861,95.2052542 C33.1108967,95.5318465 31.6118434,95.6917407 30.1333721,95.9060669 C28.9602,96.0795691 27.7801672,96.2462672 26.6069951,96.4095634 C26.2330893,84.2269892 25.9689541,72.037611 25.8283107,59.8482328 C25.7322615,51.4214704 25.4784172,43.001512 25.3274828,34.5781516 C25.1525361,24.974296 25.9620934,14.2443772 21.8422697,5.36514837 C18.6486344,-1.52050652 7.73676148,-1.14628615 4.42992541,5.36514837 C0.111142623,13.8735589 0.694298361,24.6204876 0.433593443,33.958987 C0.190040164,42.5898696 -0.0397918033,51.2173502 0.00480245902,59.8482328 C0.0974213115,77.1065961 0.430163115,94.3581554 0.98587623,111.606313 C1.28088443,120.883576 9.0574377,125.908335 17.5269172,124.428463 C23.2006795,123.43848 28.8469992,122.227367 34.4967492,121.114912 C36.8533844,120.65224 39.2786262,120.325647 41.5769459,119.621433 C45.899159,118.301455 48.8561016,115.658099 51.4322779,111.970327 C53.6894336,108.745228 53.9467082,98.7773578 51.6621098,95.5556606 C49.8371754,92.980344 47.562868,95.0691741 44.4961549,94.1234171" id="Fill-16" fill="#161D75" mask="url(#mask-6)"></path>
                </g>
                <path d="M78.468,34 C78.336,34.14 78.204,34.28 78.068,34.416 C78.048,34.444 78.024,34.472 78,34.5 C78.352,34.144 78.48,34 78.468,34" id="Fill-19" fill="#161D75"></path>
                <path d="M87.8637144,63.6220002 C87.6466239,66.2165639 87.3684767,68.8009662 87.0598011,71.3853685 C86.9309036,72.4861952 86.795222,73.5870218 86.6561484,74.6912357 C86.5611713,75.4194748 86.4661942,76.1511012 86.3746091,76.8827275 C86.3372967,77.1841847 86.3101604,77.3874142 86.2965922,77.5262877 C86.2898081,77.5737079 86.2830241,77.6211282 86.272848,77.6888713 C85.5333834,83.0676798 84.726078,88.4464882 83.3319498,93.6931974 C83.0436265,94.7770883 82.7349509,95.8508177 82.3957469,96.9177728 C82.1718723,97.625689 81.9039012,98.3268309 81.6834187,99.0381343 C81.5579132,99.4445933 81.4968565,99.6816945 81.4731122,99.8070194 C81.1576526,100.413321 80.7132954,101.124624 80.6115342,101.307531 C80.4012278,101.697054 79.8788537,102.442229 79.563394,102.916431 C78.6509354,102.516747 77.7011644,102.208515 76.7276491,101.886735 C78.3490439,102.421906 76.8972511,101.730926 76.032281,101.321079 C75.9780084,101.216077 75.9237358,101.114463 75.8728552,101.019622 C75.9203437,101.155109 75.9542641,101.263498 75.9644403,101.290595 L75.9610482,101.290595 C75.9542641,101.263498 75.9237358,101.175432 75.8728552,101.019622 C75.6659408,100.609776 75.5234751,100.298157 75.5675716,100.267673 C75.601492,100.240576 75.767702,100.697842 75.8728552,101.012848 C75.8389348,100.911233 75.8016224,100.789295 75.7473497,100.619938 C75.6184522,100.220253 75.4759866,99.8239552 75.3538732,99.4208832 C75.0655498,98.499576 74.8145389,97.5681073 74.6008404,96.6230899 C74.3294773,95.410487 74.1157788,94.1775612 73.9156485,92.9514096 C73.790143,92.1825245 73.6782057,91.4102523 73.5730525,90.63798 C73.5594843,90.5431396 73.5459162,90.4686221 73.5357401,90.3974918 C73.528956,90.3128128 73.5187799,90.2179723 73.5052117,90.0994218 C72.1042994,77.2824123 72.9048207,64.3197549 73.2982973,51.4688738 L73.4509391,46.3271665 C73.7121261,45.1552095 73.9834893,43.9900268 74.2718126,42.8248442 C74.5703121,41.629177 74.8823797,40.4368971 75.2351518,39.2581658 C75.3877936,38.7500919 75.5472194,38.2487924 75.7100373,37.7474929 C75.7609179,37.5950707 75.9780084,36.9582848 76.1102979,36.5653744 C76.1950989,36.3485962 76.2798999,36.1385924 76.3002522,36.0979465 C76.6021437,35.4747092 76.9074272,34.851472 77.2466311,34.2451705 C77.4976421,33.7912912 77.7656132,33.3475734 78.0471524,32.914017 C78.1930101,32.6803031 78.3660041,32.4601377 78.5186459,32.2806183 L78.3693962,32.4296533 C78.440629,32.358523 78.5084698,32.2840055 78.5763106,32.209488 C78.7628727,31.996097 78.9019464,31.8572234 78.9155145,31.8572234 C79.0511961,31.7081884 79.1902697,31.5591535 79.3361274,31.4168928 C79.4650249,31.2881807 79.8585015,30.9968851 80.1298646,30.7902684 C80.2316258,30.7326867 80.3130347,30.6852664 80.3469551,30.6649435 C80.4792447,30.5870388 80.5877899,30.5226828 80.6861591,30.4651011 C80.940562,30.3939708 81.2017491,30.3194533 81.4086635,30.2110642 C81.4391918,30.1941284 81.4595441,30.1805798 81.4900724,30.163644 C81.5239928,30.163644 81.5579132,30.1602568 81.5952256,30.1602568 C81.8326684,30.2313871 81.971742,30.2652587 81.9988783,30.2584844 C82.4669798,30.7157509 82.9011608,31.1967274 83.34891,31.6743169 C83.606705,32.0977117 83.9052045,32.5109451 84.1494313,32.93434 C84.4886352,33.5237056 85.329861,35.3290614 85.2959406,35.1258318 C86.0761097,37.2089346 86.707029,39.3563934 87.1988747,41.5309494 C87.4770219,42.7604881 87.6568,44.0069626 87.9044189,45.2432757 C87.9824358,46.0290965 88.0604527,46.8115303 88.1147253,47.593964 C88.5048099,52.9321265 88.3080716,58.2973863 87.8637144,63.6220002 M76.2561556,7.60516528 C60.4662123,11.1244234 54.4080299,27.4505296 51.7656313,41.9103112 C48.6517391,58.9578823 48.0988367,76.168037 50.4563041,93.3409329 C51.1822005,98.6215137 52.600073,103.912256 55.0898299,108.589923 C56.1752825,111.59772 57.5897629,114.456482 59.4316403,117.078143 C63.9159163,123.462938 70.3573991,127.893341 78.264243,127.998343 C85.4960709,128.093184 92.1749965,124.106498 96.5982158,118.443168 C105.950068,106.472948 107.398469,90.4550735 109.250523,75.785288 C111.034735,61.6777709 112.344063,47.1570205 108.561939,33.2357971 C104.481315,18.21036 93.1349436,3.84880599 76.2561556,7.60516528" id="Fill-21" fill="#161D75"></path>
                <path d="M76,102.008 C76,102.008 76,102.004 76,102 C76,102.004 76,102.008 76,102.008" id="Fill-23" fill="#161D75"></path>
                <path d="M168.393787,34.0822552 C169.071118,31.7420928 169.844721,29.4019304 170.436097,27.0380273 C171.254396,23.7516253 171.044664,20.5839272 170.666458,17.2670014 C170.185106,13.0343598 168.479743,9.56142315 164.38137,7.81138866 C160.901879,6.32589427 155.792667,6.79053521 153.207116,9.95145022 C151.446741,12.1084695 149.390679,14.3570603 148.080712,16.8396674 C146.829196,19.2171367 146.210314,21.9405431 145.453903,24.5079386 L141.640904,37.4059641 C139.739561,43.8329319 137.838219,50.2598996 135.940315,56.6868674 C135.837168,53.2173222 135.751212,49.7511687 135.692762,46.2884066 C135.54148,37.5653665 136.672658,27.7265098 133.175977,19.5969891 C130.184715,12.6511158 119.866581,13.8483293 116.534934,19.5969891 C114.100665,23.7957153 113.584931,29.4087135 113.131084,34.1907845 C112.773508,38.0028751 112.625664,41.8556642 112.439999,45.681321 C112.054917,53.5496931 111.917388,61.4011076 112.048041,69.2762628 C112.309347,85.0163985 113.306434,100.698878 115.273103,116.313527 C115.799152,120.481729 116.840936,123.662993 120.231033,126.311786 C123.456095,128.835092 127.227835,129.547315 131.202431,128.594292 C142.686126,125.830187 145.281991,113.783438 148.135724,103.944582 L156.308401,75.7642782 L164.477641,47.5839748 C165.784169,43.0834016 167.087259,38.5828284 168.393787,34.0822552" id="Fill-25" fill="#161D75"></path>
                <g id="Group-29" transform="translate(161.000000, 7.000000)">
                    <mask id="mask-8" fill="white">
                        <use xlink:href="#path-7"></use>
                    </mask>
                    <g id="Clip-28"></g>
                    <path d="M29.919297,42.3293684 C31.0790113,38.5151586 32.4387932,34.8870904 33.5442519,32.4740189 C34.2190564,31.0119615 34.9209887,29.5600574 35.7076955,28.1555347 C36.0976579,27.4515811 36.5079662,26.7611652 36.9386203,26.0842868 C37.0979962,25.8406105 37.6371617,25.1028131 37.7456729,24.9302091 C38.2204098,24.3988595 38.7290564,23.9013539 39.1902293,23.3564668 C39.3123045,23.2143223 39.7904323,22.8081953 39.8955526,22.7066635 C40.3397707,22.4054526 40.8077256,22.1313169 41.2790714,21.8808719 C40.9264098,22.0873198 41.5910414,21.8639499 42.1810714,21.657502 C42.3472293,21.6642708 43.1475,21.5288951 43.6358008,21.4747448 C43.7036203,21.5153575 43.7748308,21.5525858 43.8392594,21.5931985 C43.7985677,21.6270425 44.4869361,22.236233 44.7582143,22.4968312 C44.7616053,22.5036 44.7649962,22.5036 44.7717782,22.5103688 C44.8090789,22.6085162 44.8531617,22.7235855 44.9108083,22.8623456 C44.9141992,22.8657299 45.3550263,23.962273 45.5347481,24.3210185 C45.6568233,24.7846802 45.7958534,25.292339 45.7924624,25.2788015 C45.8670639,25.6883129 45.9179286,25.9522955 45.9484474,26.0673648 C45.9687932,26.388882 45.9857481,26.7070149 45.9925301,27.0285321 C46.151906,31.5636174 45.4804925,33.7939318 44.493718,38.8197539 C44.0291541,41.1820595 43.5442444,43.5409808 43.0966353,45.9100552 C42.9135226,46.8982976 42.7643195,47.8933089 42.5812068,48.8815514 C42.5812068,48.8917045 42.5778158,48.9052421 42.5744248,48.9187797 C41.9301391,49.1319964 41.2756805,49.3249067 40.6313947,49.5212015 C38.5188158,50.1608515 36.3723271,50.6922011 34.2088835,51.1050969 C31.8860639,51.5518367 29.5835902,52.0831862 27.2675526,52.5434635 C28.0237406,49.1049212 28.8952218,45.6934541 29.919297,42.3293684 M23.8528383,75.3576501 C24.0223872,73.5131564 24.2055,71.6686628 24.4089586,69.8275535 C24.4462594,69.5026519 24.4869511,69.1777503 24.5242519,68.8494642 C33.7714474,70.4739724 43.4696429,69.9460073 52.1946278,66.1724102 C58.3221241,63.5292 60.8246654,58.2326265 62.2047932,51.9241198 C63.3272068,46.8035347 64.4801391,41.6186461 65.2600639,36.4269887 C67.043718,24.5342352 65.4906504,12.4418025 55.5076128,4.75584828 C46.0332218,-2.53751652 32.8524925,0.819800363 24.7853571,8.60728639 C17.3794624,15.7551223 13.4255827,26.5750236 10.1227707,36.169775 C6.81995865,45.7577575 4.73450752,55.7349452 3.26282331,65.7764363 C0.431357143,85.0810083 -4.91960526,113.448982 17.3285977,123.060656 C28.6171617,127.940949 40.8111165,125.402655 50.1702143,117.598247 C59.0037105,110.227041 63.5442293,98.0635361 63.8595902,86.658135 C64.0223571,80.8843623 64.497094,72.6365989 59.1122218,71.8954171 C53.9884549,71.1914635 42.5947707,77.8790221 41.6113872,83.5749539 C41.038312,86.9018113 40.139703,90.1575964 39.1122368,93.3626156 C39.0647632,93.5149132 39.0342444,93.6604421 39.0105075,93.789049 C38.7256654,94.3948552 38.2678835,95.0548116 38.0237331,95.4913982 C37.7253271,96.0125946 37.3760564,96.5134846 37.0878233,97.0414497 C36.979312,97.1971318 36.8945376,97.3257387 36.8199361,97.4306548 C36.6096955,97.6777154 36.4096278,97.9315448 36.1926053,98.1718367 C35.7890789,98.6084232 35.331297,99.0043971 34.9379436,99.4477525 C34.8463872,99.556053 34.7683947,99.6474316 34.7039662,99.728657 C34.6497105,99.7591165 34.5920639,99.7929604 34.5310263,99.8301887 C33.9443872,100.18555 33.381485,100.567986 32.777891,100.892888 C32.5710414,101.004573 32.4116654,101.099336 32.2895902,101.180561 C31.6656504,101.353165 30.8043421,101.488541 30.5941015,101.556229 C30.3872519,101.627301 30.2414398,101.68822 30.1397105,101.738986 C29.6344549,101.74237 29.1122444,101.705142 28.8409662,101.705142 C28.4340489,101.711911 28.0271316,101.698373 27.6202143,101.671298 C27.518485,101.664529 27.4337105,101.65776 27.3625,101.654376 C26.9250639,101.515616 26.5147556,101.366703 26.3655526,101.336243 C26.2265226,101.305784 26.1078383,101.282093 26.0095,101.261787 C25.7416128,101.116258 25.4669436,100.953807 25.2465301,100.815047 C25.1753195,100.733821 25.0905451,100.642443 24.9955977,100.537527 C24.8192669,100.351385 24.6158083,100.070481 24.4632143,99.8504951 C24.2292368,99.4274461 23.9952594,99.0043971 23.747718,98.5948857 C23.7307632,98.5170446 23.7171992,98.4324348 23.6968534,98.3376719 C23.4832218,97.3020479 23.2153346,96.2528864 22.9779662,95.2172624 C22.9745752,95.1292682 22.9745752,95.0345053 22.9711842,94.9295891 C22.9542293,93.9650374 22.8694549,93.0038701 22.855891,92.0393183 C22.8355451,90.4317321 22.8898008,88.8241459 22.9745752,87.2165597 C23.1780338,83.2602054 23.4967857,79.3038512 23.8528383,75.3576501" id="Fill-27" fill="#161D75" mask="url(#mask-8)"></path>
                </g>
                <g id="Group-32" transform="translate(0.000000, 10.000000)">
                    <mask id="mask-10" fill="white">
                        <use xlink:href="#path-9"></use>
                    </mask>
                    <g id="Clip-31"></g>
                    <path d="M44.4961549,94.1135513 C42.122368,93.3787186 37.5634623,93.2528445 35.3440402,94.9878662 C35.0867656,95.0627103 34.829491,95.1375543 34.5687861,95.1953884 C33.1108967,95.5219807 31.6118434,95.6818749 30.1333721,95.8962011 C28.9602,96.0697033 27.7801672,96.2364014 26.6069951,96.3996976 C26.2330893,84.2171234 25.9689541,72.0277452 25.8283107,59.838367 C25.7322615,51.4150066 25.4784172,42.9916462 25.3274828,34.5682858 C25.1525361,24.9644302 25.9620934,14.2345114 21.8422697,5.35528256 C18.6486344,-1.53037233 7.73676148,-1.15615196 4.42992541,5.35528256 C0.111142623,13.8636931 0.694298361,24.6106218 0.433593443,33.9491211 C0.190040164,42.5800038 -0.0397918033,51.2074844 0.00480245902,59.838367 C0.0974213115,77.0967303 0.430163115,94.3482895 0.98587623,111.596447 C1.28088443,120.87371 9.0574377,125.898469 17.5269172,124.418598 C23.2006795,123.428615 28.8469992,122.217501 34.4967492,121.105046 C36.8533844,120.642374 39.2786262,120.315782 41.5769459,119.611567 C45.899159,118.291589 48.8561016,115.648233 51.4322779,111.960461 C53.6894336,108.735362 53.7168762,102.860102 51.4322779,99.6418068 C49.6073434,97.0664903 47.562868,95.0593083 44.4961549,94.1135513" id="Fill-30" fill="#2930C3" mask="url(#mask-10)"></path>
                </g>
                <path d="M78.468,26 C78.336,26.14 78.204,26.28 78.068,26.42 C78.048,26.444 78.024,26.472 78,26.5 C78.352,26.144 78.48,26 78.468,26" id="Fill-33" fill="#2930C3"></path>
                <path d="M87.8637144,57.6207274 C87.6466239,60.2153425 87.3684767,62.7997959 87.0598011,65.3842493 C86.9309036,66.4850977 86.795222,67.5859461 86.6561484,68.6901818 C86.5611713,69.4184353 86.4661942,70.1500761 86.3746091,70.8817169 C86.3372967,71.18318 86.3101604,71.3864136 86.2965922,71.5252899 C86.2898081,71.572711 86.2830241,71.6201322 86.272848,71.6878767 C85.5333834,77.0667915 84.726078,82.4457062 83.3319498,87.6925192 C83.0436265,88.7730443 82.7349509,89.8501821 82.3957469,90.9171583 C82.1718723,91.6250885 81.9039012,92.322857 81.6834187,93.0375617 C81.5579132,93.4440288 81.4968565,93.6811346 81.4731122,93.8098492 C81.1576526,94.4127754 80.7132954,95.1274801 80.6115342,95.3070031 C80.4012278,95.6965341 79.8788537,96.4417238 79.563394,96.9159354 C78.6509354,96.5162427 77.7011644,96.2080052 76.7276491,95.8862187 C78.3490439,96.4214004 76.8972511,95.7304063 76.032281,95.320552 C75.9780084,95.215548 75.9237358,95.1139312 75.8728552,95.0190889 C75.9203437,95.1545779 75.9542641,95.2629691 75.9644403,95.2900669 L75.9610482,95.2900669 C75.9542641,95.2629691 75.9237358,95.1749013 75.8728552,95.0190889 C75.6659408,94.6092345 75.5234751,94.2976097 75.5675716,94.2671247 C75.601492,94.2400269 75.767702,94.6973024 75.8728552,95.0123144 C75.8389348,94.9106976 75.8016224,94.7887575 75.7473497,94.6193962 C75.6184522,94.2197036 75.4759866,93.8233981 75.3538732,93.4237055 C75.0655498,92.4989928 74.8145389,91.5675057 74.6008404,90.6224696 C74.3294773,89.4098427 74.1157788,88.1768925 73.9156485,86.9507167 C73.790143,86.1818164 73.6782057,85.4095289 73.5730525,84.6372414 C73.5594843,84.5423991 73.5459162,84.4678801 73.5357401,84.3967484 C73.528956,84.315455 73.5187799,84.2172254 73.5052117,84.0952853 C72.1042994,71.2814096 72.9048207,58.3218832 73.2982973,45.4673608 L73.4509391,40.3255519 C73.7121261,39.1535717 73.9834893,37.988366 74.2718126,36.8231603 C74.5703121,35.6274695 74.8823797,34.435166 75.2351518,33.2564114 C75.3877936,32.7517147 75.5472194,32.2470181 75.7100373,31.7423214 C75.7609179,31.5966707 75.9780084,30.956485 76.1102979,30.5635668 C76.1950989,30.3467843 76.2798999,30.1367763 76.3002522,30.0961296 C76.6021437,29.47288 76.9074272,28.8496304 77.2466311,28.2467042 C77.4976421,27.7894287 77.7656132,27.3457021 78.0471524,26.9121372 C78.1930101,26.6784186 78.3660041,26.4582489 78.5186459,26.278726 L78.3693962,26.4277639 C78.440629,26.3566322 78.5084698,26.2821132 78.5763106,26.2109815 C78.7628727,25.994199 78.9019464,25.8553227 78.9155145,25.8553227 C79.0511961,25.7062848 79.1902697,25.5572469 79.3361274,25.4149834 C79.4650249,25.2862688 79.8585015,24.9949673 80.1298646,24.7883466 C80.2316258,24.7307637 80.3130347,24.6833426 80.3469551,24.6630192 C80.4792447,24.585113 80.5877899,24.5207557 80.6861591,24.4631729 C80.940562,24.3954284 81.2017491,24.3175222 81.4086635,24.2125182 C81.4391918,24.1921948 81.4595441,24.1786459 81.4900724,24.165097 C81.5239928,24.1617098 81.5579132,24.1583225 81.5952256,24.1583225 C81.8326684,24.2294543 81.971742,24.2633265 81.9988783,24.2565521 C82.4669798,24.7138276 82.9011608,25.1948137 83.34891,25.6690253 C83.606705,26.0958158 83.9052045,26.5124446 84.1494313,26.9324606 C84.4886352,27.5252251 85.329861,29.3272293 85.2959406,29.1239957 C86.0761097,31.2071397 86.707029,33.3546409 87.1988747,35.52924 C87.4770219,36.758803 87.6568,38.0053021 87.9044189,39.2416396 C87.9824358,40.027476 88.0604527,40.8099252 88.1147253,41.5923744 C88.5048099,46.9306424 88.3080716,52.2960083 87.8637144,57.6207274 M76.2561556,1.60617234 C60.4662123,5.12211285 54.4080299,21.4485418 51.7656313,35.9086093 C48.6517391,52.9565173 48.0988367,70.1670123 50.4563041,87.3402477 C51.1822005,92.6209329 52.600073,97.9117798 55.0898299,102.589539 C56.1752825,105.597395 57.5897629,108.456214 59.4316403,111.077927 C63.9159163,117.462848 70.3573991,121.893339 78.264243,121.998343 C85.4960709,122.093186 92.1749965,118.106421 96.5982158,112.442979 C105.950068,100.472523 107.398469,84.4543312 109.250523,69.787643 C111.034735,55.6764598 112.344063,41.1554222 108.561939,27.2339237 C104.481315,12.2081895 93.1349436,-2.15364843 76.2561556,1.60617234" id="Fill-35" fill="#2930C3"></path>
                <path d="M76,95.008 C76,95.008 76,95.004 76,95 C76,95.004 76,95.008 76,95.008" id="Fill-37" fill="#2930C3"></path>
                <path d="M168.393787,27.0819267 C169.071118,24.7417927 169.844721,22.4016587 170.436097,20.0377842 C171.254396,16.7514221 171.044664,13.5837624 170.666458,10.2668768 C170.185106,6.03428661 168.479743,2.56139208 164.38137,0.811378821 C160.901879,-0.67409755 155.792667,-0.209462247 153.207116,2.95141442 C151.446741,5.1084075 149.390679,7.35697105 148.080712,9.8429395 C146.829196,12.2169885 146.210314,14.9403618 145.453903,17.5077263 L141.640904,30.4055953 C139.739561,36.8324851 137.838219,43.2593749 135.940315,49.6862646 C135.837168,46.2201531 135.751212,42.7506501 135.692762,39.28793 C135.54148,30.5649957 136.672658,20.7262584 133.175977,12.5968363 C130.184715,5.65104727 119.866581,6.84824627 116.534934,12.5968363 C114.100665,16.7955116 113.584931,22.4084417 113.131084,27.1904547 C112.773508,31.0058905 112.625664,34.8552414 112.439999,38.6808518 C112.054917,46.5491285 111.917388,54.4004476 112.048041,62.2755073 C112.309347,78.0154521 113.306434,93.6977415 115.273103,109.312201 C115.799152,113.480353 116.840936,116.661578 120.231033,119.310339 C123.456095,121.833614 127.227835,122.54922 131.202431,121.592817 C142.686126,118.828746 145.281991,106.782143 148.135724,96.9434056 L156.308401,68.7634441 L164.477641,40.5834825 C165.784169,36.0829639 167.087259,31.5824453 168.393787,27.0819267" id="Fill-39" fill="#2930C3"></path>
                <g id="Group-43" transform="translate(161.000000, 1.000000)">
                    <mask id="mask-12" fill="white">
                        <use xlink:href="#path-11"></use>
                    </mask>
                    <g id="Clip-42"></g>
                    <path d="M29.919297,42.3212459 C31.0790113,38.5036517 32.4387932,34.8755834 33.5442519,32.4658963 C34.2190564,31.0004546 34.9209887,29.5519348 35.7076955,28.1440277 C36.0976579,27.4434586 36.5079662,26.7530426 36.9386203,26.0761642 C37.0979962,25.8291036 37.6371617,25.0913061 37.7456729,24.9220865 C38.2204098,24.390737 38.7290564,23.889847 39.1902293,23.3483442 C39.3123045,23.2061998 39.7904323,22.8000727 39.8955526,22.6951566 C40.3397707,22.3939457 40.8077256,22.1198099 41.2790714,21.8727493 C40.9264098,22.0758128 41.5910414,21.8558274 42.1810714,21.6493795 C42.3472293,21.6561482 43.1475,21.5173882 43.6358008,21.4666223 C43.7036203,21.507235 43.7748308,21.5410789 43.8392594,21.5816916 C43.7985677,21.6155355 44.4869361,22.2247261 44.7582143,22.4887087 C44.7616053,22.4920931 44.7649962,22.4954775 44.7717782,22.4988619 C44.8090789,22.5970092 44.8531617,22.7154629 44.9108083,22.8508386 C44.9141992,22.8576074 45.3550263,23.9541504 45.5347481,24.312896 C45.6568233,24.7765577 45.7958534,25.2808321 45.7924624,25.2706789 C45.8670639,25.6801903 45.9179286,25.9407885 45.9484474,26.0558579 C45.9687932,26.3773751 45.9857481,26.6988923 45.9925301,27.0204096 C46.151906,31.5554949 45.4804925,33.7824248 44.493718,38.808247 C44.0291541,41.173937 43.5442444,43.5328582 43.0966353,45.8985482 C42.9135226,46.8867907 42.7643195,47.881802 42.5812068,48.8734288 C42.5812068,48.883582 42.5778158,48.8971196 42.5744248,48.9106571 C41.9301391,49.1204894 41.2756805,49.3167842 40.6313947,49.5130789 C38.5188158,50.152729 36.3723271,50.6806942 34.2088835,51.0969744 C31.8860639,51.5403297 29.5835902,52.0716793 27.2675526,52.5319566 C28.0237406,49.0934143 28.8952218,45.6853315 29.919297,42.3212459 M23.8528383,75.3495275 C24.0223872,73.5016495 24.2055,71.6605403 24.4089586,69.819431 C24.4462594,69.491145 24.4869511,69.1662433 24.5242519,68.8413417 C33.7714474,70.4624655 43.4696429,69.9378847 52.1946278,66.1642876 C58.3221241,63.5176931 60.8246654,58.224504 62.2047932,51.9159972 C63.3272068,46.7954121 64.4801391,41.6105236 65.2600639,36.4188662 C67.043718,24.5261127 65.4906504,12.4302956 55.5076128,4.74434134 C46.0332218,-2.54563906 32.8524925,0.811677822 24.7853571,8.59577946 C17.3794624,15.7436154 13.4255827,26.5635167 10.1227707,36.1616524 C6.81995865,45.7462506 4.73450752,55.7268226 3.26282331,65.7649294 C0.431357143,85.0728858 -4.91960526,113.44086 17.3285977,123.052533 C28.6171617,127.929442 40.8111165,125.394532 50.1702143,117.590124 C59.0037105,110.218918 63.5442293,98.0554136 63.8595902,86.6466281 C64.0223571,80.8762397 59.4275827,75.9993308 54.0393195,75.258149 C48.9189436,74.550811 42.5947707,77.8708996 41.6113872,83.5668314 C41.038312,86.8903043 40.139703,90.1460894 39.1122368,93.3544931 C39.0647632,93.5034063 39.0342444,93.6489352 39.0105075,93.7775421 C38.7256654,94.3833482 38.2678835,95.0466891 38.0237331,95.4798913 C37.7253271,96.0010876 37.3760564,96.5019776 37.0878233,97.0299428 C36.979312,97.1890092 36.8945376,97.3142317 36.8199361,97.4225323 C36.6096955,97.6695929 36.4096278,97.9234223 36.1926053,98.1637141 C35.7890789,98.5969163 35.331297,98.9962746 34.9379436,99.4362455 C34.8463872,99.5479305 34.7683947,99.6359246 34.7039662,99.7171501 C34.6497105,99.750994 34.5920639,99.7848379 34.5310263,99.8220662 C33.9443872,100.174043 33.381485,100.559864 32.777891,100.884765 C32.5710414,100.99645 32.4116654,101.091213 32.2895902,101.172439 C31.6656504,101.345043 30.8043421,101.480418 30.5941015,101.548106 C30.3872519,101.615794 30.2414398,101.676713 30.1397105,101.727479 C29.6344549,101.734248 29.1122444,101.697019 28.8409662,101.697019 C28.4340489,101.700404 28.0271316,101.690251 27.6202143,101.663175 C27.518485,101.653022 27.4337105,101.649638 27.3625,101.646254 C26.9250639,101.504109 26.5147556,101.355196 26.3655526,101.324736 C26.2265226,101.297661 26.1078383,101.270586 26.0095,101.253664 C25.7416128,101.108135 25.4669436,100.945684 25.2465301,100.806924 C25.1753195,100.722314 25.0905451,100.630936 24.9955977,100.529404 C24.8192669,100.343263 24.6158083,100.058974 24.4632143,99.8423726 C24.2292368,99.4159392 23.9952594,98.9928902 23.747718,98.5867631 C23.7307632,98.5055377 23.7171992,98.4209279 23.6968534,98.3295493 C23.4832218,97.2939254 23.2153346,96.2413795 22.9779662,95.2091399 C22.9745752,95.1211457 22.9745752,95.0263827 22.9711842,94.9214666 C22.9542293,93.9569148 22.8694549,92.9957475 22.855891,92.0311958 C22.8355451,90.4202252 22.8898008,88.812639 22.9745752,87.2084372 C23.1780338,83.2486985 23.4967857,79.2923442 23.8528383,75.3495275" id="Fill-41" fill="#2930C3" mask="url(#mask-12)"></path>
                </g>
                <path d="M44.5236218,117.245281 C39.3157396,119.597489 34.3436607,122.04591 28.7820737,123.49572 C23.5034506,124.872542 18.1102945,125.5228 12.7339815,126.355528 C11.7402394,126.508139 11.770557,128.170279 12.7339815,128.352749 C23.7358852,130.416323 37.4427885,127.407221 46.8648107,121.296123 C49.431697,119.633983 47.2084097,116.031023 44.5236218,117.245281" id="Fill-44" fill="#495DEA"></path>
                <path d="M97.7810249,98.0599672 C97.4276419,96.9738308 96.2254792,96.6606504 95.4031207,97.4102844 C93.8244565,98.8462499 93.4314418,101.218425 92.3481743,103.047532 C91.0931693,105.173161 89.441847,107.022258 87.6055765,108.624809 C83.6192843,112.103111 77.7537873,115.508115 72.3440552,114.748486 C71.2739983,114.595227 70.3921922,116.094495 71.5382099,116.72752 C77.3805884,119.939285 84.1179837,116.504295 89.0025952,112.702818 C91.3540783,110.870379 93.4281392,108.748082 95.1323038,106.259297 C96.6350072,104.060371 98.6760416,100.828615 97.7810249,98.0599672" id="Fill-46" fill="#495DEA"></path>
                <path d="M142.63025,96.8606137 C142.291655,95.853182 141.074016,95.6956682 140.494498,96.5718385 C139.244302,98.471848 139.00989,100.883777 138.049453,102.947864 C137.141107,104.900378 135.956025,106.751164 134.575601,108.378806 C133.19192,110.016293 131.56406,111.453606 129.740858,112.543076 C127.334881,113.983671 125.274011,113.645672 122.754084,114.233067 C122.063872,114.393863 121.82946,115.237217 122.125731,115.827894 C124.873558,121.275244 133.432843,115.073141 136.128579,112.474164 C139.582897,109.140123 144.372059,102.029033 142.63025,96.8606137" id="Fill-48" fill="#495DEA"></path>
                <path d="M217.762462,100.041976 C217.429794,98.9874558 216.228861,98.6583379 215.433783,99.4038906 C213.254805,101.452482 212.646022,105.304504 211.049213,107.887072 C209.126389,110.993542 206.558189,113.693652 203.570826,115.70866 C200.300696,117.911735 196.531562,119.271865 192.662628,119.752109 C189.452378,120.151752 185.659958,118.979689 182.645981,120.111452 C182.007258,120.353252 181.777717,121.118955 182.253433,121.659649 C184.818306,124.564618 190.200882,124.117958 193.640673,123.681373 C197.862236,123.144038 202.003958,121.666366 205.603431,119.305449 C208.960055,117.102374 211.834311,114.194046 214.113089,110.825625 C215.952746,108.102007 218.850288,103.484281 217.762462,100.041976" id="Fill-50" fill="#495DEA"></path>
                <path d="M216.837464,56.9464393 C216.614346,56.1637027 215.721876,55.7367554 215.025882,56.1772565 C213.953586,56.8549506 213.50735,57.8443839 212.678152,58.7796016 C211.509282,60.0909396 209.937469,60.951611 208.372316,61.6225281 C206.650647,62.3612146 204.845726,62.8999813 203.004173,63.164282 C201.265854,63.4150288 199.554176,63.1575051 197.839168,63.4997405 C197.053261,63.6556102 196.680288,64.9398404 197.339651,65.4786071 C200.886221,68.382526 206.597365,66.5290329 210.337083,64.872071 C213.117727,63.6420563 217.946391,60.7855759 216.837464,56.9464393" id="Fill-52" fill="#495DEA"></path>
                <path d="M13.4775869,16.3766544 C7.92808419,13.4598012 3.80290145,28.3305437 4.00727407,31.8756922 C4.07015796,32.9825339 5.43159403,33.4513138 6.00383736,32.4486455 C7.58851122,29.6717753 7.80860481,26.2112676 9.14488733,23.2846481 C9.6982655,22.0736332 10.3994208,20.8788954 11.389842,20.0227208 C12.3739747,19.1730571 13.2103304,19.1079488 13.8611786,17.9359989 C14.1378676,17.4314093 13.9963789,16.6501094 13.4775869,16.3766544" id="Fill-54" fill="#FFFFFF"></path>
                <path d="M79.4467101,5.62159083 C77.6674745,4.26916886 75.2443251,5.43469835 73.376975,6.18906437 C70.9267134,7.17789551 68.5476213,8.52352138 66.6396029,10.4128345 C64.802754,12.2307886 63.3081961,14.5992261 62.2881011,16.9914499 C61.0883879,19.8118273 60.766431,22.5472537 60.0174576,25.4695725 C59.8751187,26.0166578 60.6444263,26.2171424 60.8308224,25.7006396 C61.7221347,23.2302608 63.4810361,20.7836683 64.8569783,18.5341624 C66.1380279,16.4409666 67.324185,14.2764118 69.2355924,12.706515 C71.1164985,11.1604044 73.3295287,10.4060384 75.6069502,9.70943914 C77.3048493,9.18953823 79.0739178,9.04002424 79.8601705,7.24585641 C80.1414592,6.61382001 79.9957313,6.03955038 79.4467101,5.62159083" id="Fill-56" fill="#FFFFFF"></path>
                <path d="M89.4404578,6.11336823 C88.2264199,4.9595833 85.1737813,4.50897575 83.7878132,5.70868247 C83.7141288,5.74599393 83.6404444,5.77756515 83.5702688,5.81774672 C82.6965826,6.28557494 82.8544777,7.39343809 83.85448,7.65174815 C83.9141292,7.66609871 83.9702697,7.68331938 84.029919,7.70054005 C84.4544814,7.96746044 84.938693,8.11670626 85.4930803,8.30900375 C86.1211519,8.52426213 86.7843113,8.84571465 87.4685234,8.96051912 C89.4720368,9.2963222 90.8123908,7.41639898 89.4404578,6.11336823" id="Fill-58" fill="#FFFFFF"></path>
                <path d="M125.959918,14.0815982 C123.050931,13.3946172 120.232091,17.2093435 118.900683,19.3759759 C117.444456,21.7473815 116.050639,25.334215 117.853587,27.8080072 C118.044283,28.0689278 118.370201,28.0590195 118.560897,27.8080072 C120.093403,25.7900005 120.39505,23.1741882 121.827006,21.0438865 C122.586325,19.9143312 123.543274,18.8838597 124.680518,18.1044005 C125.790024,17.3414552 126.514671,17.1036541 126.944604,15.7759312 C127.169973,15.0823446 126.681097,14.2500407 125.959918,14.0815982" id="Fill-60" fill="#FFFFFF"></path>
                <path d="M161.954169,4.26259682 C158.530887,2.90229201 154.667949,7.14563089 152.842199,9.68012916 C150.358642,13.1181135 147.908647,18.616858 148.002619,22.965096 C148.029469,24.0242388 149.368576,24.38631 149.908917,23.4997432 C151.979667,20.0955973 152.244803,15.8759453 154.627676,12.525941 C155.718427,10.996444 156.976986,9.79517981 158.587942,8.88154225 C159.984104,8.08633919 161.440676,7.90022784 162.58177,6.72941823 C163.400673,5.88684137 162.924098,4.6483549 161.954169,4.26259682" id="Fill-62" fill="#FFFFFF"></path>
                <path d="M209.608642,6.34841808 C207.550697,4.25459908 203.800965,5.02947698 201.234467,5.81424693 C197.874626,6.84302099 194.921628,8.83462206 192.348349,11.1823372 C187.313672,15.7689549 182.594299,22.1031695 181.031346,28.809985 C180.773679,29.9244903 182.170505,30.4289853 182.807892,29.5584841 C186.354202,24.6915915 189.354666,19.6037762 193.646854,15.2974335 C195.853975,13.0816124 198.373008,11.030659 201.336178,9.92274847 C203.977264,8.93683999 206.879407,9.69193377 209.327243,8.51148149 C210.147709,8.11579916 210.188393,6.93864422 209.608642,6.34841808" id="Fill-64" fill="#FFFFFF"></path>
                <path d="M217.922255,12.6652482 C217.855414,12.4254614 217.838704,12.4254614 217.865441,12.6718177 L217.791916,12.1166948 C217.698339,11.692962 217.417608,11.3414936 217.160271,11.0130185 C216.826068,10.5892857 216.505232,10.2312478 216.07411,9.90605747 C215.676408,9.60714514 215.261995,9.29837856 214.780742,9.14728002 C214.586904,9.0881545 214.379698,9.06187649 214.175834,9.03559849 C213.935207,8.97975772 213.691239,8.98961198 213.450612,9.06516125 C213.286853,9.094724 213.286853,9.09143925 213.44727,9.05530699 C212.605077,9.04216799 211.732806,9.99474575 212.077036,10.8684895 C212.090404,10.6451264 212.103772,10.6714044 212.123824,10.9440388 C212.140535,11.072144 212.157245,11.2002493 212.177297,11.3283546 C212.237454,11.5615719 212.367793,11.8144977 212.484764,12.0247218 C212.701996,12.4188919 213.056252,12.7900687 213.350351,13.1382523 C213.567584,13.3944629 213.811552,13.6276802 214.045495,13.867467 C214.252701,14.0842606 214.489985,14.3339017 214.750664,14.475146 C214.917766,14.5441257 215.081525,14.6163902 215.245285,14.68537 C215.041421,14.5966817 215.038079,14.6163902 215.235259,14.7444955 C215.803405,15.1813674 216.759227,15.0072756 217.267216,14.6032512 C217.805284,14.1696641 218.166224,13.3649002 217.922255,12.6652482" id="Fill-66" fill="#FFFFFF"></path>
                <path d="M212.372772,82.0044888 C211.678444,82.0608185 211.07008,82.0713803 210.372445,82.5008943 C209.797144,82.8529549 209.198699,83.3387985 208.73912,83.8457658 C207.879475,84.8033707 207.310787,86.1095156 207.026443,87.3945368 C206.821451,88.3274974 207.849718,89.4857769 208.679606,88.7851762 C209.430142,88.1585083 210.230273,87.6304174 211.027098,87.0847235 C211.94295,86.4650968 212.753,85.8560319 213.536599,85.0709368 C214.545028,84.0570022 213.794492,81.8883088 212.372772,82.0044888" id="Fill-68" fill="#FFFFFF"></path>
                <path d="M43.4096701,106.519714 C42.0932571,105.595003 40.1692688,106.126087 38.6993287,106.425994 C37.0072643,106.775885 35.5895887,107.200752 34.2993079,108.341022 C33.6166024,108.940835 34.2111115,109.906159 34.9885465,109.971764 C36.5760818,110.109221 37.9904909,109.71247 39.5551605,109.478168 C40.9891687,109.265734 42.5375056,109.368827 43.6513936,108.353518 C44.2589688,107.803689 44.0041792,106.93521 43.4096701,106.519714" id="Fill-70" fill="#FFFFFF"></path>
                <path d="M85.4258345,92.3214431 C85.1526567,92.034146 84.6780103,91.9394326 84.2955614,92.0373031 C83.0662614,92.3530142 82.6599094,93.5590307 82.0896508,94.4998498 C81.5262216,95.4311976 80.9457188,96.4446303 80.2388713,97.2844218 C79.6686126,97.9600436 80.1637474,99.3176014 81.2530438,98.9324339 C82.7486922,98.4020392 83.9848217,97.6822178 84.9067967,96.4130592 C85.7536479,95.2480851 86.5936696,93.5527164 85.4258345,92.3214431" id="Fill-72" fill="#FFFFFF"></path>
                <path d="M141.573241,49.4849593 C141.22076,49.0462267 140.697074,48.8501972 140.146532,49.1302393 C139.06559,49.6778772 138.760106,50.9162856 137.967863,51.7284077 C137.118551,52.5996498 135.899974,53.0197129 135.198369,54.0154182 C134.694824,54.7248582 135.21851,55.6614435 136.000683,55.8948119 C137.669093,56.3833298 139.465069,55.0764666 140.462087,53.9065129 C141.405393,52.805014 142.674325,50.854054 141.573241,49.4849593" id="Fill-74" fill="#FFFFFF"></path>
                <path d="M206.986947,52.7890695 C206.901334,52.3361657 206.443489,52.0159598 205.862809,52.0015361 C205.163014,51.9784582 204.425996,52.2207762 203.75598,52.3678978 C203.260912,52.4775178 202.933349,52.8756116 203.011518,53.2765901 C203.082241,53.6573755 203.510307,54.0323914 204.035153,53.9977745 C204.712614,53.9545035 205.535245,53.992005 206.168038,53.7900734 C206.696606,53.6198739 207.076282,53.2708206 206.986947,52.7890695" id="Fill-76" fill="#FFFFFF"></path>
            </g>
        </g>
    </g>
</svg>