<?xml version="1.0" encoding="UTF-8"?>
<svg width="74px" height="85px" viewBox="0 0 74 85" version="1.1" xmlns="http://www.w3.org/2000/svg" xmlns:xlink="http://www.w3.org/1999/xlink">
    <!-- Generator: Sketch 51.2 (57519) - http://www.bohemiancoding.com/sketch -->
    <title>Tita</title>
    <desc>Created with Sketch.</desc>
    <defs>
        <polygon id="path-1" points="0.0675613786 0.15130533 17.22528 0.15130533 17.22528 14.6296534 0.0675613786 14.6296534"></polygon>
        <polygon id="path-3" points="0 0.13025268 14.7322049 0.13025268 14.7322049 14.5031556 0 14.5031556"></polygon>
        <polygon id="path-5" points="0.0427636021 0.156417594 10.5181252 0.156417594 10.5181252 11.9551812 0.0427636021 11.9551812"></polygon>
        <polyline id="path-7" points="0.14650307 2.45067248 0.115109555 0.220532956 3.96438258 0.178493862 3.99530044 2.40932255"></polyline>
        <polyline id="path-9" points="0.26341791 2.44125388 0.227385615 0.211344083 4.64570923 0.169075267 4.68064963 2.39990395"></polyline>
        <polygon id="path-11" points="0.160693982 0.00607238901 15.4980661 0.00607238901 15.4980661 15.2668244 0.160693982 15.2668244"></polygon>
    </defs>
    <g id="Page-1" stroke="none" stroke-width="1" fill="none" fill-rule="evenodd">
        <g id="Prowell" transform="translate(-1021.000000, -5132.000000)">
            <g id="7" transform="translate(0.000000, 4800.000000)">
                <g id="Tita" transform="translate(1021.000000, 332.000000)">
                    <path d="M46.0707702,71 C46.0707702,71 46.657991,74.6642459 45.6514721,76.1980561 C45.6514721,76.1980561 55.5520466,75.2606128 53.7898751,82.0777483 C53.7898751,82.0777483 51.1891074,85.315907 45.6514721,84.9748306 C45.6514721,84.9748306 37.5965216,83.7820968 38.0158197,79.1804076 L39.2744772,72.4487996 L46.0707702,71 Z" id="Fill-1" fill="#1E2303"></path>
                    <g id="Group-5" transform="translate(37.000000, 70.000000)">
                        <mask id="mask-2" fill="white">
                            <use xlink:href="#path-1"></use>
                        </mask>
                        <g id="Clip-4"></g>
                        <path d="M8.34615408,13.6564591 C8.60304823,13.6710887 8.86045668,13.6782796 9.11195066,13.6782796 C13.3847767,13.6782796 15.6618515,11.543094 16.0709792,11.1200739 C16.3942184,9.84729406 16.2442992,8.80982847 15.6245645,8.03495277 C14.2570339,6.32576293 10.8662368,6.14128052 9.47170533,6.14128052 C8.79462595,6.14128052 8.34383972,6.18045823 8.33946815,6.18095415 L7.31060579,6.27220352 L7.88353889,5.44352044 C8.52281702,4.51838084 8.43641419,2.44692111 8.300124,1.28944277 L2.27198318,2.509903 L1.06594358,8.63476855 C0.728303917,12.4369907 7.92031152,13.5914935 8.34615408,13.6564591 M9.11195066,14.6297029 C8.8334558,14.6297029 8.548275,14.6212723 8.26412281,14.604411 L8.22272145,14.6006916 C8.13683292,14.5882936 6.0981374,14.2952046 4.07821392,13.4409816 C1.27140747,12.254244 -0.109237873,10.5544766 0.0856828137,8.52541809 L0.0921115963,8.48053729 L1.4254411,1.70923943 L9.12197956,0.15130533 L9.20478228,0.643010459 C9.2595555,0.967342435 9.65556851,3.48463465 9.0810925,5.19407245 C9.20092501,5.19159285 9.33181502,5.18985713 9.47170533,5.18985713 C11.384911,5.18985713 14.8297098,5.48393796 16.405533,7.45398196 C17.2394747,8.49640675 17.4382527,9.84754202 16.9967239,11.4704417 L16.9694658,11.5703697 L16.901835,11.6504608 C16.7989745,11.7719613 14.321836,14.6297029 9.11195066,14.6297029" id="Fill-3" fill="#000000" mask="url(#mask-2)"></path>
                    </g>
                    <path d="M48.5630628,79.306609 C49.2804002,79.3311166 49.661425,80.014333 49.9245945,80.6809388 C50.0531417,81.0063448 50.4713456,81.0798675 50.7218791,80.9151222 C51.0183397,80.7204232 51.0596497,80.3473636 50.9311025,80.0216853 C50.4895706,78.9049572 49.700305,78.0390233 48.5630628,78.0003558 C47.8112193,77.9753036 47.8134063,79.2815568 48.5630628,79.306609" id="Fill-6" fill="#626B20"></path>
                    <path d="M21.9292298,70 C21.9292298,70 21.3417545,73.6639875 22.3485279,75.1977977 C22.3485279,75.1977977 12.4479534,74.2603544 14.2101249,81.0777483 C14.2101249,81.0777483 16.811147,84.315907 22.3485279,83.9748306 C22.3485279,83.9748306 30.4034784,82.7818384 29.9841803,78.1804076 L28.7255228,71.4487996 L21.9292298,70 Z" id="Fill-8" fill="#1E2303"></path>
                    <path d="M15.1438482,81.3639322 C15.5469127,81.7998801 17.8035131,84.0140435 22.039002,84.0143004 L22.0395115,84.0143004 C22.2884331,84.0143004 22.5432147,84.0065936 22.7974867,83.9914369 C23.2191502,83.9246446 30.3451361,82.7277787 30.0106079,78.7890906 L28.8156823,72.4433122 L22.8430926,71.1793972 C22.708568,72.378832 22.6234709,74.5262031 23.2558388,75.4826169 L23.8240017,76.3414112 L22.8041111,76.2466176 C22.7997798,76.2463607 22.3531477,76.2052577 21.6823078,76.2052577 C20.3008821,76.2052577 16.9410774,76.3966433 15.586149,78.1676657 C14.9721254,78.9702004 14.823333,80.0452989 15.1438482,81.3639322 M22.0392568,85 L22.039002,85 C16.8776368,84.9997431 14.4225616,82.0393047 14.3209037,81.9131701 L14.2536414,81.8304504 L14.2263797,81.7269224 C13.7889198,80.0458126 13.9861207,78.6457441 14.8123774,77.5655078 C16.3736789,75.5244905 19.7869876,75.219815 21.6823078,75.219815 C21.820909,75.219815 21.9505928,75.2213564 22.069321,75.2239253 C21.4998842,73.4529029 21.8925026,70.845179 21.9467711,70.5089056 L22.0288107,70 L29.6544233,71.6138037 L30.9820901,78.6760575 C31.1749597,80.7779586 29.8070374,82.5389622 27.0260965,83.7684535 C25.0247873,84.6534509 23.0048789,84.9573557 22.9197819,84.9696866 L22.8787621,84.9740538 C22.5974832,84.9910087 22.3149304,85 22.0392568,85" id="Fill-10" fill="#000000"></path>
                    <path d="M19.4369372,78.3063103 C18.7195998,78.3305499 18.338575,79.0144315 18.0751625,79.6808825 C17.9468583,80.0063459 17.5286544,80.0798816 17.2781209,79.9151072 C16.9816603,79.7203739 16.9403503,79.3469761 17.0688975,79.0215127 C17.5104294,77.9043154 18.299695,77.0385011 19.4369372,77.0003715 C20.1887807,76.9747701 20.1865937,78.2809814 19.4369372,78.3063103" id="Fill-12" fill="#626B20"></path>
                    <path d="M13.967469,34.9370733 C13.7430611,34.0881674 11.4347939,32.8811096 10.7464076,32.2433567 C8.41514363,30.0838371 4.80768632,27.0499015 2.25757412,30.7076983 C0.27277765,33.554223 0.608378582,37.8136544 3.47109496,39.8516853 C4.83876984,40.8251108 7.82202963,43.5650487 9.52934883,42.8959765 C10.9298762,42.3473827 14.3700385,36.4626287 13.967469,34.9370733" id="Fill-14" fill="#1E2303"></path>
                    <g id="Group-18" transform="translate(0.000000, 28.000000)">
                        <mask id="mask-4" fill="white">
                            <use xlink:href="#path-3"></use>
                        </mask>
                        <g id="Clip-17"></g>
                        <path d="M4.84342825,0.988038022 C3.82017065,0.988038022 2.95557426,1.46715917 2.20059347,2.45295398 C0.127009371,5.15943985 0.664635026,8.92950152 3.37420401,10.6857914 C3.63524458,10.8547639 3.93863054,11.0693321 4.28945406,11.3175486 C5.6000171,12.2448248 7.58060214,13.6456141 8.90295756,13.6456141 C9.07046306,13.6456141 9.22188804,13.621719 9.35374837,13.5746603 C10.7307776,13.0835916 14.1205529,7.58503638 13.7766976,6.39979063 C13.6633299,6.00917888 12.4398697,5.25892149 11.7087417,4.81052262 C11.2027411,4.49988631 10.7658867,4.23191983 10.4960019,4.00442872 C9.33498775,3.02521725 6.91888841,0.988038022 4.84342825,0.988038022 M8.90295756,14.5031556 C7.25711552,14.5029118 5.20765221,13.0528693 3.71082306,11.9944139 C3.36830781,11.7522931 3.0724261,11.5428453 2.82746605,11.3841135 C-0.294032456,9.36107629 -0.935377517,5.04654769 1.42712007,1.96261676 C2.35845065,0.746648742 3.50767239,0.13025268 4.84342825,0.13025268 C6.99232282,0.13025268 9.13800128,1.69001756 11.1365429,3.37559745 C11.353094,3.55822429 11.7819081,3.82107039 12.235647,4.09927764 C13.5521062,4.90707833 14.4987133,5.5288386 14.6879275,6.18083348 C15.1874959,7.90371899 11.3289732,13.7911792 9.69760366,14.3729517 C9.45585972,14.4592667 9.18838694,14.5031556 8.90295756,14.5031556" id="Fill-16" fill="#000000" mask="url(#mask-4)"></path>
                    </g>
                    <path d="M29.8756663,6.39255633 C31.4534066,4.68109607 34.9342945,4.84275665 37.7753807,5.32875833 C45.3024894,6.61796319 49.8736622,12.6463219 53.273526,18.4145957 C55.340295,21.9208964 56.7213749,25.7158402 58.592008,29.306286 C61.0725504,34.0681335 64.7540318,38.2927273 66.2355396,43.4605111 C70.3048352,57.6591036 57.5022476,71.1116097 42.6743207,73.525554 C41.544966,73.7099082 29.7663231,74.3802642 29.7587189,73.7053185 C29.6769082,66.4168233 29.6832014,59.112009 29.4967674,51.8217288 C29.1912883,39.8307976 29.6404605,27.7937141 29.0239959,15.8226718 C28.9117684,13.6361742 29.2403223,11.5177576 29.0496929,9.35293381 C28.9322211,8.01783161 29.2581528,7.06189232 29.8756663,6.39255633" id="Fill-19" fill="#1E2303"></path>
                    <path d="M30.2437366,73.3488599 C30.4069992,73.4017731 30.9694922,73.5070857 32.8626666,73.5070857 C36.3750136,73.5070857 41.94535,73.1585267 42.6998254,73.0326653 C50.9028049,71.6695093 58.6617928,66.6661334 62.9487965,59.9754442 C66.3842988,54.6140055 67.3530079,48.7637622 65.7503945,43.0555625 C64.817391,39.7328216 62.9490553,36.734238 61.1428163,33.8342886 C60.1386603,32.2224921 59.100351,30.5559845 58.2260806,28.8427283 C57.4547874,27.3313641 56.757234,25.7614358 56.0832256,24.2431363 C55.1416837,22.1240414 54.1683173,19.9327687 52.9840807,17.8819985 C47.0541007,7.61145155 41.7888145,5.50648388 37.8640417,4.82015397 C36.6200369,4.60285041 35.4883238,4.49265747 34.4999507,4.49265747 C32.5025055,4.49265747 31.0882522,4.93728213 30.2967775,5.81368844 C29.6949566,6.47972641 29.4416537,7.42060458 29.544372,8.61012322 C29.6470904,9.8032379 29.5981892,10.9968663 29.5508404,12.151452 C29.5107363,13.1259788 29.4690797,14.1338974 29.519792,15.1361652 C29.8758134,22.2003288 29.8716736,29.4029399 29.8672751,36.3679556 C29.8641702,41.2999244 29.8610654,46.3998796 29.9862938,51.406081 C30.1122985,56.4431055 30.1495565,61.5684899 30.1857796,66.5248604 C30.2023387,68.8006399 30.2188979,71.0753921 30.2437366,73.3488599 M32.8626666,74 C29.9707696,74 29.7523961,73.7860356 29.748515,73.4595666 C29.7229001,71.1503952 29.706341,68.8396827 29.6892644,66.5284564 C29.6533,61.5741408 29.616042,56.4510682 29.4900374,51.4186671 C29.3650677,46.4055306 29.3679138,41.3027499 29.3707599,36.3676988 C29.3751584,29.4085909 29.3795569,22.2124012 29.0240531,15.1605669 C28.9723058,14.136466 29.0142211,13.1169887 29.054584,12.1314169 C29.1014153,10.9922428 29.149799,9.81453974 29.049668,8.65224826 C28.9350477,7.32171348 29.230266,6.25600135 29.9270432,5.48439392 C30.8168377,4.49959269 32.3555432,4 34.4999507,4 C35.5170436,4 36.6777352,4.11276154 37.9502009,4.33468858 C45.6245819,5.67678206 50.2458732,12.1486265 53.4146181,17.6369541 C54.6117915,19.710328 55.5905914,21.913673 56.5370493,24.0445836 C57.2089878,25.5567184 57.9034363,27.120482 58.6687786,28.6200307 C59.5334758,30.3145361 60.5663516,31.9723105 61.5648154,33.5751169 C63.3896834,36.5043483 65.2766481,39.5332414 66.2287982,42.9235364 C67.8699633,48.76967 66.8805552,54.7575902 63.3676908,60.2397531 C59.0074646,67.044745 51.1193673,72.1331415 42.7818448,73.5189012 C42.0165025,73.6463038 36.3957125,74 32.8626666,74" id="Fill-21" fill="#000000"></path>
                    <path d="M60.9435225,49.4862541 C60.6571457,46.1900399 58.9810829,40.6999021 56.53646,38.3796109 C54.7332901,36.6685738 52.6118381,35.0839042 52.4173181,32.3898391 C52.0797384,27.7160154 51.1529379,22.6044728 49.4784188,18.2364181 C44.5315375,5.3294177 28.7180362,5.23603765 19.9625761,14.5512049 C15.1258199,19.6970038 16.466876,25.3223904 14.8031637,31.6027062 C14.7362652,31.8551875 14.6554725,32.0980264 14.5628439,32.331984 C13.0180049,36.2450648 9.93244366,38.6574673 8.91069886,43.0036995 C7.12991422,50.5796634 7.67976782,60.0747395 13.0959673,66.0104625 C16.9753041,70.2615385 22.5330194,73.17865 28.2006026,73.8155628 C32.1540423,74.2603868 36.5649642,73.8724028 40.4252607,72.9548423 C47.5602351,71.2590302 54.241844,66.9173655 58.1227246,60.4431847 C60.0877372,57.165748 61.2795584,53.3633023 60.9435225,49.4862541" id="Fill-23" fill="#7EAD40"></path>
                    <path d="M35.1799295,8.23173514 C29.9299843,8.23173514 24.750503,10.5772979 20.9695381,14.6665559 C17.8296665,18.0624972 17.4273817,21.5925294 16.9618075,25.6799891 C16.7427288,27.6024721 16.5162194,29.5907161 15.975569,31.6652715 C15.9048489,31.936022 15.8169612,32.2072863 15.714212,32.4716149 C15.0267406,34.2417685 14.0448581,35.7180526 13.0950047,37.1450158 C11.8453594,39.0230587 10.665153,40.7968087 10.1116911,43.1904078 C8.48897144,50.2073165 8.69472604,59.8657127 14.1376142,65.9296 C17.9126858,70.1347104 23.3911903,73.0140679 28.7923126,73.6313483 C29.8520897,73.7523384 30.9756687,73.8137325 32.1323016,73.8137325 C34.9529076,73.8139893 37.9336589,73.4541018 40.7527275,72.7731153 C48.117871,70.9934571 54.4012013,66.4806056 57.9915294,60.3920579 C60.0721363,56.8645945 61.0148152,53.1555176 60.7173294,49.6660723 C60.4521289,46.5604044 58.8440145,41.0611372 56.5148622,38.8139591 C56.2888652,38.5961257 56.0577436,38.3800904 55.826622,38.1637982 C54.1480437,36.5950377 52.4123256,34.9728464 52.2257884,32.3503679 C51.8593761,27.1909518 50.8336779,22.1643422 49.3375371,18.1960743 C46.9850676,11.9567385 41.6925879,8.23173514 35.1799295,8.23173514 M32.1325578,75 L32.1323016,75 C30.9295468,75 29.7588211,74.9588993 28.6531784,74.832258 C22.8771881,74.1723356 17.2536561,71.2308134 13.2241458,66.7421085 C7.46557932,60.3268106 7.22215856,50.2258118 8.91457342,42.9065565 C9.51851313,40.2943532 10.8168426,38.3456686 12.0728937,36.458378 C13.0278718,35.0226809 13.930066,33.6686713 14.5691095,32.023104 C14.6546911,31.8024449 14.7282298,31.5774188 14.786907,31.3529065 C15.3052651,29.3633781 15.5266499,27.4198311 15.7408602,25.5397331 C16.2107904,21.4160534 16.6543286,17.5209961 20.0683688,13.8288732 C24.0812241,9.48890131 29.5891953,7 35.1799295,7 C42.2240138,7 47.9464515,11.0227262 50.4869955,17.7606643 C52.0241335,21.8373351 53.0769924,26.9877605 53.4516041,32.2627722 C53.6035499,34.4018042 55.0904664,35.79152 56.6645019,37.2629233 C56.9007482,37.4835824 57.1362257,37.7039846 57.3668349,37.9264419 C58.8550325,39.3623959 59.9025105,41.7020505 60.5192618,43.4120945 C61.2554174,45.4542831 61.7873558,47.7530939 61.941864,49.5612657 C62.2611295,53.30759 61.2610545,57.2694359 59.0492566,61.0190997 C55.2908401,67.3927832 48.7269353,72.0905876 41.0404764,73.9475664 C38.1291642,74.6511582 35.0487385,75 32.1325578,75" id="Fill-25" fill="#000000"></path>
                    <path d="M17.6961263,33.1202726 C17.7762051,32.9076605 17.8464993,32.6866357 17.9046916,32.4566883 C19.348942,26.7477728 18.1845811,21.6333554 22.382151,16.9556341 C29.9813952,8.48709509 43.7065371,8.57249684 48.0004074,20.3056769 C49.4534124,24.2772405 50.257805,28.9243701 50.5510838,33.1727883 C50.7197385,35.6219064 52.5610354,37.0622642 54.1257901,38.6175957 C56.248264,40.7274012 57.7028138,45.7181772 57.9510323,48.7146313 C58.2425088,52.2393016 57.2081793,55.6959053 55.5028361,58.675534 C52.1343777,64.5616262 46.3357473,68.5084615 40.1426452,70.0497718 C36.792211,70.8839047 32.9636215,71.2364737 29.5325935,70.8326637 C24.6132847,70.2532064 19.7897615,67.6014185 16.422848,63.7366709 C11.7221466,58.3408101 11.2447638,49.7088606 12.7904644,42.8216559 C13.6769957,38.8704868 16.3551287,36.677319 17.6961263,33.1202726" id="Fill-27" fill="#C4DF48"></path>
                    <path d="M57.951275,48.9229543 C57.7042408,45.9541003 56.2563742,41.0100608 54.1440264,38.9201922 C52.586737,37.3794362 50.754481,35.952604 50.5866309,33.525774 C50.2947513,29.3169228 49.4939401,24.7131357 48.0478673,20.7792206 C46.2458499,15.8769532 42.7743014,13.0275926 38.7945901,12 C40.4008252,13.4569587 41.7328625,15.4035366 42.6405339,17.8723918 C44.0866067,21.8065601 44.8869054,26.4100939 45.1792975,30.618692 C45.3468913,33.0455219 47.1791473,34.4723541 48.736693,36.0133633 C50.8490408,38.103232 52.2966511,43.0475246 52.5439416,46.0161255 C52.8337712,49.5075099 51.8043765,52.931806 50.1071693,55.8839512 C46.7550377,61.7148241 40.9838157,65.6249418 34.8202603,67.1520269 C31.4858106,67.9786073 27.6754869,68.3274673 24.2610843,67.927215 C22.8206492,67.7586078 21.3896957,67.4079757 20,66.9049389 C22.867801,69.0244277 26.2437647,70.4330321 29.6684177,70.8337907 C33.0830766,71.2345493 36.8934003,70.885183 40.2275937,70.0588558 C46.3911491,68.5320238 52.1623711,64.6216529 55.5145027,58.79078 C57.2117099,55.8386348 58.2413609,52.414592 57.951275,48.9229543" id="Fill-29" fill="#A8BC31"></path>
                    <path d="M48,34.4998732 C48,36.9851503 46.2091932,39 43.9998773,39 C41.7908068,39 40,36.9851503 40,34.4998732 C40,32.0145961 41.7908068,30 43.9998773,30 C46.2091932,30 48,32.0145961 48,34.4998732" id="Fill-31" fill="#CE175E"></path>
                    <path d="M24,35.4998732 C24,37.9851503 22.2089479,40 19.9998773,40 C17.7910521,40 16,37.9851503 16,35.4998732 C16,33.0145961 17.7910521,31 19.9998773,31 C22.2089479,31 24,33.0145961 24,35.4998732" id="Fill-33" fill="#CE175E"></path>
                    <path d="M19,50.5001299 C19,57.9558599 24.5963526,64 31.4996196,64 C38.4036474,64 44,57.9558599 44,50.5001299 C44,43.0441401 38.4036474,37 31.4996196,37 C24.5963526,37 19,43.0441401 19,50.5001299" id="Fill-35" fill="#BA642A"></path>
                    <path d="M19.9043899,50.5001256 C19.9043899,57.4520484 25.3304746,63.1078969 32,63.1078969 C38.6695254,63.1078969 44.0956101,57.4520484 44.0956101,50.5001256 C44.0956101,43.5482028 38.6695254,37.8926056 32,37.8926056 C25.3304746,37.8926056 19.9043899,43.5482028 19.9043899,50.5001256 M19,50.5001256 C19,43.0560513 24.8318257,37 32,37 C39.1684289,37 45,43.0560513 45,50.5001256 C45,57.9439487 39.1684289,64 32,64 C24.8318257,64 19,57.9439487 19,50.5001256" id="Fill-37" fill="#000000"></path>
                    <path d="M29.1988564,45.1368658 C27.0256254,47.0677002 26.9037463,51.1978747 27.3742884,53.919833 C27.6010724,55.2320048 27.0339732,56.5415596 25.5616857,56.9225971 C24.3100605,57.2460602 22.5967976,56.5324 22.369457,55.2176112 C21.5956087,50.7453927 21.7714707,45.0238107 25.5285725,41.6850218 C27.9594747,39.5251986 31.6364369,42.9707617 29.1988564,45.1368658" id="Fill-39" fill="#EDA472"></path>
                    <path d="M30,41.0001206 C30,42.1045172 30.895359,43 31.9998835,43 C33.1044081,43 34,42.1045172 34,41.0001206 C34,39.8954828 33.1044081,39 31.9998835,39 C30.895359,39 30,39.8954828 30,41.0001206" id="Fill-41" fill="#EDA472"></path>
                    <path d="M19.4544651,7.0032658 C19.4544651,7.0032658 9.98466335,3.68511466 11.0896997,9.11767205 C11.0896997,9.11767205 12.4776505,11.6804838 13.5020407,11.8464408 C13.5051726,11.8469355 14.4525703,14.7010995 14.7140834,14.995667 C15.785713,16.2001539 17.1332101,16.3161507 18.4350338,15.3711108 C19.0024285,14.9590625 21.2195481,12.627255 20.9823071,11.8721629 C20.9823071,11.8716682 19.4544651,7.0032658 19.4544651,7.0032658" id="Fill-43" fill="#662D91"></path>
                    <path d="M11.9630421,9.779978 C12.590893,11.0354785 13.5557617,12.4205171 14.0508639,12.5085259 C14.316889,12.5528053 14.384187,12.770077 14.4377615,12.9444444 C15.2909947,15.7076458 15.5155853,16.1254125 15.5517415,16.1806931 C16.4527431,17.2937294 17.5617087,17.419967 18.6925792,16.5170517 C19.3758519,15.9713971 21.1963291,13.6713421 21.110821,13.1226623 C21.0978893,13.0783828 19.9237369,8.96342134 19.6321122,7.94114411 C18.9361716,7.69444444 16.6256066,6.93041804 14.6789787,6.93041804 C13.5045624,6.93041804 12.6943472,7.20187019 12.2697099,7.73817382 C11.9097316,8.1919692 11.8065413,8.87871287 11.9630421,9.779978 M17.2165095,18 L17.2162456,18 C16.3532476,18 15.5388097,17.5819582 14.8605514,16.7428493 C14.7671259,16.6276128 14.5742049,16.4012651 13.6209484,13.3217822 C12.5053849,12.8105061 11.3713475,10.6089109 11.1393673,10.1386139 L11.1103368,10.0827833 L11.0981967,10.0189769 C10.8730783,8.80033003 11.0353853,7.83388339 11.5814228,7.14521452 C12.1834101,6.38531353 13.2256056,6 14.6789787,6 C17.1510589,6 20.0282468,7.09790979 20.1493832,7.14466447 L20.3586668,7.22579758 L20.4225339,7.44829483 C21.5879771,11.5321782 21.8846162,12.5717822 21.9603594,12.8649615 L21.967749,12.8627613 C22.3235048,14.1091859 19.6270979,16.9172167 19.2354498,17.229923 C18.5743458,17.7577008 17.8952957,18 17.2165095,18" id="Fill-45" fill="#000000"></path>
                    <path d="M24,6.52706242 C24,6.52706242 28.1923338,-2.34814956 31.3048049,2.3946093 C31.3048049,2.3946093 32.1723848,5.22136876 31.5812781,6.03942736 C31.5795091,6.04171315 32.9603586,8.7828825 32.9891684,9.17756212 C33.1071875,10.7910754 32.2557816,11.7922511 30.6793287,11.9827336 C29.9919365,12.0657839 26.7912669,11.859301 26.4167393,11.1435949 C26.4164866,11.143087 24,6.52706242 24,6.52706242" id="Fill-47" fill="#662D91"></path>
                    <g id="Group-51" transform="translate(23.000000, 0.000000)">
                        <mask id="mask-6" fill="white">
                            <use xlink:href="#path-5"></use>
                        </mask>
                        <g id="Clip-50"></g>
                        <path d="M3.50394265,10.4769212 C3.72818429,10.7778798 5.61940459,11.1010754 7.18027607,11.1010754 C7.40077589,11.1010754 7.51169398,11.0922311 7.5581994,11.0869245 C9.00254006,10.9226734 9.71001041,10.1150634 9.60443776,8.75102108 C9.59428141,8.7037673 9.47320696,8.27823058 8.2135516,5.88774522 C8.13684439,5.74219347 8.04142811,5.56126456 8.19591162,5.352792 C8.49953319,4.95682048 8.2592552,3.40148883 7.86128643,2.15621274 C7.31738687,1.39610915 6.72217098,1.01125617 6.09167512,1.01125617 C4.13016215,1.01125617 1.8834694,4.5002024 1.05439006,6.07549687 C2.98730488,9.54902877 3.40531909,10.3000354 3.50126992,10.4781847 L3.50394265,10.4769212 Z M7.18027607,11.9551812 C7.14178883,11.9551812 3.29867736,11.9430518 2.70399602,10.8749143 C2.68207967,10.8352413 0.148336245,6.28194788 0.148336245,6.28194788 L0.0427636021,6.09293276 L0.140050797,5.89962184 C0.168648956,5.8422603 0.85928113,4.474933 1.90886029,3.08511593 C3.37618639,1.14189897 4.78337617,0.156392324 6.09167512,0.156392324 C7.05866707,0.156392324 7.92035366,0.688060527 8.65107671,1.73623529 L8.68662395,1.78727948 L8.70586757,1.8456518 C8.85714382,2.31010339 9.53548145,4.52496641 9.07283273,5.60295907 C10.4728062,8.26407972 10.4949898,8.55038203 10.5056807,8.68885835 C10.6465333,10.5034541 9.58492687,11.7171434 7.6661775,11.9352183 C7.54777577,11.9483584 7.38447227,11.9551812 7.18027607,11.9551812 Z" id="Fill-49" fill="#000000" mask="url(#mask-6)"></path>
                    </g>
                    <path d="M26.9269614,9.24336373 C27.3450267,11.4117979 25.9259108,13.5091667 23.7567445,13.9269778 C21.5883826,14.345057 19.4910838,12.9253575 19.0730185,10.7571915 C18.6549532,8.58795275 20.0746054,6.49112034 22.2435035,6.07304108 C24.4121336,5.65496182 26.5091642,7.07412503 26.9269614,9.24336373" id="Fill-52" fill="#662D91"></path>
                    <path d="M22.5044715,5.91644838 C22.2768448,5.91644838 22.0473212,5.93839762 21.8218624,5.98202511 C19.8818868,6.35570409 18.6077193,8.23818987 18.9814064,10.178394 C19.3060454,11.8617108 20.7837221,13.0840936 22.495529,13.0840936 C22.7231557,13.0840936 22.9526793,13.0618734 23.1781381,13.0185168 C25.1181137,12.6445669 26.3922812,10.7618101 26.018323,8.82214795 C25.693955,7.13828922 24.2160074,5.91644838 22.5044715,5.91644838 M22.495529,14 C20.3458117,14 18.4892992,12.4657213 18.081739,10.3518201 C17.6123945,7.91572577 19.2122849,5.55171168 21.6484325,5.0821064 C21.931069,5.02763978 22.2188542,5 22.5044715,5 C24.6544598,5 26.5107013,6.53427875 26.9182614,8.64872189 C27.387606,11.0845452 25.7877155,13.4482883 23.351297,13.9181646 C23.0689315,13.9726312 22.7811463,14 22.495529,14" id="Fill-54" fill="#000000"></path>
                    <path d="M13.644774,8.93513024 C14.2058036,8.59224437 14.9642075,8.62551823 15.6085128,8.71330456 C16.0916742,8.77890833 16.1460197,8.12027484 15.6682658,8.05537902 C14.7941412,7.9364427 13.8883825,7.98529155 13.1462012,8.43861829 C12.747397,8.68215457 13.2486736,9.17701463 13.644774,8.93513024" id="Fill-56" fill="#C39FE2"></path>
                    <path d="M26.5032193,5.83352219 C27.0526818,5.73107506 26.8885567,4.90609025 26.3390941,5.00883781 C25.7896315,5.11128494 25.9537567,5.93596932 26.5032193,5.83352219" id="Fill-58" fill="#C39FE2"></path>
                    <path d="M26.6477767,4.85116645 C27.097851,4.18545915 27.9273099,3.82471809 28.7237125,3.66529304 C29.1714983,3.57576606 29.0377474,2.91843695 28.5891988,3.00844269 C27.6130207,3.20329552 26.6091262,3.66218114 26.0588659,4.47606277 C25.8129779,4.83991573 26.4013801,5.21597692 26.6477767,4.85116645" id="Fill-60" fill="#C39FE2"></path>
                    <path d="M28.2301271,10.7837118 C29.1500761,10.9809787 30.2535714,11.2659446 30.9283814,10.4750917 C31.2006212,10.1559834 30.6280552,9.80808842 30.3580327,10.1251883 C29.9345211,10.6210335 29.0093983,10.3130828 28.4590056,10.1950351 C28.0305666,10.1033194 27.7987316,10.6911034 28.2301271,10.7837118" id="Fill-62" fill="#C39FE2"></path>
                    <path d="M16.4921734,14.983666 C16.9950695,14.8518528 17.4483978,14.6621055 17.874536,14.4259401 C18.2210289,14.2338896 17.7761223,13.8618361 17.4310731,14.0531779 C17.0520964,14.2636539 16.6408767,14.4223967 16.1938045,14.5398593 C15.7859534,14.6466918 16.087691,15.089967 16.4921734,14.983666" id="Fill-64" fill="#C39FE2"></path>
                    <path d="M21.0050031,10.2439689 C21.0879917,10.6667031 21.3906399,11.0091828 21.7998313,10.9998122 C22.0449626,10.9940689 22.0764599,10.5723927 21.8300961,10.5782871 C21.5903056,10.5840304 21.4310386,10.4183827 21.3809168,10.1641678 C21.3286039,9.89816421 20.9525532,9.97751188 21.0050031,10.2439689" id="Fill-66" fill="#C39FE2"></path>
                    <path d="M12.7417799,47.2748021 C11.6285873,50.6384072 11.6925005,54.0747627 13.4531012,57.1678731 C14.0138357,58.1522 15.4332597,58.2247062 16.2326341,57.5882628 C17.1619039,56.848797 17.1876531,55.619609 16.6282979,54.6372352 C15.6615539,52.9383436 15.7824831,50.7665748 16.3809218,48.9570929 C17.2251273,46.4061923 13.591733,44.7063242 12.7417799,47.2748021" id="Fill-68" fill="#E1EAAC"></path>
                    <path d="M21.4997492,33 C17.3581603,33 14,29.4183579 14,25 C14,20.5821727 17.3581603,17 21.4997492,17 C25.6420905,17 29,20.5821727 29,25 C29,29.4183579 25.6420905,33 21.4997492,33" id="Fill-70" fill="#00FFFF"></path>
                    <path d="M41.4996238,33 C37.3579657,33 34,29.4182985 34,24.9998674 C34,20.5819668 37.3579657,17 41.4996238,17 C45.6420343,17 49,20.5819668 49,24.9998674 C49,29.4182985 45.6420343,33 41.4996238,33" id="Fill-72" fill="#00FFFF"></path>
                    <path d="M20.9293556,32.3254665 C16.8137883,32.3254665 13.4774278,28.9890028 13.4774278,24.8733473 C13.4774278,20.7574447 16.8137883,17.4209811 20.9293556,17.4209811 C25.0454212,17.4209811 28.3817817,20.7574447 28.3817817,24.8733473 C28.3817817,28.9890028 25.0454212,32.3254665 20.9293556,32.3254665 M20.9998754,16 C16.0295978,16 12,20.0294081 12,24.9993822 C12,29.9703447 16.0295978,34 20.9998754,34 C25.9704022,34 30,29.9703447 30,24.9993822 C30,20.0294081 25.9704022,16 20.9998754,16" id="Fill-74" fill="#75074E"></path>
                    <path d="M21.9245137,18.1648968 C17.7449443,18.1648968 14.3450002,21.3978128 14.3450002,25.3715165 C14.3450002,29.3449692 17.7449443,32.5776343 21.9245137,32.5776343 C26.1040832,32.5776343 29.5045598,29.3449692 29.5045598,25.3715165 C29.5045598,21.3978128 26.1040832,18.1648968 21.9245137,18.1648968 M21.9245137,33.2998521 C17.3223809,33.2998521 13.5786881,29.7432179 13.5786881,25.3715165 C13.5786881,20.9995641 17.3223809,17.44293 21.9245137,17.44293 C26.5266465,17.44293 30.2708719,20.9995641 30.2708719,25.3715165 C30.2708719,29.7432179 26.5266465,33.2998521 21.9245137,33.2998521 M21.9998669,16.7219669 C16.9083381,16.7219669 12.7660458,20.6595346 12.7660458,25.4994981 C12.7660458,30.3399635 16.9083381,34.2777822 21.9998669,34.2777822 C27.0913956,34.2777822 31.2336879,30.3399635 31.2336879,25.4994981 C31.2336879,20.6595346 27.0913956,16.7219669 21.9998669,16.7219669 M21.9998669,35 C16.4857748,35 12,30.7384632 12,25.4994981 C12,20.2615368 16.4857748,16 21.9998669,16 C27.5136927,16 32,20.2615368 32,25.4994981 C32,30.7384632 27.5136927,35 21.9998669,35" id="Fill-76" fill="#000000"></path>
                    <path d="M41.92923,32.3257136 C37.813855,32.3257136 34.4771991,28.9887557 34.4771991,24.8731002 C34.4771991,20.7576918 37.813855,17.4209811 41.92923,17.4209811 C46.0451034,17.4209811 49.3817593,20.7576918 49.3817593,24.8731002 C49.3817593,28.9887557 46.0451034,32.3257136 41.92923,32.3257136 M42,16 C37.0291552,16 33,20.0294081 33,24.9998764 C33,29.9705919 37.0291552,34 42,34 C46.9703464,34 51,29.9705919 51,24.9998764 C51,20.0294081 46.9703464,16 42,16" id="Fill-78" fill="#75074E"></path>
                    <path d="M42.9243796,18.1648968 C38.7450208,18.1648968 35.3447652,21.3975619 35.3447652,25.3712656 C35.3447652,29.3449692 38.7450208,32.5776343 42.9243796,32.5776343 C47.104271,32.5776343 50.5045266,29.3449692 50.5045266,25.3712656 C50.5045266,21.3975619 47.104271,18.1648968 42.9243796,18.1648968 M42.9243796,33.2998521 C38.3224518,33.2998521 34.5784429,29.7432179 34.5784429,25.3712656 C34.5784429,20.9993132 38.3224518,17.44293 42.9243796,17.44293 C47.5268399,17.44293 51.2708489,20.9993132 51.2708489,25.3712656 C51.2708489,29.7432179 47.5268399,33.2998521 42.9243796,33.2998521 M43,16.7219669 C37.9084035,16.7219669 33.766056,20.6597855 33.766056,25.5 C33.766056,30.3399635 37.9084035,34.2780331 43,34.2780331 C48.0915965,34.2780331 52.233944,30.3399635 52.233944,25.5 C52.233944,20.6597855 48.0915965,16.7219669 43,16.7219669 M43,35 C37.4858345,35 33,30.7382122 33,25.5 C33,20.2615368 37.4858345,16 43,16 C48.5138992,16 53,20.2615368 53,25.5 C53,30.7382122 48.5138992,35 43,35" id="Fill-80" fill="#000000"></path>
                    <path d="M15,20 C15,20 15.0932619,19.8564534 15.2896426,19.6295248 C15.4862761,19.4040942 15.7809736,19.0895398 16.1820755,18.7620038 C16.3847748,18.6014812 16.607188,18.4302238 16.8566446,18.2679537 C17.1050902,18.1051843 17.374008,17.9411667 17.6687055,17.8016144 C17.959359,17.6548223 18.2732649,17.5307481 18.5955113,17.4151619 C18.9210433,17.3090622 19.2554213,17.2079554 19.5983926,17.1435466 C19.9403528,17.0748939 20.2878734,17.0391945 20.6298337,17.0154781 C20.8009402,17.0039943 20.9712885,17.0054922 21.1391093,17 C21.3069302,17.0017475 21.4727291,17.0104851 21.6354951,17.0154781 C21.9610271,17.036698 22.2736693,17.0756428 22.5665976,17.1303154 C22.7141991,17.1512857 22.8552292,17.1864858 22.9917101,17.2169427 C23.1279381,17.249147 23.2611333,17.2736124 23.3847243,17.3123076 C23.6346863,17.3822085 23.8629126,17.4468669 24.0587878,17.523758 C24.2564323,17.5954065 24.4295607,17.654323 24.5667998,17.7167346 C24.8422888,17.8363152 25,17.904968 25,17.904968 C25,17.904968 24.8364758,17.8525422 24.5503715,17.7604227 C24.4093414,17.7094949 24.2326745,17.6645585 24.0317444,17.6088874 C23.832078,17.5489723 23.6010716,17.5030374 23.3523732,17.4433719 C23.2287823,17.4106682 23.0960926,17.3929433 22.9608755,17.3679787 C22.8249002,17.3445119 22.6853864,17.3165516 22.5395542,17.302821 C22.2496588,17.2628776 21.9420715,17.2429059 21.6246272,17.2229342 C21.4656523,17.220937 21.3038973,17.2146958 21.140373,17.2154448 C20.9771016,17.2234335 20.8113026,17.2246817 20.645251,17.2381626 C20.3128949,17.2663726 19.9762422,17.307065 19.6456554,17.3779646 C19.3120356,17.4351336 18.9859981,17.5285013 18.6683011,17.6263627 C18.3533842,17.7337106 18.0457969,17.8497961 17.7604509,17.9883498 C17.184704,18.2552218 16.6764394,18.5662811 16.2659859,18.8676042 C15.8583127,19.1724224 15.5342971,19.4497795 15.3237628,19.6612299 C15.1101956,19.8691853 15,20 15,20" id="Fill-82" fill="#DD92C6"></path>
                    <path d="M36,20 C36,20 36.0930115,19.8562037 36.2893972,19.6292752 C36.4862884,19.4035949 36.7809933,19.0890405 37.1821054,18.7620038 C37.3845571,18.6009819 37.6072286,18.4299742 37.8564388,18.2677041 C38.1051434,18.1049347 38.374068,17.9406674 38.6685202,17.8013647 C38.9591811,17.6548223 39.2730949,17.5307481 39.5956022,17.4151619 C39.9208897,17.3085629 40.2552761,17.2077058 40.5980033,17.143297 C40.9402249,17.0743946 41.2880071,17.0386952 41.629976,17.0149788 C41.8008341,17.0037447 41.9711867,17.0049929 42.1390118,17 C42.3068369,17.0017475 42.47264,17.0104851 42.6354101,17.0152284 C42.9609503,17.0364484 43.2736004,17.0751435 43.5665361,17.1300657 C43.714394,17.151036 43.8549223,17.1862362 43.9916593,17.216693 C44.1278908,17.2488974 44.2610893,17.2733627 44.3846834,17.3120579 C44.6343991,17.3819589 44.8628839,17.4466173 45.0587641,17.5235084 C45.2564135,17.5954065 45.4292936,17.654323 45.5665361,17.716485 C45.8422848,17.8363152 46,17.9047183 46,17.9047183 C46,17.9047183 45.8364716,17.8522926 45.5503602,17.7601731 C45.4095792,17.7092452 45.2326551,17.6643089 45.03172,17.6086378 C44.8320485,17.5487226 44.6010363,17.5027877 44.3523316,17.4428726 C44.2287375,17.4106682 44.0962972,17.3929433 43.960824,17.3677291 C43.8248452,17.3440126 43.6853279,17.3163019 43.539492,17.3025714 C43.2495893,17.2626279 42.9419942,17.2426562 42.6245419,17.2226845 C42.465563,17.2206874 42.3038039,17.2144462 42.1402755,17.2154448 C41.9767471,17.2231838 41.8114495,17.2244321 41.6451409,17.237913 C41.3130292,17.2663726 40.9761153,17.3068153 40.64552,17.3779646 C40.3118918,17.4348839 39.9860988,17.528002 39.668141,17.6263627 C39.3532162,17.7337106 39.0458739,17.8495465 38.7602679,17.9878505 C38.1847593,18.2552218 37.676229,18.5662811 37.2657652,18.8673546 C36.8583344,19.1721728 36.5340579,19.4492802 36.323771,19.6609803 C36.1101984,19.8689357 36,20 36,20" id="Fill-84" fill="#DD92C6"></path>
                    <path d="M39.8807281,21.7840603 C41.8864644,20.3029784 44.7504398,20.9850451 46.178393,23.2834403 C47.6053681,25.5818355 47.1241675,28.7344052 45.1181866,30.2160175 C43.1134283,31.6970994 40.2492085,31.0147675 38.8214998,28.7163723 C37.3942801,26.4185075 37.8767033,23.2646119 39.8807281,21.7840603" id="Fill-86" fill="#030100"></path>
                    <path d="M39.1023367,28.5901294 C40.6067708,30.7688154 43.6613164,31.4243653 45.7741633,30.020208 C47.8870102,28.6155323 48.4008813,25.5887011 46.8967128,23.4092374 C45.3930754,21.2302922 42.3387954,20.5755199 40.2259485,21.9791588 C38.1123049,23.3835753 37.5984338,26.410925 39.1023367,28.5901294 M38.9060831,28.7202544 C37.3278216,26.4321804 37.8679838,23.2524135 40.085995,21.7782686 C42.3058651,20.3033462 45.515236,20.9912977 47.0929664,23.2796309 C48.6722903,25.5682232 48.1326592,28.7469533 45.9138513,30.2216166 C43.6937155,31.6967983 40.4864692,31.0085875 38.9060831,28.7202544" id="Fill-88" fill="#000000"></path>
                    <path d="M40.2550232,22.4698515 C41.591028,21.5820602 43.5004331,21.9909599 44.452997,23.37115 C45.4035481,24.7491299 45.0820012,26.6406289 43.7464995,27.5289113 C42.4082302,28.4186674 40.4998316,28.0087853 39.5482741,26.6303143 C38.5962134,25.2503697 38.9170055,23.3591164 40.2550232,22.4698515" id="Fill-90" fill="#230901"></path>
                    <path d="M39.281205,22.4869429 C40.6270213,21.5849907 42.5348297,21.9733033 43.470972,23.3435962 C44.4083921,24.7126309 44.0646543,26.6096499 42.7196047,27.5121055 C41.3737884,28.4150644 39.4647022,28.0272552 38.529071,26.6579688 C37.5911398,25.2881791 37.9358998,23.3904051 39.281205,22.4869429" id="Fill-92" fill="#FFFFFF"></path>
                    <g id="Group-96" transform="translate(39.000000, 27.000000)">
                        <mask id="mask-8" fill="white">
                            <use xlink:href="#path-7"></use>
                        </mask>
                        <g id="Clip-95"></g>
                        <path d="M3.79718833,0.18058433 C3.79718833,0.18058433 1.77492274,2.17434009 0.123671423,0.854358456 C0.123671423,0.854358456 1.55873558,3.14583371 3.12960048,2.19501505 C3.12960048,2.19501505 4.4312422,1.09028278 3.79718833,0.18058433" id="Fill-94" fill="#BBB0A9" mask="url(#mask-8)"></path>
                    </g>
                    <path d="M45.1791891,26.7757642 C45.4939468,27.0059068 46.116989,27.0694387 46.5703803,26.9169621 C47.0240413,26.7649138 47.1359731,26.4545353 46.8217548,26.2243926 C46.5056486,25.9935361 45.8831459,25.9308608 45.4294848,26.0830519 C44.9758238,26.235243 44.8636223,26.545907 45.1791891,26.7757642" id="Fill-97" fill="#FFFFFF"></path>
                    <path d="M42.0896127,29.7754159 C42.2467782,30.0059003 42.5586839,30.069553 42.7852156,29.9168378 C43.0119899,29.764636 43.0680165,29.4545856 42.910851,29.2243578 C42.753443,28.9938734 42.4415373,28.930734 42.2150056,29.0829358 C41.9879887,29.2351377 41.9317196,29.5454447 42.0896127,29.7754159" id="Fill-99" fill="#FFFFFF"></path>
                    <path d="M38.2431896,21.9998074 C38.2431896,22.001781 38.2442925,21.9879652 38.2462777,21.9868139 C38.2487041,21.9848402 38.2502482,21.9739849 38.2520128,21.957044 C38.2528951,21.9246426 38.2535569,21.8731621 38.2383368,21.8118132 C38.2248814,21.7499709 38.198853,21.6769443 38.1512077,21.6034243 C38.130032,21.5651018 38.0987096,21.5289174 38.0667255,21.4914173 C38.0351825,21.4534237 37.9921694,21.4205289 37.9531267,21.3831932 C37.8655564,21.3162521 37.7634278,21.2544098 37.6553436,21.204903 C37.5999779,21.1817122 37.5457152,21.1591792 37.4947612,21.1377975 C37.439175,21.1206922 37.3871181,21.1047382 37.3388111,21.089771 C37.242197,21.0560538 37.1548472,21.0455274 37.09507,21.0297379 C37.0346311,21.0167444 37,21.0091786 37,21.0091786 C37,21.0091786 37.0359546,21.0080273 37.0985993,21.0058891 C37.1614647,21.0060536 37.2538877,20.9947049 37.3630749,21.0030931 C37.4191022,21.0058891 37.4793206,21.0086852 37.5428477,21.0118102 C37.6068159,21.0198694 37.6743134,21.0292445 37.7440168,21.0381261 C37.8843057,21.0619749 38.0320944,21.1009553 38.1778979,21.1552318 C38.2460571,21.1864819 38.3199515,21.2157583 38.3836991,21.2537519 C38.4489908,21.2907586 38.5134002,21.3289167 38.567663,21.3726668 C38.6812617,21.4567132 38.7694938,21.550628 38.8336826,21.6361547 C38.8998566,21.7213524 38.9393405,21.8003 38.9653689,21.8583595 C38.9777214,21.8868135 38.9869858,21.9118136 38.9927209,21.93484 C38.9975736,21.950794 39,21.9595112 39,21.9595112 L38.2431896,21.9998074 Z" id="Fill-101" fill="#000000"></path>
                    <path d="M40.1764565,19.9774403 C40.175977,19.9792097 40.1790937,19.9671188 40.1814912,19.9659393 C40.1843683,19.9644648 40.1879645,19.9548806 40.1920403,19.9398408 C40.1987533,19.9112356 40.2088228,19.8653789 40.2021098,19.8094957 C40.1982738,19.7536125 40.18269,19.6866706 40.1431311,19.6173695 C40.1263486,19.5815394 40.0994965,19.5470363 40.0709662,19.5112061 C40.0433949,19.4747862 40.0021578,19.4423474 39.9664349,19.4060749 C39.8827619,19.3397228 39.7825462,19.276762 39.6751379,19.2242701 C39.6185567,19.1993512 39.5638936,19.1750221 39.5121074,19.152315 C39.4555263,19.1329991 39.4018221,19.1144205 39.3526732,19.0976113 C39.2534164,19.0600118 39.1611124,19.0440873 39.099017,19.0256561 C39.0359626,19.0091418 39,19 39,19 C39,19 39.0385999,19.0016219 39.1069288,19.004276 C39.1745385,19.0095842 39.2761928,19.0064878 39.3929513,19.0222648 C39.4526492,19.0290475 39.5171422,19.0358301 39.5854711,19.0437924 C39.6530808,19.0560307 39.7245265,19.0693011 39.7983697,19.0828664 C39.9450971,19.1144205 40.099017,19.160867 40.2469432,19.2201416 C40.3152721,19.2536125 40.3903141,19.2851666 40.4531287,19.3236508 C40.5173819,19.3616927 40.5797171,19.4007667 40.6312635,19.4438219 C40.7398705,19.5274255 40.8197075,19.6176644 40.8746104,19.6990563 C40.9321506,19.7800059 40.9609206,19.8531407 40.9796212,19.9069596 C40.9877727,19.9330581 40.9940062,19.9562076 40.9964037,19.9771454 C40.9988012,19.9917428 41,20 41,20 L40.1764565,19.9774403 Z" id="Fill-103" fill="#000000"></path>
                    <path d="M41.1562524,21.426323 C41.1545977,21.4289789 41.1673626,21.4100925 41.1699629,21.4097974 C41.1739815,21.4092072 41.1853281,21.3956325 41.2014024,21.3726146 C41.2316601,21.3283494 41.2787013,21.25723 41.3205419,21.1574857 C41.3642737,21.0598072 41.4084782,20.9361597 41.4337717,20.7927405 C41.4500825,20.7210309 41.4564649,20.6451898 41.4630838,20.5652174 C41.4706482,20.48554 41.4642657,20.4040921 41.4647385,20.3188078 C41.451028,20.1520755 41.4207704,19.9800315 41.3751475,19.8209719 C41.3486721,19.7412945 41.323615,19.6645682 41.299267,19.5919732 C41.2685366,19.5223293 41.2394609,19.4565217 41.2125127,19.3954358 C41.1612165,19.267952 41.0973918,19.1797167 41.0619336,19.1083022 C41.0222205,19.0395436 41,19 41,19 C41,19 41.0314396,19.0283297 41.0858088,19.0776116 C41.1382869,19.1298446 41.2257504,19.1906355 41.3101409,19.2936258 C41.354109,19.3440881 41.4025685,19.3980917 41.4533919,19.4556364 C41.4990147,19.5205587 41.5477106,19.5887271 41.5982976,19.661027 C41.6940347,19.8100531 41.7840985,19.9882943 41.8569059,20.1857171 C41.8866908,20.2869368 41.922149,20.389337 41.9422419,20.4961637 C41.9630441,20.60181 41.9829007,20.7092268 41.9890467,20.8154633 C42.0093761,21.0282314 41.9992114,21.2333268 41.9765182,21.4074366 C41.9559524,21.5821365 41.917894,21.7258509 41.8883455,21.8285461 C41.8734531,21.8790085 41.858797,21.9223884 41.8429591,21.9586858 C41.8323216,21.9858351 41.8268847,22 41.8268847,22 L41.1562524,21.426323 Z" id="Fill-105" fill="#000000"></path>
                    <path d="M43.1564489,21.4260279 C43.1545583,21.4289789 43.16732,21.4100925 43.1703923,21.4100925 C43.1741735,21.4095023 43.1852809,21.3959276 43.2013512,21.3723195 C43.2316011,21.3283494 43.2786303,21.25723 43.3204603,21.1577808 C43.3644173,21.0601023 43.4079016,20.9361597 43.4336613,20.7927405 C43.4499679,20.721326 43.4565851,20.6451898 43.4632023,20.5652174 C43.4707647,20.48554 43.4643839,20.403797 43.4646202,20.3188078 C43.4509132,20.1517804 43.4208996,19.9800315 43.375052,19.8209719 C43.3492923,19.7412945 43.3237689,19.6648633 43.2998998,19.5922683 C43.2691772,19.5223293 43.2393999,19.4568168 43.2124586,19.3954358 C43.1616481,19.2676569 43.097367,19.1797167 43.0619179,19.1083022 C43.0226875,19.0392485 43,19 43,19 C43,19 43.0316679,19.0280346 43.0860233,19.0773165 C43.1382517,19.1301397 43.2259293,19.1906355 43.3100619,19.2933307 C43.3542552,19.3440881 43.402466,19.3975015 43.4532765,19.4553413 C43.4991241,19.5205587 43.5475712,19.5890222 43.597909,19.6604367 C43.6943307,19.8100531 43.7836626,19.9885894 43.8569242,20.1857171 C43.8864651,20.2869368 43.9223869,20.389337 43.9420021,20.4952784 C43.9630353,20.6021051 43.9826505,20.7095219 43.988795,20.8157584 C44.0093555,21.0282314 43.9994298,21.2336219 43.9767423,21.4077317 C43.9559455,21.5824316 43.9183694,21.7258509 43.8881194,21.8288412 C43.8732308,21.8793036 43.8583421,21.9220933 43.8427445,21.959276 C43.8323461,21.98554 43.8269106,22 43.8269106,22 L43.1564489,21.4260279 Z" id="Fill-107" fill="#000000"></path>
                    <path d="M45.0002417,22.2680403 C44.9977626,22.2702778 45.0151158,22.2568525 45.0175948,22.2576916 C45.0218092,22.258251 45.0364354,22.2493008 45.0572592,22.2330785 C45.0979152,22.2017528 45.1603866,22.1516875 45.225337,22.0733731 C45.291279,21.9972963 45.362427,21.8974455 45.4194445,21.7741003 C45.4524156,21.7136864 45.4754705,21.6460004 45.4992691,21.5752377 C45.5245551,21.5047548 45.5359587,21.4278389 45.5550471,21.3498042 C45.5778542,21.1928958 45.5842996,21.0264777 45.5733919,20.8662129 C45.5644674,20.7859407 45.555295,20.7081857 45.5476101,20.6343464 C45.5310006,20.5602275 45.5161265,20.491143 45.5022439,20.4273727 C45.4784453,20.2947977 45.4325834,20.1943875 45.4115117,20.118031 C45.3874651,20.0430729 45.3733347,20 45.3733347,20 C45.3733347,20 45.3991166,20.0352415 45.4432432,20.0973336 C45.4851387,20.1616632 45.5600052,20.244173 45.6229724,20.3644415 C45.656935,20.4242961 45.6936246,20.4883461 45.7327931,20.5565915 C45.7647725,20.6304307 45.7984873,20.7081857 45.8341852,20.7887376 C45.8988877,20.9554354 45.9504514,21.1461868 45.9814392,21.3492448 C45.9883805,21.4510535 46.0027588,21.5559388 45.9995361,21.659146 C45.9978007,21.7629125 45.9938343,21.8672385 45.976977,21.9662502 C45.9509472,22.1676301 45.8959129,22.3522282 45.8349289,22.5041022 C45.7754323,22.6582137 45.7060197,22.7773634 45.6529686,22.8623905 C45.626443,22.9037852 45.6023965,22.9384673 45.5785979,22.9675555 C45.5622363,22.9888122 45.5530639,23 45.5530639,23 L45.0002417,22.2680403 Z" id="Fill-109" fill="#000000"></path>
                    <path d="M18.8808086,21.7840487 C20.8863269,20.3029887 23.7500955,20.9850454 25.1785565,23.2834066 C26.605306,25.5817678 26.124099,28.7345561 24.1183362,30.2161465 C22.1135515,31.6969413 19.2490494,31.0148847 17.8213218,28.7165235 C16.3943279,26.4186926 16.8767575,23.2651088 18.8808086,21.7840487" id="Fill-111" fill="#030100"></path>
                    <path d="M18.1022914,28.5899913 C19.6067678,30.7686363 22.6613992,31.4244331 24.7745711,30.020043 C26.8874774,28.6153937 27.4010974,25.5888787 25.8968866,23.4094561 C24.3932069,21.2302927 21.338841,20.5755328 19.2259347,21.9794044 C17.1119662,23.3837945 16.5983462,26.4108279 18.1022914,28.5899913 M17.9062978,28.7201138 C16.3277263,26.432083 16.8679037,23.2523759 19.0862428,21.7779996 C21.3059098,20.3033641 24.5153709,20.9915619 26.0931457,23.2795928 C27.6722484,25.568142 27.1326021,28.7470715 24.9137318,30.221707 C22.6935337,31.6968609 19.4864628,31.0084039 17.9062978,28.7201138" id="Fill-113" fill="#000000"></path>
                    <path d="M20.2550697,23.4699526 C21.5910818,22.5819301 23.5002456,22.9910688 24.4528146,24.3712365 C25.4036225,25.7489484 25.0820738,27.6409078 23.7463133,28.5289303 C22.4080368,29.4186719 20.4996279,29.0087965 19.5483168,27.6301022 C18.5959994,26.2506713 18.9172964,24.3594486 20.2550697,23.4699526" id="Fill-115" fill="#230901"></path>
                    <path d="M19.2812488,22.4870308 C20.6270476,21.5848699 22.5345756,21.9734156 23.4712168,23.3436432 C24.4081136,24.7126125 24.0648914,26.609541 22.7196037,27.5122052 C21.3735494,28.415121 19.4649991,28.0270786 18.528869,26.6578576 C17.5912055,25.288385 17.9359611,23.3901982 19.2812488,22.4870308" id="Fill-117" fill="#FFFFFF"></path>
                    <g id="Group-121" transform="translate(19.000000, 27.000000)">
                        <mask id="mask-10" fill="white">
                            <use xlink:href="#path-9"></use>
                        </mask>
                        <g id="Clip-120"></g>
                        <path d="M4.45370077,0.171165735 C4.45370077,0.171165735 2.13262048,2.16492149 0.237376388,0.845169583 C0.237376388,0.845169583 1.88394305,3.13664483 3.68746857,2.18582618 C3.68746857,2.18582618 5.18144393,1.08086418 4.45370077,0.171165735" id="Fill-119" fill="#BBB0A9" mask="url(#mask-10)"></path>
                    </g>
                    <path d="M25.1791141,26.7755414 C25.4938957,27.0059567 26.1172549,27.0694851 26.5704109,26.9168742 C27.0241064,26.7648343 27.1360467,26.4544732 26.8215348,26.2243433 C26.5059441,25.9936425 25.8828546,25.9308279 25.4296986,26.0830105 C24.9760031,26.2353359 24.8635233,26.5456971 25.1791141,26.7755414" id="Fill-122" fill="#FFFFFF"></path>
                    <path d="M22.0896064,29.7754561 C22.2470034,30.0058993 22.5586444,30.0695406 22.7854027,29.9168527 C23.0119185,29.7646781 23.0679411,29.4544267 22.9110293,29.2244968 C22.7533898,28.993797 22.4419912,28.9306689 22.2149904,29.0831002 C21.9879896,29.2352748 21.9317244,29.5455262 22.0896064,29.7754561" id="Fill-124" fill="#FFFFFF"></path>
                    <path d="M18.2431896,21.9998074 C18.2431896,22.0017808 18.2438513,21.9879669 18.2462777,21.9868157 C18.2487041,21.9848423 18.2502482,21.9739885 18.2517922,21.95705 C18.2526745,21.9244886 18.2535569,21.8733441 18.2383368,21.8118393 C18.2248814,21.7500055 18.198853,21.676989 18.1509871,21.6033147 C18.1298114,21.5651619 18.0989302,21.529147 18.0665049,21.4914876 C18.0351825,21.4534993 17.9921694,21.420609 17.9533473,21.3832785 C17.8655564,21.3163467 17.7632072,21.2545129 17.6555641,21.205013 C17.5997574,21.1818254 17.5454947,21.1592955 17.4947612,21.1379168 C17.439175,21.1209783 17.3873387,21.104862 17.3390317,21.0898969 C17.242197,21.0561844 17.1550678,21.0456595 17.09507,21.0300366 C17.0346311,21.0168804 17,21.0094801 17,21.0094801 C17,21.0094801 17.035734,21.0081645 17.0985993,21.0058622 C17.1614647,21.0061911 17.2538877,20.9946795 17.3630749,21.0030665 C17.4188817,21.0058622 17.4788795,21.0088223 17.5428477,21.0117824 C17.6070365,21.0201695 17.6740929,21.0292143 17.7437962,21.0384236 C17.8840851,21.0621046 18.0320944,21.1010796 18.1776773,21.1553487 C18.2458366,21.1867589 18.3199515,21.2160313 18.3836991,21.2536907 C18.4489908,21.2908567 18.5134002,21.3291739 18.567663,21.3727536 C18.6812617,21.4571173 18.7694938,21.5505257 18.8336826,21.636205 C18.8998566,21.7215554 18.9393405,21.8004921 18.9651483,21.858379 C18.9777214,21.8868292 18.9869858,21.9119903 18.9929414,21.9346846 C18.9975736,21.9509653 19,21.9595168 19,21.9595168 L18.2431896,21.9998074 Z" id="Fill-126" fill="#000000"></path>
                    <path d="M19.1765552,19.9774403 C19.1763155,19.9790622 19.1794319,19.9669714 19.1815894,19.9659393 C19.184466,19.9644648 19.1883016,19.955028 19.1918974,19.9398408 C19.1990891,19.9112356 19.2089177,19.8653789 19.2022054,19.8094957 C19.1986096,19.7534651 19.182788,19.6865231 19.1432338,19.6172221 C19.126693,19.5813919 19.0996045,19.5470363 19.0710776,19.5112061 C19.0432698,19.4747862 19.0022774,19.4421999 18.9665588,19.4060749 C18.8824164,19.3397228 18.7829318,19.276762 18.6750569,19.2242701 C18.6187223,19.1993512 18.5643054,19.1750221 18.5122857,19.1521675 C18.4557114,19.1329991 18.4020137,19.1142731 18.3526309,19.0974639 C18.2536258,19.0600118 18.1613329,19.0439398 18.0992449,19.0258036 C18.0364377,19.0091418 18,19 18,19 C18,19 18.038835,19.0014745 18.1071557,19.004276 C18.1745176,19.0094367 18.2763994,19.0063403 18.3929042,19.0222648 C18.4528347,19.0289 18.5173199,19.0358301 18.5854009,19.0437924 C18.6532422,19.0558832 18.7246794,19.0691536 18.7985137,19.0828664 C18.9454633,19.1144205 19.099125,19.1607196 19.2470334,19.2201416 C19.3151145,19.2536125 19.3901474,19.2850192 19.4531943,19.3235034 C19.5172,19.3616927 19.5800072,19.4007667 19.6313077,19.4436744 C19.7399017,19.5274255 19.8197291,19.6176644 19.8743857,19.6989089 C19.931919,19.7800059 19.9609253,19.8531407 19.9793839,19.9069596 C19.9880139,19.9330581 19.9937672,19.9562076 19.9964042,19.9771454 C19.9988014,19.9917428 20,20 20,20 L19.1765552,19.9774403 Z" id="Fill-128" fill="#000000"></path>
                    <path d="M21.1562633,21.426323 C21.1546085,21.4289789 21.1673743,21.4103876 21.1697384,21.4100925 C21.1739937,21.4095023 21.1851047,21.3956325 21.2014166,21.3729097 C21.2316763,21.3283494 21.2787208,21.25723 21.3200916,21.1577808 C21.3642992,21.0601023 21.4077976,20.9361597 21.4338021,20.7930356 C21.450114,20.7210309 21.4564969,20.6454849 21.4631163,20.5652174 C21.4704448,20.48554 21.4645347,20.403797 21.4650075,20.3185127 C21.4510596,20.1517804 21.4210363,19.9800315 21.3749374,19.8206768 C21.3489329,19.7415896 21.3236377,19.6648633 21.299288,19.5919732 C21.2685554,19.5223293 21.2394777,19.4565217 21.2125276,19.3954358 C21.1614642,19.2676569 21.0973986,19.1797167 21.0614651,19.1083022 C21.022222,19.0392485 21,19 21,19 C21,19 21.0312054,19.0280346 21.0855784,19.0776116 C21.1380602,19.1301397 21.2255298,19.1906355 21.3101626,19.2936258 C21.3541338,19.3440881 21.4023603,19.3980917 21.4534237,19.4553413 C21.4990497,19.5205587 21.5479854,19.5890222 21.5981032,19.661027 C21.693847,19.8100531 21.7839171,19.9882943 21.856966,20.1857171 C21.8865166,20.2869368 21.9222136,20.3890419 21.9420716,20.4961637 C21.963348,20.60181 21.9824968,20.7095219 21.9888797,20.8154633 C22.0094469,21.0285265 21.9992815,21.2336219 21.9763503,21.4077317 C21.9557831,21.5821365 21.9179584,21.7258509 21.8881714,21.8285461 C21.8735143,21.8790085 21.8588573,21.9220933 21.8427818,21.959276 C21.83238,21.9858351 21.8269427,22 21.8269427,22 L21.1562633,21.426323 Z" id="Fill-130" fill="#000000"></path>
                    <path d="M23.1560179,21.4262666 C23.1543632,21.4292179 23.1671283,21.4103296 23.1702014,21.4103296 C23.1737472,21.4094442 23.1853304,21.3958682 23.2011686,21.3725529 C23.2314266,21.3285785 23.2784683,21.2571569 23.3203095,21.1579931 C23.3642782,21.0600098 23.4077741,20.9363502 23.4335407,20.7929169 C23.450088,20.7212002 23.4564706,20.6453517 23.4630895,20.5650762 C23.4708904,20.4856862 23.4642715,20.4039351 23.4647443,20.3189375 C23.4507972,20.1515986 23.4205392,19.9798328 23.3749158,19.8207575 C23.3491492,19.7416626 23.3233826,19.6646335 23.2995071,19.5923266 C23.2687763,19.5226758 23.2392275,19.4562715 23.2122789,19.3954747 C23.1614549,19.2676832 23.0971566,19.1794393 23.061698,19.1083128 C23.0224571,19.0392523 23,19 23,19 C23,19 23.0312036,19.0280374 23.0858099,19.0773242 C23.1380522,19.1301525 23.2257532,19.1906542 23.3099083,19.2933596 C23.3541134,19.344122 23.4023371,19.3975406 23.4529247,19.4553861 C23.4990209,19.5206099 23.5477174,19.5890802 23.5978323,19.661092 C23.6940433,19.8101328 23.7836354,19.9883915 23.8566802,20.1858337 C23.886229,20.2870635 23.9223968,20.3894737 23.9420172,20.4954255 C23.963056,20.6022627 23.9826765,20.7096901 23.989059,20.815937 C24.0093886,21.0284309 23.9992238,21.2338416 23.9762939,21.4079685 C23.9557279,21.5823906 23.9183782,21.7258239 23.8878838,21.8291195 C23.8729911,21.8795868 23.8583349,21.9220856 23.8429695,21.959272 C23.8323319,21.9858337 23.8268949,22 23.8268949,22 L23.1560179,21.4262666 Z" id="Fill-132" fill="#000000"></path>
                    <path d="M25.0002448,22.2680403 C24.997766,22.2705575 25.0148701,22.2565728 25.017349,22.2579713 C25.0218109,22.258251 25.0361884,22.2493008 25.0572587,22.2330785 C25.0979121,22.2017528 25.1603795,22.1514078 25.2253258,22.0736528 C25.2912636,21.9972963 25.362407,21.8971658 25.4196688,21.7741003 C25.4521419,21.7139661 25.4754433,21.6462801 25.4992404,21.574958 C25.5245248,21.5044751 25.5356797,21.4281186 25.5550149,21.3500839 C25.5775725,21.1931755 25.5845134,21.0264777 25.5731106,20.8662129 C25.5641867,20.7862204 25.5552627,20.7081857 25.5473304,20.6343464 C25.5309699,20.5605072 25.5160967,20.491143 25.502215,20.4273727 C25.47817,20.294518 25.4325589,20.1943875 25.4114886,20.118031 C25.3874436,20.0433526 25.3730661,20 25.3730661,20 C25.3730661,20 25.3988463,20.0355212 25.443218,20.0976133 C25.484863,20.1613836 25.5602205,20.2444527 25.6231837,20.3641618 C25.6568962,20.4240164 25.6938313,20.4883461 25.7327495,20.5563118 C25.7647269,20.6304307 25.7984394,20.7081857 25.8336393,20.7887376 C25.8988335,20.9554354 25.950146,21.1461868 25.9813797,21.3495245 C25.9883205,21.4510535 26.0029458,21.5556591 25.9994754,21.6594257 C25.9977402,21.7631922 25.993774,21.8675182 25.9771656,21.9662502 C25.9508896,22.1676301 25.8956109,22.3522282 25.8351266,22.5041022 C25.775386,22.6582137 25.7062256,22.7773634 25.6531779,22.8623905 C25.6261583,22.9037852 25.6023612,22.938747 25.5785641,22.9675555 C25.5622036,22.9888122 25.5532797,23 25.5532797,23 L25.0002448,22.2680403 Z" id="Fill-134" fill="#000000"></path>
                    <path d="M58.0350808,30.9369429 C58.2767851,30.0881905 60.7625739,28.8806948 61.5039623,28.2432603 C64.014286,26.0838393 67.8992875,23.0498104 70.6457283,26.7078488 C72.7831714,29.5541776 72.4217082,33.8131048 69.3388247,35.8514531 C67.8660076,36.825256 64.6531626,39.56518 62.8142667,38.8959235 C61.3062264,38.346994 57.6012277,32.4624101 58.0350808,30.9369429" id="Fill-136" fill="#1E2303"></path>
                    <g id="Group-140" transform="translate(58.000000, 25.000000)">
                        <mask id="mask-12" fill="white">
                            <use xlink:href="#path-11"></use>
                        </mask>
                        <g id="Clip-139"></g>
                        <path d="M10.4689064,0.959107167 C8.27760917,0.959107167 5.7458434,3.12230047 4.52920597,4.1617207 C4.24798198,4.40207551 3.79252412,4.6851149 3.26457297,5.01312554 C2.55138895,5.45648616 1.22301185,6.28172129 1.10802249,6.68341363 C0.974784815,7.14837061 1.50123611,8.6903509 2.7648692,10.7379402 C4.01525352,12.7644412 5.22739137,14.0518385 5.73309458,14.2347724 C5.87758122,14.2871118 6.04381584,14.3137896 6.22679891,14.3137896 C7.62916916,14.3137896 9.70597702,12.8251651 11.0803499,11.8403709 C11.446816,11.5779116 11.7630367,11.3510228 12.0355115,11.1724082 C13.3411407,10.3151596 14.2068106,8.97897994 14.473286,7.41082994 C14.7635091,5.70217654 14.3222999,3.91907922 13.2631479,2.51811047 C12.4697213,1.4690354 11.5560559,0.959107167 10.4689064,0.959107167 M6.22679891,15.2668244 C5.93632578,15.2668244 5.66460092,15.2218532 5.41862368,15.132927 C3.71203157,14.5160332 -0.31809557,8.25257993 0.207605793,6.41688911 C0.408587198,5.71513436 1.39874559,5.05555604 2.77536823,4.19957786 C3.25032429,3.90485103 3.6987828,3.62613091 3.9257618,3.43201772 C6.0085691,1.65247744 8.24286239,0.00607238901 10.4689064,0.00607238901 C11.8475289,0.00607238901 13.0379188,0.655741791 14.0065791,1.93729536 C15.2252164,3.54889215 15.7319195,5.60283328 15.3972005,7.57292969 C15.0859793,9.40684199 14.072573,10.9694023 12.5442144,11.972998 C12.2879881,12.1411956 11.9790167,12.3627488 11.6207999,12.6193644 C10.0616941,13.7367857 7.92639166,15.2668244 6.22679891,15.2668244" id="Fill-138" fill="#000000" mask="url(#mask-12)"></path>
                    </g>
                    <path d="M60.4459306,32.8423134 C60.4459306,32.8423134 61.3377918,32 60.4459306,32 C59.8513565,32 59.8513565,32.8423134 60.4459306,32.8423134 C60.4459306,32.8423134 59.8513565,32.8423134 60.4459306,32.8423134" id="Fill-141" fill="#626B20"></path>
                    <path d="M60.4459306,32.8423134 C60.4459306,32.8423134 61.3377918,32 60.4459306,32 C59.8513565,32 59.8513565,32.8423134 60.4459306,32.8423134 C60.4459306,32.8423134 59.8513565,32.8423134 60.4459306,32.8423134" id="Fill-143" fill="#626B20"></path>
                    <path d="M62.739266,31.843551 C63.5592714,30.832477 64.443002,30.0936271 65.5877778,30.1585303 C66.1385447,30.1902128 66.1362689,29.0357983 65.5877778,29.0047309 C64.2190538,28.9269087 63.1166096,29.8180195 62.1352431,31.0271865 C61.72763,31.5294937 62.3332461,32.3433975 62.739266,31.843551" id="Fill-145" fill="#626B20"></path>
                    <path d="M3.52889444,31 C3.52889444,31 4.23408704,30 3.52889444,30 C2.82370185,30 2.82370185,31 3.52889444,31 C3.52889444,31 2.82370185,31 3.52889444,31" id="Fill-147" fill="#626B20"></path>
                    <path d="M3.52889444,31 C3.52889444,31 4.23408704,30 3.52889444,30 C2.82370185,30 2.82370185,31 3.52889444,31 C3.52889444,31 2.82370185,31 3.52889444,31" id="Fill-149" fill="#626B20"></path>
                    <path d="M2.65698762,30.0981821 C2.10847721,30.9638236 1.95296817,32.145368 2.01162509,33.5256165 C2.03836173,34.155455 2.51825718,34.160795 2.49124772,33.5256165 C2.44964223,32.5455867 2.49247542,31.593381 2.89911792,30.9517383 C3.14111182,30.5697881 2.90266462,29.7106108 2.65698762,30.0981821" id="Fill-151" fill="#626B20"></path>
                    <path d="M29.4045383,35.5437154 C30.7190766,36.0746551 32.6262237,36.0841944 33.6219143,35.8660447 C35.0619939,35.5502423 36.6737816,34.2933084 35.706169,32.7562191 C35.1840254,31.9262963 34.2547502,31.8939127 33.3422138,32.1200955 C32.1526767,32.4150621 31.4998622,32.2626836 30.3456927,32.0515629 C29.3713306,31.8730768 28.3599811,32.400753 28.0867601,33.3228058 C27.7554932,34.4446827 28.4110075,35.142812 29.4045383,35.5437154" id="Fill-153" fill="#231F20"></path>
                    <path d="M29.0384083,33.6939272 C29.2040131,33.3570336 29.8674137,33.089672 30.2025488,33.0241774 C30.5602553,32.9544211 31.2138423,33.0313549 31.4699777,33.3106042 C31.4797914,33.3218191 31.9788139,33.1580825 32.0094815,33.1515779 C32.3826443,33.0710554 32.7705276,33.0430183 33.149088,33.1116531 C34.1091053,33.2850344 34.3041509,34.1093247 33.4903566,34.5920111 C32.290887,35.3030315 30.2506356,35.0314082 29.2035224,34.18895 C28.9908122,34.0178116 28.9621074,33.8484676 29.0384083,33.6939272" id="Fill-155" fill="#C4DF48"></path>
                    <path d="M33.2985193,33.8560463 C33.4269562,33.8038261 33.5326642,33.7957444 33.640176,33.9381065 C33.7435389,34.0754952 33.9073321,33.9654599 33.9670408,33.7907711 C34.0393768,33.5781605 33.9845386,33.363685 33.8811757,33.2269179 C33.6773361,32.9558706 33.4107212,32.9648848 33.1711647,33.0621758 C32.8711778,33.1834012 32.9985324,33.9775824 33.2985193,33.8560463" id="Fill-157" fill="#EEEEB1"></path>
                    <path d="M30.3270769,33.9563218 C30.4901281,33.8370591 30.6709847,33.7957975 30.8429386,33.7319269 C31.1180977,33.6296209 31.0013735,32.9078267 30.7267089,33.0098501 C30.5130443,33.0895471 30.308777,33.161896 30.1066529,33.3094201 C29.9970178,33.3896823 29.9737719,33.6629693 30.0283421,33.8217979 C30.0939583,34.0142575 30.2174419,34.036584 30.3270769,33.9563218" id="Fill-159" fill="#EEEEB1"></path>
                    <path d="M29.5920515,21.9364371 C29.5920515,21.9364371 31.6313134,21.2333378 33.1446009,22 L34,20.530499 C34,20.530499 30.644721,19.3806359 29,20.4666756 L29.5920515,21.9364371 Z" id="Fill-161" fill="#75074E"></path>
                    <path d="M32.3983003,20.7428097 C33.0804533,20.7428097 33.6946176,20.8390487 34.2291785,21.0287611 L34.7776204,20.1803097 C34.1291785,20.0188053 32.9416431,19.7693584 31.7906516,19.7693584 C31.0674221,19.7693584 30.4699717,19.8661504 30.0087819,20.0572456 L30.4223796,20.9820243 C30.8339943,20.8841261 31.5705382,20.7428097 32.3983003,20.7428097 Z M34.533711,22 L34.2186969,21.8564712 C33.7186969,21.6283186 33.105949,21.5124447 32.3983003,21.5124447 C31.2844193,21.5124447 30.3263456,21.8042035 30.3164306,21.806969 L29.9784703,21.9112279 L29,19.7262168 L29.294051,19.5514381 C29.9096317,19.1852876 30.7495751,19 31.7906516,19 C33.6090652,19 35.4359773,19.5572456 35.5130312,19.5807522 L36,19.7311947 L34.533711,22 Z" id="Fill-163" fill="#000000"></path>
                </g>
            </g>
        </g>
    </g>
</svg>